<?xml version="1.0" encoding="utf-8"?>
<!-- Generator: Adobe Illustrator 23.0.2, SVG Export Plug-In . SVG Version: 6.00 Build 0)  -->
<svg version="1.1" id="Layer_1" xmlns="http://www.w3.org/2000/svg" xmlns:xlink="http://www.w3.org/1999/xlink" x="0px" y="0px"
	 viewBox="0 0 929 929" style="enable-background:new 0 0 929 929;" xml:space="preserve">
<style type="text/css">
	.st0{fill:#F3F5F6;}
	.st1{opacity:0.3;fill:none;stroke:url(#SVGID_1_);stroke-width:3;enable-background:new    ;}
	.st2{opacity:0.15;fill:none;stroke:url(#back_1_);stroke-width:3;enable-background:new    ;}
	.st3{opacity:0.7;}
	.st4{fill:#FFFFFF;}
	.st5{fill:none;stroke:#FFFFFF;stroke-width:7;}
	.st6{fill:#7367F0;}
	.st7{fill:#FFFFFF;filter:url(#Adobe_OpacityMaskFilter);}
	.st8{mask:url(#mask0_7_135_1_);}
	.st9{fill:#263238;}
	.st10{fill:#FFB573;}
	.st11{opacity:0.2;fill:#FFFFFF;enable-background:new    ;}
	.st12{opacity:0.2;enable-background:new    ;}
	.st13{fill:#ED893E;}
	.st14{fill:#FFFFFF;filter:url(#Adobe_OpacityMaskFilter_1_);}
	.st15{mask:url(#mask1_7_135_1_);}
	.st16{fill:#7F3E3B;}
	.st17{opacity:0.5;enable-background:new    ;}
	.st18{fill:#630F0F;}
	.st19{fill:#FFFFFF;filter:url(#Adobe_OpacityMaskFilter_2_);}
	.st20{mask:url(#mask2_7_135_1_);}
	.st21{fill:#FF8B7B;}
	.st22{fill:#FF5652;}
</style>
<path class="st0" d="M457.4,734.1c142.7,0,258.4-115.7,258.4-258.4S600.1,217.3,457.4,217.3S199,333,199,475.7
	S314.7,734.1,457.4,734.1z"/>
<linearGradient id="SVGID_1_" gradientUnits="userSpaceOnUse" x1="846.2639" y1="362.7976" x2="80.9282" y2="567.8685" gradientTransform="matrix(1 0 0 -1 0 930)">
	<stop  offset="0" style="stop-color:#8815E2"/>
	<stop  offset="1" style="stop-color:#FFFFFF"/>
</linearGradient>
<path class="st1" d="M361.6,845.2C151.1,788.8,26.1,572.7,82.4,362.5C138.7,152.3,355,27.7,565.6,84.1
	c210.5,56.4,335.6,272.5,279.3,482.7C788.5,777,572.2,901.6,361.6,845.2z"/>
<linearGradient id="back_1_" gradientUnits="userSpaceOnUse" x1="464" y1="896.5" x2="464" y2="35.5" gradientTransform="matrix(1 0 0 -1 0 930)">
	<stop  offset="0" style="stop-color:#8815E2"/>
	<stop  offset="1" style="stop-color:#FFFFFF"/>
</linearGradient>
<path id="back" class="st2" d="M464,893c236.9,0,429-192.1,429-429S700.9,35,464,35S35,227.1,35,464S227.1,893,464,893z"/>
<g class="st3">
	<path class="st4" d="M461.5,804.3c191.4,0,346.6-155.2,346.6-346.6S652.9,111.2,461.5,111.2S115,266.4,115,457.8
		S270.1,804.3,461.5,804.3z"/>
</g>
<path class="st5" d="M780,458c0,176.2-142.6,319-318.5,319S143,634.2,143,458s142.6-319,318.5-319S780,281.8,780,458z"/>
<g>
	<path class="st6" d="M547.6,594c-1.8,0-3.8-0.4-5.6-1.3L317.1,485.4c-4.6-2.2-7.4-6.8-7.4-11.7c0-5.1,2.9-9.6,7.4-11.7l225.1-107.3
		c6.5-3.1,14.3-0.4,17.3,6.1c3.1,6.5,0.4,14.3-6.1,17.3L353,473.6l200.3,95.5c6.5,3.1,9.2,10.8,6.1,17.3
		C557.3,591.2,552.6,594,547.6,594z"/>
	<path class="st6" d="M616.4,433l-0.9-0.9c3.8-3.9,7.3-8.2,10.4-12.8l1,0.8C623.8,424.6,620.3,428.9,616.4,433z"/>
	<path class="st6" d="M547.8,457.6c50.4,0,91.2-40.8,91.2-91.2c0-50.4-40.8-91.2-91.2-91.2c-50.4,0-91.2,40.8-91.2,91.2
		C456.6,416.8,497.4,457.6,547.8,457.6z"/>
	<path class="st4" d="M547.8,437.8c39.4,0,71.4-32,71.4-71.4c0-39.4-32-71.4-71.4-71.4c-39.4,0-71.4,32-71.4,71.4
		C476.4,405.8,508.3,437.8,547.8,437.8z"/>
	<defs>
		<filter id="Adobe_OpacityMaskFilter" filterUnits="userSpaceOnUse" x="478.7" y="306.9" width="120.5" height="161.9">
			<feColorMatrix  type="matrix" values="1 0 0 0 0  0 1 0 0 0  0 0 1 0 0  0 0 0 1 0"/>
		</filter>
	</defs>
	<mask maskUnits="userSpaceOnUse" x="478.7" y="306.9" width="120.5" height="161.9" id="mask0_7_135_1_">
		<path class="st7" d="M547.8,437.8c39.4,0,71.4-32,71.4-71.4c0-39.4-32-71.4-71.4-71.4c-39.4,0-71.4,32-71.4,71.4
			C476.4,405.8,508.3,437.8,547.8,437.8z"/>
	</mask>
	<g class="st8">
		<path class="st9" d="M549.6,406.4c0,0,25.7,5.3,39.6,3.1c13.9-2.2,12.4-20.8,1.3-30.2c-11.1-9.4-8.5-7.2-5.9-16.9
			c2.6-9.8-3.3-17.6-14.5-18c-11.2-0.4-0.4-14.3-11.7-29.8c-11.3-15.5-31.7-3.8-33.1,3.1c-6.4,0.3-13,10.5-8.3,19.9
			c4.7,9.4-1.3,11.9-5.1,23.1c-3.8,11.2,11.2,13.4,7.8,21C516.6,389.5,516.4,414.6,549.6,406.4z"/>
		<path class="st10" d="M524.7,387.1c-0.3,3.9-0.7,7.6-1.2,11.3c-0.5,3.8-1.2,7.4-2.1,11.1c-0.8,3.6-1.7,7.3-2.9,10.9
			c-1,3.6-2.3,7.3-3.9,10.8l-1.2,2.6c-0.1,0.4-0.5,1-0.8,1.4c-0.3,0.5-0.5,0.9-0.8,1.4c-1.2,1.8-2.5,3.4-3.6,5
			c-2.6,3-5.3,5.6-8.1,8.2c-5.7,4.9-11.5,9.4-17.8,13.4l-3.6-4.7c2.6-2.5,5.1-4.9,7.7-7.6c2.5-2.5,4.9-5.1,7.3-7.8
			c2.3-2.6,4.6-5.3,6.5-7.9c0.9-1.3,1.8-2.7,2.5-4c0.1-0.3,0.4-0.7,0.5-0.9c0.1-0.3,0.3-0.5,0.4-1l0.9-2.3c2.3-6.4,4-13.2,5.3-20.1
			c0.7-3.4,1.2-6.9,1.7-10.4c0.5-3.4,0.9-7,1.2-10.4L524.7,387.1z"/>
		<path class="st6" d="M516.6,372.9c-4.8,1.2-8.2,21-8.2,21l13.3,9c0,0,12.8-19.9,9-25.3C526.9,372.1,523.7,371.1,516.6,372.9z"/>
		<path class="st11" d="M516.6,372.9c-4.8,1.2-8.2,21-8.2,21l13.3,9c0,0,12.8-19.9,9-25.3C526.9,372.1,523.7,371.1,516.6,372.9z"/>
		<path class="st12" d="M517,377.3l-3.6,19.9l7.4,5.1L517,377.3z"/>
		<path class="st6" d="M516.6,372.9c0,0-5.6,2,5.6,70.5c18.8,0,38.2,0,47.4,0c-0.8-19.3-0.8-31.1,8.3-70.7c0,0-9.9-2.2-20.1-2.6
			c-7.9-0.4-14.5-0.7-21.5,0C527,370.7,516.6,372.9,516.6,372.9z"/>
		<path class="st11" d="M516.6,372.9c0,0-5.6,2,5.6,70.5c18.8,0,38.2,0,47.4,0c-0.8-19.3-0.8-31.1,8.3-70.7c0,0-9.9-2.2-20.1-2.6
			c-7.9-0.4-14.5-0.7-21.5,0C527,370.7,516.6,372.9,516.6,372.9z"/>
		<path class="st10" d="M555.7,345.7c-1.3,6.9-2.7,19.7,2.1,24.2c0,0-2,7-14.7,7c-14.2,0-6.8-7-6.8-7c7.7-1.8,7.6-7.6,6.1-12.9
			L555.7,345.7z"/>
		<path class="st10" d="M557.9,369.9c-7.9-0.4-14.5-0.7-21.5,0c-0.5,0-0.9,0.1-1.4,0.1c-2.9,3.4,0.7,7.7,3.6,10.7
			c0,0,17.2-2.7,22-10.7C559.7,370,558.8,369.9,557.9,369.9z"/>
		<path class="st12" d="M550.4,350.2l-7.8,6.6c0.3,1.3,0.5,2.6,0.7,3.8c3.5,0,6.6-2.5,7.9-6.6C551.5,352.7,550.6,351,550.4,350.2z"
			/>
		<path class="st10" d="M556.1,327.3c2.5,11.3,3.8,16-0.3,23.3c-6,10.9-20.4,11.5-26.2,1.2c-5.2-9.4-8.3-26.3,1.3-33.7
			C540.3,310.6,553.6,316,556.1,327.3z"/>
		<path class="st9" d="M539.2,335.3c0.3,0.9,0,1.8-0.7,2c-0.7,0.1-1.3-0.4-1.6-1.3c-0.3-0.9,0-1.8,0.7-2
			C538.2,333.7,538.9,334.4,539.2,335.3z"/>
		<path class="st9" d="M529,338.1c0.3,0.9,0,1.8-0.7,2c-0.7,0.1-1.3-0.4-1.6-1.3c-0.3-0.9,0-1.8,0.7-2
			C528.1,336.6,528.7,337.2,529,338.1z"/>
		<path class="st9" d="M527.7,336.7h-2.3C525.4,336.7,526.9,338.1,527.7,336.7z"/>
		<path class="st13" d="M532.6,338.9c0,0-0.4,4.3-1.6,6.6c1.6,0.8,3.4-0.3,3.4-0.3L532.6,338.9z"/>
		<path class="st9" d="M540.3,347.4c-0.4,0.1-0.8,0.4-1.3,0.5c-0.1,0-0.3,0-0.4-0.1c0-0.1,0-0.3,0.1-0.4c4-1.2,5.1-4.4,5.1-4.4
			c0-0.1,0.3-0.3,0.4-0.1c0.1,0,0.3,0.3,0.1,0.4C544.4,343.2,543.6,345.9,540.3,347.4z"/>
		<path class="st9" d="M528,319.5c-2.5,2.9,24.5,17.3,30,14.7c5.5-2.6,0.5-17.1-6.4-20.2C544.6,310.9,535.4,310.9,528,319.5z"/>
		<path class="st10" d="M562,336.6c-0.1,2.3-1.4,4.4-3,5.7c-2.3,2-4.7,0.1-5-2.6c-0.4-2.5,0.4-6.5,3.3-7.3
			C560,331.6,562.2,333.8,562,336.6z"/>
		<path class="st9" d="M542.7,332c-0.3,0.1-0.5,0-0.7-0.1c-1.7-1.8-4.9-1.4-5.1-1.4c-0.3,0-0.5-0.1-0.7-0.5c0-0.3,0.1-0.5,0.5-0.7
			c0.1,0,3.9-0.5,6,1.8c0.3,0.3,0.1,0.5,0,0.8C542.8,331.9,542.8,332,542.7,332z"/>
		<path class="st9" d="M524.6,334.2c-0.1,0.1-0.4,0.1-0.5,0c-0.3-0.1-0.3-0.5-0.1-0.8c1.7-2.5,4.3-2.5,4.4-2.5
			c0.3,0,0.5,0.3,0.5,0.5c0,0.3-0.3,0.5-0.5,0.5c-0.1,0-2.1,0-3.5,2C524.7,334.1,524.7,334.2,524.6,334.2z"/>
		<path class="st10" d="M583.1,385c2.7,6.8,5.1,13.5,7,20.5c2,6.9,3.5,14.1,4.2,21.6c0.1,0.9,0.1,2,0.1,2.9v0.8c0,0.3,0,0.4,0,0.8v1
			l-0.1,0.9c-0.3,2.3-0.8,4.2-1.3,6c-1.2,3.6-2.5,7-3.9,10.3c-2.9,6.6-6.3,12.9-9.9,19l-5.3-2.5c2.2-6.5,4.6-13.2,6.6-19.7
			c1-3.3,2-6.5,2.6-9.6c0.4-1.6,0.7-3.1,0.7-4.3v-0.4V432c0,0,0-0.3,0-0.5v-0.7c-0.1-0.8-0.1-1.6-0.3-2.3c-0.9-6.4-2.7-13-4.7-19.4
			c-2-6.5-4.3-13-6.6-19.3L583.1,385z"/>
		<path class="st6" d="M578,372.5c4.7,1.4,10.4,17.8,10.4,17.8L570,403.5c0,0-6.8-13.7-4.7-19.8C567.4,377.3,572.5,371,578,372.5z"
			/>
		<path class="st11" d="M578,372.5c4.7,1.4,10.4,17.8,10.4,17.8L570,403.5c0,0-6.8-13.7-4.7-19.8C567.4,377.3,572.5,371,578,372.5z"
			/>
		<path class="st9" d="M538,333.8h-2.3C535.6,333.8,537.2,335.3,538,333.8z"/>
	</g>
	<path class="st6" d="M258.6,404.3l-0.9-0.9c6.5-6,13.7-11.1,21.5-15.1l0.7,1.2C272.1,393.5,265,398.4,258.6,404.3z"/>
	<path class="st6" d="M248.6,415.1l-1-0.8c1.6-2.1,3.3-4,5.1-5.9l0.9,0.9C251.8,411.2,250.1,413.2,248.6,415.1z"/>
	<path class="st6" d="M322.7,564.8c50.4,0,91.2-40.8,91.2-91.2s-40.8-91.2-91.2-91.2c-50.4,0-91.2,40.8-91.2,91.2
		S272.3,564.8,322.7,564.8z"/>
	<path class="st4" d="M322.7,545c39.4,0,71.4-32,71.4-71.4c0-39.4-32-71.4-71.4-71.4c-39.4,0-71.4,32-71.4,71.4
		C251.3,513,283.3,545,322.7,545z"/>
	<defs>
		<filter id="Adobe_OpacityMaskFilter_1_" filterUnits="userSpaceOnUse" x="270.7" y="412.2" width="145.8" height="161.8">
			<feColorMatrix  type="matrix" values="1 0 0 0 0  0 1 0 0 0  0 0 1 0 0  0 0 0 1 0"/>
		</filter>
	</defs>
	<mask maskUnits="userSpaceOnUse" x="270.7" y="412.2" width="145.8" height="161.8" id="mask1_7_135_1_">
		<path class="st14" d="M322.7,545c39.4,0,71.4-32,71.4-71.4c0-39.4-32-71.4-71.4-71.4c-39.4,0-71.4,32-71.4,71.4
			C251.3,513,283.3,545,322.7,545z"/>
	</mask>
	<g class="st15">
		<path class="st16" d="M354.9,493c3.4,7.8,6.8,15.6,10.3,23.4c1.7,3.9,3.5,7.8,5.3,11.6c1.8,3.8,3.6,7.6,5.6,11.3
			c1,1.8,2,3.6,3,5.3l0.8,1.3l0.4,0.7l-0.1-0.1c-0.1-0.1,0,0.1,0.4,0.4c0.8,0.5,2.3,1,4,1.4c1.7,0.4,3.6,0.5,5.6,0.8
			c3.9,0.3,8.1,0.3,12.2,0.1l6.3-0.3l6.3-0.4l1.6,7.6c-8.6,2.7-17.2,4.7-26.6,5.3c-2.3,0.1-4.8,0.1-7.3-0.1c-2.6-0.3-5.2-0.7-8.3-2
			c-1.6-0.7-3.3-1.7-4.8-3.5c-0.4-0.4-0.8-0.9-1.2-1.4l-0.5-0.8l-0.9-1.4c-1.3-2-2.5-3.9-3.6-5.7c-4.6-7.7-8.6-15.5-12.4-23.4
			c-3.8-7.9-7.3-15.9-10.7-24.1L354.9,493z"/>
		<path class="st6" d="M336.4,492c-3.1,9.2,15.4,36.5,15.4,36.5l17.8-9.9c0,0-4.8-13.8-10.7-24.7C352.6,481.9,339.9,481.8,336.4,492
			z"/>
		<path class="st17" d="M336.4,492c-3.1,9.2,15.4,36.5,15.4,36.5l17.8-9.9c0,0-4.8-13.8-10.7-24.7
			C352.6,481.9,339.9,481.8,336.4,492z"/>
		<path class="st12" d="M336.1,493.1c4-2,8.6-0.3,13.4,7.3c4.8,7.6,9,20.3,9.4,24l-7.2,3.9C351.9,528.3,334.7,503.3,336.1,493.1z"/>
		<path class="st6" d="M348.5,484.8c0,0,13.3,31.1,3.6,89.2c-16.7,0-47.2,0-55.2,0c-0.7-8.5,3.3-49.9-6.4-89.7c0,0,9.4-2,18.4-2.3
			c7-0.4,17.2-0.5,23.4,0C340.7,482.7,348.5,484.8,348.5,484.8z"/>
		<path class="st17" d="M348.5,484.8c0,0,13.3,31.1,3.6,89.2c-16.7,0-47.2,0-55.2,0c-0.7-8.5,3.3-49.9-6.4-89.7c0,0,9.4-2,18.4-2.3
			c7-0.4,17.2-0.5,23.4,0C340.7,482.7,348.5,484.8,348.5,484.8z"/>
		<path class="st4" d="M332.7,524.8L320.9,512l8.6-12.8l11.9,12.8L332.7,524.8z"/>
		<path class="st12" d="M302.9,494.2c1.2,6.5-0.4,22.3-6,40.5c-0.5-13.9-2-30.2-5.5-46.4v-0.1C295.1,487.8,301.8,488.1,302.9,494.2z
			"/>
		<path class="st16" d="M310.3,455.5c1.7,7.6,3.6,21.4-1.4,26.4c0,0,3.3,7.6,17.3,7.7c11.2,0,6.3-7.7,6.3-7.7
			c-8.5-2-8.5-8.2-7.3-14.1L310.3,455.5z"/>
		<path class="st12" d="M316.4,460.6l8.7,7.3c-0.3,1.4-0.5,2.7-0.5,4.2c-3.3-0.5-7.8-4-8.2-7.4C316.2,462.9,316.2,461.4,316.4,460.6
			z"/>
		<path class="st9" d="M332.3,433.1c4.7,3,5.3,17.6-1.6,19.7C324,454.8,323.5,427.4,332.3,433.1z"/>
		<path class="st16" d="M307,447.7c3.1,9.8,4.4,15.6,10.8,19.7c9.5,6,20.7-1.3,20.6-11.7c-0.1-9.4-5.2-23.8-16-25.7
			C311.7,428.3,303.9,437.9,307,447.7z"/>
		<path class="st9" d="M310.6,437.5c5.2,7,5.2,18.4,1.2,19.5c-4,1.3-15.4-11.7-15.9-18.6c-0.5-5.6,3.3-5.6,3.3-5.6s-6-3.5,0.8-7.7
			c7.7-4.7,26.7-4.3,18.1-10.8c6.1-2.1,8.6,2,8.2,4.3c4.6-1.4,4.3-6.4,4.3-6.4s12.1,6.8,6.6,14.7
			C331.7,434.9,321.6,437.4,310.6,437.5z"/>
		<path class="st16" d="M305.4,459.5c2,2,4.7,2.9,7,2.9c3.4,0,4.2-3.3,2.3-6c-1.7-2.5-5.3-5.3-8.5-4
			C303.3,453.7,303,457.3,305.4,459.5z"/>
		<path class="st9" d="M322.9,447.2c0.3,0.8,0.8,1.4,1.3,1.3c0.5-0.1,0.8-0.9,0.7-1.7c-0.3-0.8-0.8-1.4-1.3-1.3
			C322.9,445.6,322.7,446.2,322.9,447.2z"/>
		<path class="st9" d="M332.1,445.1c0.3,0.8,0.8,1.4,1.3,1.3c0.5-0.1,0.8-0.9,0.7-1.7c-0.3-0.8-0.8-1.4-1.3-1.3
			C332.2,443.5,331.9,444.3,332.1,445.1z"/>
		<path class="st18" d="M329.3,446.1c0,0,3,4.3,5.6,6c-1,1.7-3.6,1.6-3.6,1.6L329.3,446.1z"/>
		<path class="st9" d="M327.8,456.7c-2.9,0-4.6-1.6-4.7-1.7c-0.1-0.1-0.1-0.3,0-0.4c0.1-0.1,0.3-0.1,0.4,0c0,0,2.3,2.1,5.9,1.3
			c0.1,0,0.3,0,0.3,0.1c0,0.1,0,0.3-0.1,0.3C328.8,456.7,328.3,456.7,327.8,456.7z"/>
		<path class="st9" d="M319.3,444.8c-0.1,0-0.1,0-0.1,0c-0.3-0.1-0.4-0.4-0.3-0.7c1-2.5,3.3-2.9,3.4-2.9c0.3,0,0.5,0.1,0.5,0.4
			c0,0.3-0.1,0.5-0.4,0.5c-0.1,0-1.8,0.3-2.6,2.2C319.7,444.7,319.4,444.8,319.3,444.8z"/>
		<path class="st9" d="M335.2,441c-0.1,0-0.3,0-0.4-0.1c-1.4-1.7-3.1-1.6-3.3-1.6c-0.3,0-0.5-0.1-0.5-0.4c0-0.3,0.1-0.5,0.4-0.5
			c0.1,0,2.3-0.1,4,2c0.1,0.3,0.1,0.5,0,0.7C335.4,441,335.3,441,335.2,441z"/>
		<path class="st16" d="M301.4,499.3l-2.1,4.6c-0.7,1.6-1.4,3.1-2.1,4.8c-1.3,3.3-2.6,6.4-3.9,9.6c-1.2,3.3-2.3,6.5-3.3,9.8
			c-0.5,1.6-0.9,3.3-1.3,4.8l-0.5,2.5l-0.1,0.3v0.1c0,0,0,0,0,0.1c0,0.4,0.3,1.6,0.9,2.7c0.7,1.2,1.4,2.5,2.3,3.8
			c1.8,2.6,4.2,5.1,6.5,7.7c4.8,4.9,10,9.9,15.4,14.6L309,571c-6.6-3.6-12.9-7.6-18.9-12.4c-3-2.3-5.9-5-8.6-8.1
			c-1.4-1.6-2.7-3.3-3.9-5.1c-1.2-2-2.5-4.2-3-7.4c-0.1-0.8-0.3-1.7-0.3-2.6c0-0.4,0-0.9,0.1-1.4v-0.5v-0.4l0.4-3
			c0.4-2,0.7-3.9,1-5.7c0.8-3.8,1.8-7.6,3-11.1c1.2-3.6,2.5-7.2,3.9-10.7c0.8-1.7,1.4-3.5,2.2-5.2c0.8-1.7,1.6-3.4,2.6-5.2
			L301.4,499.3z"/>
		<path class="st6" d="M290.5,484.3c-9.8,1.4-19.8,37.3-19.8,37.3l23.4,9c0,0,5.9-15.4,9.9-27.4
			C308.5,490.7,300.9,482.8,290.5,484.3z"/>
		<path class="st17" d="M290.5,484.3c-9.8,1.4-19.8,37.3-19.8,37.3l23.4,9c0,0,5.9-15.4,9.9-27.4
			C308.5,490.7,300.9,482.8,290.5,484.3z"/>
	</g>
	<path class="st6" d="M547.8,672.1c50.4,0,91.2-40.8,91.2-91.2c0-50.4-40.8-91.2-91.2-91.2c-50.4,0-91.2,40.8-91.2,91.2
		C456.6,631.3,497.4,672.1,547.8,672.1z"/>
	<path class="st4" d="M547.8,652.3c39.4,0,71.4-32,71.4-71.4c0-39.4-32-71.4-71.4-71.4c-39.4,0-71.4,32-71.4,71.4
		C476.4,620.3,508.3,652.3,547.8,652.3z"/>
	<defs>
		<filter id="Adobe_OpacityMaskFilter_2_" filterUnits="userSpaceOnUse" x="469.1" y="523.1" width="122.8" height="143.9">
			<feColorMatrix  type="matrix" values="1 0 0 0 0  0 1 0 0 0  0 0 1 0 0  0 0 0 1 0"/>
		</filter>
	</defs>
	<mask maskUnits="userSpaceOnUse" x="469.1" y="523.1" width="122.8" height="143.9" id="mask2_7_135_1_">
		<path class="st19" d="M547.8,652.3c39.4,0,71.4-32,71.4-71.4c0-39.4-32-71.4-71.4-71.4c-39.4,0-71.4,32-71.4,71.4
			C476.4,620.3,508.3,652.3,547.8,652.3z"/>
	</mask>
	<g class="st20">
		<path class="st21" d="M522.5,604.6c-0.3,3.9-0.7,7.4-1.2,11.1c-0.5,3.6-1.2,7.3-2,10.8c-1.6,7.2-3.6,14.3-6.5,21.2l-1.2,2.6
			l-0.3,0.7l-0.1,0.3c0,0.1-0.1,0.1-0.3,0.4c-0.4,0.8-0.8,1.6-1.6,2.3c-0.7,0.8-1.6,1.4-2.5,2c-1,0.5-2.1,0.8-3,0.9
			c-2,0.3-3.5-0.1-4.8-0.5c-2.5-0.8-4.3-2-6-3.1c-1.7-1.2-3.1-2.5-4.6-3.6c-5.6-5.2-10.2-10.7-14.5-16.7l4.4-3.8
			c2.5,2.3,5.1,4.7,7.7,7c2.6,2.3,5.3,4.4,7.9,6.4c1.3,0.9,2.7,1.8,4,2.6c1.3,0.8,2.6,1.3,3.5,1.6c0.4,0.1,0.7,0,0.5,0
			c-0.1,0-0.8,0.3-1,0.4c-0.1,0.1-0.1,0.1-0.1,0l0.4-1l0.9-2.3c2.2-6.3,3.9-12.9,5.2-19.7c0.7-3.4,1.2-6.8,1.7-10.2
			c0.5-3.4,0.9-6.9,1.2-10.2L522.5,604.6z"/>
		<path class="st9" d="M514.4,590.4c-4.8,1.2-8.1,20.8-8.1,20.8l13.2,9c0,0,12.6-19.8,9-25.1C524.6,589.8,521.4,588.6,514.4,590.4z"
			/>
		<path class="st12" d="M514.9,594.9l-3.8,19.8l7.4,5.1L514.9,594.9z"/>
		<path class="st21" d="M478.9,628.5l-6.3-9.9l-3.5,11.2c0,0,5.1,5.3,9.8,4.2V628.5z"/>
		<path class="st9" d="M514.4,590.4c0,0-5.5,2,5.6,69.9c18.6,0,38,0,47.2,0c-0.8-19.1-0.8-31,8.3-70.3c0,0-9.9-2.1-20.1-2.6
			c-7.9-0.4-14.5-0.7-21.4,0C524.8,588.4,514.4,590.4,514.4,590.4z"/>
		<path class="st9" d="M524.8,540.3c16.8-27,66.8-4.8,40.8,21.8C530.8,597.5,524.8,540.3,524.8,540.3z"/>
		<path class="st9" d="M536,578.5c-1.8,0-3.5-0.4-4.9-1.3c-10.4-6.5-5.2-34-5-35.2c0-0.3,0.3-0.4,0.5-0.4c0.3,0,0.4,0.3,0.4,0.5
			c0,0.3-5.3,28,4.6,34.1c4.8,3,12.5,0.4,22.8-7.6c0.3-0.1,0.5-0.1,0.7,0.1c0.1,0.3,0.1,0.5-0.1,0.7
			C547.2,575.5,541,578.5,536,578.5z"/>
		<path class="st9" d="M556.5,532.6c5.2-15.8,33.1-10.7,23.3,6C569.4,556.4,556.5,532.6,556.5,532.6z"/>
		<path class="st21" d="M553.4,563.3c-1.3,6.9-2.7,19.5,2.1,24.1c0,0-1.8,7-14.7,7c-14.1,0-6.8-7-6.8-7c7.7-1.8,7.4-7.6,6.1-12.9
			L553.4,563.3z"/>
		<path class="st6" d="M539.8,594.5c0,0,3.3,3.1,4.7,7.2c2.5-0.9,15.1-7.8,15.4-14.3c-1.6-0.5-5.1-1-5.1-1S549.5,591.6,539.8,594.5z
			"/>
		<path class="st6" d="M539.8,594.5c0,0-2.9,3-4.7,7.2c-3.5-2.2-7.3-7-4.6-13.9c2-0.9,5.9-1,5.9-1S530.2,591.6,539.8,594.5z"/>
		<path class="st12" d="M548,568l-7.8,6.6c0.3,1.3,0.5,2.6,0.7,3.8c3-0.4,6.9-3.6,7.3-6.8C548.3,570.1,548.3,568.7,548,568z"/>
		<path class="st21" d="M560.5,550.8c-2.7,11.2-3.6,16-10.3,20.7c-10.2,7.2-23.3,1.4-24-10.3c-0.7-10.5,3.9-27.1,15.8-29.7
			C553.7,529.1,563.3,539.6,560.5,550.8z"/>
		<path class="st9" d="M541.5,549.3c-0.1,0.9-0.8,1.6-1.4,1.4c-0.7-0.1-0.9-0.9-0.8-1.8c0.1-0.9,0.8-1.6,1.4-1.4
			C541.4,547.5,541.8,548.4,541.5,549.3z"/>
		<path class="st9" d="M531.2,547.5c-0.1,0.9-0.8,1.6-1.4,1.4c-0.7-0.1-0.9-0.9-0.8-1.8c0.1-0.9,0.8-1.6,1.4-1.4
			C531,545.6,531.3,546.5,531.2,547.5z"/>
		<path class="st9" d="M530.6,545.6l-2.1-1C528.5,544.6,529.4,546.5,530.6,545.6z"/>
		<path class="st22" d="M534.9,551.1c0,0-2.2,3.6-4.3,5.3c1,1.3,3.1,1.2,3.1,1.2L534.9,551.1z"/>
		<path class="st9" d="M538,561.9c3.4,0,5.3-2,5.3-2.1c0.1-0.1,0.1-0.3,0-0.4c-0.1-0.1-0.3-0.1-0.4,0c0,0-2.5,2.5-6.5,1.8
			c-0.1,0-0.3,0.1-0.3,0.3s0.1,0.3,0.3,0.3C536.9,561.9,537.5,561.9,538,561.9z"/>
		<path class="st9" d="M565.1,554.1c-5.7,9.6-21.2-10.6-23.8-20.2c-3.8,1.8-11.6,7.4-11.7,3.8c-0.1-3.6,13.2-9.8,20.2-8.7
			C556.9,530.1,569.1,547.5,565.1,554.1z"/>
		<path class="st21" d="M562.3,559.7c-0.9,2.2-2.7,3.8-4.6,4.6c-2.7,1-4.4-1.3-3.9-4c0.4-2.5,2.3-6,5.2-6
			C562,554.4,563.4,557.2,562.3,559.7z"/>
		<path class="st9" d="M545.2,545.2c0.1,0,0.1,0,0.3,0c0.3-0.1,0.4-0.5,0.3-0.8c-1.4-2.7-3.9-3-4-3c-0.3,0-0.5,0.1-0.7,0.5
			c0,0.3,0.1,0.5,0.5,0.7c0.1,0,2.1,0.3,3.1,2.5C544.8,545.1,544.9,545.2,545.2,545.2z"/>
		<path class="st9" d="M528.7,543.4c0.1,0,0.3,0,0.4-0.1c1.7-1.8,3.6-1.4,3.6-1.4c0.3,0,0.5-0.1,0.7-0.4c0-0.3-0.1-0.5-0.4-0.7
			c-0.1,0-2.6-0.5-4.7,1.7c-0.3,0.3-0.3,0.5,0,0.8C528.3,543.4,528.5,543.4,528.7,543.4z"/>
		<path class="st9" d="M541,547.5l-2.1-1C538.9,546.4,539.8,548.4,541,547.5z"/>
		<path class="st21" d="M580.6,602.5c2.6,6.4,4.8,12.8,6.6,19.3c1.8,6.5,3.5,13.2,4.3,20.3l0.3,2.6l0.1,2.7v0.7v0.1v0.3v0.8
			c-0.1,0.9-0.3,1.8-0.7,2.7c-0.7,1.6-1.4,2.7-2.3,3.6c-1.7,1.8-3.4,3-5.1,3.9c-1.7,0.9-3.4,1.7-5.1,2.3c-6.6,2.6-13.3,4-20.1,5.1
			l-1.3-5.7c6-2.3,12.1-4.8,17.5-7.7c1.3-0.8,2.6-1.6,3.8-2.3c1.2-0.8,2.1-1.7,2.5-2.3c0.3-0.3,0.3-0.5,0.3-0.5s-0.1,0.1-0.1,0.3
			v-0.1V648l-0.3-2.2l-0.4-2.2c-0.3-1.6-0.5-3-0.9-4.6c-0.4-1.6-0.7-3.1-1.2-4.6c-0.8-3.1-1.7-6.1-2.6-9.2c-2-6.1-4-12.2-6.4-18.2
			L580.6,602.5z"/>
		<path class="st9" d="M575.5,590.2c4.7,1.4,10.4,17.7,10.4,17.7l-18.4,13c0,0-6.6-13.5-4.7-19.7C565,594.9,570,588.5,575.5,590.2z"
			/>
	</g>
</g>
</svg>
