<svg width="929" height="929" viewBox="0 0 929 929" fill="none" xmlns="http://www.w3.org/2000/svg">
<path d="M457.396 734.061C600.09 734.061 715.766 618.385 715.766 475.691C715.766 332.997 600.09 217.321 457.396 217.321C314.702 217.321 199.026 332.997 199.026 475.691C199.026 618.385 314.702 734.061 457.396 734.061Z" fill="#F3F5F6"/>
<path opacity="0.3" d="M361.627 845.22C151.083 788.805 26.062 572.691 82.377 362.52C138.693 152.348 355.021 27.6986 565.565 84.114C776.109 140.529 901.13 356.643 844.815 566.814C788.5 776.986 572.171 901.635 361.627 845.22Z" stroke="url(#paint0_linear_7_135)" stroke-width="3"/>
<path opacity="0.15" d="M464 893C700.93 893 893 700.93 893 464C893 227.07 700.93 35 464 35C227.07 35 35 227.07 35 464C35 700.93 227.07 893 464 893Z" stroke="url(#paint1_linear_7_135)" stroke-width="3"/>
<g opacity="0.7" class="sit">
<path d="M461.53 804.337C652.93 804.337 808.09 649.177 808.09 457.777C808.09 266.377 652.93 111.217 461.53 111.217C270.13 111.217 114.97 266.377 114.97 457.777C114.97 649.177 270.13 804.337 461.53 804.337Z" fill="white"/>
</g>
<path d="M780 458C780 634.184 637.398 777 461.5 777C285.602 777 143 634.184 143 458C143 281.816 285.602 139 461.5 139C637.398 139 780 281.816 780 458Z" stroke="white" stroke-width="7"/>
<path d="M589.434 600.358C587.386 600.358 585.192 599.919 583.145 598.896L330.582 478.537C325.464 476.051 322.246 470.932 322.246 465.375C322.246 459.672 325.464 454.553 330.582 452.213L583.291 331.708C590.603 328.199 599.378 331.27 602.742 338.582C606.252 345.894 603.18 354.669 595.868 358.032L370.945 465.229L595.868 572.426C603.18 575.935 606.252 584.564 602.742 591.876C600.256 597.287 594.991 600.358 589.434 600.358Z" fill="#7367F0"/>
<path d="M666.65 419.601L665.627 418.577C669.868 414.19 673.816 409.364 677.326 404.246L678.496 405.123C674.986 410.242 671.038 415.068 666.65 419.601Z" fill="#7367F0"/>
<path d="M589.58 447.241C646.118 447.241 691.95 401.408 691.95 344.871C691.95 288.333 646.118 242.5 589.58 242.5C533.042 242.5 487.209 288.333 487.209 344.871C487.209 401.408 533.042 447.241 589.58 447.241Z" fill="#7367F0"/>
<path d="M589.58 425.012C633.841 425.012 669.721 389.132 669.721 344.871C669.721 300.61 633.841 264.729 589.58 264.729C545.319 264.729 509.438 300.61 509.438 344.871C509.438 389.132 545.319 425.012 589.58 425.012Z" fill="white"/>
<mask id="mask0_7_135" style="mask-type:luminance" maskUnits="userSpaceOnUse" x="509" y="264" width="161" height="162">
<path d="M589.58 425.012C633.841 425.012 669.721 389.132 669.721 344.871C669.721 300.61 633.841 264.729 589.58 264.729C545.319 264.729 509.438 300.61 509.438 344.871C509.438 389.132 545.319 425.012 589.58 425.012Z" fill="white"/>
</mask>
<g mask="url(#mask0_7_135)">
<path d="M591.627 389.768C591.627 389.768 620.437 395.764 636.085 393.277C651.733 390.791 649.978 369.878 637.548 359.349C625.117 348.819 628.042 351.305 630.967 340.337C633.892 329.369 627.311 320.594 614.734 320.155C602.157 319.717 614.295 304.069 601.572 286.666C588.849 269.263 566.035 282.425 564.426 290.176C557.26 290.468 549.802 302.021 555.066 312.551C560.331 323.08 553.604 325.859 549.363 338.436C545.122 351.013 561.94 353.499 558.137 361.981C554.628 370.756 554.335 398.981 591.627 389.768Z" fill="#263238"/>
<path d="M563.695 368.124C563.402 372.511 562.963 376.606 562.379 380.847C561.794 385.088 561.062 389.183 560.039 393.277C559.161 397.372 558.137 401.467 556.821 405.562C555.651 409.657 554.189 413.752 552.434 417.7L551.118 420.625C550.971 421.064 550.533 421.795 550.24 422.234C549.948 422.819 549.655 423.257 549.363 423.842C548.047 425.89 546.584 427.645 545.268 429.4C542.343 432.763 539.272 435.688 536.201 438.613C529.766 444.17 523.331 449.143 516.165 453.676L512.071 448.411C514.996 445.633 517.774 442.854 520.699 439.929C523.478 437.151 526.256 434.226 528.889 431.155C531.521 428.23 534.007 425.159 536.201 422.234C537.225 420.771 538.248 419.163 538.98 417.7C539.126 417.408 539.418 416.969 539.564 416.676C539.711 416.384 539.857 416.092 540.003 415.507L541.027 412.874C543.659 405.708 545.56 398.104 547.023 390.353C547.754 386.55 548.339 382.602 548.924 378.653C549.509 374.851 549.948 370.756 550.24 366.954L563.695 368.124Z" fill="#FFB573"/>
<path d="M554.628 352.183C549.217 353.499 545.414 375.728 545.414 375.728L560.331 385.819C560.331 385.819 574.663 363.444 570.422 357.448C566.181 351.305 562.525 350.135 554.628 352.183Z" fill="#7367F0"/>
<path opacity="0.2" d="M554.628 352.183C549.217 353.499 545.414 375.728 545.414 375.728L560.331 385.819C560.331 385.819 574.663 363.444 570.422 357.448C566.181 351.305 562.525 350.135 554.628 352.183Z" fill="white"/>
<path opacity="0.2" d="M555.066 357.155L550.971 379.531L559.307 385.234L555.066 357.155Z" fill="black"/>
<path d="M554.628 352.183C554.628 352.183 548.339 354.376 560.916 431.301C581.975 431.301 603.766 431.301 614.149 431.301C613.271 409.657 613.271 396.348 623.508 351.89C623.508 351.89 612.394 349.404 600.987 348.965C592.066 348.527 584.754 348.234 576.857 348.965C566.327 349.697 554.628 352.183 554.628 352.183Z" fill="#7367F0"/>
<path opacity="0.2" d="M554.628 352.183C554.628 352.183 548.339 354.376 560.916 431.301C581.975 431.301 603.766 431.301 614.149 431.301C613.271 409.657 613.271 396.348 623.508 351.89C623.508 351.89 612.394 349.404 600.987 348.965C592.066 348.527 584.754 348.234 576.857 348.965C566.327 349.697 554.628 352.183 554.628 352.183Z" fill="white"/>
<path d="M598.501 321.618C597.038 329.369 595.43 343.701 600.841 348.819C600.841 348.819 598.647 356.716 584.315 356.716C568.375 356.716 576.71 348.819 576.71 348.819C585.339 346.772 585.193 340.337 583.584 334.341L598.501 321.618Z" fill="#FFB573"/>
<path d="M600.987 348.819C592.066 348.381 584.754 348.088 576.857 348.819C576.272 348.819 575.833 348.966 575.248 348.966C572.031 352.768 575.979 357.594 579.343 360.958C579.343 360.958 598.647 357.887 604.058 348.966C603.034 348.966 602.011 348.819 600.987 348.819Z" fill="#FFB573"/>
<path opacity="0.2" d="M592.505 326.737L583.73 334.195C584.023 335.657 584.315 337.12 584.461 338.436C588.41 338.436 591.92 335.657 593.382 330.978C593.821 329.515 592.797 327.614 592.505 326.737Z" fill="black"/>
<path d="M598.939 300.998C601.718 313.721 603.18 318.986 598.647 327.175C591.92 339.46 575.687 340.045 569.252 328.491C563.402 317.962 559.892 298.95 570.714 290.614C581.244 282.278 596.161 288.274 598.939 300.998Z" fill="#FFB573"/>
<path d="M579.928 309.919C580.22 310.942 579.928 311.966 579.197 312.112C578.465 312.258 577.734 311.673 577.442 310.65C577.149 309.626 577.442 308.602 578.173 308.456C578.904 308.164 579.635 308.895 579.928 309.919Z" fill="#263238"/>
<path d="M568.521 313.136C568.813 314.16 568.521 315.183 567.79 315.329C567.058 315.476 566.327 314.891 566.035 313.867C565.742 312.843 566.035 311.82 566.766 311.673C567.497 311.381 568.228 312.112 568.521 313.136Z" fill="#263238"/>
<path d="M567.058 311.527H564.426C564.426 311.527 566.181 313.136 567.058 311.527Z" fill="#263238"/>
<path d="M572.616 314.013C572.616 314.013 572.177 318.839 570.861 321.472C572.616 322.349 574.663 321.179 574.663 321.179L572.616 314.013Z" fill="#ED893E"/>
<path d="M581.244 323.519C580.805 323.665 580.366 323.958 579.781 324.104C579.635 324.104 579.489 324.104 579.343 323.958C579.343 323.811 579.343 323.665 579.489 323.519C584.023 322.203 585.193 318.547 585.193 318.547C585.193 318.4 585.485 318.254 585.631 318.4C585.777 318.4 585.924 318.693 585.777 318.839C585.777 318.839 584.9 321.91 581.244 323.519Z" fill="#263238"/>
<path d="M567.351 292.223C564.572 295.44 594.845 311.673 600.987 308.748C607.129 305.823 601.572 289.59 593.821 286.081C586.07 282.571 575.687 282.571 567.351 292.223Z" fill="#263238"/>
<path d="M605.52 311.381C605.374 314.013 603.912 316.353 602.157 317.815C599.524 320.009 596.892 317.962 596.599 314.891C596.161 312.112 597.038 307.578 600.256 306.701C603.327 305.823 605.813 308.31 605.52 311.381Z" fill="#FFB573"/>
<path d="M583.876 306.262C583.584 306.408 583.291 306.262 583.145 306.116C581.244 304.069 577.588 304.507 577.442 304.507C577.149 304.507 576.857 304.361 576.71 303.922C576.71 303.63 576.857 303.337 577.295 303.191C577.442 303.191 581.683 302.606 584.023 305.239C584.315 305.531 584.169 305.824 584.023 306.116C584.023 306.116 584.023 306.262 583.876 306.262Z" fill="#263238"/>
<path d="M563.548 308.749C563.402 308.895 563.11 308.895 562.964 308.749C562.671 308.602 562.671 308.164 562.817 307.871C564.718 305.093 567.643 305.093 567.79 305.093C568.082 305.093 568.375 305.385 568.375 305.677C568.375 305.97 568.082 306.262 567.79 306.262C567.643 306.262 565.45 306.262 563.841 308.456C563.695 308.602 563.695 308.749 563.548 308.749Z" fill="#263238"/>
<path d="M629.212 365.783C632.283 373.388 634.915 380.993 637.109 388.744C639.303 396.495 641.058 404.538 641.789 413.02C641.935 414.044 641.935 415.214 641.935 416.238V417.115C641.935 417.407 641.935 417.554 641.935 417.992V419.162L641.789 420.186C641.496 422.819 640.911 424.866 640.326 426.913C639.01 431.008 637.548 434.81 635.939 438.467C632.722 445.925 628.919 452.945 624.825 459.818L618.829 457.04C621.315 449.727 623.947 442.269 626.287 434.957C627.457 431.301 628.481 427.645 629.212 424.135C629.651 422.38 629.943 420.625 629.943 419.309V418.87V418.577C629.943 418.577 629.943 418.285 629.943 417.992V417.261C629.797 416.384 629.797 415.506 629.651 414.629C628.627 407.463 626.579 400.004 624.386 392.839C622.192 385.526 619.56 378.214 616.927 371.194L629.212 365.783Z" fill="#FFB573"/>
<path d="M623.508 351.744C628.773 353.353 635.208 371.779 635.208 371.779L614.587 386.55C614.587 386.55 606.983 371.194 609.323 364.321C611.663 357.155 617.366 349.989 623.508 351.744Z" fill="#7367F0"/>
<path opacity="0.2" d="M623.508 351.744C628.773 353.353 635.208 371.779 635.208 371.779L614.587 386.55C614.587 386.55 606.983 371.194 609.323 364.321C611.663 357.155 617.366 349.989 623.508 351.744Z" fill="white"/>
<path d="M578.612 308.31H575.979C575.979 308.31 577.734 309.918 578.612 308.31Z" fill="#263238"/>
</g>
<path d="M264.919 387.427L263.895 386.404C271.207 379.677 279.251 373.973 288.025 369.439L288.756 370.756C280.128 375.289 272.085 380.846 264.919 387.427Z" fill="#7367F0"/>
<path d="M253.658 399.566L252.488 398.688C254.243 396.348 256.144 394.155 258.191 392.107L259.215 393.131C257.314 395.178 255.413 397.372 253.658 399.566Z" fill="#7367F0"/>
<path d="M336.871 567.6C393.408 567.6 439.241 521.767 439.241 465.229C439.241 408.691 393.408 362.858 336.871 362.858C280.333 362.858 234.5 408.691 234.5 465.229C234.5 521.767 280.333 567.6 336.871 567.6Z" fill="#7367F0"/>
<path d="M336.871 545.371C381.132 545.371 417.012 509.49 417.012 465.229C417.012 420.968 381.132 385.088 336.871 385.088C292.61 385.088 256.729 420.968 256.729 465.229C256.729 509.49 292.61 545.371 336.871 545.371Z" fill="white"/>
<mask id="mask1_7_135" style="mask-type:luminance" maskUnits="userSpaceOnUse" x="256" y="385" width="162" height="161">
<path d="M336.871 545.371C381.132 545.371 417.012 509.49 417.012 465.229C417.012 420.968 381.132 385.088 336.871 385.088C292.61 385.088 256.729 420.968 256.729 465.229C256.729 509.49 292.61 545.371 336.871 545.371Z" fill="white"/>
</mask>
<g mask="url(#mask1_7_135)">
<path d="M372.993 487.02C376.795 495.794 380.598 504.569 384.546 513.343C386.447 517.731 388.495 522.118 390.542 526.359C392.59 530.6 394.637 534.841 396.831 539.082C398.001 541.13 399.024 543.177 400.194 545.078L401.072 546.541L401.51 547.272L401.364 547.126C401.218 546.979 401.364 547.272 401.803 547.564C402.68 548.149 404.435 548.734 406.337 549.173C408.238 549.612 410.431 549.758 412.625 550.051C417.012 550.343 421.692 550.343 426.372 550.197L433.392 549.904L440.411 549.466L442.166 557.948C432.514 561.019 422.862 563.213 412.333 563.944C409.7 564.09 406.921 564.09 404.143 563.798C401.218 563.505 398.293 563.066 394.783 561.604C393.028 560.873 391.127 559.703 389.372 557.655C388.934 557.217 388.495 556.632 388.056 556.047L387.471 555.169L386.447 553.56C384.985 551.367 383.669 549.173 382.353 547.126C377.234 538.497 372.7 529.723 368.459 520.802C364.218 511.881 360.27 502.96 356.467 493.747L372.993 487.02Z" fill="#7F3E3B"/>
<path d="M352.226 485.85C348.716 496.233 369.483 526.798 369.483 526.798L389.518 515.683C389.518 515.683 384.107 500.182 377.526 487.897C370.507 474.589 356.175 474.443 352.226 485.85Z" fill="#7367F0"/>
<path opacity="0.5" d="M352.226 485.85C348.716 496.233 369.483 526.798 369.483 526.798L389.518 515.683C389.518 515.683 384.107 500.182 377.526 487.897C370.507 474.589 356.175 474.443 352.226 485.85Z" fill="black"/>
<path opacity="0.2" d="M351.934 487.166C356.467 484.972 361.586 486.874 366.997 495.356C372.408 503.838 377.088 518.17 377.526 522.264L369.483 526.652C369.629 526.652 350.325 498.573 351.934 487.166Z" fill="black"/>
<path d="M365.827 477.806C365.827 477.806 380.744 512.758 369.922 577.983C351.203 577.983 316.981 577.983 307.914 577.983C307.183 568.477 311.57 521.972 300.748 477.221C300.748 477.221 311.278 475.027 321.369 474.589C329.266 474.15 340.673 474.004 347.693 474.589C357.052 475.466 365.827 477.806 365.827 477.806Z" fill="#7367F0"/>
<path opacity="0.5" d="M365.827 477.806C365.827 477.806 380.744 512.758 369.922 577.983C351.203 577.983 316.981 577.983 307.914 577.983C307.183 568.477 311.57 521.972 300.748 477.221C300.748 477.221 311.278 475.027 321.369 474.589C329.266 474.15 340.673 474.004 347.693 474.589C357.052 475.466 365.827 477.806 365.827 477.806Z" fill="black"/>
<path d="M348.131 522.703L334.823 508.371L344.475 494.039L357.784 508.371L348.131 522.703Z" fill="white"/>
<path opacity="0.2" d="M314.642 488.336C315.958 495.648 314.203 513.344 307.914 533.818C307.329 518.17 305.721 499.889 301.772 481.755V481.609C305.867 481.17 313.472 481.462 314.642 488.336Z" fill="black"/>
<path d="M322.977 444.901C324.879 453.384 327.072 468.885 321.369 474.589C321.369 474.589 325.025 483.071 340.819 483.217C353.396 483.217 347.839 474.589 347.839 474.589C338.333 472.395 338.333 465.375 339.649 458.795L322.977 444.901Z" fill="#7F3E3B"/>
<path opacity="0.2" d="M329.851 450.605L339.649 458.795C339.357 460.403 339.064 461.866 339.064 463.474C335.408 462.889 330.29 458.941 329.851 455.139C329.558 453.237 329.558 451.482 329.851 450.605Z" fill="black"/>
<path d="M347.693 419.748C352.958 423.111 353.689 439.491 345.938 441.831C338.333 444.17 337.748 413.313 347.693 419.748Z" fill="#263238"/>
<path d="M319.321 436.127C322.831 447.095 324.294 453.676 331.46 458.21C342.135 464.937 354.712 456.747 354.566 445.048C354.42 434.518 348.716 418.285 336.578 416.238C324.586 414.336 315.812 425.159 319.321 436.127Z" fill="#7F3E3B"/>
<path d="M323.27 424.72C329.12 432.617 329.12 445.34 324.586 446.656C320.053 448.119 307.329 433.494 306.744 425.743C306.16 419.455 310.401 419.455 310.401 419.455C310.401 419.455 303.673 415.506 311.278 410.827C319.906 405.562 341.258 406 331.606 398.688C338.479 396.348 341.258 400.882 340.819 403.514C345.938 401.906 345.645 396.348 345.645 396.348C345.645 396.348 359.246 403.953 353.104 412.874C346.962 421.795 335.701 424.573 323.27 424.72Z" fill="#263238"/>
<path d="M317.42 449.435C319.614 451.629 322.685 452.652 325.317 452.652C329.12 452.652 329.997 448.996 327.95 445.925C326.049 443.147 321.954 439.929 318.444 441.392C315.08 442.854 314.788 446.949 317.42 449.435Z" fill="#7F3E3B"/>
<path d="M337.163 435.542C337.456 436.419 338.041 437.151 338.626 437.004C339.211 436.858 339.503 435.981 339.357 435.103C339.064 434.226 338.479 433.495 337.894 433.641C337.163 433.787 336.871 434.518 337.163 435.542Z" fill="#263238"/>
<path d="M347.4 433.202C347.693 434.079 348.278 434.811 348.863 434.664C349.448 434.518 349.74 433.641 349.594 432.763C349.301 431.886 348.716 431.154 348.132 431.301C347.547 431.447 347.254 432.324 347.4 433.202Z" fill="#263238"/>
<path d="M344.329 434.372C344.329 434.372 347.693 439.198 350.618 441.099C349.448 443 346.523 442.854 346.523 442.854L344.329 434.372Z" fill="#630F0F"/>
<path d="M342.574 446.218C339.357 446.218 337.456 444.463 337.309 444.316C337.163 444.17 337.163 444.024 337.309 443.878C337.456 443.732 337.602 443.732 337.748 443.878C337.748 443.878 340.381 446.218 344.329 445.34C344.475 445.34 344.622 445.34 344.622 445.486C344.622 445.633 344.622 445.779 344.475 445.779C343.744 446.218 343.159 446.218 342.574 446.218Z" fill="#263238"/>
<path d="M333.068 432.91C332.922 432.91 332.922 432.91 332.922 432.91C332.63 432.763 332.483 432.471 332.63 432.178C333.799 429.4 336.286 428.961 336.432 428.961C336.724 428.961 337.017 429.107 337.017 429.4C337.017 429.692 336.871 429.985 336.578 429.985C336.432 429.985 334.531 430.277 333.653 432.471C333.507 432.763 333.214 432.91 333.068 432.91Z" fill="#263238"/>
<path d="M350.91 428.668C350.764 428.668 350.618 428.668 350.471 428.522C348.863 426.621 346.961 426.767 346.815 426.767C346.523 426.767 346.23 426.621 346.23 426.328C346.23 426.036 346.376 425.744 346.669 425.744C346.815 425.744 349.301 425.597 351.203 427.937C351.349 428.23 351.349 428.522 351.203 428.668C351.203 428.668 351.056 428.668 350.91 428.668Z" fill="#263238"/>
<path d="M313.033 494.039L310.693 499.158C309.962 500.913 309.084 502.668 308.353 504.569C306.891 508.225 305.428 511.735 303.966 515.391C302.65 519.047 301.333 522.703 300.31 526.359C299.725 528.114 299.286 530.015 298.847 531.77L298.262 534.549L298.116 534.841V534.988C298.116 534.988 298.116 534.988 298.116 535.134C298.116 535.573 298.409 536.889 299.14 538.205C299.871 539.521 300.748 540.984 301.772 542.446C303.82 545.371 306.452 548.15 309.084 551.075C314.495 556.632 320.345 562.189 326.341 567.454L321.515 574.62C314.057 570.525 307.037 566.138 300.31 560.727C296.946 558.094 293.729 555.169 290.658 551.66C289.049 549.905 287.587 548.003 286.27 545.956C284.954 543.762 283.492 541.276 282.907 537.62C282.76 536.743 282.614 535.719 282.614 534.695C282.614 534.256 282.614 533.672 282.76 533.087V532.502V532.063L283.199 528.699C283.638 526.506 283.93 524.312 284.369 522.265C285.247 518.023 286.417 513.782 287.733 509.834C289.049 505.739 290.511 501.79 292.12 497.842C292.998 495.941 293.729 493.893 294.606 491.992C295.484 490.091 296.361 488.19 297.531 486.142L313.033 494.039Z" fill="#7F3E3B"/>
<path d="M300.748 477.221C289.78 478.83 278.519 519.047 278.519 519.047L304.843 529.138C304.843 529.138 311.424 511.881 315.958 498.426C320.93 484.387 312.448 475.612 300.748 477.221Z" fill="#7367F0"/>
<path opacity="0.5" d="M300.748 477.221C289.78 478.83 278.519 519.047 278.519 519.047L304.843 529.138C304.843 529.138 311.424 511.881 315.958 498.426C320.93 484.387 312.448 475.612 300.748 477.221Z" fill="black"/>
</g>
<path d="M589.58 688.105C646.118 688.105 691.95 642.272 691.95 585.734C691.95 529.196 646.118 483.363 589.58 483.363C533.042 483.363 487.209 529.196 487.209 585.734C487.209 642.272 533.042 688.105 589.58 688.105Z" fill="#7367F0"/>
<path d="M589.58 665.876C633.841 665.876 669.721 629.995 669.721 585.734C669.721 541.473 633.841 505.592 589.58 505.592C545.319 505.592 509.438 541.473 509.438 585.734C509.438 629.995 545.319 665.876 589.58 665.876Z" fill="white"/>
<mask id="mask2_7_135" style="mask-type:luminance" maskUnits="userSpaceOnUse" x="509" y="505" width="161" height="161">
<path d="M589.58 665.876C633.841 665.876 669.721 629.995 669.721 585.734C669.721 541.473 633.841 505.592 589.58 505.592C545.319 505.592 509.438 541.473 509.438 585.734C509.438 629.995 545.319 665.876 589.58 665.876Z" fill="white"/>
</mask>
<g mask="url(#mask2_7_135)">
<path d="M561.208 612.35C560.916 616.738 560.477 620.686 559.892 624.781C559.307 628.876 558.576 632.971 557.699 636.919C555.944 644.963 553.604 653.006 550.386 660.757L549.07 663.682L548.778 664.413L548.631 664.706C548.631 664.852 548.485 664.852 548.339 665.144C547.9 666.022 547.462 666.899 546.584 667.777C545.853 668.654 544.829 669.386 543.805 669.97C542.635 670.555 541.466 670.848 540.442 670.994C538.248 671.287 536.493 670.848 535.031 670.409C532.252 669.532 530.205 668.216 528.304 666.899C526.402 665.583 524.794 664.121 523.185 662.805C516.897 656.955 511.778 650.813 506.952 644.085L511.924 639.844C514.703 642.477 517.628 645.109 520.553 647.741C523.478 650.374 526.549 652.714 529.474 654.907C530.936 655.931 532.545 656.955 534.007 657.832C535.47 658.71 536.932 659.295 537.956 659.587C538.394 659.733 538.687 659.587 538.541 659.587C538.394 659.587 537.663 659.88 537.371 660.026C537.224 660.172 537.224 660.172 537.224 660.026L537.663 658.856L538.687 656.224C541.173 649.204 543.074 641.745 544.537 634.141C545.268 630.338 545.853 626.536 546.438 622.734C547.023 618.931 547.462 614.983 547.754 611.327L561.208 612.35Z" fill="#FF8B7B"/>
<path d="M552.141 596.41C546.73 597.726 543.074 619.809 543.074 619.809L557.845 629.9C557.845 629.9 572.03 607.671 567.936 601.675C563.548 595.679 560.039 594.363 552.141 596.41Z" fill="#263238"/>
<path opacity="0.2" d="M552.726 601.382L548.485 623.611L556.821 629.315L552.726 601.382Z" fill="black"/>
<path d="M512.217 639.113L505.197 627.999L501.249 640.576C501.249 640.576 506.952 646.572 512.217 645.255V639.113Z" fill="#FF8B7B"/>
<path d="M552.141 596.41C552.141 596.41 545.999 598.604 558.43 674.943C579.343 674.943 601.133 674.943 611.37 674.943C610.493 653.445 610.493 640.137 620.73 595.971C620.73 595.971 609.615 593.631 598.208 593.046C589.287 592.608 581.975 592.315 574.224 593.046C563.841 594.07 552.141 596.41 552.141 596.41Z" fill="#263238"/>
<path d="M563.841 540.106C582.706 509.834 638.864 534.695 609.615 564.529C570.568 604.307 563.841 540.106 563.841 540.106Z" fill="#263238"/>
<path d="M576.418 582.956C574.371 582.956 572.469 582.517 570.861 581.493C559.161 574.181 565.011 543.324 565.303 542.007C565.303 541.715 565.596 541.569 565.888 541.569C566.181 541.569 566.327 541.861 566.327 542.154C566.327 542.446 560.331 573.596 571.446 580.469C576.857 583.833 585.485 580.908 597.038 571.987C597.331 571.841 597.623 571.841 597.769 572.134C597.916 572.426 597.916 572.719 597.623 572.865C588.995 579.592 581.975 582.956 576.418 582.956Z" fill="#263238"/>
<path d="M599.378 531.478C605.228 513.782 636.524 519.486 625.556 538.205C613.856 558.24 599.378 531.478 599.378 531.478Z" fill="#263238"/>
<path d="M595.868 565.991C594.406 573.742 592.797 587.928 598.208 593.046C598.208 593.046 596.161 600.943 581.683 600.943C565.888 600.943 574.078 593.046 574.078 593.046C582.706 590.999 582.414 584.564 580.951 578.568L595.868 565.991Z" fill="#FF8B7B"/>
<path d="M580.659 600.944C580.659 600.944 584.315 604.453 585.924 608.987C588.702 607.963 602.888 600.212 603.18 592.9C601.426 592.315 597.477 591.73 597.477 591.73C597.477 591.73 591.481 597.726 580.659 600.944Z" fill="#7367F0"/>
<path d="M580.659 600.944C580.659 600.944 577.442 604.307 575.394 608.987C571.446 606.501 567.205 601.09 570.276 593.339C572.469 592.315 576.857 592.169 576.857 592.169C576.857 592.169 569.837 597.726 580.659 600.944Z" fill="#7367F0"/>
<path opacity="0.2" d="M589.872 571.256L581.098 578.715C581.39 580.177 581.683 581.639 581.829 582.956C585.192 582.517 589.58 578.861 590.018 575.351C590.165 573.596 590.165 571.987 589.872 571.256Z" fill="black"/>
<path d="M603.912 551.952C600.841 564.529 599.817 569.94 592.358 575.205C580.951 583.248 566.181 576.813 565.45 563.651C564.718 551.806 569.837 533.233 583.145 530.308C596.307 527.529 606.983 539.375 603.912 551.952Z" fill="#FF8B7B"/>
<path d="M582.56 550.197C582.414 551.221 581.683 551.952 580.951 551.806C580.22 551.659 579.928 550.782 580.074 549.758C580.22 548.735 580.951 548.003 581.683 548.15C582.414 548.15 582.853 549.173 582.56 550.197Z" fill="#263238"/>
<path d="M571.007 548.15C570.861 549.173 570.129 549.904 569.398 549.758C568.667 549.612 568.374 548.735 568.521 547.711C568.667 546.687 569.398 545.956 570.129 546.102C570.714 546.102 571.153 547.126 571.007 548.15Z" fill="#263238"/>
<path d="M570.275 546.102L567.936 544.932C567.936 544.932 568.959 547.126 570.275 546.102Z" fill="#263238"/>
<path d="M575.102 552.244C575.102 552.244 572.615 556.339 570.276 558.24C571.445 559.703 573.785 559.557 573.785 559.557L575.102 552.244Z" fill="#FF5652"/>
<path d="M578.611 564.383C582.414 564.383 584.607 562.189 584.607 562.043C584.754 561.896 584.754 561.75 584.607 561.604C584.461 561.458 584.315 561.458 584.169 561.604C584.169 561.604 581.39 564.383 576.856 563.651C576.71 563.651 576.564 563.798 576.564 563.944C576.564 564.09 576.71 564.236 576.856 564.236C577.441 564.383 578.026 564.383 578.611 564.383Z" fill="#263238"/>
<path d="M609.03 555.608C602.595 566.43 585.192 543.762 582.268 532.94C578.027 534.988 569.252 541.276 569.106 537.181C568.959 533.087 583.876 526.213 591.773 527.383C599.817 528.699 613.564 548.15 609.03 555.608Z" fill="#263238"/>
<path d="M605.959 561.896C604.935 564.383 602.888 566.138 600.841 567.015C597.769 568.185 595.868 565.553 596.453 562.481C596.892 559.703 599.086 555.754 602.303 555.754C605.52 555.901 607.129 559.118 605.959 561.896Z" fill="#FF8B7B"/>
<path d="M586.655 545.663C586.801 545.663 586.801 545.663 586.947 545.663C587.24 545.517 587.386 545.078 587.24 544.786C585.631 541.715 582.852 541.422 582.706 541.422C582.414 541.422 582.121 541.568 581.975 542.007C581.975 542.3 582.121 542.592 582.56 542.738C582.706 542.738 584.9 543.031 586.07 545.517C586.216 545.517 586.362 545.663 586.655 545.663Z" fill="#263238"/>
<path d="M568.228 543.616C568.374 543.616 568.521 543.616 568.667 543.47C570.568 541.422 572.762 541.861 572.762 541.861C573.054 541.861 573.347 541.715 573.493 541.422C573.493 541.13 573.347 540.837 573.054 540.691C572.908 540.691 570.129 540.106 567.789 542.592C567.497 542.885 567.497 543.177 567.789 543.47C567.789 543.616 567.936 543.616 568.228 543.616Z" fill="#263238"/>
<path d="M581.975 548.15L579.635 546.98C579.635 546.98 580.659 549.173 581.975 548.15Z" fill="#263238"/>
<path d="M626.433 610.011C629.358 617.177 631.844 624.343 633.892 631.655C635.939 638.967 637.84 646.425 638.718 654.469L639.01 657.394L639.156 660.465V661.196V661.342V661.635V662.512C639.01 663.536 638.864 664.56 638.425 665.583C637.694 667.338 636.816 668.655 635.793 669.678C633.892 671.726 631.99 673.042 630.089 674.066C628.188 675.089 626.287 675.967 624.386 676.698C616.927 679.623 609.469 681.231 601.864 682.401L600.402 675.967C607.129 673.334 614.002 670.556 619.998 667.338C621.461 666.461 622.923 665.583 624.239 664.706C625.556 663.828 626.579 662.805 627.018 662.074C627.311 661.781 627.311 661.489 627.311 661.489C627.311 661.489 627.164 661.635 627.164 661.781V661.635V661.05L626.872 658.564L626.433 656.078C626.141 654.323 625.848 652.714 625.409 650.959C624.971 649.204 624.678 647.449 624.093 645.84C623.216 642.331 622.192 638.967 621.168 635.457C618.975 628.584 616.635 621.71 614.002 614.983L626.433 610.011Z" fill="#FF8B7B"/>
<path d="M620.73 596.117C625.994 597.726 632.429 616.007 632.429 616.007L611.809 630.631C611.809 630.631 604.35 615.422 606.544 608.548C608.884 601.382 614.587 594.216 620.73 596.117Z" fill="#263238"/>
</g>
<defs>
<linearGradient id="paint0_linear_7_135" x1="846.264" y1="567.202" x2="80.928" y2="362.131" gradientUnits="userSpaceOnUse">
<stop stop-color="#8815E2"/>
<stop offset="1" stop-color="white"/>
</linearGradient>
<linearGradient id="paint1_linear_7_135" x1="464" y1="33.5" x2="464" y2="894.5" gradientUnits="userSpaceOnUse">
<stop stop-color="#8815E2"/>
<stop offset="1" stop-color="white"/>
</linearGradient>
</defs>
</svg>
