<?xml version="1.0" encoding="utf-8"?>
<!-- Generator: Adobe Illustrator 23.0.2, SVG Export Plug-In . SVG Version: 6.00 Build 0)  -->
<svg version="1.1" id="Layer_1" xmlns="http://www.w3.org/2000/svg" xmlns:xlink="http://www.w3.org/1999/xlink" x="0px" y="0px"
	 viewBox="0 0 887 553" enable-background="new 0 0 887 553" xml:space="preserve">
<path fill="#FAFAFA" d="M204.5,129.1H0.7v114h203.8V129.1z"/>
<path fill="#A8AAAE" d="M204.5,243c0,0,0-0.7,0-2c0-1.4,0-3.4,0-5.9c0-5.2,0-12.9-0.1-22.8c0-19.7-0.1-48.2-0.1-83.2l0.3,0.3
	c-54.4,0-125.8,0.1-203.8,0.1h0l0.3-0.3c0,40.3,0,78.9,0,114l-0.3-0.3c59.6,0.1,110.6,0.1,146.6,0.2c18,0,32.3,0.1,42.1,0.1
	c4.9,0,8.7,0,11.2,0c1.3,0,2.2,0,2.9,0C204.2,243,204.5,243,204.5,243s-0.3,0-1,0c-0.7,0-1.6,0-2.9,0c-2.5,0-6.3,0-11.2,0
	c-9.8,0-24.1,0.1-42,0.1c-36.1,0-87.1,0.1-146.8,0.2H0.4V243c0-35.1,0-73.7,0-114v-0.3h0.3h0c78,0,149.4,0.1,203.8,0.1h0.3v0.3
	c-0.1,35.1-0.1,63.6-0.1,83.3c0,9.9-0.1,17.5-0.1,22.7c0,2.6,0,4.6,0,5.9C204.5,242.4,204.5,243,204.5,243z"/>
<path fill="#FFFFFF" fill-opacity="0.2" d="M204.5,243c0,0,0-0.7,0-2c0-1.4,0-3.4,0-5.9c0-5.2,0-12.9-0.1-22.8
	c0-19.7-0.1-48.2-0.1-83.2l0.3,0.3c-54.4,0-125.8,0.1-203.8,0.1h0l0.3-0.3c0,40.3,0,78.9,0,114l-0.3-0.3
	c59.6,0.1,110.6,0.1,146.6,0.2c18,0,32.3,0.1,42.1,0.1c4.9,0,8.7,0,11.2,0c1.3,0,2.2,0,2.9,0C204.2,243,204.5,243,204.5,243
	s-0.3,0-1,0c-0.7,0-1.6,0-2.9,0c-2.5,0-6.3,0-11.2,0c-9.8,0-24.1,0.1-42,0.1c-36.1,0-87.1,0.1-146.8,0.2H0.4V243
	c0-35.1,0-73.7,0-114v-0.3h0.3h0c78,0,149.4,0.1,203.8,0.1h0.3v0.3c-0.1,35.1-0.1,63.6-0.1,83.3c0,9.9-0.1,17.5-0.1,22.7
	c0,2.6,0,4.6,0,5.9C204.5,242.4,204.5,243,204.5,243z"/>
<path fill="#A8AAAE" d="M54.4,156.2H25.6v28.8h28.8V156.2z"/>
<path fill="#FFFFFF" fill-opacity="0.2" d="M54.4,156.2H25.6v28.8h28.8V156.2z"/>
<path fill="#A8AAAE" d="M94,160.3c0,0.2-6.7,0.3-15,0.3s-15-0.2-15-0.3c0-0.2,6.7-0.3,15-0.3C87.2,159.9,94,160.1,94,160.3z"/>
<path fill="#FFFFFF" fill-opacity="0.2" d="M94,160.3c0,0.2-6.7,0.3-15,0.3s-15-0.2-15-0.3c0-0.2,6.7-0.3,15-0.3
	C87.2,159.9,94,160.1,94,160.3z"/>
<path fill="#A8AAAE" d="M189.9,170.6c0,0.2-28.2,0.3-63,0.3c-34.8,0-63-0.2-63-0.3s28.2-0.3,63-0.3
	C161.7,170.3,189.9,170.5,189.9,170.6z"/>
<path fill="#FFFFFF" fill-opacity="0.2" d="M189.9,170.6c0,0.2-28.2,0.3-63,0.3c-34.8,0-63-0.2-63-0.3s28.2-0.3,63-0.3
	C161.7,170.3,189.9,170.5,189.9,170.6z"/>
<path fill="#A8AAAE" d="M147.5,182.3c0,0.2-18.5,0.3-41.4,0.3c-22.9,0-41.4-0.2-41.4-0.3c0-0.2,18.5-0.3,41.4-0.3
	C129,181.9,147.5,182.1,147.5,182.3z"/>
<path fill="#FFFFFF" fill-opacity="0.2" d="M147.5,182.3c0,0.2-18.5,0.3-41.4,0.3c-22.9,0-41.4-0.2-41.4-0.3
	c0-0.2,18.5-0.3,41.4-0.3C129,181.9,147.5,182.1,147.5,182.3z"/>
<path fill="#A8AAAE" d="M174.3,227.9H35.1c-7.4,0-13.3-6-13.3-13.3s6-13.4,13.3-13.4h139.2c7.4,0,13.4,6,13.4,13.4
	C187.7,222,181.7,227.9,174.3,227.9z"/>
<path fill="#FFFFFF" fill-opacity="0.2" d="M174.3,227.9H35.1c-7.4,0-13.3-6-13.3-13.3s6-13.4,13.3-13.4h139.2
	c7.4,0,13.4,6,13.4,13.4C187.7,222,181.7,227.9,174.3,227.9z"/>
<path fill="#FFFFFF" d="M79.1,216.5h-3.4L75,218h-1.7l3.3-7.4h1.7l3.3,7.4h-1.8L79.1,216.5z M78.6,215.2l-1.2-2.8l-1.2,2.8H78.6z"/>
<path fill="#FFFFFF" d="M88.7,213.3c0,1.6-1.2,2.7-3.2,2.7H84v2h-1.7v-7.4h3.2C87.5,210.7,88.7,211.7,88.7,213.3z M87,213.3
	c0-0.8-0.5-1.3-1.6-1.3H84v2.6h1.4C86.4,214.6,87,214.1,87,213.3z"/>
<path fill="#FFFFFF" d="M96.3,213.3c0,1.6-1.2,2.7-3.2,2.7h-1.5v2h-1.7v-7.4h3.2C95.1,210.7,96.3,211.7,96.3,213.3z M94.6,213.3
	c0-0.8-0.5-1.3-1.6-1.3h-1.4v2.6H93C94,214.6,94.6,214.1,94.6,213.3z"/>
<path fill="#FFFFFF" d="M97.5,210.7h1.7v6h3.7v1.4h-5.4L97.5,210.7L97.5,210.7z"/>
<path fill="#FFFFFF" d="M106.6,215.4v2.6h-1.7v-2.6l-2.8-4.7h1.8l2,3.3l2-3.3h1.7L106.6,215.4z"/>
<path fill="#FFFFFF" d="M119.9,210.7v7.4h-1.4l-3.7-4.5v4.5h-1.7v-7.4h1.4l3.7,4.5v-4.5H119.9z"/>
<path fill="#FFFFFF" d="M121.2,214.4c0-2.2,1.7-3.8,4-3.8c2.3,0,4,1.6,4,3.8c0,2.2-1.7,3.8-4,3.8
	C122.9,218.2,121.2,216.5,121.2,214.4z M127.5,214.4c0-1.4-1-2.3-2.3-2.3s-2.3,1-2.3,2.3c0,1.4,1,2.3,2.3,2.3
	S127.5,215.8,127.5,214.4z"/>
<path fill="#FFFFFF" d="M141.4,210.7L139,218h-1.8l-1.6-5l-1.7,5h-1.8l-2.4-7.4h1.8l1.7,5.2l1.7-5.2h1.6l1.7,5.2l1.7-5.2H141.4z"/>
<path fill="#FAFAFA" d="M208.8,371.8H32.6v98.5h176.2V371.8z"/>
<path fill="#A8AAAE" d="M208.8,470.3c0,0,0-0.6,0-1.8c0-1.2,0-2.9,0-5.2c0-4.5,0-11.2-0.1-19.7c0-17.1-0.1-41.7-0.1-71.9l0.3,0.3
	c-47,0-108.7,0.1-176.2,0.1h0l0.3-0.3c0,34.8,0,68.2,0,98.5l-0.3-0.3c51.5,0.1,95.5,0.1,126.7,0.2c15.6,0,27.9,0.1,36.4,0.1
	c4.2,0,7.5,0,9.7,0c1.1,0,1.9,0,2.5,0C208.5,470.3,208.8,470.3,208.8,470.3s-0.3,0-0.8,0c-0.6,0-1.4,0-2.5,0c-2.2,0-5.4,0-9.6,0
	c-8.5,0-20.8,0.1-36.3,0.1c-31.2,0-75.3,0.1-126.9,0.2h-0.3v-0.3c0-30.4,0-63.7,0-98.5v-0.3h0.3h0c67.4,0,129.2,0.1,176.2,0.1h0.3
	v0.3c-0.1,30.3-0.1,55-0.1,72c0,8.5-0.1,15.1-0.1,19.6c0,2.2,0,3.9,0,5.1C208.8,469.7,208.8,470.3,208.8,470.3z"/>
<path fill="#FFFFFF" fill-opacity="0.2" d="M208.8,470.3c0,0,0-0.6,0-1.8c0-1.2,0-2.9,0-5.2c0-4.5,0-11.2-0.1-19.7
	c0-17.1-0.1-41.7-0.1-71.9l0.3,0.3c-47,0-108.7,0.1-176.2,0.1h0l0.3-0.3c0,34.8,0,68.2,0,98.5l-0.3-0.3c51.5,0.1,95.5,0.1,126.7,0.2
	c15.6,0,27.9,0.1,36.4,0.1c4.2,0,7.5,0,9.7,0c1.1,0,1.9,0,2.5,0C208.5,470.3,208.8,470.3,208.8,470.3s-0.3,0-0.8,0
	c-0.6,0-1.4,0-2.5,0c-2.2,0-5.4,0-9.6,0c-8.5,0-20.8,0.1-36.3,0.1c-31.2,0-75.3,0.1-126.9,0.2h-0.3v-0.3c0-30.4,0-63.7,0-98.5v-0.3
	h0.3h0c67.4,0,129.2,0.1,176.2,0.1h0.3v0.3c-0.1,30.3-0.1,55-0.1,72c0,8.5-0.1,15.1-0.1,19.6c0,2.2,0,3.9,0,5.1
	C208.8,469.7,208.8,470.3,208.8,470.3z"/>
<path fill="#A8AAAE" d="M79.1,395.3H54.2v24.9h24.9V395.3z"/>
<path fill="#FFFFFF" fill-opacity="0.2" d="M79.1,395.3H54.2v24.9h24.9V395.3z"/>
<path fill="#A8AAAE" d="M113.3,398.8c0,0.2-5.8,0.3-13,0.3c-7.2,0-13-0.2-13-0.3c0-0.2,5.8-0.3,13-0.3
	C107.5,398.4,113.3,398.6,113.3,398.8z"/>
<path fill="#FFFFFF" fill-opacity="0.2" d="M113.3,398.8c0,0.2-5.8,0.3-13,0.3c-7.2,0-13-0.2-13-0.3c0-0.2,5.8-0.3,13-0.3
	C107.5,398.4,113.3,398.6,113.3,398.8z"/>
<path fill="#A8AAAE" d="M196.2,407.7c0,0.2-24.4,0.3-54.5,0.3s-54.5-0.2-54.5-0.3c0-0.2,24.4-0.3,54.5-0.3S196.2,407.5,196.2,407.7z
	"/>
<path fill="#FFFFFF" fill-opacity="0.2" d="M196.2,407.7c0,0.2-24.4,0.3-54.5,0.3s-54.5-0.2-54.5-0.3c0-0.2,24.4-0.3,54.5-0.3
	S196.2,407.5,196.2,407.7z"/>
<path fill="#A8AAAE" d="M159.6,417.8c0,0.2-16,0.3-35.8,0.3c-19.8,0-35.8-0.2-35.8-0.3c0-0.2,16-0.3,35.8-0.3
	C143.6,417.4,159.6,417.6,159.6,417.8z"/>
<path fill="#FFFFFF" fill-opacity="0.2" d="M159.6,417.8c0,0.2-16,0.3-35.8,0.3c-19.8,0-35.8-0.2-35.8-0.3c0-0.2,16-0.3,35.8-0.3
	C143.6,417.4,159.6,417.6,159.6,417.8z"/>
<path fill="#A8AAAE" d="M182.7,457.2H62.4c-6.4,0-11.5-5.2-11.5-11.5c0-6.4,5.2-11.5,11.5-11.5h120.3c6.4,0,11.5,5.2,11.5,11.5
	C194.3,452.1,189.1,457.2,182.7,457.2z"/>
<path fill="#FFFFFF" fill-opacity="0.2" d="M182.7,457.2H62.4c-6.4,0-11.5-5.2-11.5-11.5c0-6.4,5.2-11.5,11.5-11.5h120.3
	c6.4,0,11.5,5.2,11.5,11.5C194.3,452.1,189.1,457.2,182.7,457.2z"/>
<path fill="#FFFFFF" d="M100.4,447.3h-2.9l-0.6,1.4h-1.5l2.8-6.4h1.4l2.8,6.4H101L100.4,447.3z M100,446.2l-1-2.4l-1,2.4H100z"/>
<path fill="#FFFFFF" d="M108.7,444.6c0,1.4-1.1,2.3-2.8,2.3h-1.3v1.7h-1.5v-6.4h2.8C107.7,442.3,108.7,443.2,108.7,444.6z
	 M107.2,444.6c0-0.7-0.5-1.1-1.4-1.1h-1.2v2.2h1.2C106.8,445.7,107.2,445.3,107.2,444.6z"/>
<path fill="#FFFFFF" d="M115.3,444.6c0,1.4-1.1,2.3-2.8,2.3h-1.3v1.7h-1.5v-6.4h2.8C114.2,442.3,115.3,443.2,115.3,444.6z
	 M113.8,444.6c0-0.7-0.5-1.1-1.4-1.1h-1.2v2.2h1.2C113.3,445.7,113.8,445.3,113.8,444.6z"/>
<path fill="#FFFFFF" d="M116.3,442.3h1.5v5.2h3.2v1.2h-4.7V442.3z"/>
<path fill="#FFFFFF" d="M124.2,446.4v2.3h-1.5v-2.3l-2.5-4.1h1.6l1.7,2.8l1.7-2.8h1.4L124.2,446.4z"/>
<path fill="#FFFFFF" d="M135.7,442.3v6.4h-1.2l-3.2-3.9v3.9h-1.4v-6.4h1.2l3.2,3.9v-3.9H135.7z"/>
<path fill="#FFFFFF" d="M136.8,445.5c0-1.9,1.5-3.3,3.5-3.3c2,0,3.5,1.4,3.5,3.3c0,1.9-1.5,3.3-3.5,3.3
	C138.3,448.8,136.8,447.4,136.8,445.5z M142.3,445.5c0-1.2-0.8-2-2-2c-1.1,0-2,0.8-2,2c0,1.2,0.8,2,2,2
	C141.4,447.5,142.3,446.7,142.3,445.5z"/>
<path fill="#FFFFFF" d="M154.3,442.3l-2.1,6.4h-1.6l-1.4-4.3l-1.4,4.3h-1.6l-2.1-6.4h1.5l1.4,4.5l1.5-4.5h1.4l1.4,4.5l1.5-4.5H154.3
	z"/>
<path fill="#FAFAFA" d="M822.6,416.2H646.4v98.5h176.2V416.2z"/>
<path fill="#A8AAAE" d="M822.6,514.8c0,0,0-0.6,0-1.8c0-1.2,0-2.9,0-5.2c0-4.5,0-11.2-0.1-19.7c0-17.1-0.1-41.7-0.1-71.9l0.3,0.3
	c-47,0-108.7,0.1-176.2,0.1h0l0.3-0.3c0,34.8,0,68.2,0,98.5l-0.3-0.3c51.5,0.1,95.5,0.1,126.7,0.2c15.6,0,27.9,0.1,36.4,0.1
	c4.2,0,7.5,0,9.7,0c1.1,0,1.9,0,2.5,0C822.3,514.7,822.6,514.8,822.6,514.8s-0.3,0-0.8,0c-0.6,0-1.4,0-2.5,0c-2.2,0-5.4,0-9.6,0
	c-8.5,0-20.8,0.1-36.3,0.1c-31.2,0-75.3,0.1-126.9,0.2h-0.3v-0.3c0-30.4,0-63.7,0-98.5v-0.3h0.3h0c67.4,0,129.2,0.1,176.2,0.1h0.3
	v0.3c-0.1,30.3-0.1,55-0.1,72c0,8.5-0.1,15.1-0.1,19.6c0,2.2,0,3.9,0,5.1C822.6,514.2,822.6,514.8,822.6,514.8z"/>
<path fill="#FFFFFF" fill-opacity="0.2" d="M822.6,514.8c0,0,0-0.6,0-1.8c0-1.2,0-2.9,0-5.2c0-4.5,0-11.2-0.1-19.7
	c0-17.1-0.1-41.7-0.1-71.9l0.3,0.3c-47,0-108.7,0.1-176.2,0.1h0l0.3-0.3c0,34.8,0,68.2,0,98.5l-0.3-0.3c51.5,0.1,95.5,0.1,126.7,0.2
	c15.6,0,27.9,0.1,36.4,0.1c4.2,0,7.5,0,9.7,0c1.1,0,1.9,0,2.5,0C822.3,514.7,822.6,514.8,822.6,514.8s-0.3,0-0.8,0
	c-0.6,0-1.4,0-2.5,0c-2.2,0-5.4,0-9.6,0c-8.5,0-20.8,0.1-36.3,0.1c-31.2,0-75.3,0.1-126.9,0.2h-0.3v-0.3c0-30.4,0-63.7,0-98.5v-0.3
	h0.3h0c67.4,0,129.2,0.1,176.2,0.1h0.3v0.3c-0.1,30.3-0.1,55-0.1,72c0,8.5-0.1,15.1-0.1,19.6c0,2.2,0,3.9,0,5.1
	C822.6,514.2,822.6,514.8,822.6,514.8z"/>
<path fill="#A8AAAE" d="M692.9,439.7H668v24.9h24.9V439.7z"/>
<path fill="#FFFFFF" fill-opacity="0.2" d="M692.9,439.7H668v24.9h24.9V439.7z"/>
<path fill="#A8AAAE" d="M727.1,443.2c0,0.2-5.8,0.3-13,0.3c-7.2,0-13-0.2-13-0.3c0-0.2,5.8-0.3,13-0.3
	C721.3,442.9,727.1,443,727.1,443.2z"/>
<path fill="#FFFFFF" fill-opacity="0.2" d="M727.1,443.2c0,0.2-5.8,0.3-13,0.3c-7.2,0-13-0.2-13-0.3c0-0.2,5.8-0.3,13-0.3
	C721.3,442.9,727.1,443,727.1,443.2z"/>
<path fill="#A8AAAE" d="M810,452.2c0,0.2-24.4,0.3-54.5,0.3c-30.1,0-54.5-0.2-54.5-0.3c0-0.2,24.4-0.3,54.5-0.3
	C785.6,451.8,810,452,810,452.2z"/>
<path fill="#FFFFFF" fill-opacity="0.2" d="M810,452.2c0,0.2-24.4,0.3-54.5,0.3c-30.1,0-54.5-0.2-54.5-0.3c0-0.2,24.4-0.3,54.5-0.3
	C785.6,451.8,810,452,810,452.2z"/>
<path fill="#A8AAAE" d="M773.4,462.2c0,0.2-16,0.3-35.8,0.3c-19.8,0-35.8-0.2-35.8-0.3c0-0.2,16-0.3,35.8-0.3
	C757.4,461.9,773.4,462,773.4,462.2z"/>
<path fill="#FFFFFF" fill-opacity="0.2" d="M773.4,462.2c0,0.2-16,0.3-35.8,0.3c-19.8,0-35.8-0.2-35.8-0.3c0-0.2,16-0.3,35.8-0.3
	C757.4,461.9,773.4,462,773.4,462.2z"/>
<path fill="#A8AAAE" d="M796.5,501.7H676.2c-6.4,0-11.5-5.2-11.5-11.5c0-6.4,5.2-11.5,11.5-11.5h120.3c6.4,0,11.5,5.2,11.5,11.5
	C808.1,496.5,802.9,501.7,796.5,501.7z"/>
<path fill="#FFFFFF" fill-opacity="0.2" d="M796.5,501.7H676.2c-6.4,0-11.5-5.2-11.5-11.5c0-6.4,5.2-11.5,11.5-11.5h120.3
	c6.4,0,11.5,5.2,11.5,11.5C808.1,496.5,802.9,501.7,796.5,501.7z"/>
<path fill="#FFFFFF" d="M714.2,491.8h-3l-0.6,1.4h-1.5l2.8-6.4h1.4l2.8,6.4h-1.5L714.2,491.8z M713.8,490.6l-1-2.4l-1,2.4H713.8z"/>
<path fill="#FFFFFF" d="M722.5,489.1c0,1.4-1.1,2.3-2.8,2.3h-1.3v1.7H717v-6.4h2.8C721.5,486.8,722.5,487.6,722.5,489.1z M721,489.1
	c0-0.7-0.5-1.1-1.4-1.1h-1.2v2.2h1.2C720.6,490.2,721,489.8,721,489.1z"/>
<path fill="#FFFFFF" d="M729.1,489.1c0,1.4-1.1,2.3-2.8,2.3H725v1.7h-1.5v-6.4h2.8C728,486.8,729.1,487.6,729.1,489.1z M727.6,489.1
	c0-0.7-0.5-1.1-1.4-1.1H725v2.2h1.2C727.1,490.2,727.6,489.8,727.6,489.1z"/>
<path fill="#FFFFFF" d="M730.1,486.8h1.5v5.2h3.2v1.2h-4.7V486.8z"/>
<path fill="#FFFFFF" d="M738,490.9v2.3h-1.5v-2.3l-2.5-4.1h1.6l1.7,2.8l1.7-2.8h1.4L738,490.9z"/>
<path fill="#FFFFFF" d="M749.5,486.8v6.4h-1.2l-3.2-3.9v3.9h-1.4v-6.4h1.2l3.2,3.9v-3.9H749.5z"/>
<path fill="#FFFFFF" d="M750.6,489.9c0-1.9,1.5-3.3,3.5-3.3c2,0,3.5,1.4,3.5,3.3c0,1.9-1.5,3.3-3.5,3.3
	C752.1,493.2,750.6,491.8,750.6,489.9z M756.1,489.9c0-1.2-0.8-2-2-2s-2,0.8-2,2c0,1.2,0.8,2,2,2C755.2,492,756.1,491.2,756.1,489.9
	z"/>
<path fill="#FFFFFF" d="M768.1,486.8l-2.1,6.4h-1.6l-1.4-4.3l-1.4,4.3H760l-2.1-6.4h1.5l1.4,4.5l1.5-4.5h1.4l1.4,4.5l1.5-4.5H768.1z
	"/>
<path fill="#FAFAFA" d="M886.1,175.7H682.2v114h203.8V175.7z"/>
<path fill="#A8AAAE" d="M886.1,289.7c0,0,0-0.7,0-2c0-1.4,0-3.4,0-6c0-5.2,0-12.9-0.1-22.8c0-19.7-0.1-48.2-0.1-83.2l0.3,0.3
	c-54.4,0-125.8,0.1-203.8,0.1h0l0.3-0.3c0,40.3,0,78.9,0,114l-0.3-0.3c59.7,0.1,110.6,0.1,146.6,0.2c18,0,32.3,0.1,42.1,0.1
	c4.9,0,8.7,0,11.2,0c1.3,0,2.2,0,2.9,0C885.7,289.7,886.1,289.7,886.1,289.7s-0.3,0-1,0c-0.7,0-1.6,0-2.9,0c-2.5,0-6.3,0-11.2,0
	c-9.8,0-24,0.1-42,0.1c-36.1,0-87.1,0.1-146.8,0.2h-0.3v-0.3c0-35.1,0-73.7,0-114v-0.3h0.3h0c78,0,149.4,0.1,203.8,0.1h0.3v0.3
	c-0.1,35.1-0.1,63.6-0.1,83.3c0,9.9-0.1,17.5-0.1,22.7c0,2.6,0,4.6,0,5.9C886.1,289,886.1,289.7,886.1,289.7z"/>
<path fill="#FFFFFF" fill-opacity="0.2" d="M886.1,289.7c0,0,0-0.7,0-2c0-1.4,0-3.4,0-6c0-5.2,0-12.9-0.1-22.8
	c0-19.7-0.1-48.2-0.1-83.2l0.3,0.3c-54.4,0-125.8,0.1-203.8,0.1h0l0.3-0.3c0,40.3,0,78.9,0,114l-0.3-0.3
	c59.7,0.1,110.6,0.1,146.6,0.2c18,0,32.3,0.1,42.1,0.1c4.9,0,8.7,0,11.2,0c1.3,0,2.2,0,2.9,0C885.7,289.7,886.1,289.7,886.1,289.7
	s-0.3,0-1,0c-0.7,0-1.6,0-2.9,0c-2.5,0-6.3,0-11.2,0c-9.8,0-24,0.1-42,0.1c-36.1,0-87.1,0.1-146.8,0.2h-0.3v-0.3
	c0-35.1,0-73.7,0-114v-0.3h0.3h0c78,0,149.4,0.1,203.8,0.1h0.3v0.3c-0.1,35.1-0.1,63.6-0.1,83.3c0,9.9-0.1,17.5-0.1,22.7
	c0,2.6,0,4.6,0,5.9C886.1,289,886.1,289.7,886.1,289.7z"/>
<path fill="#A8AAAE" d="M736,202.9h-28.8v28.8H736V202.9z"/>
<path fill="#FFFFFF" fill-opacity="0.2" d="M736,202.9h-28.8v28.8H736V202.9z"/>
<path fill="#A8AAAE" d="M775.5,206.9c0,0.2-6.7,0.3-15,0.3c-8.3,0-15-0.2-15-0.3c0-0.2,6.7-0.3,15-0.3
	C768.8,206.6,775.5,206.7,775.5,206.9z"/>
<path fill="#FFFFFF" fill-opacity="0.2" d="M775.5,206.9c0,0.2-6.7,0.3-15,0.3c-8.3,0-15-0.2-15-0.3c0-0.2,6.7-0.3,15-0.3
	C768.8,206.6,775.5,206.7,775.5,206.9z"/>
<path fill="#A8AAAE" d="M871.5,217.3c0,0.2-28.2,0.3-63,0.3c-34.8,0-63-0.2-63-0.3c0-0.2,28.2-0.3,63-0.3
	C843.3,216.9,871.5,217.1,871.5,217.3z"/>
<path fill="#FFFFFF" fill-opacity="0.2" d="M871.5,217.3c0,0.2-28.2,0.3-63,0.3c-34.8,0-63-0.2-63-0.3c0-0.2,28.2-0.3,63-0.3
	C843.3,216.9,871.5,217.1,871.5,217.3z"/>
<path fill="#A8AAAE" d="M829.1,228.9c0,0.2-18.5,0.3-41.4,0.3c-22.9,0-41.4-0.2-41.4-0.3c0-0.2,18.5-0.3,41.4-0.3
	C810.6,228.6,829.1,228.7,829.1,228.9z"/>
<path fill="#FFFFFF" fill-opacity="0.2" d="M829.1,228.9c0,0.2-18.5,0.3-41.4,0.3c-22.9,0-41.4-0.2-41.4-0.3
	c0-0.2,18.5-0.3,41.4-0.3C810.6,228.6,829.1,228.7,829.1,228.9z"/>
<path fill="#A8AAAE" d="M855.9,274.6H716.7c-7.4,0-13.4-6-13.4-13.3c0-7.4,6-13.4,13.4-13.4h139.2c7.4,0,13.4,6,13.4,13.4
	C869.3,268.6,863.3,274.6,855.9,274.6z"/>
<path fill="#FFFFFF" fill-opacity="0.2" d="M855.9,274.6H716.7c-7.4,0-13.4-6-13.4-13.3c0-7.4,6-13.4,13.4-13.4h139.2
	c7.4,0,13.4,6,13.4,13.4C869.3,268.6,863.3,274.6,855.9,274.6z"/>
<path fill="#FFFFFF" d="M760.7,263.1h-3.4l-0.7,1.6h-1.7l3.3-7.4h1.7l3.3,7.4h-1.8L760.7,263.1z M760.1,261.8L759,259l-1.2,2.8
	H760.1z"/>
<path fill="#FFFFFF" d="M770.3,260c0,1.6-1.2,2.7-3.2,2.7h-1.5v2h-1.7v-7.4h3.2C769,257.3,770.3,258.3,770.3,260z M768.5,260
	c0-0.8-0.5-1.3-1.6-1.3h-1.4v2.6h1.4C768,261.2,768.5,260.8,768.5,260z"/>
<path fill="#FFFFFF" d="M777.9,260c0,1.6-1.2,2.7-3.2,2.7h-1.5v2h-1.7v-7.4h3.2C776.6,257.3,777.9,258.3,777.9,260z M776.1,260
	c0-0.8-0.5-1.3-1.6-1.3h-1.4v2.6h1.4C775.6,261.2,776.1,260.8,776.1,260z"/>
<path fill="#FFFFFF" d="M779.1,257.3h1.7v6h3.7v1.4h-5.4L779.1,257.3L779.1,257.3z"/>
<path fill="#FFFFFF" d="M788.2,262v2.6h-1.7V262l-2.8-4.7h1.8l2,3.3l2-3.3h1.7L788.2,262z"/>
<path fill="#FFFFFF" d="M801.5,257.3v7.4h-1.4l-3.7-4.5v4.5h-1.7v-7.4h1.4l3.7,4.5v-4.5H801.5z"/>
<path fill="#FFFFFF" d="M802.8,261c0-2.2,1.7-3.8,4-3.8c2.3,0,4,1.6,4,3.8c0,2.2-1.7,3.8-4,3.8C804.5,264.8,802.8,263.2,802.8,261z
	 M809.1,261c0-1.4-1-2.3-2.3-2.3c-1.3,0-2.3,1-2.3,2.3s1,2.3,2.3,2.3S809.1,262.4,809.1,261z"/>
<path fill="#FFFFFF" d="M823,257.3l-2.4,7.4h-1.8l-1.6-5l-1.7,5h-1.8l-2.4-7.4h1.8l1.7,5.2l1.7-5.2h1.6l1.7,5.2l1.7-5.2H823z"/>
<path fill="#FFFFFF" d="M744.2,0.3H140.3v552.2h603.9V0.3z"/>
<path fill="#A8AAAE" d="M744.2,0.3H140.3v36.7h603.9V0.3z"/>
<path fill="#FFFFFF" fill-opacity="0.2" d="M744.2,0.3H140.3v36.7h603.9V0.3z"/>
<path fill="#242745" d="M662.9,517.1c0,0.2-101.1,0.3-225.7,0.3c-124.7,0-225.7-0.2-225.7-0.3c0-0.2,101-0.3,225.7-0.3
	C561.8,516.8,662.9,516.9,662.9,517.1z"/>
<path fill="#A8AAAE" d="M399.8,406.3h-8.9v47.1h8.9V406.3z"/>
<path fill="#FFFFFF" fill-opacity="0.2" d="M399.8,406.3h-8.9v47.1h8.9V406.3z"/>
<path fill="#242745" d="M399.8,453.4c0,0,0-0.4,0-1c0-0.7,0-1.6,0-2.7c0-2.4-0.1-5.8-0.1-10c0-8.5-0.1-20.2-0.1-33.4l0.3,0.3
	c-2.9,0-5.9,0-8.9,0c0.7-0.7,0.2-0.2,0.3-0.3v0v0v0.1v0.1v0.2v0.5v0.9c0,0.6,0,1.2,0,1.8c0,1.2,0,2.4,0,3.6c0,2.4,0,4.7,0,7
	c0,4.6,0,8.9,0,12.9c-0.1,8-0.1,14.8-0.1,19.8l-0.2-0.2c2.8,0,5,0.1,6.6,0.1c0.7,0,1.3,0,1.8,0C399.5,453.4,399.8,453.4,399.8,453.4
	s-0.2,0-0.6,0c-0.4,0-1,0-1.7,0c-1.6,0-3.8,0.1-6.7,0.1h-0.2v-0.2c0-5-0.1-11.8-0.1-19.8c0-4,0-8.4,0-12.9c0-2.3,0-4.6,0-7
	c0-1.2,0-2.4,0-3.6c0-0.6,0-1.2,0-1.8v-0.9v-0.5v-0.2v-0.1v-0.1v0v0c0.2-0.2-0.3,0.3,0.3-0.4c3.1,0,6.1,0,8.9,0h0.3v0.3
	c-0.1,13.4-0.1,25.2-0.1,33.7c0,4.1-0.1,7.5-0.1,9.9c0,1.1,0,2,0,2.6C399.8,453.1,399.8,453.4,399.8,453.4z"/>
<path fill="#242745" d="M416,399.2h-41.8c-6.2,0-11.2-5-11.2-11.2h64.2C427.2,394.2,422.2,399.2,416,399.2z"/>
<path fill="#7367F0" d="M452.9,390.2H380v-15.6h72.9c4.3,0,7.8,3.5,7.8,7.8C460.7,386.7,457.2,390.2,452.9,390.2z"/>
<path fill="#7367F0" d="M323.3,262.6c-4.2,0.6-7.1,4.3-6.7,8.5l10.5,95.6c1.5,13.3,12.8,23.4,26.2,23.4h27.8c4.3,0,7.8-3.5,7.8-7.8
	s-3.5-7.8-7.8-7.8h-23.6c-6.7,0-12.4-5-13.3-11.6l-12.2-93.6C331.5,265.1,327.6,262.1,323.3,262.6z"/>
<path fill="#7367F0" d="M411.9,375.3l-79.2,1.1l-7.7-113.9l66.3-0.4c6.6,0,12,5.4,12,12.1L411.9,375.3z"/>
<g opacity="0.3">
	<path d="M323.3,262.6c-4.2,0.6-7.1,4.3-6.7,8.5l10.5,95.6c1.5,13.3,12.8,23.4,26.2,23.4h27.8c4.3,0,7.8-3.5,7.8-7.8
		s-3.5-7.8-7.8-7.8h-25.3c-6.7,0-11.4-4.8-12.3-11.4l-11.5-93.8C331.5,265.1,327.6,262.1,323.3,262.6z"/>
</g>
<path fill="#242745" d="M403.9,399.2h-17.3v9h17.3V399.2z"/>
<path fill="#A8AAAE" d="M398.5,492h-6.7c-2.9,0-5.2-2.3-5.2-5.2v-30.9c0-2.9,2.3-5.2,5.2-5.2h6.7c2.9,0,5.2,2.3,5.2,5.2v30.9
	C403.7,489.7,401.4,492,398.5,492z"/>
<path fill="#FFFFFF" fill-opacity="0.2" d="M398.5,492h-6.7c-2.9,0-5.2-2.3-5.2-5.2v-30.9c0-2.9,2.3-5.2,5.2-5.2h6.7
	c2.9,0,5.2,2.3,5.2,5.2v30.9C403.7,489.7,401.4,492,398.5,492z"/>
<path fill="#242745" d="M398.5,492c0,0,0.4,0,1.1-0.2c0.7-0.2,1.7-0.6,2.6-1.6c0.4-0.5,0.8-1.1,1.1-1.9c0.3-0.8,0.2-1.6,0.2-2.6
	c0-1.9,0-4.1-0.1-6.6c0-4.9,0-10.7-0.1-17.1c0-1.6,0-3.3,0-4.9c0-0.9,0.1-1.7-0.2-2.5c-0.2-0.8-0.6-1.5-1.2-2.1
	c-0.6-0.6-1.3-1-2.1-1.3c-0.8-0.2-1.7-0.2-2.6-0.2c-1.8,0-3.7,0-5.5,0c-1.7,0-3.4,1-4.2,2.5c-0.4,0.7-0.6,1.6-0.6,2.4
	c0,0.9,0,1.8,0,2.6c0,3.5,0,6.9,0,10.1c0,6.4-0.1,12.2-0.1,17.1c-0.1,1.2,0.1,2.3,0.6,3.3c0.5,0.9,1.3,1.6,2.1,2.1
	c0.8,0.4,1.7,0.6,2.5,0.6c0.8,0,1.6,0,2.3,0c1.3,0,2.4,0.1,3.1,0.1C398.2,492,398.5,492,398.5,492c0,0-0.4,0.1-1.1,0.1
	c-0.8,0-1.8,0-3.1,0.1c-0.7,0-1.4,0-2.3,0c-0.8,0-1.8-0.1-2.7-0.6c-0.9-0.5-1.7-1.2-2.3-2.2c-0.3-0.5-0.5-1.1-0.6-1.7
	c-0.1-0.6-0.1-1.2-0.1-1.8c0-4.9,0-10.7-0.1-17.1c0-3.2,0-6.6,0-10.1c0-0.9,0-1.8,0-2.6c0-0.9,0.2-1.9,0.7-2.8
	c0.9-1.7,2.8-2.9,4.8-2.8c1.9,0,3.7,0,5.5,0c0.9,0,1.8-0.1,2.8,0.2c0.9,0.3,1.7,0.8,2.4,1.4c0.6,0.7,1.1,1.5,1.4,2.4
	c0.3,0.9,0.2,1.8,0.2,2.6c0,1.7,0,3.3,0,4.9c0,6.4-0.1,12.2-0.1,17.1c0,2.4,0,4.6-0.1,6.6c0,1,0,1.9-0.3,2.7c-0.3,0.8-0.7,1.5-1.2,2
	c-1,1-2.1,1.4-2.8,1.5C398.9,492.1,398.5,492,398.5,492z"/>
<path fill="#A8AAAE" d="M445,489.5H343.4c-3,0-5.4,1-7.3,2.9c-3.8,3.9-3.5,10.4-3.5,10.7l4.6-0.2c-0.1-1.3,0.3-5.2,2.3-7.3
	c1-1,2.3-1.5,4-1.5H370v11.8h4.6v-11.8H445c3,0,5.4,2.4,5.4,5.4v3.5h4.6v-3.5C455.1,494,450.6,489.5,445,489.5z"/>
<path fill="#FFFFFF" fill-opacity="0.2" d="M445,489.5H343.4c-3,0-5.4,1-7.3,2.9c-3.8,3.9-3.5,10.4-3.5,10.7l4.6-0.2
	c-0.1-1.3,0.3-5.2,2.3-7.3c1-1,2.3-1.5,4-1.5H370v11.8h4.6v-11.8H445c3,0,5.4,2.4,5.4,5.4v3.5h4.6v-3.5
	C455.1,494,450.6,489.5,445,489.5z"/>
<path fill="#242745" d="M445,489.5c0,0,0.4,0,1.3,0c0.8,0.1,2.1,0.3,3.5,1.1c1.4,0.8,3.1,2.1,4.2,4.3c0.6,1.1,1,2.3,1.1,3.7
	c0.1,1.4,0,2.8,0.1,4.4v0.2H455c-1.4,0-3,0-4.6,0h-0.2l0-0.2c-0.1-2.3,0.5-5-1.4-7c-0.8-0.9-2.1-1.6-3.4-1.7c-1.4,0-2.8,0-4.3,0
	c-5.9,0-12.4,0-19.3,0c-13.9,0-29.9,0-47.2,0.1l0.3-0.3c0,3.7,0,7.7,0,11.8v0.3h-0.3c-1.4,0-3,0-4.6,0h-0.3v-0.3c0-3.7,0-7.8,0-11.8
	l0.3,0.3c-4.8,0-10,0-15.1,0c-4,0-8,0-12,0c-0.9,0.1-1.9,0.3-2.6,0.8c-0.8,0.5-1.3,1.3-1.7,2.1c-0.8,1.7-1.1,3.6-1.1,5.5v0.3l-0.3,0
	c-1.6,0.1-3.1,0.1-4.6,0.2l-0.3,0v-0.3c0-2.2,0.3-4.4,1-6.4c0.7-2,1.9-4,3.6-5.3c1.7-1.4,3.8-2.1,5.9-2.2c2.1,0,4.1,0,6.1,0
	c8,0,15.8,0,23.1,0c14.6,0,27.6,0.1,38.5,0.1c10.8,0,19.5,0.1,25.5,0.1c3,0,5.3,0,6.9,0.1c0.8,0,1.3,0,1.8,0
	C444.8,489.4,445,489.5,445,489.5s-0.2,0-0.6,0c-0.4,0-1,0-1.8,0c-1.6,0-3.9,0-6.9,0.1c-6,0-14.7,0.1-25.5,0.1
	c-10.8,0-23.9,0.1-38.5,0.1c-7.3,0-15,0-23.1,0c-2,0-4.1,0-6.1,0c-2,0.1-4,0.7-5.5,2c-1.6,1.3-2.7,3.1-3.4,5c-0.7,2-1,4.1-1,6.2
	l-0.4-0.3c1.5-0.1,3.1-0.1,4.6-0.2l-0.3,0.4c0-2,0.3-4,1.2-5.8c0.4-0.9,1.1-1.8,1.9-2.4c0.9-0.6,1.9-0.9,2.9-0.9c4,0,8,0,12,0
	c5.2,0,10.3,0,15.1,0h0.3v0.3c0,4.1,0,8.1,0,11.8l-0.3-0.3c1.6,0,3.2,0,4.6,0l-0.3,0.3c0-4.1,0-8.1,0-11.8v-0.3h0.3
	c17.3,0,33.2,0,47.2,0.1c7,0,13.4,0,19.3,0c1.5,0,2.9,0,4.3,0c1.4,0.1,2.8,0.8,3.7,1.8c0.9,1,1.4,2.3,1.4,3.6c0,1.2,0,2.5,0,3.6
	l-0.2-0.2c1.6,0,3.2,0,4.6,0l-0.2,0.2c0-1.5,0.1-3,0-4.4c-0.1-1.3-0.5-2.6-1-3.6c-1.1-2.1-2.7-3.4-4.1-4.2c-1.4-0.8-2.7-1-3.5-1.2
	C445.5,489.5,445,489.5,445,489.5z"/>
<path fill="#242745" d="M381.3,511.4c0,5-4.1,9.1-9.1,9.1c-5,0-9.1-4.1-9.1-9.1s4.1-9.1,9.1-9.1
	C377.2,502.3,381.3,506.4,381.3,511.4z"/>
<path fill="#242745" d="M343.9,509.2c0,5-4.1,9.1-9.1,9.1c-5,0-9.1-4.1-9.1-9.1c0-5,4.1-9.1,9.1-9.1
	C339.8,500.1,343.9,504.2,343.9,509.2z"/>
<path fill="#242745" d="M460.8,509.5c0,5-4.1,9.1-9.1,9.1c-5,0-9.1-4.1-9.1-9.1c0-5,4.1-9.1,9.1-9.1
	C456.7,500.5,460.8,504.5,460.8,509.5z"/>
<path fill="#242745" d="M454.8,374.6c0,0.2-22.3,0.4-49.9,0.5c-27.6,0.1-49.9,0-49.9-0.2c0-0.2,22.3-0.4,49.9-0.5
	C432.5,374.3,454.8,374.4,454.8,374.6z"/>
<path fill="#242745" d="M343.7,361.6c-0.2,0-2.9-20.6-6.1-46.1c-3.2-25.5-5.7-46.2-5.5-46.2c0.2,0,2.9,20.6,6.1,46.1
	C341.4,340.9,343.9,361.6,343.7,361.6z"/>
<path fill="#242745" d="M331.2,262.4c0,0,0.2-0.1,0.7-0.2c0.5-0.1,1.2-0.2,2.1-0.2c1.8,0,4.5,0.1,7.5,1.2c1.5,0.6,3.1,1.5,4.4,3
	c1.3,1.4,2.4,3.2,3.4,5c2,3.8,4.1,7.9,6.5,12.1c4.8,8.5,9.3,16.1,12.4,21.8c1.5,2.8,2.7,5.1,3.5,6.7c0.4,0.7,0.7,1.4,0.9,1.9
	c0.2,0.4,0.3,0.7,0.3,0.7c0,0-0.2-0.2-0.4-0.6c-0.3-0.5-0.6-1.1-1-1.8c-0.9-1.6-2.2-3.9-3.7-6.6c-3.2-5.6-7.7-13.1-12.5-21.7
	c-2.4-4.3-4.6-8.4-6.5-12.1c-1-1.9-2-3.6-3.2-5c-1.2-1.4-2.7-2.3-4.1-2.9c-3-1.1-5.6-1.3-7.3-1.3
	C332.2,262.3,331.2,262.5,331.2,262.4z"/>
<path fill="#242745" d="M317.2,267.4c0.2,0.1-5.8,10.6-13.4,23.4c-7.6,12.8-13.8,23.1-14,23c-0.2-0.1,5.8-10.6,13.4-23.4
	C310.8,277.6,317.1,267.3,317.2,267.4z"/>
<path fill="#FAFAFA" d="M388,313.8H279.4v32H388V313.8z"/>
<path fill="#242745" d="M308.7,323.7l-5.3,12.3h-2.8l-5.3-12.3h3.1l3.7,8.8l3.8-8.8H308.7z"/>
<path fill="#242745" d="M317.4,333.4h-5.7l-1.1,2.6h-2.9l5.5-12.3h2.8l5.5,12.3h-3L317.4,333.4z M316.5,331.2l-1.9-4.7l-1.9,4.7
	H316.5z"/>
<path fill="#242745" d="M321.8,329.9c0-3.7,2.8-6.4,6.7-6.4c2.1,0,3.9,0.8,5.1,2.2l-1.8,1.7c-0.8-1-1.9-1.4-3.1-1.4
	c-2.3,0-3.9,1.6-3.9,3.9c0,2.3,1.6,3.9,3.9,3.9c1.2,0,2.3-0.5,3.1-1.5l1.8,1.7c-1.2,1.4-2.9,2.2-5.1,2.2
	C324.6,336.2,321.8,333.6,321.8,329.9z"/>
<path fill="#242745" d="M343.2,333.4h-5.7l-1.1,2.6h-2.9l5.5-12.3h2.8l5.5,12.3h-3L343.2,333.4z M342.3,331.2l-1.9-4.7l-1.9,4.7
	H342.3z"/>
<path fill="#242745" d="M359.8,323.7V336h-2.3l-6.1-7.5v7.5h-2.8v-12.3h2.3l6.1,7.5v-7.5H359.8z"/>
<path fill="#242745" d="M365.3,326h-3.9v-2.3h10.7v2.3h-3.9v10h-2.8V326z"/>
<path fill="#242745" d="M384.5,342.9c0,0,0-0.2,0-0.5c0-0.3,0-0.8,0-1.3c0-1.2,0-2.9-0.1-5.1c0-4.5-0.1-11-0.1-19.2l0.2,0.2
	c-23.2,0-60.4,0.1-102.4,0.1c0.1-0.2-0.3,0.3,0.3-0.3v0v0v0v0.1v0.1v0.2v0.4v0.8v1.7c0,1.1,0,2.2,0,3.3c0,2.2,0,4.4,0,6.6
	c0,4.4,0,8.7,0,12.9l-0.3-0.3c29.2,0.1,54.7,0.1,73.1,0.2c9.1,0,16.5,0.1,21.5,0.1c2.5,0,4.5,0,5.8,0c0.6,0,1.1,0,1.5,0
	C384.3,342.9,384.5,342.9,384.5,342.9c0,0-0.2,0-0.5,0c-0.4,0-0.8,0-1.5,0c-1.3,0-3.3,0-5.7,0c-5,0-12.4,0.1-21.5,0.1
	c-18.4,0-44,0.1-73.3,0.2h-0.3v-0.3c0-4.2,0-8.5,0-12.9c0-2.2,0-4.4,0-6.6c0-1.1,0-2.2,0-3.3v-1.7v-0.8v-0.4v-0.2v-0.1v-0.1v0v0v0
	c0.7-0.7,0.2-0.2,0.4-0.3c42,0.1,79.3,0.1,102.4,0.1h0.2v0.2c-0.1,8.3-0.1,14.8-0.1,19.4c0,2.2,0,3.9-0.1,5.1c0,0.5,0,1,0,1.3
	C384.5,342.7,384.5,342.9,384.5,342.9z"/>
<path fill="#A8AAAE" d="M326.7,120.7l-1.3-27.7c-0.1-2.3-1.9-4.1-4.2-4.3c-2.4-0.2-4.5,1.5-4.8,3.9l-3.5,27.8c-0.3,2.1,1.4,4,3.5,4
	l6.8,0C325.2,124.3,326.8,122.7,326.7,120.7z"/>
<path fill="#A8AAAE" d="M314.2,73c1.2-3.5,5.1-5.4,8.6-4.1c3.5,1.2,5.4,5.1,4.1,8.6c-1.2,3.5-5.1,5.4-8.6,4.1
	C314.8,80.3,312.9,76.5,314.2,73z"/>
<path fill="#A8AAAE" d="M240.5,91.2l24.8,42.1c2,3.4,6.3,4.8,10,3.2c3.9-1.7,5.7-6.1,4.3-10l-17.4-46.1c-1.3-3.5-5.4-5.1-8.7-3.3
	l-10.5,5.5C239.8,84.2,238.7,88.1,240.5,91.2z"/>
<path fill="#A8AAAE" d="M299.2,155.1c1,6.5-3.5,12.6-10,13.5c-6.5,1-12.6-3.5-13.5-10c-1-6.5,3.5-12.6,10-13.5
	C292.2,144.1,298.2,148.6,299.2,155.1z"/>
<g>
	<path fill="#FFFFFF" fill-opacity="0.2" d="M326.7,120.7l-1.3-27.7c-0.1-2.3-1.9-4.1-4.2-4.3c-2.4-0.2-4.5,1.5-4.8,3.9l-3.5,27.8
		c-0.3,2.1,1.4,4,3.5,4l6.8,0C325.2,124.3,326.8,122.7,326.7,120.7z"/>
	<path fill="#FFFFFF" fill-opacity="0.2" d="M314.2,73c1.2-3.5,5.1-5.4,8.6-4.1c3.5,1.2,5.4,5.1,4.1,8.6c-1.2,3.5-5.1,5.4-8.6,4.1
		C314.8,80.3,312.9,76.5,314.2,73z"/>
	<path fill="#F5F5F5" d="M254.2,155.7L238,142c-1.3-1.1-3.3-1.1-4.5,0.1c-1.3,1.2-1.5,3.3-0.3,4.7l13.7,16.4c1,1.2,2.9,1.3,4,0.1
		l3.5-3.8C255.4,158.5,255.3,156.7,254.2,155.7z"/>
	<path fill="#F5F5F5" d="M221,137.9c-1.3-2.5-0.4-5.6,2.2-7c2.5-1.3,5.6-0.4,7,2.2c1.3,2.5,0.4,5.6-2.2,7
		C225.5,141.4,222.3,140.4,221,137.9z"/>
	<path fill="#FFFFFF" fill-opacity="0.2" d="M240.5,91.2l24.8,42.1c2,3.4,6.3,4.8,10,3.2c3.9-1.7,5.7-6.1,4.3-10l-17.4-46.1
		c-1.3-3.5-5.4-5.1-8.7-3.3l-10.5,5.5C239.8,84.2,238.7,88.1,240.5,91.2z"/>
	<path fill="#FFFFFF" fill-opacity="0.2" d="M299.2,155.1c1,6.5-3.5,12.6-10,13.5c-6.5,1-12.6-3.5-13.5-10c-1-6.5,3.5-12.6,10-13.5
		C292.2,144.1,298.2,148.6,299.2,155.1z"/>
</g>
<path fill="#242745" d="M744.1,552.6c0-2.5-0.1-220.1-0.3-552.2l0.3,0.3c-174.2,0-381.7,0-603.8,0.1h-0.1l0.3-0.3
	c0,201.2,0,390.3,0,552.2l-0.3-0.3C501.3,552.4,741.6,552.6,744.1,552.6c-2.6,0-242.9,0.1-603.9,0.3h-0.3v-0.3
	c0-161.9,0-351,0-552.2V0h0.4h0.1C362.4,0,570,0,744.1,0.1h0.3v0.3C744.3,332.4,744.1,550.1,744.1,552.6z"/>
<path fill="#FFFFFF" d="M157,23.5c2.8,0,5-2.2,5-5s-2.2-5-5-5c-2.8,0-5,2.2-5,5S154.3,23.5,157,23.5z"/>
<path fill="#FFFFFF" d="M174.2,23.5c2.8,0,5-2.2,5-5s-2.2-5-5-5c-2.8,0-5,2.2-5,5S171.4,23.5,174.2,23.5z"/>
<path fill="#FFFFFF" d="M191.4,23.5c2.8,0,5-2.2,5-5s-2.2-5-5-5c-2.8,0-5,2.2-5,5S188.6,23.5,191.4,23.5z"/>
<path fill="#455A64" d="M512.9,122.3c-0.1,0.2-2.9-0.7-6.2-2c-3.4-1.3-6-2.5-6-2.7c0.1-0.2,2.9,0.7,6.2,2
	C510.3,120.9,513,122.1,512.9,122.3z"/>
<path fill="#FFBE9D" d="M496.2,148.7c-1.4-0.2-4.8,1.6-7.8,5.1c-0.1,0.1-0.1,0.1-0.1,0.2c-2.1,2.3-3.4-4.8-3.5-7.5
	c-0.1-1.7-1.9-2.9-3.6-2.4l-9.1,3.5l-2.6-0.1c-1.3,0.4-2.2,1.7-1.9,3l3.2,14.2l-0.2,3.8l17.5,3.6l0.9-9.5c0.3-1.1,0.8-2.3,1.4-3.8
	c0.5-1.3,1.3-2.5,2.2-3.6c1-1.1,2.3-2.5,3.4-3.3c0.1-0.1,0.2-0.1,0.3-0.2c0.2-0.1,0.4-0.2,0.5-0.4
	C497.9,150.5,497.5,148.8,496.2,148.7z"/>
<path fill="#7367F0" d="M492.4,108.6c0,0-10.4-1.3-26.1-13.8c-15.7-12.5-24.2-30.2-25.9-30c-1.7,0.3-9.8-2.6-21.4,30.6
	c-11.6,33.2-5.2,40-2.3,39.7c2.9-0.3,22.1-7.7,34.6-7.5c12.5,0.2,28.9,5.2,28.9,5.2L492.4,108.6z"/>
<path fill="#242745" d="M515.7,123.9l-2.9,7l-1.3,3.1c-1.8,4.3-6.6,6.4-10.9,4.9l-22.6-5.6l10-30.3l23,9.6
	C515.5,114.4,517.5,119.5,515.7,123.9z"/>
<path fill="#242745" d="M506.8,134.2l-7.6,13.4l-3.5-1.1l-23.7,17.7l-5.9-12.8c0,0,13.8-5.3,16.5-10c2.7-4.7-0.1-5.9-0.1-5.9l6.7-7
	L506.8,134.2z"/>
<path fill="#242745" d="M420.1,96c-6.2,18-8,33.6-4,35c4,1.4,12.1-12.1,18.3-30.1c6.2-18,7.9-33.6,4-35
	C434.5,64.5,426.3,78,420.1,96z"/>
<path fill="#455A64" d="M518.5,133.3l-6.1-1.3l3-7.3l4.7,2.3L518.5,133.3z"/>
<path fill="#455A64" d="M511.5,126.7c-0.1,0.2-3.1-0.7-6.9-1.9c-3.7-1.3-6.7-2.5-6.6-2.7c0.1-0.2,3.1,0.7,6.9,1.9
	C508.6,125.3,511.5,126.5,511.5,126.7z"/>
<path fill="#455A64" d="M509.6,131.3c0,0.1-0.7,0-1.9-0.2c-0.6-0.1-1.3-0.3-2-0.5c-0.8-0.2-1.6-0.5-2.4-0.8c-3.4-1.2-6-2.4-6-2.6
	c0.1-0.2,2.8,0.7,6.2,1.9c0.8,0.3,1.6,0.6,2.4,0.8c0.7,0.2,1.4,0.4,1.9,0.6C508.9,130.9,509.6,131.2,509.6,131.3z"/>
<path fill="#FAFAFA" d="M435.6,90.6c0,0-9.4-4.7-13.1,7.8s5.8,13.6,5.8,13.6C431.6,105.7,434,98.6,435.6,90.6z"/>
<path fill="#242745" d="M443.7,75.4c0.1,0,0,0.8-0.1,2.3c-0.1,1.5-0.3,3.7-0.7,6.3c-0.2,1.3-0.5,2.8-0.8,4.3
	c-0.2,0.8-0.3,1.6-0.5,2.4c-0.1,0.4-0.2,0.8-0.2,1.3c-0.1,0.4-0.2,0.8-0.3,1.3c-0.5,1.7-1,3.5-1.5,5.4c-0.1,0.5-0.3,0.9-0.4,1.4
	c-0.1,0.5-0.3,0.9-0.5,1.4c-0.4,0.9-0.7,1.9-1.1,2.8c-0.4,1-0.7,1.9-1.1,2.8c-0.2,0.5-0.3,0.9-0.5,1.4c-0.2,0.4-0.4,0.9-0.6,1.3
	c-0.8,1.7-1.6,3.4-2.4,5.1c-0.2,0.4-0.4,0.8-0.6,1.2c-0.2,0.4-0.4,0.7-0.6,1.1c-0.4,0.7-0.8,1.4-1.2,2.1c-0.8,1.4-1.5,2.6-2.2,3.8
	c-1.5,2.2-2.8,4-3.7,5.2c-0.9,1.2-1.4,1.9-1.4,1.8c0,0,0.4-0.7,1.2-2c0.8-1.3,2-3.1,3.4-5.3c0.7-1.2,1.4-2.5,2.1-3.8
	c0.4-0.7,0.8-1.4,1.2-2.1c0.2-0.4,0.4-0.7,0.6-1.1c0.2-0.4,0.4-0.8,0.6-1.2c0.7-1.6,1.5-3.3,2.3-5c0.2-0.4,0.4-0.9,0.6-1.3
	c0.2-0.4,0.4-0.9,0.5-1.4c0.4-0.9,0.7-1.9,1.1-2.8c0.4-1,0.7-1.9,1.1-2.8c0.2-0.5,0.4-0.9,0.5-1.4c0.1-0.5,0.3-0.9,0.4-1.4
	c0.5-1.8,1.1-3.6,1.6-5.3c0.1-0.4,0.3-0.8,0.4-1.3c0.1-0.4,0.2-0.8,0.3-1.2c0.2-0.8,0.3-1.6,0.5-2.4c0.3-1.5,0.6-3,0.9-4.3
	c0.4-2.6,0.7-4.8,0.9-6.3C443.5,76.2,443.7,75.4,443.7,75.4z"/>
<path fill="#FFBE9D" d="M478.3,141.2c-1,0.3-1.5,1.4-1.2,2.5c0.5,2,1.4,5.1,2.1,6.9c0.2,0.6,0.5,1.2,0.9,1.7
	c0.4,0.5,1.1,0.8,1.7,0.6c0.6-0.2,1-0.9,1.1-1.6c0.1-0.7-0.1-1.4-0.2-2c-0.5-1.8-1.3-4.6-2-6.8C480.4,141.4,479.3,140.8,478.3,141.2
	z"/>
<path fill="#FFBE9D" d="M475.4,144.5c-1,0.3-1.5,1.4-1.2,2.5c0.5,2,1.4,5.1,2.1,6.9c0.2,0.6,0.5,1.2,0.9,1.7
	c0.4,0.5,1.1,0.8,1.7,0.6c0.6-0.2,1-0.9,1.1-1.6c0.1-0.7-0.1-1.4-0.2-2c-0.5-1.8-1.3-4.6-2-6.8C477.5,144.7,476.4,144.2,475.4,144.5
	z"/>
<path fill="#FFBE9D" d="M472.7,146.6c-0.9,0.3-1.4,1.2-1.1,2.1c0.5,1.7,1.3,4.4,1.9,6c0.2,0.5,0.4,1.1,0.8,1.5
	c0.4,0.4,1,0.7,1.5,0.5c0.6-0.2,0.9-0.8,1-1.3c0.1-0.6-0.1-1.2-0.2-1.8c-0.4-1.6-1.1-4-1.8-5.9C474.5,146.8,473.6,146.3,472.7,146.6
	z"/>
<path fill="#FFBE9D" d="M469.2,147.1c-0.9,0.3-1.4,1.2-1.1,2.1c0.5,1.7,1.3,4.4,1.9,6c0.2,0.5,0.4,1.1,0.8,1.5
	c0.4,0.4,1,0.7,1.5,0.5c0.6-0.2,1-0.8,1-1.3c0.1-0.6-0.1-1.2-0.2-1.8c-0.4-1.6-1.2-4-1.8-6C471.1,147.3,470.1,146.8,469.2,147.1z"/>
<path fill="#EB996E" d="M479.9,152.3c-0.2,0.1-0.9-1.5-1.6-3.5c-0.7-2-1.1-3.7-0.9-3.7c0.2-0.1,0.9,1.5,1.6,3.5
	C479.7,150.6,480.1,152.3,479.9,152.3z"/>
<path fill="#EB996E" d="M476.8,155.1c-0.2,0.1-0.9-1.7-1.6-4c-0.7-2.3-1.2-4.2-1-4.2c0.2-0.1,0.9,1.7,1.6,4
	C476.6,153.1,477,155,476.8,155.1z"/>
<path fill="#EB996E" d="M473.7,155.2c-0.2,0.1-1-1.4-1.7-3.5c-0.7-2-0.9-3.8-0.7-3.8c0.2-0.1,0.7,1.6,1.4,3.6
	C473.4,153.5,473.9,155.1,473.7,155.2z"/>
<path fill="#242745" d="M582.5,107.8c-5-8.4-14-13.9-23.4-16.5c-4-1.1-6.7-0.8-10.7-0.3c-4.1,0.5-7.9,2-10.8,5
	c-3.4,3.5-6.4,7.6-7.6,12.3c-1.3,4.8-2.6,9.7-3,14.7c-0.4,5,0.2,10.2,2.5,14.6l12.2,4.1c6.9,1.3,13.9,2.6,20.9,2
	c7-0.5,14.1-3.2,18.7-8.6C587.6,127.8,587.5,116.2,582.5,107.8z"/>
<path fill="#242745" d="M589.1,144.6c0.1-2.9-0.9-5.9-3.2-7.7c-2.2-1.8-5.7-2.2-8-0.5l-2.3,2c-3.3,0.8-5.8,4.1-5.9,7.5
	c-0.1,3.4,2,6.7,5.1,8.2c3.1,1.5,6.9,1.1,9.7-0.8C587.3,151.4,589,148,589.1,144.6z"/>
<path fill="#455A64" d="M585.3,152.7c-0.1-0.1,0.9-0.7,1.1-2.4c0.1-1.6-0.7-3.9-2-6.1c-1.3-2.2-3.1-3.8-4.4-4.8
	c-1.4-1-2.3-1.5-2.3-1.6c0-0.1,1.1,0.2,2.5,1.2c1.5,0.9,3.3,2.6,4.7,4.8c0.7,1.1,1.2,2.3,1.6,3.4c0.4,1.1,0.5,2.2,0.4,3.1
	c-0.1,0.9-0.5,1.6-0.9,1.9C585.6,152.7,585.4,152.8,585.3,152.7z"/>
<path fill="#455A64" d="M578.7,155.5c-0.2,0,1.2-3.7,0.7-8.4c-0.5-4.7-2.6-8-2.4-8.1c0.1,0,0.7,0.7,1.4,2.1s1.4,3.5,1.7,5.9
	c0.2,2.4,0,4.6-0.4,6.1C579.2,154.7,578.8,155.6,578.7,155.5z"/>
<path fill="#FFBE9D" d="M537.6,168c0.8-4.4,2.4-13.8,2.4-13.8c0,0-10.1-2.7-10.9-16.3c-0.4-6.7,1-17.6,2.4-26.5
	c1.3-8,9.7-17.8,19.6-16.3l4.5,0.2l15.8,9.2c2.4,0.5,4,2.7,3.7,5.2l-8.6,57L542,214.4l-5.5-33.9L537.6,168z"/>
<path fill="#242745" d="M536.1,121.2c-0.1,0.9,0.5,1.7,1.5,1.9c0.9,0.1,1.8-0.5,1.9-1.4c0.1-0.9-0.5-1.7-1.5-1.9
	C537,119.6,536.2,120.3,536.1,121.2z"/>
<path fill="#242745" d="M534,116.8c0.2,0.2,1.6-0.6,3.4-0.4c1.8,0.2,3.1,1.2,3.3,1c0.1-0.1-0.1-0.5-0.6-1c-0.5-0.5-1.5-1-2.6-1.1
	c-1.1-0.1-2.2,0.2-2.8,0.6C534.2,116.3,533.9,116.7,534,116.8z"/>
<path fill="#242745" d="M543.4,132.5c0-0.1-1.1-0.4-2.9-0.8c-0.5-0.1-0.9-0.2-1-0.6c-0.1-0.4,0.2-0.8,0.4-1.4
	c0.5-1.1,1.1-2.2,1.7-3.5c2.4-4.9,4.2-9,4-9.1c-0.2-0.1-2.3,3.8-4.8,8.7c-0.6,1.2-1.1,2.4-1.7,3.5c-0.2,0.5-0.6,1.1-0.4,1.8
	c0.1,0.4,0.4,0.7,0.7,0.8c0.3,0.1,0.6,0.2,0.8,0.2C542.3,132.5,543.4,132.6,543.4,132.5z"/>
<path fill="#EB996E" d="M540,154.2c0,0,8.9,1.4,18.4-3c0,0-5.7,8.8-18.9,6.3L540,154.2z"/>
<path fill="#242745" d="M535.5,110.3c0.3,0.5,1.6,0.1,3.1,0.3c1.5,0.1,2.8,0.5,3.1,0.1c0.2-0.2,0-0.6-0.5-1.1
	c-0.5-0.4-1.4-0.9-2.5-0.9c-1.1-0.1-2,0.2-2.6,0.6C535.6,109.7,535.4,110.1,535.5,110.3z"/>
<path fill="#242745" d="M557.2,122.5c-0.1,0.9-0.9,1.6-1.9,1.5c-0.9-0.1-1.6-0.9-1.6-1.8c0.1-0.9,0.9-1.6,1.9-1.5
	C556.6,120.8,557.3,121.6,557.2,122.5z"/>
<path fill="#242745" d="M558.5,118.4c-0.2,0.2-1.4-0.9-3.2-1.2c-1.8-0.3-3.3,0.5-3.5,0.2c-0.1-0.1,0.2-0.5,0.8-0.8
	c0.6-0.4,1.7-0.6,2.8-0.5c1.1,0.2,2,0.7,2.5,1.2C558.4,117.9,558.6,118.3,558.5,118.4z"/>
<path fill="#242745" d="M558.2,112.1c-0.4,0.4-1.6-0.2-3.1-0.5c-1.5-0.3-2.8-0.1-3.1-0.6c-0.1-0.2,0.2-0.6,0.8-0.9
	c0.6-0.3,1.6-0.5,2.6-0.3c1,0.2,1.9,0.7,2.4,1.2C558.2,111.5,558.4,111.9,558.2,112.1z"/>
<path fill="#242745" d="M572.2,128.4l-2.7,2c-8.5-11-24.2-37.7-23.4-36.1c0,0,7.2-1.8,14.4,0.6c7.2,2.4,20.6,8.2,19.1,16.9
	C578.2,120.4,572.2,128.4,572.2,128.4z"/>
<path fill="#455A64" d="M577.7,136.9c-0.1,0,0.1-0.8,0.2-2.1c0.2-1.4,0.3-3.3,0.1-5.8c-0.3-4.8-2.1-11.5-6-17.8
	c-4-6.3-9-11-12.7-14.1c-1.9-1.6-3.4-2.8-4.5-3.6c-1.1-0.8-1.7-1.3-1.7-1.3c0,0,0.2,0.1,0.5,0.3c0.3,0.2,0.8,0.5,1.3,0.9
	c1.1,0.8,2.7,1.9,4.7,3.5c3.8,3.1,8.9,7.7,12.9,14.1c4,6.4,5.8,13.2,5.9,18.1c0.1,2.5-0.1,4.5-0.3,5.8c-0.1,0.7-0.2,1.2-0.3,1.6
	C577.8,136.7,577.8,136.9,577.7,136.9z"/>
<path fill="#455A64" d="M559,92.5c0,0,0.2,0.1,0.5,0.2s0.8,0.5,1.4,0.8c1.2,0.8,2.8,1.9,4.8,3.4c2,1.5,4.2,3.4,6.6,5.8
	c2.3,2.3,4.9,4.9,6.9,8.2c1,1.6,1.8,3.4,2.3,5.1c0.5,1.7,0.7,3.5,0.7,5.2c0,3.3-0.7,6.3-1.3,8.7c-0.7,2.4-1.4,4.3-2,5.6
	c-0.3,0.6-0.5,1.1-0.6,1.5c-0.2,0.3-0.2,0.5-0.3,0.5c0,0,0.2-0.7,0.7-2.1c0.5-1.3,1.1-3.2,1.8-5.6c0.6-2.4,1.3-5.3,1.2-8.5
	c0-1.6-0.2-3.3-0.7-5c-0.5-1.7-1.3-3.4-2.3-4.9c-2-3.2-4.5-5.8-6.8-8.1c-2.3-2.3-4.6-4.3-6.5-5.8c-1.9-1.6-3.5-2.8-4.7-3.6
	C559.6,93,558.9,92.5,559,92.5z"/>
<path fill="#455A64" d="M572.4,128.6c0,0-0.4-0.4-1-1.3c-0.7-1-1.5-2.2-2.5-3.7c-2.1-3.2-5-7.6-8.2-12.4c-3.2-4.9-6-9.3-8.1-12.5
	c-1-1.5-1.8-2.8-2.4-3.8c-0.5-0.9-0.8-1.4-0.8-1.5c0,0,0.4,0.4,1,1.3c0.7,1,1.5,2.2,2.5,3.7c2.1,3.2,5,7.6,8.2,12.4
	c3.2,4.9,6,9.3,8.1,12.5c1,1.5,1.8,2.8,2.4,3.8C572.1,128.1,572.4,128.6,572.4,128.6z"/>
<path fill="#FFBE9D" d="M569.7,131.9c0.1-1,1.5-3.2,2.5-3.3c2.7-0.2,7.4,0.5,6.8,7.2c-0.8,9.1-9.8,6.4-9.8,6.1
	C569.2,141.7,569.4,135.3,569.7,131.9z"/>
<path fill="#EB996E" d="M571.7,138.5c0,0,0.1,0.1,0.4,0.3c0.2,0.1,0.7,0.3,1.2,0.1c1-0.3,1.9-1.7,2.1-3.4c0.1-0.8,0-1.6-0.2-2.3
	c-0.2-0.7-0.6-1.2-1.1-1.3c-0.5-0.2-0.8,0.1-1,0.4c-0.1,0.2-0.1,0.4-0.2,0.4c0,0-0.2-0.2-0.1-0.5c0.1-0.2,0.2-0.4,0.4-0.5
	c0.2-0.2,0.6-0.2,0.9-0.2c0.7,0.1,1.3,0.8,1.5,1.6c0.3,0.8,0.4,1.7,0.3,2.6c-0.2,1.8-1.3,3.5-2.7,3.7c-0.7,0.1-1.2-0.1-1.4-0.4
	C571.7,138.7,571.6,138.5,571.7,138.5z"/>
<path fill="#FFBE9D" d="M591.1,469.6c-0.2,1.4-3.7,41.6-3.7,41.6H569l-3.2-41.4L591.1,469.6z"/>
<path fill="#7367F0" d="M569,505.2c0,0,12.9,9.2,19.2,1.2l1.6,3.9l7.3,27.4c0.5,1.8-0.4,3.7-2.1,4.4c-1.3,0.5-2.8,0.2-3.8-0.7
	c-5.3-5.1-24.8-23.7-24.6-26.3l0.1-6.7C566.8,507,567.7,505.7,569,505.2z"/>
<path fill="#242745" d="M594.4,542.3l-27.7-29.5v1.5c-0.1,1.6,0.6,2.2,1.3,3.2c2.2,3,8.4,9.8,23.2,23.9
	C592,542.2,593.3,542.5,594.4,542.3z"/>
<path fill="#FFFFFF" d="M570.8,508.4c0.9,0.6,1.2,1.9,0.6,2.8c-0.6,0.9-1.9,1.2-2.8,0.6c-0.9-0.6-1.3-2.1-0.6-3
	c0.7-0.8,2.2-1.1,3-0.3"/>
<path fill="#242745" d="M586.4,527.2c0.2,0.1,1-1.7,3-2.7c2-1,3.9-0.6,4-0.8c0-0.1-0.4-0.4-1.2-0.5c-0.8-0.1-2,0-3.1,0.6
	c-1.1,0.6-1.9,1.4-2.3,2.1C586.4,526.6,586.3,527.1,586.4,527.2z"/>
<path fill="#242745" d="M588.9,531.8c0.2,0.1,1.3-1,3.1-1.5c1.8-0.6,3.3-0.2,3.4-0.4c0.1-0.2-1.6-0.9-3.6-0.3
	C589.7,530.2,588.7,531.7,588.9,531.8z"/>
<path fill="#242745" d="M581.8,521.2c0.2,0.2,1.9-1.6,4.6-2.6c2.7-1.1,5.1-1,5.1-1.2c0.1-0.2-2.5-0.7-5.4,0.5
	C583.2,519,581.6,521.1,581.8,521.2z"/>
<path fill="#242745" d="M581.2,512.9c0.1,0.2,2-0.6,4.5-0.7c2.5-0.1,4.5,0.5,4.5,0.3c0.1-0.2-1.9-1.2-4.6-1
	C583,511.5,581.1,512.7,581.2,512.9z"/>
<path fill="#242745" d="M587.1,512.1c0,0,0-0.5-0.2-1.3c-0.2-0.8-0.7-2-1.7-3.2c-0.5-0.6-1-1.3-2.1-1.6c-0.5-0.1-1.2,0.1-1.5,0.6
	c-0.3,0.5-0.3,1.1-0.2,1.6c0.4,2.2,2.7,3.9,5.2,3.8c2.5-0.2,4.4-2,5.1-4c0.1-0.5,0.2-1.1-0.2-1.7c-0.4-0.5-1.1-0.6-1.6-0.5
	c-1,0.3-1.5,1-2,1.6c-1,1.2-1.5,2.3-1.8,3.1c-0.3,0.8-0.3,1.3-0.3,1.3c0.1,0.1,0.5-1.8,2.5-4c0.5-0.5,1.1-1.1,1.8-1.3
	c0.4-0.1,0.7,0,0.9,0.2c0.2,0.2,0.2,0.7,0.1,1.1c-0.5,1.7-2.3,3.3-4.4,3.5c-2.1,0.1-4.1-1.4-4.4-3.1c-0.1-0.4-0.1-0.9,0.1-1.1
	c0.2-0.3,0.5-0.4,0.8-0.4c0.7,0.1,1.3,0.8,1.8,1.3C586.7,510.2,587,512.2,587.1,512.1z"/>
<path fill="#FFBE9D" d="M490.2,456.6l3.2,51.2l22.3-0.2l3.8-53.2L490.2,456.6z"/>
<path fill="#7367F0" d="M492.9,501.6l0,1.5c0,0-25.1,10-25.4,14.7l49.8-0.1l-0.7-16.6C509.2,504.6,501.5,505,492.9,501.6z"/>
<path fill="#FFFFFF" d="M511.6,506.5c1,0.3,1.6,1.3,1.4,2.3c-0.2,1-1.3,1.7-2.3,1.4c-1-0.2-1.8-1.5-1.5-2.5c0.3-0.9,1.7-1.7,2.5-1.2
	"/>
<path fill="#242745" d="M517.3,517.8l-0.2-4l-47.7,1.5c0,0-2.2,1-2,2.5L517.3,517.8z"/>
<path fill="#242745" d="M492.7,503.2c0,0.2,1.2,0.4,2.4,1.1c1.2,0.7,1.8,1.8,2.1,1.7c0.2-0.1-0.1-1.5-1.6-2.4
	C494.2,502.7,492.7,503,492.7,503.2z"/>
<path fill="#242745" d="M487.5,505.4c-0.1,0.2,1,0.7,1.8,1.7c0.9,1,1.1,2.1,1.3,2.1c0.2,0,0.4-1.4-0.7-2.6
	C488.9,505.3,487.5,505.2,487.5,505.4z"/>
<path fill="#242745" d="M484.5,511.7c0.2,0.1,0.6-1.2-0.1-2.5c-0.6-1.3-1.8-1.9-1.9-1.7c-0.1,0.2,0.6,0.9,1.1,2
	C484.2,510.6,484.3,511.6,484.5,511.7z"/>
<path fill="#242745" d="M519.4,298c-0.7,1.9-27.1,91.4-27.1,91.4l-4.5,106.1l32.9,1.9l11.8-106l30-66.3l-13.2-53.9h-26.9L519.4,298z
	"/>
<path fill="#242745" d="M542.7,271.2c0.5,1.3,17.3,62,17.3,62l2.3,90.5v74.9h29.9l14-165.1c0,0,2.5-30-1.7-40.1
	c-4.2-10.1-21.3-27.8-21.3-27.8L542.7,271.2z"/>
<path fill="#455A64" d="M545.2,277.5c0,0,0.3,0.7,0.7,2.1c0.4,1.5,1,3.4,1.7,5.8c1.5,5,3.5,11.7,5.7,19.1c2.2,7.5,4,14.3,5.1,19.3
	c0.5,2.5,0.9,4.5,1.1,6c0.2,1.4,0.3,2.2,0.2,2.2c-0.1,0-0.2-0.8-0.5-2.2c-0.3-1.4-0.7-3.4-1.3-5.9c-1.2-5-3-11.8-5.2-19.2
	c-2.2-7.5-4.2-14.2-5.6-19.2c-0.7-2.5-1.2-4.5-1.5-5.9C545.3,278.2,545.1,277.5,545.2,277.5z"/>
<path fill="#455A64" d="M555.5,277.5c0.1,0.1-1,0.1-1.9,1.3c-0.4,0.6-0.6,1.4-0.3,2.3c0.3,0.8,1.2,1.6,2.2,1.6c1,0,2-0.6,2.4-1.4
	c0.4-0.8,0.3-1.7-0.1-2.3c-0.7-1.3-1.8-1.4-1.7-1.5c0,0,0.3-0.1,0.7,0.1c0.4,0.1,1,0.5,1.5,1.2c0.5,0.7,0.7,1.8,0.2,2.8
	c-0.5,1-1.6,1.9-3,1.8c-1.4-0.1-2.4-1-2.8-2.1c-0.4-1.1-0.1-2.2,0.5-2.8c0.5-0.7,1.1-1,1.6-1.1C555.2,277.4,555.5,277.4,555.5,277.5
	z"/>
<path fill="#455A64" d="M582.1,321c0,0,0,0.2,0,0.5c0,0.3,0,0.8,0,1.3c0,1.2,0,2.9,0,5.1c0,4.5,0,10.9-0.1,18.9
	c-0.2,16-1,38-1.9,62.4c-0.9,24.4-1.7,46.4-2.1,62.4c-0.2,8-0.3,14.4-0.4,18.9c0,2.2-0.1,3.9-0.1,5.1c0,0.6,0,1,0,1.3
	c0,0.3,0,0.5,0,0.5s0-0.2,0-0.5c0-0.3,0-0.8,0-1.3c0-1.2,0-2.9,0-5.1c0-4.5,0-10.9,0.1-18.9c0.2-16,1-38,1.9-62.4
	c0.9-24.4,1.7-46.4,2.1-62.4c0.2-8,0.3-14.4,0.4-18.9c0-2.2,0.1-3.9,0.1-5.1c0-0.6,0-1,0-1.3C582,321.2,582.1,321,582.1,321z"/>
<path fill="#455A64" d="M535.9,310.1c0,0,0,0.2-0.2,0.5c-0.1,0.3-0.3,0.8-0.5,1.3c-0.5,1.2-1.1,2.9-2,5.1
	c-1.8,4.5-4.4,10.9-7.5,18.9c-3.1,8-6.8,17.5-10.3,28.3c-3.4,10.8-6.9,22.8-8.3,35.8c-0.7,6.5-1,12.9-1.4,19
	c-0.3,6.2-0.7,12.1-1,17.8c-0.6,11.3-1.1,21.5-1.6,30.1c-0.5,8.6-0.9,15.5-1.3,20.3c-0.2,2.4-0.3,4.2-0.4,5.5
	c-0.1,0.6-0.1,1.1-0.1,1.4c0,0.3-0.1,0.5-0.1,0.5s0-0.2,0-0.5c0-0.4,0-0.8,0.1-1.4c0.1-1.3,0.2-3.1,0.3-5.5
	c0.3-4.8,0.7-11.7,1.1-20.3c0.4-8.6,0.9-18.8,1.4-30.1c0.3-5.7,0.6-11.6,0.9-17.8c0.4-6.2,0.7-12.5,1.4-19.1
	c1.4-13.1,4.9-25.1,8.4-35.9c3.5-10.8,7.3-20.3,10.4-28.3c3.2-8,5.9-14.4,7.7-18.8c0.9-2.2,1.6-3.9,2.1-5.1c0.2-0.5,0.4-1,0.6-1.3
	C535.8,310.3,535.8,310.1,535.9,310.1z"/>
<path fill="#7367F0" d="M581,164.4c0,0,17.8,3.3,21.7,6.6c3.8,3.2,39.6,49.8,40.3,59.2c0.7,9.4-3.6,12.8-6.1,15.1
	c-2.5,2.2-45.1,31.2-45.1,31.2l-13.1-21.8l36.8-22l-17.8-30.4L581,164.4z"/>
<path fill="#7367F0" d="M627.6,224.3c0,0.2-3.5,0.2-7.1,2.5c-3.6,2.2-5.1,5.4-5.3,5.3c-0.1,0,0.2-0.9,1-2c0.8-1.2,2.1-2.7,4-3.8
	c1.8-1.1,3.8-1.7,5.2-1.9C626.7,224.1,627.6,224.3,627.6,224.3z"/>
<path fill="#FFFFFF" d="M537.9,166.7l4.7,42.9l24.1-48.3l15.5,15.8c0,0,9.6,56.4,9.7,56.8c0.1,0.4-6.5,32.3-6.5,32.3l-44.2,8.5
	l-13.5-3.4l-2.1-50.2l-0.9-38.4L537.9,166.7z"/>
<path fill="#7367F0" d="M532.1,168.5l-11.5,2.7c-1.5,0.4-2.9,1.1-4.2,2.1c-9.8,8.4-31,26.1-31,26.1l3.9-31.4l-20.3-1.9
	c0,0-6.1,39.6-5.5,50.1c0.7,12.1,11.6,15.1,27.4,8.6c17.5-7.2,28.3-13.9,28.3-13.9L532.1,168.5z"/>
<path fill="#7367F0" d="M596.1,202.4L594,240l2.1,7.3c0,0,19.8,37.3,23,62.1l-24.5,4c0,0-6.7-31.9-11.4-47.7
	c-4.7-15.8-18.5-22.5-23.2-38.8s-3-27.7-3-28.7c0-1,9.6-36.8,9.6-36.8l1.7-7.5l8.7,8.2l22.2,7.4L596.1,202.4z"/>
<g opacity="0.3">
	<path d="M607.8,272.3c0,0-8.4,6.4-12.7,8.6c-0.2,0.1-0.6,0.3-1,0.4c-1.8,0.7-3.9-0.1-4.8-1.8c-0.5-1-1.1-2-1.4-2.7
		c-0.9-1.9-1.9-4.3-2.7-6.3l2.7-0.7l4,6.6l11.5-7.9l2.2-1.5L607.8,272.3z"/>
</g>
<path fill="#7367F0" d="M538.1,162.5l-5.3,5.6l-12.8,4.5c0,0-3.1,37.9-1.4,45.9c1.6,7.8,4.8,17.2,5,28.3c0.3,11.1-12.5,70-12.5,70
	l15.4,5.8c0,0,7.8-68.1,6.3-83c-1.5-14.8,2.4-44.8,2.4-44.8L538.1,162.5z"/>
<path fill="#242745" d="M567.2,234.7c0,0-0.2-0.2-0.6-0.6c-0.4-0.4-0.8-1.1-1.3-2c-1-1.9-1.9-4.8-2-8.6c-0.2-3.7,0.3-8.2,0.9-13
	c0.7-4.9,1.7-10.2,3.3-15.6c2.8-10.2,6.9-19.1,10.5-25.3l0.2,0.4c-2-0.1-3.8-0.1-5.4-0.2l-0.4,0l0.2-0.3c1.5-2,2.7-3.6,3.6-4.8
	c0.4-0.5,0.7-0.9,1-1.3c0.2-0.3,0.4-0.4,0.4-0.4s-0.1,0.2-0.3,0.5c-0.2,0.4-0.5,0.8-0.9,1.3c-0.8,1.2-2,2.9-3.4,4.9l-0.2-0.3
	c1.6,0,3.4,0.1,5.4,0.1h0.4l-0.2,0.4c-3.4,6.3-7.4,15.1-10.3,25.3c-1.5,5.4-2.6,10.7-3.3,15.5c-0.7,4.8-1.1,9.2-1,12.9
	c0.1,3.7,0.9,6.6,1.7,8.5C566.5,233.8,567.2,234.6,567.2,234.7z"/>
<path fill="#242745" d="M582.2,199.9c0,0.2-2.8,0.8-6.3,1.2c-3.5,0.4-6.4,0.3-6.4,0.1c0-0.2,2.8-0.4,6.3-0.8
	C579.4,200.1,582.2,199.7,582.2,199.9z"/>
<path fill="#242745" d="M597.8,191.2c0.1,0-0.1,0.7-0.3,1.9c-0.2,1.2-0.4,3-0.6,5.2c-0.4,4.4-0.8,10.5-1.3,17.2
	c-0.4,6.7-0.8,12.7-1,17.3c-0.1,2.2-0.3,4-0.4,5.2c-0.1,1.2-0.2,1.9-0.3,1.9c-0.1,0,0-0.7,0-1.9c0.1-1.4,0.1-3.1,0.2-5.2
	c0.2-4.4,0.4-10.5,0.8-17.3c0.4-6.7,0.9-12.8,1.5-17.3c0.3-2.2,0.6-4,0.8-5.2C597.6,191.9,597.8,191.2,597.8,191.2z"/>
<path fill="#242745" d="M626.3,233.9c-0.1,0.2-2.5-0.6-5.5-0.8c-3.1-0.2-5.6,0.2-5.6,0c-0.1-0.2,2.5-0.9,5.7-0.6
	C624,232.6,626.4,233.7,626.3,233.9z"/>
<path fill="#242745" d="M485.7,198.6c0.2,0.1-0.6,2.3-1.8,4.9c-1.2,2.6-2.2,4.7-2.4,4.6c-0.2-0.1,0.6-2.3,1.8-4.9
	C484.4,200.6,485.5,198.5,485.7,198.6z"/>
<path fill="#242745" d="M517.7,186c0.2,0,0.5,7.4,0.7,16.5c0.2,9.1,0.2,16.5,0,16.5c-0.2,0-0.5-7.4-0.7-16.5
	C517.5,193.4,517.5,186.1,517.7,186z"/>
<path fill="#242745" d="M532.9,217.1c-0.1,0-0.1-0.7-0.2-1.9c-0.1-1.4-0.1-3.1-0.2-5.2c-0.1-4.4-0.3-10.5-0.4-17.2
	c-0.1-6.7-0.2-12.8-0.2-17.2c0-2.1,0-3.9,0-5.2c0-1.2,0.1-1.9,0.1-1.9c0.1,0,0.1,0.7,0.2,1.9c0.1,1.4,0.1,3.1,0.2,5.2
	c0.1,4.4,0.3,10.5,0.4,17.2c0.1,6.7,0.2,12.8,0.2,17.2c0,2.1,0,3.9,0,5.2C533,216.4,533,217.1,532.9,217.1z"/>
<path fill="#242745" d="M629.5,250.7c0,0-0.2,0.2-0.7,0.5c-0.5,0.4-1.2,0.9-2.1,1.5c-1.9,1.3-4.5,3.2-7.8,5.5
	c-6.7,4.7-16.1,11.1-26.8,18.5l-0.3,0.2l-0.2-0.3c-1.9-3.1-3.9-6.4-5.9-9.7c-2.5-4.2-4.9-8.2-7.2-12l-0.2-0.3l0.3-0.2
	c10.6-6.3,19.8-11.7,26.4-15.6c3.3-1.9,5.9-3.4,7.7-4.5c0.9-0.5,1.6-0.9,2.1-1.2c0.5-0.3,0.7-0.4,0.7-0.4s-0.2,0.2-0.7,0.5
	c-0.5,0.3-1.2,0.7-2,1.3c-1.8,1.1-4.4,2.7-7.6,4.7c-6.6,4-15.8,9.5-26.3,15.9l0.1-0.5c2.3,3.8,4.7,7.8,7.3,12c2,3.3,4,6.6,5.9,9.7
	l-0.5-0.1c10.7-7.3,20.1-13.7,26.9-18.3c3.3-2.2,6-4,7.9-5.3c0.9-0.6,1.6-1.1,2.2-1.4C629.2,250.8,629.5,250.7,629.5,250.7z"/>
<g opacity="0.3">
	<path d="M565.4,231.8c-0.6-5.6,0.3-11.2,1.5-16.7c3.4-15.2,8.9-30,16.5-43.6c-1.7-1.1-4-0.6-5.6,0.6c-1.6,1.3-2.5,3.1-3.3,4.9
		c-5.7,12.3-9.5,25.5-10.8,39c-0.3,3.1-0.5,5.2-0.2,7.9c0.3,2.7,0.3,5.6,2,7.8"/>
</g>
<g opacity="0.3">
	<path d="M517.7,188.8c-4.1,7.1-3.5,15.5,0.4,22.7c0-7.9,0-14.7-0.5-22.6"/>
</g>
<path fill="#EB996E" d="M549.2,136.5c-0.1-0.5-0.3-0.9-0.7-1.1c-0.3-0.1-0.6-0.1-0.8-0.1c-1.7,0-3.4,0.3-5,0.7l-0.1,0.3
	c0.1,0.7,0.2,1.5,0.5,2.2c0.2,0.7,0.6,1.4,1.2,1.8c1.1,0.8,2.7,0.8,3.8,0C549,139.3,549.5,137.8,549.2,136.5z"/>
<path fill="#242745" d="M544.2,140.5c0-0.1,0.9,0.2,2.1-0.1c0.6-0.2,1.3-0.6,1.8-1.3c0.5-0.7,0.7-1.6,0.5-2.5
	c-0.1-0.4-0.3-0.8-0.7-1c-0.3-0.2-0.7-0.1-1.2,0c-0.8,0.2-1.6,0.3-2.4,0.4c-1.3,0.2-2.2,0.3-2.2,0.2c0-0.1,0.8-0.4,2.1-0.7
	c0.8-0.2,1.5-0.4,2.3-0.6c0.4-0.1,1-0.2,1.6,0c0.6,0.3,0.9,0.9,1,1.4c0.3,1.1,0,2.3-0.6,3.1c-0.6,0.8-1.4,1.2-2.2,1.4
	C544.9,141.1,544.1,140.5,544.2,140.5z"/>
<path fill="#FAFAFA" d="M572.6,141.8c-0.4-0.9-1.5-1.7-2.5-1.5h0c-0.6,0.1-1.1,0.4-1.4,0.9c-0.5,0.8-0.4,2,0.2,2.8
	c0.7,0.7,1.9,0.9,2.7,0.4C572.6,143.9,573,142.7,572.6,141.8z"/>
<path fill="#FFBE9D" d="M579.4,256l-15.1-13.4l-12.7,1.1c0,0,0.4,2.1,2.2,2.4c1.8,0.3,8.1,0.4,8.1,0.4l3,3l-7.6-0.8l-9.7,5.7
	c0,0-0.2,1.8,2.3,1.3c2.5-0.4,7.4-2.4,7.4-2.4l5.6,0.3l-6.1,0.9l-7.9,5.6c0,0,1.6,1.9,4.2,1.1c2.5-0.8,5.6-2,5.6-2l6.9-0.7l-6.9,1.8
	l-5.2,6.4c0,0,1.6,1.2,3.3,0c1.7-1.2,2.9-2.3,2.9-2.3l7.7-0.3c0,0,8.5,6.2,11.4,6.8c3,0.7,9.1-1.1,9.1-1.1L579.4,256z"/>
<path fill="#FAFAFA" d="M878.6,318.9h-234v130.8h234V318.9z"/>
<path fill="#242745" d="M878.6,449.7c0,0,0-0.8,0-2.3c0-1.6,0-3.8,0-6.8c0-6,0-14.8-0.1-26.2c0-22.6-0.1-55.3-0.1-95.5l0.3,0.3
	c-62.4,0-144.4,0.1-234,0.1h0l0.3-0.3c0,46.3,0,90.5,0,130.8l-0.3-0.3c68.5,0.1,126.9,0.1,168.3,0.2c20.7,0,37.1,0.1,48.3,0.1
	c5.6,0,9.9,0,12.9,0c1.5,0,2.6,0,3.3,0C878.2,449.7,878.6,449.7,878.6,449.7s-0.4,0-1.1,0c-0.8,0-1.9,0-3.3,0c-2.9,0-7.2,0-12.8,0
	c-11.2,0-27.6,0.1-48.3,0.1c-41.4,0-99.9,0.1-168.5,0.2h-0.3v-0.3c0-40.3,0-84.6,0-130.8v-0.3h0.3h0c89.5,0,171.5,0.1,234,0.1h0.3
	v0.3c-0.1,40.2-0.1,73-0.1,95.7c0,11.3-0.1,20.1-0.1,26.1c0,3,0,5.2,0,6.8C878.7,449,878.6,449.7,878.6,449.7z"/>
<path fill="#455A64" d="M706.3,350.1h-33.1v33.1h33.1V350.1z"/>
<path fill="#7367F0" d="M751.8,354.7c0,0.2-7.7,0.3-17.2,0.3c-9.5,0-17.2-0.2-17.2-0.3c0-0.2,7.7-0.3,17.2-0.3
	C744,354.4,751.8,354.6,751.8,354.7z"/>
<path fill="#242745" d="M861.9,366.6c0,0.2-32.4,0.3-72.3,0.3c-39.9,0-72.3-0.2-72.3-0.3c0-0.2,32.4-0.3,72.3-0.3
	C829.5,366.3,861.9,366.4,861.9,366.6z"/>
<path fill="#242745" d="M813.3,380c0,0.2-21.3,0.3-47.5,0.3c-26.2,0-47.5-0.2-47.5-0.3c0-0.2,21.3-0.3,47.5-0.3
	C792,379.6,813.3,379.8,813.3,380z"/>
<path fill="#7367F0" d="M844,432.4H684.2c-8.5,0-15.3-6.9-15.3-15.3s6.9-15.3,15.3-15.3H844c8.5,0,15.3,6.9,15.3,15.3
	C859.3,425.5,852.5,432.4,844,432.4z"/>
<path fill="#FFFFFF" d="M734.7,419.2h-3.9l-0.7,1.8h-2l3.8-8.4h1.9l3.8,8.4h-2L734.7,419.2z M734.1,417.7l-1.3-3.2l-1.3,3.2H734.1z"
	/>
<path fill="#FFFFFF" d="M745.7,415.7c0,1.9-1.4,3.1-3.7,3.1h-1.7v2.3h-2v-8.4h3.7C744.3,412.6,745.7,413.8,745.7,415.7z
	 M743.7,415.7c0-0.9-0.6-1.5-1.8-1.5h-1.6v2.9h1.6C743.1,417.1,743.7,416.6,743.7,415.7z"/>
<path fill="#FFFFFF" d="M754.4,415.7c0,1.9-1.4,3.1-3.7,3.1h-1.7v2.3h-2v-8.4h3.7C753,412.6,754.4,413.8,754.4,415.7z M752.4,415.7
	c0-0.9-0.6-1.5-1.8-1.5h-1.6v2.9h1.6C751.8,417.1,752.4,416.6,752.4,415.7z"/>
<path fill="#FFFFFF" d="M755.8,412.6h2v6.9h4.2v1.6h-6.2L755.8,412.6L755.8,412.6z"/>
<path fill="#FFFFFF" d="M766.3,418v3h-2v-3l-3.3-5.4h2.1l2.3,3.8l2.3-3.8h1.9L766.3,418z"/>
<path fill="#FFFFFF" d="M781.6,412.6v8.4H780l-4.2-5.1v5.1h-1.9v-8.4h1.6l4.2,5.1v-5.1H781.6z"/>
<path fill="#FFFFFF" d="M783,416.8c0-2.5,2-4.4,4.6-4.4c2.6,0,4.6,1.9,4.6,4.4c0,2.5-2,4.4-4.6,4.4C785,421.2,783,419.3,783,416.8z
	 M790.3,416.8c0-1.6-1.1-2.7-2.6-2.7c-1.5,0-2.6,1.1-2.6,2.7c0,1.6,1.1,2.7,2.6,2.7C789.2,419.5,790.3,418.4,790.3,416.8z"/>
<path fill="#FFFFFF" d="M806.2,412.6l-2.8,8.4h-2.1l-1.9-5.7l-1.9,5.7h-2.1l-2.8-8.4h2l1.9,5.9l2-5.9h1.8l1.9,6l2-6H806.2z"/>
<path fill="#FAFAFA" d="M207,228H33.8v96.8H207V228z"/>
<path fill="#242745" d="M207,324.9c0,0,0-0.6,0-1.7c0-1.2,0-2.8,0-5.1c0-4.5,0-11-0.1-19.4c0-16.8-0.1-40.9-0.1-70.7l0.3,0.3
	c-46.2,0-106.9,0.1-173.2,0.1h0l0.3-0.3c0,34.2,0,67,0,96.8l-0.3-0.3c50.7,0.1,93.9,0.1,124.5,0.2c15.3,0,27.5,0.1,35.8,0.1
	c4.2,0,7.4,0,9.5,0c1.1,0,1.9,0,2.5,0C206.7,324.8,207,324.9,207,324.9s-0.3,0-0.8,0c-0.6,0-1.4,0-2.4,0c-2.2,0-5.4,0-9.5,0
	c-8.3,0-20.4,0.1-35.7,0.1c-30.7,0-74,0.1-124.7,0.2h-0.3v-0.3c0-29.8,0-62.6,0-96.8v-0.3h0.3h0c66.3,0,127,0.1,173.2,0.1h0.3v0.3
	c-0.1,29.8-0.1,54-0.1,70.8c0,8.4-0.1,14.9-0.1,19.3c0,2.2,0,3.9,0,5C207,324.3,207,324.9,207,324.9z"/>
<path fill="#455A64" d="M79.5,251.1H55v24.5h24.5V251.1z"/>
<path fill="#7367F0" d="M113.1,254.5c0,0.2-5.7,0.3-12.8,0.3c-7,0-12.8-0.2-12.8-0.3c0-0.2,5.7-0.3,12.8-0.3
	C107.4,254.2,113.1,254.3,113.1,254.5z"/>
<path fill="#242745" d="M194.6,263.3c0,0.2-24,0.3-53.5,0.3c-29.6,0-53.5-0.2-53.5-0.3c0-0.2,24-0.3,53.5-0.3
	S194.6,263.2,194.6,263.3z"/>
<path fill="#242745" d="M158.6,273.2c0,0.2-15.8,0.3-35.2,0.3c-19.4,0-35.2-0.2-35.2-0.3c0-0.2,15.8-0.3,35.2-0.3
	C142.9,272.9,158.6,273,158.6,273.2z"/>
<path fill="#7367F0" d="M181.4,312H63.1c-6.3,0-11.4-5.1-11.4-11.4c0-6.3,5.1-11.4,11.4-11.4h118.3c6.3,0,11.4,5.1,11.4,11.4
	C192.7,306.9,187.6,312,181.4,312z"/>
<path fill="#FFFFFF" d="M100.5,302.3h-2.9l-0.5,1.3h-1.5l2.8-6.3h1.4l2.8,6.3H101L100.5,302.3z M100,301.2l-1-2.4l-1,2.4H100z"/>
<path fill="#FFFFFF" d="M108.6,299.6c0,1.4-1,2.3-2.7,2.3h-1.3v1.7h-1.4v-6.3h2.7C107.6,297.3,108.6,298.2,108.6,299.6z
	 M107.2,299.6c0-0.7-0.4-1.1-1.3-1.1h-1.2v2.2h1.2C106.7,300.7,107.2,300.3,107.2,299.6z"/>
<path fill="#FFFFFF" d="M115.1,299.6c0,1.4-1,2.3-2.7,2.3h-1.3v1.7h-1.4v-6.3h2.7C114,297.3,115.1,298.2,115.1,299.6z M113.6,299.6
	c0-0.7-0.4-1.1-1.3-1.1h-1.2v2.2h1.2C113.2,300.7,113.6,300.3,113.6,299.6z"/>
<path fill="#FFFFFF" d="M116.1,297.3h1.4v5.1h3.1v1.2h-4.6V297.3z"/>
<path fill="#FFFFFF" d="M123.8,301.4v2.2h-1.4v-2.2l-2.4-4h1.5l1.7,2.8l1.7-2.8h1.4L123.8,301.4z"/>
<path fill="#FFFFFF" d="M135.1,297.3v6.3H134l-3.1-3.8v3.8h-1.4v-6.3h1.2l3.1,3.8v-3.8H135.1z"/>
<path fill="#FFFFFF" d="M136.2,300.5c0-1.9,1.4-3.2,3.4-3.2c2,0,3.4,1.4,3.4,3.2s-1.5,3.2-3.4,3.2
	C137.7,303.7,136.2,302.3,136.2,300.5z M141.6,300.5c0-1.2-0.8-2-2-2c-1.1,0-2,0.8-2,2c0,1.2,0.8,2,2,2
	C140.8,302.5,141.6,301.7,141.6,300.5z"/>
<path fill="#FFFFFF" d="M153.4,297.3l-2,6.3h-1.6l-1.4-4.2l-1.4,4.2h-1.6l-2.1-6.3h1.5l1.4,4.4l1.5-4.4h1.3l1.4,4.4l1.5-4.4H153.4z"
	/>
<path fill="#FAFAFA" d="M837.3,58.9h-190v106.2h190V58.9z"/>
<path fill="#242745" d="M837.3,165.1c0,0,0-0.7,0-1.9c0-1.3,0-3.1,0-5.6c0-4.9,0-12-0.1-21.2c0-18.4-0.1-44.9-0.1-77.5l0.3,0.3
	c-50.7,0-117.3,0.1-190,0.1h0l0.3-0.3c0,37.6,0,73.5,0,106.2l-0.3-0.3c55.6,0.1,103.1,0.1,136.6,0.2c16.8,0,30.1,0.1,39.3,0.1
	c4.6,0,8.1,0,10.5,0c1.2,0,2.1,0,2.7,0C836.9,165.1,837.3,165.1,837.3,165.1s-0.3,0-0.9,0c-0.6,0-1.5,0-2.7,0c-2.4,0-5.9,0-10.4,0
	c-9.1,0-22.4,0.1-39.2,0.1c-33.6,0-81.2,0.1-136.8,0.2H647v-0.3c0-32.7,0-68.7,0-106.2v-0.3h0.3h0c72.7,0,139.3,0.1,190,0.1h0.3v0.3
	c-0.1,32.7-0.1,59.3-0.1,77.7c0,9.2-0.1,16.3-0.1,21.2c0,2.4,0,4.3,0,5.5C837.3,164.5,837.3,165.1,837.3,165.1z"/>
<path fill="#455A64" d="M697.3,84.2h-26.9V111h26.9V84.2z"/>
<path fill="#7367F0" d="M734.2,88c0,0.2-6.3,0.3-14,0.3c-7.7,0-14-0.2-14-0.3s6.3-0.3,14-0.3C728,87.6,734.2,87.8,734.2,88z"/>
<path fill="#242745" d="M823.7,97.6c0,0.2-26.3,0.3-58.7,0.3c-32.4,0-58.7-0.2-58.7-0.3c0-0.2,26.3-0.3,58.7-0.3
	C797.4,97.3,823.7,97.4,823.7,97.6z"/>
<path fill="#242745" d="M784.2,108.4c0,0.2-17.3,0.3-38.6,0.3s-38.6-0.2-38.6-0.3s17.3-0.3,38.6-0.3S784.2,108.2,784.2,108.4z"/>
<path fill="#7367F0" d="M809.1,151H679.3c-6.9,0-12.4-5.6-12.4-12.4s5.6-12.4,12.4-12.4h129.8c6.9,0,12.4,5.6,12.4,12.4
	S816,151,809.1,151z"/>
<path fill="#FFFFFF" d="M720.4,140.3h-3.2l-0.6,1.5h-1.6l3.1-6.9h1.6l3.1,6.9H721L720.4,140.3z M719.9,139.1l-1.1-2.6l-1.1,2.6
	H719.9z"/>
<path fill="#FFFFFF" d="M729.3,137.4c0,1.5-1.1,2.5-3,2.5H725v1.9h-1.6v-6.9h3C728.2,134.9,729.3,135.9,729.3,137.4z M727.7,137.4
	c0-0.8-0.5-1.2-1.5-1.2H725v2.4h1.3C727.2,138.6,727.7,138.2,727.7,137.4z"/>
<path fill="#FFFFFF" d="M736.4,137.4c0,1.5-1.1,2.5-3,2.5H732v1.9h-1.6v-6.9h3C735.2,134.9,736.4,135.9,736.4,137.4z M734.8,137.4
	c0-0.8-0.5-1.2-1.5-1.2H732v2.4h1.3C734.3,138.6,734.8,138.2,734.8,137.4z"/>
<path fill="#FFFFFF" d="M737.5,134.9h1.6v5.6h3.4v1.3h-5L737.5,134.9L737.5,134.9z"/>
<path fill="#FFFFFF" d="M746,139.3v2.4h-1.6v-2.5l-2.7-4.4h1.7l1.8,3l1.8-3h1.6L746,139.3z"/>
<path fill="#FFFFFF" d="M758.4,134.9v6.9h-1.3l-3.4-4.2v4.2h-1.6v-6.9h1.3l3.4,4.2v-4.2H758.4z"/>
<path fill="#FFFFFF" d="M759.6,138.4c0-2,1.6-3.5,3.8-3.5c2.2,0,3.8,1.5,3.8,3.5c0,2-1.6,3.6-3.8,3.6
	C761.2,141.9,759.6,140.4,759.6,138.4z M765.5,138.4c0-1.3-0.9-2.2-2.1-2.2c-1.2,0-2.1,0.9-2.1,2.2c0,1.3,0.9,2.2,2.1,2.2
	S765.5,139.6,765.5,138.4z"/>
<path fill="#FFFFFF" d="M778.5,134.9l-2.2,6.9h-1.7l-1.5-4.6l-1.6,4.6h-1.7l-2.3-6.9h1.6l1.6,4.8l1.6-4.8h1.5l1.6,4.9l1.6-4.9H778.5
	z"/>
<text transform="matrix(1 0 0 1 254 206.561)"><tspan x="0" y="0" font-family="'Barlow-Black'" font-size="24px">Who Wants</tspan><tspan x="0" y="28.8" font-family="'Barlow-Black'" font-size="24px">a new role </tspan><tspan x="115.9" y="28.8" fill="#7367F0" font-family="'Barlow-Black'" font-size="24px">?</tspan></text>
</svg>
