<svg width="18" height="18" viewBox="0 0 18 18" fill="none" xmlns="http://www.w3.org/2000/svg">
<g id="google 1" clip-path="url(#clip0_137_7451)">
<path id="Vector" d="M17.3204 7.43517L9.97833 7.43481C9.65412 7.43481 9.39133 7.69757 9.39133 8.02178V10.3672C9.39133 10.6914 9.65412 10.9542 9.9783 10.9542H14.1129C13.6601 12.1292 12.8151 13.1131 11.737 13.7384L13.5 16.7902C16.328 15.1547 18 12.2849 18 9.07239C18 8.61497 17.9663 8.28799 17.8989 7.91979C17.8476 7.64006 17.6047 7.43517 17.3204 7.43517Z" fill="#167EE6"/>
<path id="Vector_2" d="M8.99999 14.4783C6.9766 14.4783 5.21021 13.3727 4.26152 11.7368L1.20975 13.4958C2.76277 16.1875 5.67209 18 8.99999 18C10.6325 18 12.173 17.5605 13.5 16.7944V16.7902L11.737 13.7383C10.9306 14.2061 9.9974 14.4783 8.99999 14.4783Z" fill="#12B347"/>
<path id="Vector_3" d="M13.5 16.7944V16.7902L11.737 13.7383C10.9306 14.206 9.99749 14.4782 9 14.4782V18C10.6326 18 12.1731 17.5604 13.5 16.7944Z" fill="#0F993E"/>
<path id="Vector_4" d="M3.52174 8.99997C3.52174 8.00262 3.79392 7.06954 4.26154 6.26316L1.20976 4.50415C0.439523 5.82697 0 7.36323 0 8.99997C0 10.6367 0.439523 12.173 1.20976 13.4958L4.26154 11.7368C3.79392 10.9304 3.52174 9.99731 3.52174 8.99997Z" fill="#FFD500"/>
<path id="Vector_5" d="M8.99999 3.52174C10.3194 3.52174 11.5314 3.99059 12.4781 4.77046C12.7116 4.96283 13.051 4.94895 13.265 4.73502L14.9268 3.07318C15.1695 2.83046 15.1522 2.43316 14.8929 2.20823C13.3069 0.832254 11.2432 0 8.99999 0C5.67209 0 2.76277 1.81255 1.20975 4.50418L4.26152 6.26319C5.21021 4.62727 6.9766 3.52174 8.99999 3.52174Z" fill="#FF4B26"/>
<path id="Vector_6" d="M12.4781 4.77046C12.7116 4.96283 13.0511 4.94895 13.265 4.73502L14.9268 3.07318C15.1695 2.83046 15.1522 2.43316 14.893 2.20823C13.3069 0.832219 11.2432 0 9 0V3.52174C10.3194 3.52174 11.5314 3.99059 12.4781 4.77046Z" fill="#D93F21"/>
</g>
<defs>
<clipPath id="clip0_137_7451">
<rect width="18" height="18" fill="white"/>
</clipPath>
</defs>
</svg>
