<svg width="54" height="54" viewBox="0 0 54 54" fill="none" xmlns="http://www.w3.org/2000/svg">
<circle cx="27.3046" cy="27.3332" r="26.6667" fill="white" fill-opacity="0.16"/>
<path d="M38.2012 38.1998V29.9958C38.2012 25.9638 37.3332 22.8838 32.6292 22.8838C30.3612 22.8838 28.8492 24.1158 28.2332 25.2918H28.1772V23.2478H23.7252V38.1998H28.3732V30.7798C28.3732 28.8198 28.7372 26.9438 31.1452 26.9438C33.5252 26.9438 33.5532 29.1558 33.5532 30.8918V38.1718H38.2012V38.1998Z" fill="white"/>
<path d="M16.1653 23.248H20.8133V38.2H16.1653V23.248Z" fill="white"/>
<path d="M18.4893 15.7998C17.0053 15.7998 15.8013 17.0038 15.8013 18.4878C15.8013 19.9718 17.0053 21.2038 18.4893 21.2038C19.9733 21.2038 21.1773 19.9718 21.1773 18.4878C21.1773 17.0038 19.9733 15.7998 18.4893 15.7998Z" fill="white"/>
</svg>
