<svg width="54" height="54" viewBox="0 0 54 54" fill="none" xmlns="http://www.w3.org/2000/svg">
<circle cx="27.3046" cy="27.3334" r="26.6667" fill="white" fill-opacity="0.16"/>
<path d="M38.2012 38.2003V29.9963C38.2012 25.9643 37.3332 22.8843 32.6292 22.8843C30.3612 22.8843 28.8492 24.1163 28.2332 25.2923H28.1772V23.2483H23.7252V38.2003H28.3732V30.7803C28.3732 28.8203 28.7372 26.9443 31.1452 26.9443C33.5252 26.9443 33.5532 29.1563 33.5532 30.8923V38.1723H38.2012V38.2003Z" fill="white"/>
<path d="M16.1653 23.2483H20.8133V38.2003H16.1653V23.2483Z" fill="white"/>
<path d="M18.4893 15.8003C17.0053 15.8003 15.8013 17.0043 15.8013 18.4883C15.8013 19.9723 17.0053 21.2043 18.4893 21.2043C19.9733 21.2043 21.1773 19.9723 21.1773 18.4883C21.1773 17.0043 19.9733 15.8003 18.4893 15.8003Z" fill="white"/>
</svg>
