<svg width="18" height="19" viewBox="0 0 18 19" fill="none" xmlns="http://www.w3.org/2000/svg">
<g id="linkedin 1" clip-path="url(#clip0_137_7462)">
<g id="Layer 2">
<g id="linkedin">
<path id="background" d="M15.5455 0.5H2.45455C1.09894 0.5 0 1.59894 0 2.95455V16.0455C0 17.4011 1.09894 18.5 2.45455 18.5H15.5455C16.9011 18.5 18 17.4011 18 16.0455V2.95455C18 1.59894 16.9011 0.5 15.5455 0.5Z" fill="#0077B5"/>
<g id="icon">
<path id="Vector" d="M6.48408 5.40909C6.48408 5.71251 6.3941 6.00911 6.22554 6.26139C6.05697 6.51367 5.81737 6.71029 5.53706 6.82641C5.25674 6.94252 4.94828 6.9729 4.6507 6.91371C4.35311 6.85451 4.07977 6.7084 3.86522 6.49386C3.65067 6.27931 3.50456 6.00596 3.44537 5.70838C3.38618 5.41079 3.41656 5.10234 3.53267 4.82202C3.64878 4.5417 3.84541 4.30211 4.09769 4.13354C4.34997 3.96497 4.64657 3.875 4.94999 3.875C5.35685 3.875 5.74705 4.03663 6.03475 4.32432C6.32245 4.61202 6.48408 5.00222 6.48408 5.40909Z" fill="white"/>
<path id="Vector_2" d="M6.13634 7.9659V14.7435C6.13661 14.7935 6.127 14.8431 6.10805 14.8893C6.0891 14.9356 6.06119 14.9777 6.02593 15.0131C5.99067 15.0486 5.94875 15.0767 5.90259 15.0959C5.85642 15.1151 5.80691 15.125 5.75691 15.125H4.13998C4.08998 15.1251 4.04044 15.1154 3.99422 15.0963C3.948 15.0772 3.90601 15.0492 3.87065 15.0139C3.8353 14.9785 3.80728 14.9365 3.78821 14.8903C3.76914 14.8441 3.75939 14.7945 3.75952 14.7445V7.9659C3.75952 7.865 3.79961 7.76823 3.87096 7.69688C3.9423 7.62553 4.03907 7.58545 4.13998 7.58545H5.75691C5.85764 7.58572 5.95414 7.62592 6.02527 7.69724C6.0964 7.76856 6.13634 7.86518 6.13634 7.9659Z" fill="white"/>
<path id="Vector_3" d="M14.5882 11.4943V14.7752C14.5883 14.8211 14.5794 14.8667 14.5618 14.9092C14.5443 14.9517 14.5185 14.9903 14.486 15.0228C14.4535 15.0553 14.4149 15.0811 14.3724 15.0986C14.3299 15.1161 14.2844 15.1251 14.2384 15.1249H12.4998C12.4538 15.1251 12.4083 15.1161 12.3658 15.0986C12.3233 15.0811 12.2846 15.0553 12.2521 15.0228C12.2196 14.9903 12.1939 14.9517 12.1763 14.9092C12.1588 14.8667 12.1499 14.8211 12.15 14.7752V11.5955C12.15 11.121 12.2891 9.51733 10.9094 9.51733C9.84068 9.51733 9.62284 10.6147 9.57988 11.1077V14.7752C9.57989 14.8671 9.54374 14.9553 9.47925 15.0207C9.41476 15.0862 9.3271 15.1236 9.23522 15.1249H7.5559C7.51002 15.1249 7.46459 15.1159 7.42221 15.0983C7.37983 15.0807 7.34134 15.0549 7.30894 15.0224C7.27654 14.9899 7.25087 14.9514 7.23341 14.9089C7.21594 14.8665 7.20702 14.8211 7.20715 14.7752V7.9362C7.20702 7.89031 7.21594 7.84485 7.23341 7.80242C7.25087 7.75999 7.27654 7.72142 7.30894 7.68893C7.34134 7.65644 7.37983 7.63066 7.42221 7.61307C7.46459 7.59548 7.51002 7.58642 7.5559 7.58642H9.23522C9.32799 7.58642 9.41695 7.62327 9.48255 7.68887C9.54815 7.75446 9.585 7.84343 9.585 7.9362V8.52733C9.98181 7.9321 10.5699 7.4729 11.8248 7.4729C14.6045 7.4729 14.5882 10.0686 14.5882 11.4943Z" fill="white"/>
</g>
</g>
</g>
</g>
<defs>
<clipPath id="clip0_137_7462">
<rect width="18" height="18" fill="white" transform="translate(0 0.5)"/>
</clipPath>
</defs>
</svg>
