<svg width="132" height="32" viewBox="0 0 132 32" fill="none" xmlns="http://www.w3.org/2000/svg">
<path d="M6.29368 9.70688C9.76955 9.70688 12.5874 12.5242 12.5874 16C12.5874 19.4758 9.76955 22.2935 6.29368 22.2935C2.81782 22.2935 0 19.4758 0 16C0 12.5242 2.81782 9.70688 6.29368 9.70688ZM16.1509 22.7991C16.8315 22.7991 17.3833 22.2473 17.3833 21.5668C17.3833 20.8858 16.8315 20.3341 16.1509 20.3341C15.47 20.3341 14.9182 20.8858 14.9182 21.5668C14.9182 22.2473 15.47 22.7991 16.1509 22.7991ZM13.3588 21.3199C14.0393 21.3199 14.5911 20.7681 14.5911 20.0872C14.5911 19.4067 14.0393 18.8549 13.3588 18.8549C12.6778 18.8549 12.126 19.4067 12.126 20.0872C12.126 20.7681 12.6778 21.3199 13.3588 21.3199ZM23.267 19.4134C26.7428 19.4134 29.5606 22.2307 29.5606 25.7069C29.5606 29.1823 26.7428 32 23.267 32C19.7911 32 16.9737 29.1823 16.9737 25.7069C16.9737 22.2311 19.7911 19.4134 23.267 19.4134ZM23.267 21.9096C21.1696 21.9096 19.47 23.6096 19.47 25.7069C19.47 27.8038 21.1696 29.5038 23.267 29.5038C25.3643 29.5038 27.0643 27.8038 27.0643 25.7069C27.0643 23.6092 25.3639 21.9096 23.267 21.9096ZM23.267 0C26.7428 0 29.5606 2.81774 29.5606 6.29352C29.5606 9.76929 26.7428 12.5866 23.267 12.5866C19.7911 12.5866 16.9737 9.76889 16.9737 6.29352C16.9737 2.81774 19.7911 0 23.267 0ZM23.267 2.49624C21.1696 2.49624 19.47 4.1962 19.47 6.29352C19.47 8.39043 21.1696 10.0904 23.267 10.0904C25.3643 10.0904 27.0643 8.39043 27.0643 6.29352C27.0643 4.19581 25.3639 2.49624 23.267 2.49624ZM16.1509 9.20092C16.8315 9.20092 17.3833 9.7527 17.3833 10.4336C17.3833 11.1142 16.8315 11.6663 16.1509 11.6663C15.47 11.6663 14.9182 11.1142 14.9182 10.4336C14.9182 9.7527 15.47 9.20092 16.1509 9.20092ZM13.3588 10.6805C14.0393 10.6805 14.5911 11.2323 14.5911 11.9128C14.5911 12.5937 14.0393 13.1455 13.3588 13.1455C12.6778 13.1455 12.126 12.5937 12.126 11.9128C12.126 11.2323 12.6778 10.6805 13.3588 10.6805ZM6.29368 12.2031C4.19631 12.2031 2.4967 13.9031 2.4967 16C2.4967 18.0969 4.19631 19.7973 6.29368 19.7973C8.39105 19.7973 10.0911 18.0973 10.0911 16C10.0911 13.9027 8.39065 12.2031 6.29368 12.2031Z" fill="white"/>
<path d="M46.0384 18.0686H48.2324C48.1576 18.6919 47.5592 20.5369 45.9137 21.6339C45.3153 22.0328 44.4676 22.5314 42.3733 22.5314C38.7082 22.5314 36.5391 19.764 36.5391 15.9993C36.5391 11.9603 38.4838 8.74408 42.7971 8.74408C46.5619 8.74408 48.4069 11.7359 48.4069 16.3483H38.8827C38.8827 19.0659 40.1543 20.6366 42.6725 20.6366C44.7419 20.6366 45.9636 19.0409 46.0384 18.0686ZM38.8827 14.6031H46.1381C46.0134 12.5836 45.1657 10.7137 42.4979 10.7137C40.4784 10.7137 38.8827 12.5836 38.8827 14.6031ZM53.9669 6.32569V12.5337H58.7789C60.948 12.5337 62.419 11.7359 62.419 9.31752C62.419 7.04872 60.8732 6.32569 58.8786 6.32569H53.9669ZM53.9669 14.6031V22.1574H51.5484V4.25635H59.6017C62.9177 4.25635 64.9123 6.40049 64.9123 9.29259C64.9123 11.7858 63.4911 14.6031 59.6017 14.6031H53.9669ZM66.9069 15.6253C66.9069 12.2595 68.8018 8.74408 72.9655 8.74408C77.1292 8.74408 79.0241 12.2595 79.0241 15.6253C79.0241 18.9911 77.1292 22.5065 72.9655 22.5065C68.8018 22.5065 66.9069 18.9911 66.9069 15.6253ZM69.1757 15.6253C69.1757 17.3705 69.824 20.6117 72.9655 20.6117C76.107 20.6117 76.7552 17.3705 76.7552 15.6253C76.7552 13.8801 76.107 10.6389 72.9655 10.6389C69.824 10.6389 69.1757 13.8801 69.1757 15.6253ZM91.0416 12.8329H88.9223C88.8974 12.0102 88.5982 10.6389 85.8307 10.6389C85.1575 10.6389 83.2377 10.8633 83.2377 12.4839C83.2377 13.5559 83.9109 13.8053 85.6063 14.2291L87.8003 14.7776C90.518 15.4508 91.4654 16.448 91.4654 18.2182C91.4654 20.9108 89.2464 22.5314 86.3044 22.5314C81.1434 22.5314 80.7694 19.5396 80.6946 17.9689H82.8138C82.8886 18.9911 83.1878 20.6366 86.2795 20.6366C87.8502 20.6366 89.2714 20.0133 89.2714 18.5672C89.2714 17.5201 88.5483 17.1711 86.6784 16.6974L84.1353 16.0741C82.3152 15.6253 81.1184 14.7028 81.1184 12.9077C81.1184 10.0405 83.487 8.74408 86.0551 8.74408C90.7175 8.74408 91.0416 12.1847 91.0416 12.8329ZM98.7707 10.9381H96.6763V19.4149C96.6763 20.4371 97.549 20.4371 97.9978 20.4371H98.7707V22.1574C97.9728 22.2322 97.3495 22.332 97.1251 22.332C94.956 22.332 94.4823 21.1103 94.4823 19.5396V10.9381H92.7121V9.11806H94.4823V5.47801H96.6763V9.11806H98.7707V10.9381ZM103.159 9.11806V22.1574H100.965V9.11806H103.159ZM103.159 6.74953H100.965V4.25635H103.159V6.74953ZM117.071 13.2817V22.1574H114.877V14.1294C114.877 11.8606 114.229 10.7137 112.085 10.7137C110.838 10.7137 108.644 11.5115 108.644 15.0518V22.1574H106.45V9.11806H108.519V10.963H108.569C109.043 10.2649 110.265 8.74408 112.508 8.74408C114.528 8.74408 117.071 9.56684 117.071 13.2817ZM121.958 15.6003C121.958 18.4675 123.08 20.6366 125.473 20.6366C126.87 20.6366 129.039 19.7141 129.039 16.2486C129.039 14.1294 128.69 10.7137 125.523 10.7137C122.132 10.7137 121.958 13.9299 121.958 15.6003ZM131.133 9.11806V21.0854C131.133 22.9553 131.108 27.6424 125.074 27.6424C123.529 27.6424 120.512 27.2186 120.088 23.7531H122.282C122.681 25.8224 124.7 25.8224 125.224 25.8224C129.014 25.8224 128.939 22.7807 128.939 21.235V20.6865H128.889V20.7862C128.316 21.7087 127.169 22.5314 125.424 22.5314C120.986 22.5314 119.689 18.3678 119.689 15.2513C119.689 11.5863 121.659 8.74408 125.124 8.74408C127.493 8.74408 128.49 10.2151 129.014 10.963H129.064V9.11806H131.133Z" fill="white"/>
</svg>
