<svg width="128" height="47" viewBox="0 0 128 47" fill="none" xmlns="http://www.w3.org/2000/svg">
<path d="M22.586 1.22124L17.426 18.5732H14.282L11.282 8.18124L8.25803 18.5732H5.16203L-0.00996873 1.22124H3.96203L6.92603 11.6012L9.83003 1.22124H12.734L15.71 11.6012L18.614 1.22124H22.586ZM24.3287 18.5732V0.741241H28.3967V7.94124C28.5887 7.67724 28.8247 7.40524 29.1047 7.12524C29.3927 6.84524 29.7527 6.60924 30.1847 6.41724C30.6167 6.22524 31.1607 6.12924 31.8167 6.12924C32.6007 6.12924 33.3207 6.28524 33.9767 6.59724C34.6327 6.90924 35.1567 7.36524 35.5487 7.96524C35.9487 8.56524 36.1487 9.30124 36.1487 10.1732V18.5732H32.0567V10.7372C32.0567 10.2492 31.8767 9.88124 31.5167 9.63324C31.1567 9.37724 30.7447 9.24924 30.2807 9.24924C29.9767 9.24924 29.6807 9.30924 29.3927 9.42924C29.1047 9.54924 28.8687 9.72524 28.6847 9.95724C28.5007 10.1892 28.4087 10.4732 28.4087 10.8092V18.5732H24.3287ZM44.2273 18.8132C42.9793 18.8132 41.8953 18.5492 40.9753 18.0212C40.0553 17.4852 39.3393 16.7412 38.8273 15.7892C38.3233 14.8292 38.0713 13.7132 38.0713 12.4412C38.0713 11.1452 38.3273 10.0092 38.8393 9.03324C39.3593 8.04924 40.0833 7.28524 41.0113 6.74124C41.9393 6.19724 43.0153 5.92524 44.2393 5.92524C45.5033 5.92524 46.5913 6.20124 47.5033 6.75324C48.4233 7.29724 49.1313 8.06124 49.6273 9.04524C50.1233 10.0212 50.3713 11.1532 50.3713 12.4412C50.3713 13.6812 50.1233 14.7812 49.6273 15.7412C49.1393 16.6932 48.4353 17.4452 47.5153 17.9972C46.5953 18.5412 45.4993 18.8132 44.2273 18.8132ZM44.2393 15.8132C44.7993 15.8132 45.2353 15.6412 45.5473 15.2972C45.8593 14.9452 46.0793 14.5012 46.2073 13.9652C46.3353 13.4212 46.3993 12.8692 46.3993 12.3092C46.3993 11.7572 46.3393 11.2172 46.2193 10.6892C46.0993 10.1612 45.8833 9.72924 45.5713 9.39324C45.2593 9.04924 44.8153 8.87724 44.2393 8.87724C43.6793 8.87724 43.2393 9.04524 42.9193 9.38124C42.6073 9.70924 42.3833 10.1372 42.2473 10.6652C42.1193 11.1852 42.0553 11.7332 42.0553 12.3092C42.0553 12.8532 42.1153 13.3972 42.2353 13.9412C42.3633 14.4772 42.5833 14.9252 42.8953 15.2852C43.2153 15.6372 43.6633 15.8132 44.2393 15.8132ZM74.7772 6.16524L70.5532 18.5732H67.4812L65.3932 11.8052L63.2692 18.5732H60.3052L56.2012 6.16524H59.7892L61.9492 13.0292H61.9852L64.0372 6.16524H66.9172L68.9452 13.0412H68.9932L71.1052 6.16524H74.7772ZM79.4808 18.8132C78.7048 18.8132 77.9928 18.6652 77.3448 18.3692C76.7048 18.0652 76.1928 17.6252 75.8088 17.0492C75.4328 16.4732 75.2448 15.7692 75.2448 14.9372C75.2448 13.5852 75.7648 12.5452 76.8048 11.8172C77.8528 11.0892 79.4888 10.7212 81.7128 10.7132L82.9728 10.7012V10.0652C82.9728 9.57724 82.8328 9.21324 82.5528 8.97324C82.2808 8.72524 81.8488 8.60524 81.2568 8.61324C80.8488 8.62124 80.4328 8.72124 80.0088 8.91324C79.5848 9.09724 79.2808 9.44124 79.0968 9.94524H75.7488C75.7968 9.00924 76.0728 8.24524 76.5768 7.65324C77.0888 7.06124 77.7648 6.62524 78.6048 6.34524C79.4528 6.06524 80.4008 5.92524 81.4488 5.92524C82.8008 5.92524 83.8728 6.08924 84.6648 6.41724C85.4568 6.73724 86.0248 7.18924 86.3688 7.77324C86.7128 8.34924 86.8848 9.02924 86.8848 9.81324V18.5732H83.4888L83.1408 16.5212C82.7408 17.3932 82.2448 17.9932 81.6528 18.3212C81.0688 18.6492 80.3448 18.8132 79.4808 18.8132ZM80.8968 16.1852C81.1688 16.1852 81.4288 16.1372 81.6768 16.0412C81.9248 15.9452 82.1448 15.8132 82.3368 15.6452C82.5288 15.4692 82.6808 15.2772 82.7928 15.0692C82.9048 14.8612 82.9648 14.6372 82.9728 14.3972V12.7052L81.9648 12.7172C81.5488 12.7172 81.1168 12.7732 80.6688 12.8852C80.2288 12.9972 79.8568 13.1852 79.5528 13.4492C79.2488 13.7052 79.0968 14.0612 79.0968 14.5172C79.0968 15.0372 79.2728 15.4452 79.6248 15.7412C79.9848 16.0372 80.4088 16.1852 80.8968 16.1852ZM89.6958 18.5732V6.16524H93.7278V7.90524C93.9038 7.61724 94.1358 7.33324 94.4238 7.05324C94.7198 6.77324 95.0918 6.54124 95.5398 6.35724C95.9958 6.17324 96.5478 6.08124 97.1958 6.08124C97.9398 6.08124 98.6398 6.22524 99.2958 6.51324C99.9598 6.80124 100.5 7.26124 100.916 7.89324C101.332 8.51724 101.54 9.33724 101.54 10.3532V18.5732H97.4358V10.8932C97.4358 10.3492 97.2598 9.94124 96.9078 9.66924C96.5558 9.38924 96.1518 9.24924 95.6958 9.24924C95.3918 9.24924 95.0918 9.30924 94.7958 9.42924C94.4998 9.54124 94.2558 9.71324 94.0638 9.94524C93.8718 10.1692 93.7758 10.4532 93.7758 10.7972V18.5732H89.6958ZM111.681 8.96124H108.957L108.969 15.0812C108.969 15.3292 109.005 15.5132 109.077 15.6332C109.157 15.7532 109.265 15.8332 109.401 15.8732C109.537 15.9132 109.705 15.9332 109.905 15.9332H111.705V18.3932C111.537 18.4652 111.277 18.5372 110.925 18.6092C110.573 18.6892 110.057 18.7292 109.377 18.7292C108.185 18.7292 107.261 18.5812 106.605 18.2852C105.957 17.9812 105.505 17.5692 105.249 17.0492C105.001 16.5212 104.877 15.9252 104.877 15.2612V8.96124H102.861V6.16524H105.021L106.065 2.36124H108.957V6.14124H111.681V8.96124ZM119.031 18.8132C118.167 18.8132 117.323 18.6692 116.499 18.3812C115.675 18.0932 114.971 17.6332 114.387 17.0012C113.803 16.3692 113.427 15.5452 113.259 14.5292H116.763C116.867 14.9532 117.055 15.2772 117.327 15.5012C117.599 15.7252 117.891 15.8772 118.203 15.9572C118.515 16.0372 118.783 16.0772 119.007 16.0772C119.599 16.0772 120.079 15.9932 120.447 15.8252C120.815 15.6572 120.999 15.4012 120.999 15.0572C120.999 14.7692 120.883 14.5452 120.651 14.3852C120.427 14.2172 120.035 14.0852 119.475 13.9892L117.459 13.6172C116.323 13.4012 115.403 13.0052 114.699 12.4292C114.003 11.8452 113.651 11.0212 113.643 9.95724C113.635 9.19724 113.839 8.51324 114.255 7.90524C114.671 7.29724 115.283 6.81724 116.091 6.46524C116.899 6.10524 117.891 5.92524 119.067 5.92524C120.675 5.92524 121.955 6.27724 122.907 6.98124C123.859 7.68524 124.339 8.65724 124.347 9.89724H120.987C120.899 9.47324 120.671 9.15324 120.303 8.93724C119.943 8.71324 119.511 8.60124 119.007 8.60124C118.495 8.60124 118.063 8.68924 117.711 8.86524C117.367 9.03324 117.195 9.28924 117.195 9.63324C117.195 9.89724 117.347 10.1092 117.651 10.2692C117.955 10.4292 118.439 10.5732 119.103 10.7012L120.915 11.0732C121.659 11.2572 122.263 11.5052 122.727 11.8172C123.191 12.1212 123.547 12.4532 123.795 12.8132C124.051 13.1732 124.227 13.5332 124.323 13.8932C124.419 14.2452 124.467 14.5572 124.467 14.8292C124.467 15.6852 124.231 16.4092 123.759 17.0012C123.287 17.5932 122.639 18.0452 121.815 18.3572C120.999 18.6612 120.071 18.8132 119.031 18.8132ZM4.59803 46.8132C3.82203 46.8132 3.11003 46.6652 2.46203 46.3692C1.82203 46.0652 1.31003 45.6252 0.926031 45.0492C0.550031 44.4732 0.362031 43.7692 0.362031 42.9372C0.362031 41.5852 0.882031 40.5452 1.92203 39.8172C2.97003 39.0892 4.60603 38.7212 6.83003 38.7132L8.09003 38.7012V38.0652C8.09003 37.5772 7.95003 37.2132 7.67003 36.9732C7.39803 36.7252 6.96603 36.6052 6.37403 36.6132C5.96603 36.6212 5.55003 36.7212 5.12603 36.9132C4.70203 37.0972 4.39803 37.4412 4.21403 37.9452H0.866031C0.914031 37.0092 1.19003 36.2452 1.69403 35.6532C2.20603 35.0612 2.88203 34.6252 3.72203 34.3452C4.57003 34.0652 5.51803 33.9252 6.56603 33.9252C7.91803 33.9252 8.99003 34.0892 9.78203 34.4172C10.574 34.7372 11.142 35.1892 11.486 35.7732C11.83 36.3492 12.002 37.0292 12.002 37.8132V46.5732H8.60603L8.25803 44.5212C7.85803 45.3932 7.36203 45.9932 6.77003 46.3212C6.18603 46.6492 5.46203 46.8132 4.59803 46.8132ZM6.01403 44.1852C6.28603 44.1852 6.54603 44.1372 6.79403 44.0412C7.04203 43.9452 7.26203 43.8132 7.45403 43.6452C7.64603 43.4692 7.79803 43.2772 7.91003 43.0692C8.02203 42.8612 8.08203 42.6372 8.09003 42.3972V40.7052L7.08203 40.7172C6.66603 40.7172 6.23403 40.7732 5.78603 40.8852C5.34603 40.9972 4.97403 41.1852 4.67003 41.4492C4.36603 41.7052 4.21403 42.0612 4.21403 42.5172C4.21403 43.0372 4.39003 43.4452 4.74203 43.7412C5.10203 44.0372 5.52603 44.1852 6.01403 44.1852ZM19.7115 46.5732V34.1652H23.7435V35.9052C23.9195 35.6172 24.1515 35.3332 24.4395 35.0532C24.7355 34.7732 25.1075 34.5412 25.5555 34.3572C26.0115 34.1732 26.5635 34.0812 27.2115 34.0812C27.9555 34.0812 28.6555 34.2252 29.3115 34.5132C29.9755 34.8012 30.5155 35.2612 30.9315 35.8932C31.3475 36.5172 31.5555 37.3372 31.5555 38.3532V46.5732H27.4515V38.8932C27.4515 38.3492 27.2755 37.9412 26.9235 37.6692C26.5715 37.3892 26.1675 37.2492 25.7115 37.2492C25.4075 37.2492 25.1075 37.3092 24.8115 37.4292C24.5155 37.5412 24.2715 37.7132 24.0795 37.9452C23.8875 38.1692 23.7915 38.4532 23.7915 38.7972V46.5732H19.7115ZM37.5581 41.3052C37.5501 41.8732 37.6381 42.3532 37.8221 42.7452C38.0061 43.1292 38.2661 43.4212 38.6021 43.6212C38.9381 43.8212 39.3301 43.9212 39.7781 43.9212C40.2901 43.9212 40.7421 43.8172 41.1341 43.6092C41.5341 43.3932 41.8261 43.0212 42.0101 42.4932H45.6581C45.5221 43.3972 45.1621 44.1732 44.5781 44.8212C44.0021 45.4612 43.2981 45.9532 42.4661 46.2972C41.6341 46.6412 40.7741 46.8132 39.8861 46.8132C38.6221 46.8132 37.5101 46.5532 36.5501 46.0332C35.5981 45.5132 34.8541 44.7812 34.3181 43.8372C33.7901 42.8932 33.5261 41.7852 33.5261 40.5132C33.5261 39.3052 33.7701 38.2052 34.2581 37.2132C34.7461 36.2132 35.4501 35.4172 36.3701 34.8252C37.2901 34.2252 38.3981 33.9252 39.6941 33.9252C41.0061 33.9252 42.1021 34.2012 42.9821 34.7532C43.8621 35.2972 44.5221 36.0492 44.9621 37.0092C45.4101 37.9612 45.6341 39.0532 45.6341 40.2852V41.3052H37.5581ZM37.5461 38.9532H41.8421C41.8421 38.5452 41.7621 38.1732 41.6021 37.8372C41.4421 37.4932 41.2021 37.2212 40.8821 37.0212C40.5621 36.8212 40.1661 36.7212 39.6941 36.7212C39.2621 36.7212 38.8861 36.8292 38.5661 37.0452C38.2461 37.2532 37.9941 37.5292 37.8101 37.8732C37.6261 38.2092 37.5381 38.5692 37.5461 38.9532ZM64.7225 34.1652L60.4985 46.5732H57.4265L55.3385 39.8052L53.2145 46.5732H50.2505L46.1465 34.1652H49.7345L51.8945 41.0292H51.9305L53.9825 34.1652H56.8625L58.8905 41.0412H58.9385L61.0505 34.1652H64.7225ZM71.0162 46.5732V34.1652H74.9522V37.3452C75.1442 36.6972 75.4202 36.1172 75.7802 35.6052C76.1482 35.0852 76.6002 34.6772 77.1362 34.3812C77.6722 34.0772 78.2922 33.9252 78.9962 33.9252C79.0842 33.9252 79.1602 33.9292 79.2242 33.9372C79.2962 33.9372 79.3402 33.9452 79.3562 33.9612V37.8372C79.3162 37.8212 79.2642 37.8092 79.2002 37.8012C79.1442 37.7932 79.0842 37.7892 79.0202 37.7892C78.2362 37.7092 77.5882 37.7212 77.0762 37.8252C76.5722 37.9292 76.1722 38.0972 75.8762 38.3292C75.5882 38.5612 75.3842 38.8372 75.2642 39.1572C75.1522 39.4772 75.0962 39.8252 75.0962 40.2012V46.5732H71.0162ZM86.532 46.8132C85.284 46.8132 84.2 46.5492 83.28 46.0212C82.36 45.4852 81.644 44.7412 81.132 43.7892C80.628 42.8292 80.376 41.7132 80.376 40.4412C80.376 39.1452 80.632 38.0092 81.144 37.0332C81.664 36.0492 82.388 35.2852 83.316 34.7412C84.244 34.1972 85.32 33.9252 86.544 33.9252C87.808 33.9252 88.896 34.2012 89.808 34.7532C90.728 35.2972 91.436 36.0612 91.932 37.0452C92.428 38.0212 92.676 39.1532 92.676 40.4412C92.676 41.6812 92.428 42.7812 91.932 43.7412C91.444 44.6932 90.74 45.4452 89.82 45.9972C88.9 46.5412 87.804 46.8132 86.532 46.8132ZM86.544 43.8132C87.104 43.8132 87.54 43.6412 87.852 43.2972C88.164 42.9452 88.384 42.5012 88.512 41.9652C88.64 41.4212 88.704 40.8692 88.704 40.3092C88.704 39.7572 88.644 39.2172 88.524 38.6892C88.404 38.1612 88.188 37.7292 87.876 37.3932C87.564 37.0492 87.12 36.8772 86.544 36.8772C85.984 36.8772 85.544 37.0452 85.224 37.3812C84.912 37.7092 84.688 38.1372 84.552 38.6652C84.424 39.1852 84.36 39.7332 84.36 40.3092C84.36 40.8532 84.42 41.3972 84.54 41.9412C84.668 42.4772 84.888 42.9252 85.2 43.2852C85.52 43.6372 85.968 43.8132 86.544 43.8132ZM99.0903 46.8132C98.0583 46.8132 97.2463 46.6972 96.6543 46.4652C96.0703 46.2332 95.6423 45.9332 95.3703 45.5652C95.0983 45.1892 94.9263 44.7732 94.8543 44.3172C94.7903 43.8612 94.7583 43.4092 94.7583 42.9612V28.7412H98.7543V42.4332C98.7543 42.8092 98.8423 43.1372 99.0183 43.4172C99.1943 43.6892 99.5743 43.8612 100.158 43.9332L100.698 43.9692V46.4772C100.442 46.5652 100.178 46.6412 99.9063 46.7052C99.6343 46.7772 99.3623 46.8132 99.0903 46.8132ZM106.16 41.3052C106.152 41.8732 106.24 42.3532 106.424 42.7452C106.608 43.1292 106.868 43.4212 107.204 43.6212C107.54 43.8212 107.932 43.9212 108.38 43.9212C108.892 43.9212 109.344 43.8172 109.736 43.6092C110.136 43.3932 110.428 43.0212 110.612 42.4932H114.26C114.124 43.3972 113.764 44.1732 113.18 44.8212C112.604 45.4612 111.9 45.9532 111.068 46.2972C110.236 46.6412 109.376 46.8132 108.488 46.8132C107.224 46.8132 106.112 46.5532 105.152 46.0332C104.2 45.5132 103.456 44.7812 102.92 43.8372C102.392 42.8932 102.128 41.7852 102.128 40.5132C102.128 39.3052 102.372 38.2052 102.86 37.2132C103.348 36.2132 104.052 35.4172 104.972 34.8252C105.892 34.2252 107 33.9252 108.296 33.9252C109.608 33.9252 110.704 34.2012 111.584 34.7532C112.464 35.2972 113.124 36.0492 113.564 37.0092C114.012 37.9612 114.236 39.0532 114.236 40.2852V41.3052H106.16ZM106.148 38.9532H110.444C110.444 38.5452 110.364 38.1732 110.204 37.8372C110.044 37.4932 109.804 37.2212 109.484 37.0212C109.164 36.8212 108.768 36.7212 108.296 36.7212C107.864 36.7212 107.488 36.8292 107.168 37.0452C106.848 37.2532 106.596 37.5292 106.412 37.8732C106.228 38.2092 106.14 38.5692 106.148 38.9532Z" fill="black"/>
<path d="M123.128 42.3972V46.5732H118.76V42.3972H123.128ZM114.956 33.1332C115.476 31.7812 116.268 30.7532 117.332 30.0492C118.404 29.3372 119.712 28.9812 121.256 28.9812C122.432 28.9812 123.46 29.1692 124.34 29.5452C125.22 29.9132 125.904 30.4052 126.392 31.0212C126.88 31.6292 127.124 32.2972 127.124 33.0252C127.124 33.7932 126.968 34.4412 126.656 34.9692C126.352 35.4972 125.972 35.9692 125.516 36.3852C125.068 36.7932 124.616 37.1972 124.16 37.5972C123.712 37.9892 123.332 38.4332 123.02 38.9292C122.716 39.4172 122.564 40.0132 122.564 40.7172H119.336C119.336 39.8452 119.46 39.0972 119.708 38.4732C119.964 37.8412 120.28 37.2932 120.656 36.8292C121.032 36.3572 121.408 35.9332 121.784 35.5572C122.16 35.1812 122.476 34.8132 122.732 34.4532C122.988 34.0852 123.116 33.6852 123.116 33.2532C123.116 32.7732 122.928 32.3972 122.552 32.1252C122.184 31.8452 121.736 31.7052 121.208 31.7052C120.816 31.7052 120.436 31.7932 120.068 31.9692C119.708 32.1452 119.38 32.4012 119.084 32.7372C118.796 33.0652 118.564 33.4572 118.388 33.9132L114.956 33.1332Z" fill="#7367F0"/>
</svg>
