<svg width="55" height="55" viewBox="0 0 55 55" fill="none" xmlns="http://www.w3.org/2000/svg">
<rect x="0.637939" y="0.333252" width="54" height="54" rx="27" fill="#7367F0"/>
<path d="M37.6992 25.8565L19.9278 15.9108C19.6316 15.7381 19.2907 15.6579 18.9486 15.6805C18.6066 15.703 18.2791 15.8273 18.0082 16.0374C17.7316 16.2557 17.5307 16.5555 17.4342 16.8944C17.3376 17.2333 17.3503 17.594 17.4703 17.9253L20.434 26.2046C20.464 26.2871 20.5184 26.3586 20.59 26.4095C20.6616 26.4603 20.747 26.4882 20.8348 26.4893H28.4496C28.6686 26.4859 28.8807 26.5656 29.0432 26.7124C29.2056 26.8592 29.3064 27.0622 29.325 27.2804C29.3322 27.3955 29.3158 27.5109 29.2766 27.6195C29.2374 27.728 29.1764 27.8273 29.0973 27.9114C29.0183 27.9954 28.9228 28.0623 28.8168 28.108C28.7109 28.1536 28.5967 28.1771 28.4813 28.1768H20.8348C20.747 28.178 20.6616 28.2059 20.59 28.2567C20.5184 28.3076 20.464 28.3791 20.434 28.4616L17.4703 36.7409C17.3814 36.996 17.3546 37.2686 17.3922 37.536C17.4297 37.8035 17.5306 38.0582 17.6863 38.2789C17.842 38.4996 18.0482 38.68 18.2876 38.805C18.527 38.9301 18.7928 38.9962 19.0629 38.9979C19.3503 38.9966 19.633 38.9242 19.8856 38.787L37.6992 28.8097C37.9602 28.6614 38.1773 28.4467 38.3282 28.1873C38.4792 27.928 38.5588 27.6332 38.5588 27.3331C38.5588 27.033 38.4792 26.7382 38.3282 26.4788C38.1773 26.2195 37.9602 26.0047 37.6992 25.8565Z" fill="white"/>
</svg>
