<svg width="95" height="93" viewBox="0 0 95 93" fill="none" xmlns="http://www.w3.org/2000/svg">
<g filter="url(#filter0_d_1_129)">
<path d="M47.5362 74.2202C66.2698 74.2202 81.4564 59.3963 81.4564 41.1101C81.4564 22.8239 66.2698 8 47.5362 8C28.8026 8 13.616 22.8239 13.616 41.1101C13.616 59.3963 28.8026 74.2202 47.5362 74.2202Z" fill="#28C76F"/>
</g>
<path d="M58.8022 32.8571C58.7541 32.5021 58.5051 32.2091 58.1681 32.1131L47.3651 29.0331C47.2104 28.9891 47.0475 28.9891 46.8938 29.0331L36.0908 32.1131C35.7538 32.2091 35.5038 32.5021 35.4557 32.8571C35.3932 33.3191 33.964 44.2341 37.6306 49.6641C41.292 55.0881 46.6951 56.4781 46.9225 56.5341C46.9912 56.5511 47.0598 56.5591 47.1295 56.5591C47.1981 56.5591 47.2678 56.5511 47.3354 56.5341C47.5639 56.4781 52.9658 55.0881 56.6283 49.6641C60.2949 44.2341 58.8647 33.3191 58.8022 32.8571ZM54.0959 39.2301L46.7269 46.7851C46.5558 46.9611 46.3304 47.0491 46.106 47.0491C45.8817 47.0491 45.6563 46.9611 45.4852 46.7851L40.9284 42.1141C40.7644 41.9451 40.6712 41.7161 40.6712 41.4771C40.6712 41.2381 40.7644 41.0091 40.9284 40.8401L41.833 39.9121C42.1762 39.5611 42.7324 39.5611 43.0756 39.9121L46.106 43.0191L51.9486 37.0281C52.1135 36.8591 52.3368 36.7641 52.5704 36.7641C52.803 36.7641 53.0263 36.8591 53.1913 37.0281L54.0959 37.9561C54.439 38.3081 54.439 38.8781 54.0959 39.2301Z" fill="white"/>
<defs>
<filter id="filter0_d_1_129" x="0.615967" y="0.51189" width="93.8404" height="92.2202" filterUnits="userSpaceOnUse" color-interpolation-filters="sRGB">
<feFlood flood-opacity="0" result="BackgroundImageFix"/>
<feColorMatrix in="SourceAlpha" type="matrix" values="0 0 0 0 0 0 0 0 0 0 0 0 0 0 0 0 0 0 127 0" result="hardAlpha"/>
<feOffset dy="5.51189"/>
<feGaussianBlur stdDeviation="6.5"/>
<feComposite in2="hardAlpha" operator="out"/>
<feColorMatrix type="matrix" values="0 0 0 0 0.666656 0 0 0 0 0.9875 0 0 0 0 0.213958 0 0 0 0.5 0"/>
<feBlend mode="normal" in2="BackgroundImageFix" result="effect1_dropShadow_1_129"/>
<feBlend mode="normal" in="SourceGraphic" in2="effect1_dropShadow_1_129" result="shape"/>
</filter>
</defs>
</svg>
