<svg width="144" height="141" viewBox="0 0 144 141" fill="none" xmlns="http://www.w3.org/2000/svg">
<g filter="url(#filter0_d_1_127)">
<path d="M72.1781 113C99.3364 113 121.353 91.5097 121.353 65C121.353 38.4903 99.3364 17 72.1781 17C45.0199 17 23.0037 38.4903 23.0037 65C23.0037 91.5097 45.0199 113 72.1781 113Z" fill="#7367F0"/>
</g>
<path d="M87.792 65.73H84.3528C84.7032 66.667 84.8948 67.678 84.8948 68.732V81.419C84.8948 81.858 84.817 82.28 84.6746 82.672H90.3583C92.482 82.672 94.2093 80.985 94.2093 78.912V71.996C94.2093 68.541 91.3305 65.73 87.792 65.73Z" fill="white"/>
<path d="M59.0619 68.731C59.0619 67.677 59.2535 66.667 59.6038 65.73H56.1657C52.6272 65.73 49.7474 68.541 49.7474 71.996V78.912C49.7474 80.985 51.4757 82.672 53.5984 82.672H59.2832C59.1408 82.28 59.0619 81.858 59.0619 81.419V68.731Z" fill="white"/>
<path d="M75.9072 62.465H68.0475C64.5079 62.465 61.6292 65.276 61.6292 68.731V81.419C61.6292 82.111 62.2039 82.672 62.9128 82.672H81.0418C81.7507 82.672 82.3255 82.111 82.3255 81.419V68.731C82.3255 65.276 79.4457 62.465 75.9072 62.465Z" fill="white"/>
<path d="M71.9763 45.85C67.7196 45.85 64.2579 49.231 64.2579 53.386C64.2579 56.205 65.851 58.666 68.2042 59.959C69.3198 60.572 70.6066 60.922 71.9763 60.922C73.345 60.922 74.6317 60.572 75.7474 59.959C78.1006 58.666 79.6936 56.205 79.6936 53.386C79.6936 49.231 76.2319 45.85 71.9763 45.85Z" fill="white"/>
<path d="M58.4216 52.874C55.2386 52.874 52.6487 55.402 52.6487 58.51C52.6487 61.618 55.2386 64.146 58.4216 64.146C59.2289 64.146 59.9972 63.982 60.6959 63.689C61.9027 63.181 62.8985 62.283 63.5152 61.157C63.9476 60.368 64.1934 59.466 64.1934 58.51C64.1934 55.402 61.6036 52.874 58.4216 52.874Z" fill="white"/>
<path d="M85.53 52.875C82.347 52.875 79.7571 55.403 79.7571 58.51C79.7571 59.467 80.003 60.368 80.4363 61.158C81.052 62.283 82.0479 63.182 83.2547 63.689C83.9534 63.983 84.7227 64.146 85.53 64.146C88.713 64.146 91.3018 61.618 91.3018 58.51C91.3018 55.403 88.713 52.875 85.53 52.875Z" fill="white"/>
<defs>
<filter id="filter0_d_1_127" x="0.956123" y="0.46429" width="142.444" height="140.095" filterUnits="userSpaceOnUse" color-interpolation-filters="sRGB">
<feFlood flood-opacity="0" result="BackgroundImageFix"/>
<feColorMatrix in="SourceAlpha" type="matrix" values="0 0 0 0 0 0 0 0 0 0 0 0 0 0 0 0 0 0 127 0" result="hardAlpha"/>
<feOffset dy="5.51189"/>
<feGaussianBlur stdDeviation="11.0238"/>
<feComposite in2="hardAlpha" operator="out"/>
<feColorMatrix type="matrix" values="0 0 0 0 0.254902 0 0 0 0 0.356863 0 0 0 0 0.960784 0 0 0 0.22 0"/>
<feBlend mode="normal" in2="BackgroundImageFix" result="effect1_dropShadow_1_127"/>
<feBlend mode="normal" in="SourceGraphic" in2="effect1_dropShadow_1_127" result="shape"/>
</filter>
</defs>
</svg>
