<svg width="129" height="128" viewBox="0 0 129 128" fill="none" xmlns="http://www.w3.org/2000/svg">
<path d="M121.834 32V80C121.828 86.717 119.157 93.1574 114.407 97.9071C109.658 102.657 103.217 105.328 96.5002 105.333H27.1668C20.4498 105.328 14.0094 102.657 9.2597 97.9071C4.51001 93.1574 1.83915 86.717 1.8335 80V32C1.81581 31.3226 1.85147 30.645 1.94017 29.9733C2.45046 23.6305 5.32851 17.712 10.0023 13.3939C14.6762 9.07577 20.8036 6.67426 27.1668 6.66663H96.5002C102.863 6.67426 108.991 9.07577 113.665 13.3939C118.339 17.712 121.217 23.6305 121.727 29.9733C121.816 30.645 121.851 31.3226 121.834 32Z" fill="#FDC142"/>
<path d="M101.833 121.333C115.825 121.333 127.167 109.991 127.167 96C127.167 82.0087 115.825 70.6666 101.833 70.6666C87.8421 70.6666 76.5 82.0087 76.5 96C76.5 109.991 87.8421 121.333 101.833 121.333Z" fill="#F73529"/>
<path d="M109.834 100H93.834C92.7731 100 91.7557 99.5786 91.0056 98.8284C90.2554 98.0783 89.834 97.0609 89.834 96C89.834 94.9391 90.2554 93.9217 91.0056 93.1716C91.7557 92.4214 92.7731 92 93.834 92H109.834C110.895 92 111.912 92.4214 112.662 93.1716C113.413 93.9217 113.834 94.9391 113.834 96C113.834 97.0609 113.413 98.0783 112.662 98.8284C111.912 99.5786 110.895 100 109.834 100Z" fill="white"/>
<path d="M121.727 29.9733L74.1538 56.4266C70.3866 58.525 66.1459 59.6264 61.8338 59.6264C57.5216 59.6264 53.2809 58.525 49.5138 56.4266L1.94043 29.9733C2.45072 23.6306 5.32877 17.712 10.0026 13.3939C14.6764 9.07577 20.8039 6.67426 27.1671 6.66663H96.5004C102.864 6.67426 108.991 9.07577 113.665 13.3939C118.339 17.712 121.217 23.6306 121.727 29.9733Z" fill="#FFE578"/>
</svg>
