<?xml version="1.0" encoding="utf-8"?>
<!-- Generator: Adobe Illustrator 23.0.2, SVG Export Plug-In . SVG Version: 6.00 Build 0)  -->
<svg version="1.1" id="Layer_1" xmlns="http://www.w3.org/2000/svg" xmlns:xlink="http://www.w3.org/1999/xlink" x="0px" y="0px"
	 viewBox="0 0 30 32" style="enable-background:new 0 0 30 32;" xml:space="preserve">
<style type="text/css">
	.st0{fill:#FFFFFF;}
</style>
<path class="st0" d="M6.3,9.7c3.5,0,6.3,2.8,6.3,6.3s-2.8,6.3-6.3,6.3C2.8,22.3,0,19.5,0,16S2.8,9.7,6.3,9.7z M16.2,22.8
	c0.7,0,1.2-0.6,1.2-1.2c0-0.7-0.6-1.2-1.2-1.2c-0.7,0-1.2,0.6-1.2,1.2C14.9,22.2,15.5,22.8,16.2,22.8z M13.4,21.3
	c0.7,0,1.2-0.6,1.2-1.2c0-0.7-0.6-1.2-1.2-1.2c-0.7,0-1.2,0.6-1.2,1.2C12.1,20.8,12.7,21.3,13.4,21.3z M23.3,19.4
	c3.5,0,6.3,2.8,6.3,6.3c0,3.5-2.8,6.3-6.3,6.3c-3.5,0-6.3-2.8-6.3-6.3C17,22.2,19.8,19.4,23.3,19.4z M23.3,21.9
	c-2.1,0-3.8,1.7-3.8,3.8c0,2.1,1.7,3.8,3.8,3.8c2.1,0,3.8-1.7,3.8-3.8C27.1,23.6,25.4,21.9,23.3,21.9z M23.3,0
	c3.5,0,6.3,2.8,6.3,6.3c0,3.5-2.8,6.3-6.3,6.3c-3.5,0-6.3-2.8-6.3-6.3C17,2.8,19.8,0,23.3,0z M23.3,2.5c-2.1,0-3.8,1.7-3.8,3.8
	c0,2.1,1.7,3.8,3.8,3.8c2.1,0,3.8-1.7,3.8-3.8C27.1,4.2,25.4,2.5,23.3,2.5z M16.2,9.2c0.7,0,1.2,0.6,1.2,1.2c0,0.7-0.6,1.2-1.2,1.2
	c-0.7,0-1.2-0.6-1.2-1.2C14.9,9.8,15.5,9.2,16.2,9.2z M13.4,10.7c0.7,0,1.2,0.6,1.2,1.2c0,0.7-0.6,1.2-1.2,1.2
	c-0.7,0-1.2-0.6-1.2-1.2C12.1,11.2,12.7,10.7,13.4,10.7z M6.3,12.2c-2.1,0-3.8,1.7-3.8,3.8s1.7,3.8,3.8,3.8s3.8-1.7,3.8-3.8
	S8.4,12.2,6.3,12.2z"/>
</svg>
