<svg width="130" height="130" viewBox="0 0 130 130" fill="none" xmlns="http://www.w3.org/2000/svg">
<g filter="url(#filter0_d_185_5193)">
<circle cx="65" cy="55" r="30" fill="#7367F0"/>
</g>
<path d="M70.8645 47.5H69.4626V48.9019C69.4626 49.1822 69.229 49.3692 68.9953 49.3692C68.7617 49.3692 68.528 49.1822 68.528 48.9019V47.5H61.0514V48.9019C61.0514 49.1822 60.8178 49.3692 60.5841 49.3692C60.3505 49.3692 60.1168 49.1822 60.1168 48.9019V47.5H58.715C58.014 47.5 57.5 48.1075 57.5 48.9019V50.5841H72.4533V48.9019C72.4533 48.1075 71.6122 47.5 70.8645 47.5ZM57.5 51.5654V60.1168C57.5 60.9579 58.014 61.5187 58.7617 61.5187H70.9112C71.6589 61.5187 72.5 60.9112 72.5 60.1168V51.5654H57.5ZM61.6589 59.4159H60.5374C60.3505 59.4159 60.1636 59.2757 60.1636 59.0421V57.8738C60.1636 57.6869 60.3037 57.5 60.5374 57.5H61.7056C61.8925 57.5 62.0794 57.6402 62.0794 57.8738V59.0421C62.0327 59.2757 61.8925 59.4159 61.6589 59.4159ZM61.6589 55.2103H60.5374C60.3505 55.2103 60.1636 55.0701 60.1636 54.8364V53.6682C60.1636 53.4813 60.3037 53.2944 60.5374 53.2944H61.7056C61.8925 53.2944 62.0794 53.4346 62.0794 53.6682V54.8364C62.0327 55.0701 61.8925 55.2103 61.6589 55.2103ZM65.3972 59.4159H64.229C64.0421 59.4159 63.8551 59.2757 63.8551 59.0421V57.8738C63.8551 57.6869 63.9953 57.5 64.229 57.5H65.3972C65.5841 57.5 65.771 57.6402 65.771 57.8738V59.0421C65.771 59.2757 65.6308 59.4159 65.3972 59.4159ZM65.3972 55.2103H64.229C64.0421 55.2103 63.8551 55.0701 63.8551 54.8364V53.6682C63.8551 53.4813 63.9953 53.2944 64.229 53.2944H65.3972C65.5841 53.2944 65.771 53.4346 65.771 53.6682V54.8364C65.771 55.0701 65.6308 55.2103 65.3972 55.2103ZM69.1355 59.4159H67.9673C67.7804 59.4159 67.5935 59.2757 67.5935 59.0421V57.8738C67.5935 57.6869 67.7336 57.5 67.9673 57.5H69.1355C69.3224 57.5 69.5093 57.6402 69.5093 57.8738V59.0421C69.5093 59.2757 69.3692 59.4159 69.1355 59.4159ZM69.1355 55.2103H67.9673C67.7804 55.2103 67.5935 55.0701 67.5935 54.8364V53.6682C67.5935 53.4813 67.7336 53.2944 67.9673 53.2944H69.1355C69.3224 53.2944 69.5093 53.4346 69.5093 53.6682V54.8364C69.5093 55.0701 69.3692 55.2103 69.1355 55.2103Z" fill="white"/>
<defs>
<filter id="filter0_d_185_5193" x="0" y="0" width="130" height="130" filterUnits="userSpaceOnUse" color-interpolation-filters="sRGB">
<feFlood flood-opacity="0" result="BackgroundImageFix"/>
<feColorMatrix in="SourceAlpha" type="matrix" values="0 0 0 0 0 0 0 0 0 0 0 0 0 0 0 0 0 0 127 0" result="hardAlpha"/>
<feOffset dy="10"/>
<feGaussianBlur stdDeviation="17.5"/>
<feComposite in2="hardAlpha" operator="out"/>
<feColorMatrix type="matrix" values="0 0 0 0 0 0 0 0 0 0 0 0 0 0 0 0 0 0 0.1 0"/>
<feBlend mode="normal" in2="BackgroundImageFix" result="effect1_dropShadow_185_5193"/>
<feBlend mode="normal" in="SourceGraphic" in2="effect1_dropShadow_185_5193" result="shape"/>
</filter>
</defs>
</svg>
