<svg width="130" height="130" viewBox="0 0 130 130" fill="none" xmlns="http://www.w3.org/2000/svg">
<g filter="url(#filter0_d_185_5199)">
<circle cx="65" cy="55" r="30" fill="#7367F0"/>
</g>
<circle cx="65" cy="55" r="11.4375" fill="white" stroke="white" stroke-width="1.125"/>
<path d="M66.2461 48.9687C66.2461 48.1588 65.5873 47.5 64.7775 47.5C62.8291 47.5807 62.8297 50.3569 64.7775 50.4373C65.5873 50.4373 66.2461 49.7785 66.2461 48.9687Z" fill="#7367F0"/>
<path d="M64.7773 50.4375C63.3913 50.4375 62.2637 51.5651 62.2637 52.9512V53.4029C62.2637 53.6214 62.4408 53.7984 62.6592 53.7984H66.8955C67.1139 53.7984 67.291 53.6214 67.291 53.4029V52.9512C67.291 51.5651 66.1634 50.4375 64.7773 50.4375Z" fill="#7367F0"/>
<path d="M61.8575 56.017C61.8575 55.2072 61.1986 54.5483 60.3888 54.5483C58.4404 54.629 58.441 57.4053 60.3888 57.4856C61.1987 57.4856 61.8575 56.8268 61.8575 56.017Z" fill="#7367F0"/>
<path d="M62.9024 60.451V59.9993C62.7639 56.6637 58.0122 56.6663 57.875 59.9992V60.451C57.875 60.6694 58.0521 60.8465 58.2705 60.8465H62.5068C62.7253 60.8465 62.9024 60.6694 62.9024 60.451Z" fill="#7367F0"/>
<path d="M70.6348 56.017C70.6348 55.2072 69.976 54.5483 69.1662 54.5483C67.2178 54.629 67.2183 57.4053 69.1662 57.4856C69.976 57.4856 70.6348 56.8268 70.6348 56.017Z" fill="#7367F0"/>
<path d="M69.166 57.4858C67.78 57.4858 66.6523 58.6135 66.6523 59.9995V60.4513C66.6523 60.6697 66.8294 60.8468 67.0479 60.8468H71.2842C71.5026 60.8468 71.6797 60.6697 71.6797 60.4513V59.9995C71.6797 58.6135 70.5521 57.4858 69.166 57.4858Z" fill="#7367F0"/>
<defs>
<filter id="filter0_d_185_5199" x="0" y="0" width="130" height="130" filterUnits="userSpaceOnUse" color-interpolation-filters="sRGB">
<feFlood flood-opacity="0" result="BackgroundImageFix"/>
<feColorMatrix in="SourceAlpha" type="matrix" values="0 0 0 0 0 0 0 0 0 0 0 0 0 0 0 0 0 0 127 0" result="hardAlpha"/>
<feOffset dy="10"/>
<feGaussianBlur stdDeviation="17.5"/>
<feComposite in2="hardAlpha" operator="out"/>
<feColorMatrix type="matrix" values="0 0 0 0 0 0 0 0 0 0 0 0 0 0 0 0 0 0 0.1 0"/>
<feBlend mode="normal" in2="BackgroundImageFix" result="effect1_dropShadow_185_5199"/>
<feBlend mode="normal" in="SourceGraphic" in2="effect1_dropShadow_185_5199" result="shape"/>
</filter>
</defs>
</svg>
