<svg width="1401" height="290" viewBox="0 0 1401 290" fill="none" xmlns="http://www.w3.org/2000/svg">
<path d="M279.419 145.079C279.419 146.024 278.651 146.787 277.7 146.787H226.797C225.847 146.787 225.079 146.019 225.079 145.079C225.079 84.1073 175.477 34.5049 114.505 34.5049C53.5332 34.5049 3.93064 84.1073 3.93064 145.079C3.93064 150.656 4.34321 156.14 5.14746 161.493H1.69022C0.90686 156.129 0.499512 150.651 0.499512 145.079C0.499512 82.2115 51.6479 31.0737 114.505 31.0737C176.793 31.0737 227.576 81.2872 228.5 143.366H277.7C278.651 143.366 279.419 144.134 279.419 145.079Z" fill="#ABA4F6"/>
<path d="M263.643 154.95C263.34 154.47 263.481 153.838 263.957 153.53L277.227 145.08L263.957 136.63C263.476 136.327 263.335 135.69 263.643 135.21C263.946 134.729 264.589 134.593 265.064 134.896L279.697 144.213C279.995 144.401 280.172 144.73 280.172 145.08C280.172 145.43 279.995 145.759 279.697 145.947L265.064 155.264C264.891 155.373 264.703 155.426 264.51 155.426C264.171 155.426 263.842 155.253 263.643 154.95Z" fill="#ABA4F6"/>
<path d="M126.516 116.061H101.383C100.762 116.061 100.263 115.562 100.263 114.941V108.714C100.263 106.871 101.761 105.374 103.603 105.374H107.256C107.876 105.374 108.375 105.873 108.375 106.494C108.375 107.114 107.876 107.613 107.256 107.613H103.603C102.997 107.613 102.502 108.108 102.502 108.714V113.817H125.397V108.714C125.397 108.108 124.902 107.613 124.296 107.613H120.643C120.023 107.613 119.524 107.114 119.524 106.494C119.524 105.873 120.023 105.374 120.643 105.374H124.296C126.138 105.374 127.636 106.871 127.636 108.714V114.937C127.636 115.557 127.137 116.061 126.516 116.061Z" fill="#7367F0"/>
<path d="M137.292 173.661H90.6072C88.8719 173.661 87.4585 172.248 87.4585 170.513V112.577C87.4585 110.842 88.8719 109.428 90.6072 109.428H101.383C102.003 109.428 102.502 109.927 102.502 110.548C102.502 111.168 102.003 111.667 101.383 111.667H90.6072C90.1034 111.667 89.6976 112.078 89.6976 112.577V170.513C89.6976 171.016 90.1081 171.422 90.6072 171.422H137.287C137.791 171.422 138.197 171.012 138.197 170.513V112.577C138.197 112.073 137.786 111.667 137.287 111.667H126.512C125.891 111.667 125.392 111.168 125.392 110.548C125.392 109.927 125.891 109.428 126.512 109.428H137.287C139.022 109.428 140.436 110.842 140.436 112.577V170.513C140.44 172.248 139.027 173.661 137.292 173.661Z" fill="#7367F0"/>
<path d="M120.64 110.259H107.252C106.631 110.259 106.132 109.76 106.132 109.14V104.06C106.132 102.926 107.051 102.007 108.185 102.007H119.707C120.84 102.007 121.759 102.926 121.759 104.06V109.14C121.759 109.76 121.255 110.259 120.64 110.259ZM108.371 108.02H119.52V104.246H108.371V108.02Z" fill="#7367F0"/>
<path d="M132.575 148.806H105.449C104.829 148.806 104.33 148.307 104.33 147.687C104.33 147.067 104.829 146.567 105.449 146.567H132.575C133.195 146.567 133.694 147.067 133.694 147.687C133.694 148.307 133.19 148.806 132.575 148.806Z" fill="#7367F0"/>
<path d="M96.9415 149.748C96.657 149.748 96.3678 149.641 96.1485 149.422L94.5159 147.789C94.0774 147.351 94.0774 146.642 94.5159 146.208C94.9544 145.774 95.6634 145.769 96.0972 146.208L96.9369 147.047L99.927 144.057C100.365 143.619 101.074 143.619 101.508 144.057C101.947 144.496 101.947 145.205 101.508 145.639L97.7299 149.417C97.5153 149.641 97.2261 149.748 96.9415 149.748Z" fill="#7367F0"/>
<path d="M132.575 157.957H105.449C104.829 157.957 104.33 157.458 104.33 156.837C104.33 156.217 104.829 155.718 105.449 155.718H132.575C133.195 155.718 133.694 156.217 133.694 156.837C133.694 157.458 133.19 157.957 132.575 157.957Z" fill="#7367F0"/>
<path d="M96.9415 158.904C96.643 158.904 96.3584 158.787 96.1485 158.577L94.5159 156.944C94.0774 156.506 94.0774 155.797 94.5159 155.363C94.9544 154.929 95.6634 154.925 96.0972 155.363L96.9369 156.203L99.9223 153.213C100.361 152.774 101.07 152.774 101.504 153.213C101.942 153.651 101.942 154.36 101.504 154.794L97.7252 158.572C97.5246 158.782 97.2401 158.904 96.9415 158.904Z" fill="#7367F0"/>
<path d="M132.575 167.111H105.449C104.829 167.111 104.33 166.612 104.33 165.992C104.33 165.371 104.829 164.872 105.449 164.872H132.575C133.195 164.872 133.694 165.371 133.694 165.992C133.694 166.612 133.19 167.111 132.575 167.111Z" fill="#7367F0"/>
<path d="M96.9415 168.058C96.657 168.058 96.3678 167.951 96.1485 167.732L94.5159 166.099C94.0774 165.66 94.0774 164.951 94.5159 164.518C94.9544 164.084 95.6634 164.079 96.0972 164.518L96.9369 165.357L99.9223 162.372C100.361 161.933 101.07 161.933 101.504 162.372C101.942 162.81 101.942 163.519 101.504 163.953L97.7252 167.732C97.5153 167.951 97.2261 168.058 96.9415 168.058Z" fill="#7367F0"/>
<path d="M121.433 138.255C120.971 138.255 120.542 137.971 120.379 137.513C119.455 134.929 116.992 133.189 114.245 133.189H113.652C110.905 133.189 108.442 134.925 107.518 137.513C107.308 138.097 106.669 138.4 106.086 138.19C105.503 137.98 105.2 137.341 105.41 136.758C106.651 133.283 109.963 130.95 113.652 130.95H114.245C117.935 130.95 121.247 133.283 122.487 136.758C122.697 137.341 122.389 137.98 121.811 138.19C121.685 138.232 121.559 138.255 121.433 138.255Z" fill="#7367F0"/>
<path d="M113.948 133.188C111.014 133.188 108.63 130.8 108.63 127.871C108.63 124.941 111.019 122.553 113.948 122.553C116.882 122.553 119.271 124.941 119.271 127.871C119.271 130.8 116.882 133.188 113.948 133.188ZM113.948 124.787C112.25 124.787 110.869 126.168 110.869 127.866C110.869 129.564 112.25 130.945 113.948 130.945C115.646 130.945 117.032 129.564 117.032 127.866C117.032 126.168 115.646 124.787 113.948 124.787Z" fill="#7367F0"/>
<path d="M113.944 141.52C110.917 141.52 108.071 140.339 105.93 138.198C103.789 136.057 102.609 133.212 102.609 130.184C102.609 127.157 103.789 124.312 105.93 122.17C108.071 120.029 110.917 118.849 113.944 118.849C116.972 118.849 119.817 120.029 121.958 122.17C124.099 124.312 125.279 127.157 125.279 130.184C125.279 133.212 124.099 136.057 121.958 138.198C119.817 140.339 116.972 141.52 113.944 141.52ZM113.944 121.088C108.93 121.088 104.848 125.17 104.848 130.184C104.848 135.199 108.93 139.281 113.944 139.281C118.959 139.281 123.04 135.199 123.04 130.184C123.04 125.17 118.959 121.088 113.944 121.088Z" fill="#7367F0"/>
<path d="M225.87 169.537C220.407 194.537 206.411 217.254 186.451 233.511C166.203 249.993 140.655 259.08 114.502 259.08C59.781 259.08 13.9281 220.309 2.98193 168.801H6.49662C17.3697 218.413 61.6715 255.654 114.496 255.654C166.083 255.654 211.518 219.134 222.517 168.801C222.721 167.876 223.634 167.297 224.559 167.495C225.488 167.699 226.079 168.613 225.87 169.537Z" fill="#7367F0"/>
<path d="M117.929 289.652C139.446 289.652 156.889 272.209 156.889 250.693C156.889 229.176 139.446 211.733 117.929 211.733C96.4129 211.733 78.9702 229.176 78.9702 250.693C78.9702 272.209 96.4129 289.652 117.929 289.652Z" fill="#7367F0"/>
<path d="M116.67 268.787V241.072H110.003V237.465C112.109 237.465 113.776 237.291 115.003 236.943C116.247 236.578 117.151 236.047 117.715 235.35C118.296 234.654 118.627 233.808 118.71 232.813H122.84V268.787H116.67Z" fill="white"/>
<path d="M457.79 174.44C457.649 174.44 457.508 174.425 457.367 174.388C456.448 174.158 455.894 173.223 456.124 172.304C456.536 170.67 456.918 169.009 457.252 167.369C457.44 166.44 458.354 165.844 459.273 166.032C460.202 166.22 460.798 167.129 460.61 168.053C460.265 169.745 459.873 171.458 459.445 173.14C459.252 173.923 458.552 174.44 457.79 174.44Z" fill="#7367F0"/>
<path d="M344.054 258.975C344.028 258.975 344.002 258.975 343.976 258.975C340.529 258.823 337.045 258.515 333.635 258.05C332.695 257.925 332.037 257.063 332.168 256.123C332.293 255.188 333.16 254.525 334.095 254.656C337.406 255.1 340.78 255.403 344.127 255.549C345.072 255.591 345.804 256.39 345.762 257.335C345.72 258.259 344.963 258.975 344.054 258.975ZM354.279 258.964C353.371 258.964 352.614 258.249 352.567 257.33C352.525 256.384 353.256 255.585 354.201 255.538C357.549 255.387 360.922 255.074 364.233 254.619C365.173 254.494 366.035 255.147 366.166 256.081C366.296 257.016 365.638 257.883 364.703 258.014C361.293 258.484 357.815 258.802 354.363 258.959C354.332 258.964 354.306 258.964 354.279 258.964ZM323.801 256.238C323.676 256.238 323.546 256.223 323.415 256.196C320.052 255.423 316.683 254.483 313.409 253.408C312.511 253.11 312.02 252.144 312.317 251.246C312.61 250.347 313.581 249.856 314.479 250.154C317.655 251.199 320.919 252.107 324.183 252.854C325.107 253.068 325.681 253.987 325.467 254.906C325.29 255.7 324.585 256.238 323.801 256.238ZM374.522 256.181C373.743 256.181 373.038 255.648 372.856 254.854C372.642 253.93 373.216 253.011 374.14 252.797C377.399 252.039 380.658 251.125 383.833 250.07C384.731 249.773 385.703 250.259 386 251.157C386.298 252.055 385.812 253.026 384.914 253.324C381.64 254.41 378.277 255.356 374.918 256.134C374.777 256.165 374.647 256.181 374.522 256.181ZM304.384 249.856C304.155 249.856 303.925 249.809 303.706 249.715C300.536 248.342 297.397 246.807 294.378 245.151C293.548 244.697 293.245 243.652 293.699 242.827C294.154 241.997 295.193 241.694 296.023 242.148C298.953 243.751 301.998 245.245 305.069 246.577C305.936 246.953 306.338 247.961 305.956 248.833C305.674 249.47 305.048 249.856 304.384 249.856ZM393.912 249.757C393.254 249.757 392.623 249.371 392.341 248.728C391.959 247.861 392.356 246.854 393.223 246.472C396.289 245.135 399.328 243.637 402.258 242.028C403.088 241.574 404.127 241.877 404.587 242.702C405.041 243.532 404.739 244.571 403.913 245.031C400.895 246.692 397.761 248.232 394.602 249.616C394.377 249.71 394.142 249.757 393.912 249.757ZM286.456 240.043C286.127 240.043 285.793 239.949 285.5 239.751C282.633 237.824 279.829 235.745 277.155 233.573C276.418 232.978 276.309 231.897 276.909 231.16C277.505 230.429 278.586 230.314 279.322 230.915C281.912 233.025 284.638 235.04 287.417 236.91C288.2 237.437 288.409 238.503 287.882 239.286C287.547 239.777 287.004 240.043 286.456 240.043ZM411.815 239.913C411.267 239.913 410.723 239.647 410.394 239.156C409.867 238.372 410.071 237.307 410.854 236.774C413.622 234.905 416.338 232.884 418.933 230.763C419.664 230.163 420.745 230.278 421.346 231.009C421.946 231.74 421.837 232.821 421.1 233.421C418.427 235.604 415.622 237.688 412.771 239.615C412.478 239.814 412.144 239.913 411.815 239.913ZM270.601 227.149C270.167 227.149 269.739 226.987 269.405 226.664C266.934 224.251 264.548 221.702 262.313 219.081C261.696 218.36 261.785 217.279 262.506 216.663C263.227 216.047 264.308 216.135 264.924 216.856C267.091 219.399 269.41 221.869 271.807 224.214C272.486 224.878 272.496 225.959 271.838 226.638C271.488 226.977 271.045 227.149 270.601 227.149ZM427.639 226.987C427.195 226.987 426.751 226.815 426.417 226.476C425.754 225.797 425.764 224.716 426.443 224.052C428.835 221.708 431.143 219.227 433.31 216.684C433.921 215.963 435.002 215.874 435.728 216.49C436.449 217.101 436.538 218.188 435.922 218.908C433.692 221.535 431.31 224.089 428.845 226.507C428.501 226.82 428.072 226.987 427.639 226.987ZM257.33 211.613C256.793 211.613 256.265 211.362 255.931 210.887C253.936 208.072 252.051 205.132 250.322 202.15C249.847 201.33 250.129 200.28 250.943 199.805C251.763 199.33 252.808 199.612 253.283 200.426C254.959 203.32 256.787 206.171 258.72 208.902C259.268 209.675 259.085 210.746 258.312 211.289C258.02 211.508 257.675 211.613 257.33 211.613ZM440.872 211.419C440.533 211.419 440.188 211.32 439.885 211.106C439.113 210.563 438.925 209.492 439.473 208.719C441.405 205.978 443.228 203.121 444.899 200.228C445.369 199.408 446.419 199.126 447.239 199.601C448.059 200.076 448.341 201.121 447.865 201.941C446.147 204.923 444.262 207.868 442.272 210.694C441.943 211.164 441.416 211.419 440.872 211.419ZM247.089 193.935C246.442 193.935 245.825 193.564 245.533 192.943C244.086 189.814 242.765 186.582 241.606 183.333C241.287 182.44 241.752 181.464 242.645 181.145C243.538 180.832 244.52 181.291 244.833 182.184C245.956 185.334 247.236 188.472 248.64 191.501C249.037 192.363 248.666 193.376 247.805 193.778C247.575 193.883 247.33 193.935 247.089 193.935ZM451.082 193.71C450.842 193.71 450.597 193.658 450.367 193.554C449.505 193.157 449.129 192.138 449.526 191.282C450.926 188.242 452.2 185.104 453.318 181.949C453.631 181.056 454.613 180.586 455.506 180.905C456.399 181.218 456.864 182.2 456.55 183.093C455.401 186.347 454.085 189.585 452.644 192.718C452.351 193.339 451.73 193.71 451.082 193.71Z" fill="#7367F0"/>
<path d="M240.108 174.625C239.346 174.625 238.646 174.108 238.448 173.335C238.019 171.654 237.623 169.946 237.278 168.249C237.085 167.319 237.685 166.415 238.61 166.222C239.534 166.029 240.443 166.63 240.636 167.554C240.975 169.199 241.357 170.86 241.774 172.489C242.009 173.408 241.456 174.338 240.537 174.573C240.39 174.604 240.249 174.625 240.108 174.625Z" fill="#7367F0"/>
<path d="M512.64 146.791H461.215C460.27 146.791 459.502 146.024 459.502 145.079C459.502 138.154 458.86 131.223 457.586 124.476C447.762 72.3408 402.066 34.5045 348.928 34.5045C295.79 34.5045 250.093 72.3408 240.27 124.476C240.098 125.406 239.2 126.017 238.27 125.844C237.34 125.667 236.729 124.774 236.902 123.844C247.028 70.0952 294.145 31.0786 348.928 31.0786C403.711 31.0786 450.828 70.09 460.954 123.844C462.16 130.242 462.818 136.801 462.918 143.371H512.64C513.586 143.371 514.353 144.138 514.353 145.084C514.353 146.024 513.586 146.791 512.64 146.791Z" fill="#7367F0"/>
<path d="M500.925 153.304C500.669 152.908 500.79 152.375 501.186 152.119L512.242 145.079L501.186 138.039C500.79 137.783 500.669 137.256 500.925 136.854C501.181 136.452 501.714 136.342 502.111 136.593L514.305 144.358C514.551 144.515 514.702 144.787 514.702 145.079C514.702 145.372 514.551 145.643 514.305 145.8L502.111 153.566C501.97 153.654 501.808 153.701 501.651 153.701C501.364 153.701 501.087 153.56 500.925 153.304Z" fill="#7367F0"/>
<path d="M365.776 129.886C366.333 129.196 366.717 128.382 366.895 127.513C367.073 126.644 367.039 125.745 366.797 124.891C366.555 124.038 366.112 123.255 365.505 122.608C364.897 121.961 364.143 121.47 363.307 121.175C362.47 120.881 361.575 120.791 360.696 120.914C359.818 121.037 358.981 121.369 358.258 121.883C357.534 122.396 356.945 123.075 356.538 123.864C356.132 124.653 355.921 125.527 355.923 126.414C355.928 127.681 356.371 128.908 357.177 129.886C356.043 130.844 355.124 132.03 354.479 133.367C353.835 134.704 353.48 136.162 353.437 137.646C353.43 137.804 353.454 137.961 353.509 138.109C353.565 138.258 353.649 138.393 353.758 138.508C353.867 138.622 353.997 138.714 354.143 138.777C354.288 138.839 354.444 138.872 354.602 138.873H368.351C368.509 138.872 368.665 138.839 368.81 138.777C368.955 138.714 369.086 138.622 369.195 138.508C369.304 138.393 369.388 138.257 369.443 138.109C369.499 137.961 369.523 137.804 369.516 137.646C369.473 136.162 369.117 134.704 368.473 133.367C367.828 132.03 366.909 130.844 365.776 129.886ZM361.476 123.193C362.324 123.202 363.134 123.545 363.731 124.148C364.327 124.752 364.662 125.566 364.662 126.414C364.662 127.262 364.327 128.076 363.731 128.679C363.134 129.282 362.324 129.626 361.476 129.635C360.628 129.626 359.817 129.282 359.221 128.679C358.624 128.076 358.29 127.262 358.29 126.414C358.29 125.566 358.624 124.751 359.221 124.148C359.817 123.545 360.628 123.202 361.476 123.193ZM355.907 136.541C356.049 135.512 356.403 134.523 356.947 133.637C357.49 132.751 358.211 131.987 359.064 131.393C359.812 131.771 360.638 131.967 361.476 131.967C362.314 131.967 363.141 131.771 363.889 131.393C364.742 131.987 365.462 132.751 366.006 133.637C366.549 134.523 366.903 135.512 367.046 136.541H355.907Z" fill="#7367F0"/>
<path d="M384.526 129.886C385.084 129.196 385.468 128.382 385.645 127.513C385.823 126.644 385.789 125.745 385.547 124.891C385.305 124.038 384.862 123.255 384.255 122.608C383.647 121.961 382.894 121.47 382.057 121.175C381.22 120.88 380.325 120.791 379.446 120.914C378.568 121.037 377.732 121.369 377.008 121.883C376.285 122.396 375.695 123.075 375.288 123.864C374.882 124.653 374.671 125.527 374.673 126.414C374.678 127.682 375.122 128.908 375.927 129.886C374.794 130.844 373.875 132.03 373.23 133.367C372.586 134.704 372.23 136.162 372.187 137.646C372.18 137.804 372.204 137.961 372.259 138.109C372.315 138.258 372.399 138.393 372.508 138.508C372.617 138.622 372.748 138.714 372.893 138.777C373.038 138.839 373.194 138.872 373.352 138.873H387.101C387.259 138.872 387.415 138.839 387.56 138.777C387.705 138.714 387.836 138.622 387.945 138.508C388.054 138.393 388.138 138.258 388.194 138.109C388.249 137.961 388.273 137.804 388.266 137.646C388.223 136.162 387.868 134.704 387.224 133.367C386.579 132.03 385.66 130.844 384.526 129.886ZM380.227 123.193C381.075 123.202 381.885 123.546 382.481 124.149C383.078 124.752 383.412 125.566 383.412 126.414C383.412 127.262 383.078 128.076 382.481 128.679C381.885 129.282 381.075 129.626 380.227 129.635C379.379 129.626 378.569 129.282 377.973 128.679C377.376 128.076 377.042 127.262 377.042 126.414C377.042 125.566 377.376 124.752 377.973 124.149C378.569 123.546 379.379 123.202 380.227 123.193ZM374.657 136.541C374.8 135.512 375.154 134.523 375.697 133.637C376.241 132.751 376.961 131.987 377.814 131.393C378.562 131.771 379.389 131.967 380.227 131.967C381.065 131.967 381.891 131.771 382.639 131.393C383.492 131.987 384.213 132.751 384.756 133.637C385.3 134.523 385.654 135.512 385.796 136.541H374.657Z" fill="#7367F0"/>
<path d="M354.6 169.915H354.288V164.618C354.288 164.355 354.393 164.104 354.578 163.918C354.887 163.61 355.133 163.244 355.3 162.841C355.467 162.438 355.552 162.006 355.551 161.569V149.1C355.55 148.46 355.381 147.832 355.06 147.279C354.738 146.726 354.276 146.268 353.721 145.951C353.165 145.634 352.535 145.47 351.895 145.475C351.256 145.481 350.629 145.655 350.078 145.981C349.752 145.46 349.3 145.03 348.762 144.733C348.225 144.435 347.62 144.278 347.006 144.278C346.057 144.277 345.144 144.636 344.45 145.283C343.762 144.634 342.851 144.274 341.905 144.278C341.463 144.278 341.024 144.358 340.611 144.516V143.053C355.585 138.328 352.359 116.567 336.658 116.29C333.338 116.288 330.131 117.492 327.633 119.679C325.135 121.865 323.517 124.884 323.079 128.175C322.641 131.465 323.413 134.803 325.252 137.567C327.092 140.33 329.872 142.331 333.077 143.198V153.731L330.913 151.567C326.586 147.566 320.443 153.605 324.544 157.935L332.394 165.785C332.618 166.01 332.743 166.314 332.744 166.632V169.915C331.938 169.815 331.116 170.168 331.104 171.081V179.213C331.104 179.367 331.134 179.518 331.193 179.66C331.251 179.801 331.337 179.93 331.445 180.038C331.554 180.147 331.682 180.232 331.824 180.291C331.965 180.35 332.117 180.38 332.27 180.38H354.6C354.753 180.38 354.904 180.35 355.046 180.291C355.188 180.232 355.316 180.147 355.424 180.038C355.533 179.93 355.619 179.801 355.677 179.66C355.736 179.518 355.766 179.367 355.766 179.213V171.081C355.766 170.928 355.736 170.776 355.677 170.635C355.619 170.493 355.533 170.365 355.424 170.256C355.316 170.148 355.188 170.062 355.046 170.003C354.904 169.945 354.753 169.915 354.6 169.915ZM336.658 118.622C345.605 118.501 351.176 128.945 346.115 136.284C345.285 133.856 343.559 131.836 341.289 130.638C341.89 129.733 342.211 128.671 342.211 127.585C341.979 120.246 331.336 120.248 331.104 127.585C331.104 128.671 331.425 129.733 332.027 130.638C329.757 131.836 328.031 133.857 327.201 136.286C322.14 128.946 327.708 118.501 336.658 118.622ZM333.436 127.585C333.446 126.737 333.79 125.927 334.393 125.331C334.996 124.734 335.81 124.4 336.658 124.4C337.506 124.4 338.32 124.734 338.923 125.331C339.526 125.927 339.869 126.737 339.879 127.585C339.869 128.433 339.526 129.243 338.923 129.84C338.32 130.436 337.506 130.77 336.658 130.77C335.809 130.77 334.996 130.436 334.393 129.839C333.79 129.243 333.446 128.433 333.436 127.585ZM329.079 138.409C329.273 137.067 329.819 135.801 330.662 134.739C331.505 133.677 332.614 132.857 333.876 132.363C334.718 132.863 335.679 133.126 336.658 133.126C337.637 133.126 338.598 132.863 339.439 132.363C340.703 132.857 341.812 133.677 342.655 134.739C343.498 135.802 344.044 137.069 344.238 138.411C343.182 139.375 341.951 140.126 340.611 140.624V137.543C340.611 136.544 340.214 135.586 339.508 134.879C338.801 134.173 337.843 133.776 336.844 133.776C335.845 133.776 334.886 134.173 334.18 134.879C333.473 135.586 333.077 136.544 333.077 137.543V140.75C331.595 140.258 330.233 139.461 329.079 138.409ZM334.043 164.136L326.193 156.286C325.797 155.877 325.578 155.328 325.583 154.758C325.587 154.189 325.816 153.644 326.218 153.241C326.621 152.838 327.166 152.61 327.736 152.605C328.306 152.6 328.854 152.82 329.264 153.216L333.418 157.37C333.581 157.534 333.789 157.645 334.015 157.69C334.241 157.735 334.476 157.712 334.689 157.623C334.902 157.535 335.084 157.386 335.212 157.194C335.34 157.002 335.409 156.777 335.409 156.546V137.543C335.414 137.166 335.568 136.807 335.836 136.542C336.105 136.277 336.467 136.129 336.844 136.129C337.221 136.129 337.583 136.277 337.851 136.542C338.12 136.807 338.273 137.166 338.279 137.543V152.358C338.285 152.664 338.41 152.955 338.628 153.169C338.846 153.383 339.139 153.503 339.445 153.503C339.75 153.503 340.044 153.383 340.262 153.169C340.48 152.955 340.605 152.664 340.611 152.358V147.904C340.623 147.562 340.766 147.238 341.012 147C341.258 146.762 341.587 146.629 341.929 146.629C342.272 146.629 342.6 146.762 342.846 147C343.092 147.238 343.236 147.562 343.248 147.904V151.693C343.248 152.003 343.37 152.299 343.589 152.518C343.808 152.737 344.104 152.86 344.414 152.86C344.723 152.86 345.02 152.737 345.238 152.518C345.457 152.299 345.58 152.003 345.58 151.693V148.036C345.569 147.68 345.699 147.333 345.941 147.072C346.183 146.81 346.519 146.653 346.875 146.636C347.231 146.619 347.58 146.742 347.846 146.979C348.113 147.216 348.275 147.549 348.299 147.904V152.069C348.304 152.375 348.429 152.668 348.647 152.883C348.865 153.098 349.159 153.218 349.466 153.218C349.772 153.218 350.066 153.098 350.284 152.883C350.502 152.668 350.627 152.375 350.632 152.069V149.1C350.637 148.76 350.775 148.436 351.017 148.198C351.259 147.959 351.585 147.826 351.925 147.826C352.265 147.826 352.591 147.959 352.833 148.198C353.075 148.436 353.213 148.76 353.218 149.1V161.569C353.219 161.699 353.193 161.828 353.144 161.948C353.094 162.068 353.021 162.177 352.929 162.269C352.308 162.893 351.958 163.737 351.955 164.618V169.915H335.076C334.988 168.217 335.521 165.387 334.043 164.136ZM353.434 178.047H333.436V172.247H353.433L353.434 178.047Z" fill="#7367F0"/>
<path d="M350.422 78.6888C371.938 78.6888 389.381 61.2462 389.381 39.7297C389.381 18.2131 371.938 0.770508 350.422 0.770508C328.905 0.770508 311.462 18.2131 311.462 39.7297C311.462 61.2462 328.905 78.6888 350.422 78.6888Z" fill="#7367F0"/>
<path d="M337.736 57.3193V54.0851V52.4183C337.736 50.5773 338.076 48.9933 338.756 47.6665C339.436 46.323 340.34 45.1537 341.468 44.1586C342.596 43.1635 343.831 42.2844 345.175 41.5215C346.535 40.742 347.878 40.0122 349.205 39.3322C350.548 38.6356 351.784 37.9224 352.912 37.1926C354.04 36.4463 354.944 35.617 355.624 34.7048C356.32 33.7926 356.668 32.7062 356.668 31.4457C356.668 29.8369 356.096 28.5266 354.952 27.5149C353.824 26.4866 352.29 25.9724 350.349 25.9724C348.293 25.9724 346.593 26.5612 345.249 27.7388C343.922 28.9164 343.135 30.5749 342.886 32.7145H337.014C337.048 30.5252 337.57 28.5349 338.582 26.7437C339.594 24.9524 341.095 23.526 343.085 22.4646C345.075 21.3865 347.555 20.8475 350.524 20.8475C353.094 20.8475 355.308 21.2953 357.166 22.1909C359.04 23.0699 360.483 24.3056 361.495 25.8978C362.523 27.4734 363.037 29.3144 363.037 31.4208C363.037 33.2618 362.697 34.8375 362.017 36.1477C361.354 37.458 360.467 38.5941 359.355 39.5561C358.261 40.5015 357.05 41.339 355.723 42.0688C354.413 42.7986 353.094 43.4869 351.767 44.1337C350.457 44.764 349.246 45.4274 348.135 46.124C347.041 46.804 346.153 47.5835 345.473 48.4626C344.81 49.3416 344.478 50.3948 344.478 51.6222V52.1446H363.112V57.3193H337.736Z" fill="white"/>
<path d="M472.358 125.877C472.254 125.877 472.144 125.866 472.039 125.845C471.11 125.668 470.499 124.775 470.671 123.845C470.995 122.132 471.361 120.419 471.757 118.737C471.977 117.818 472.896 117.244 473.82 117.463C474.739 117.683 475.309 118.602 475.095 119.526C474.708 121.155 474.358 122.821 474.045 124.477C473.888 125.302 473.167 125.877 472.358 125.877Z" fill="#7367F0"/>
<path d="M694.096 131.255C693.255 131.255 692.519 130.634 692.398 129.777C692.153 128.012 691.861 126.231 691.532 124.482C691.234 122.899 690.894 121.301 690.529 119.745C690.315 118.821 690.884 117.902 691.808 117.688C692.733 117.473 693.652 118.043 693.866 118.962C694.242 120.57 694.592 122.215 694.9 123.85C695.239 125.652 695.542 127.49 695.793 129.313C695.924 130.253 695.266 131.114 694.331 131.245C694.252 131.25 694.174 131.255 694.096 131.255ZM689.369 111.097C688.654 111.097 687.986 110.642 687.745 109.927C686.669 106.715 685.427 103.514 684.058 100.412C683.677 99.5449 684.069 98.5369 684.93 98.1505C685.797 97.7692 686.81 98.1609 687.192 99.0226C688.607 102.219 689.886 105.525 690.994 108.836C691.297 109.734 690.811 110.705 689.913 111.003C689.735 111.071 689.552 111.097 689.369 111.097ZM476.457 110.883C476.274 110.883 476.091 110.851 475.908 110.794C475.01 110.491 474.529 109.52 474.832 108.621C475.95 105.31 477.235 102.01 478.655 98.8137C479.042 97.9468 480.055 97.5604 480.917 97.9416C481.783 98.3281 482.17 99.3412 481.789 100.203C480.41 103.305 479.162 106.501 478.081 109.713C477.84 110.428 477.172 110.883 476.457 110.883ZM681.003 92.1604C680.403 92.1604 679.818 91.8418 679.504 91.283C677.854 88.3272 676.047 85.4078 674.125 82.6086C673.587 81.8305 673.791 80.7599 674.569 80.2272C675.347 79.6893 676.418 79.8877 676.951 80.6711C678.93 83.5539 680.794 86.562 682.497 89.6119C682.956 90.437 682.664 91.4815 681.833 91.941C681.572 92.0925 681.285 92.1604 681.003 92.1604ZM484.87 91.9515C484.588 91.9515 484.301 91.8784 484.034 91.7322C483.209 91.2674 482.917 90.2229 483.376 89.3977C485.084 86.3531 486.959 83.345 488.943 80.4674C489.481 79.6893 490.547 79.4908 491.325 80.0287C492.103 80.5666 492.301 81.632 491.763 82.4101C489.836 85.2041 488.019 88.1182 486.364 91.0741C486.05 91.6381 485.47 91.9515 484.87 91.9515ZM669.289 75.0884C668.798 75.0884 668.307 74.8795 667.968 74.4721C665.801 71.8661 663.487 69.328 661.09 66.9257C660.422 66.2573 660.422 65.171 661.09 64.5025C661.758 63.8341 662.845 63.8341 663.513 64.5025C665.983 66.9727 668.37 69.5892 670.6 72.2787C671.206 73.0046 671.107 74.0856 670.376 74.6914C670.067 74.9578 669.676 75.0884 669.289 75.0884ZM496.62 74.9004C496.234 74.9004 495.842 74.7698 495.524 74.5034C494.798 73.8976 494.699 72.8166 495.304 72.0907C497.545 69.4064 499.931 66.7952 502.412 64.3302C503.08 63.6617 504.167 63.6669 504.835 64.3354C505.504 65.0039 505.504 66.0901 504.83 66.7586C502.428 69.1505 500.109 71.6833 497.936 74.2893C497.597 74.6914 497.111 74.9004 496.62 74.9004ZM654.651 60.4395C654.264 60.4395 653.878 60.3089 653.554 60.0426C650.948 57.8701 648.206 55.7968 645.418 53.8802C644.639 53.3423 644.441 52.2769 644.974 51.4987C645.512 50.7206 646.577 50.5221 647.355 51.0548C650.233 53.0341 653.058 55.1701 655.748 57.4053C656.473 58.0111 656.573 59.0921 655.967 59.818C655.633 60.2254 655.142 60.4395 654.651 60.4395ZM511.29 60.2828C510.799 60.2828 510.308 60.0687 509.969 59.6613C509.363 58.9302 509.468 57.8544 510.193 57.2486C512.888 55.0186 515.714 52.8879 518.596 50.9138C519.38 50.3811 520.445 50.5796 520.978 51.363C521.51 52.1463 521.312 53.2117 520.529 53.7444C517.735 55.6558 514.993 57.7239 512.376 59.8859C512.063 60.1523 511.677 60.2828 511.29 60.2828ZM637.584 48.71C637.302 48.71 637.015 48.6421 636.748 48.4906C633.787 46.8351 630.711 45.2997 627.62 43.9315C626.753 43.5502 626.361 42.5371 626.747 41.6702C627.129 40.8033 628.142 40.4115 629.009 40.798C632.2 42.2133 635.37 43.7957 638.425 45.5034C639.25 45.963 639.548 47.0075 639.083 47.8378C638.764 48.3966 638.184 48.71 637.584 48.71ZM528.383 48.5951C527.783 48.5951 527.198 48.2765 526.884 47.7125C526.425 46.8873 526.722 45.8429 527.548 45.3833C530.603 43.686 533.773 42.1088 536.969 40.704C537.836 40.3228 538.849 40.7144 539.23 41.5814C539.611 42.4483 539.22 43.4562 538.353 43.8427C535.256 45.2057 532.18 46.7359 529.219 48.381C528.947 48.5272 528.665 48.5951 528.383 48.5951ZM618.647 40.328C618.465 40.328 618.282 40.2967 618.104 40.2392C614.887 39.1582 611.587 38.2181 608.286 37.4452C607.367 37.2259 606.793 36.3067 607.012 35.3824C607.226 34.4632 608.15 33.8888 609.075 34.1081C612.475 34.9071 615.88 35.8785 619.196 36.9909C620.094 37.2938 620.574 38.2652 620.277 39.1582C620.031 39.8737 619.363 40.328 618.647 40.328ZM547.32 40.2549C546.604 40.2549 545.936 39.8005 545.695 39.0851C545.398 38.1868 545.878 37.2154 546.776 36.9178C550.087 35.8106 553.498 34.8497 556.903 34.0559C557.827 33.8418 558.746 34.4162 558.96 35.3354C559.174 36.2598 558.6 37.1789 557.681 37.393C554.375 38.1607 551.074 39.0955 547.863 40.1661C547.68 40.2236 547.497 40.2549 547.32 40.2549ZM598.494 35.5861C598.416 35.5861 598.337 35.5808 598.254 35.5704C594.901 35.1056 591.486 34.787 588.091 34.6303C587.146 34.5886 586.415 33.7843 586.456 32.8391C586.498 31.8938 587.292 31.1522 588.248 31.2044C591.747 31.3663 595.267 31.6902 598.724 32.1706C599.664 32.3012 600.317 33.1681 600.186 34.1029C600.071 34.9646 599.335 35.5861 598.494 35.5861ZM567.483 35.5547C566.643 35.5547 565.906 34.9332 565.786 34.0715C565.656 33.1315 566.314 32.2698 567.254 32.1393C570.711 31.664 574.236 31.3455 577.73 31.194C578.675 31.147 579.474 31.8834 579.516 32.8286C579.558 33.7739 578.826 34.5729 577.881 34.6147C574.487 34.7661 571.066 35.0743 567.718 35.5338C567.64 35.5495 567.562 35.5547 567.483 35.5547Z" fill="#7367F0"/>
<path d="M606.265 155.271L598.393 139.295L606.556 135.376L605.542 133.277L596.364 137.709C596.226 137.776 596.103 137.87 596.001 137.985C595.899 138.1 595.821 138.234 595.771 138.379C595.722 138.524 595.701 138.678 595.71 138.831C595.72 138.984 595.76 139.134 595.828 139.271L596.422 140.438C594.743 140.589 591.851 140.286 587.093 138.362C585.348 137.588 583.434 137.273 581.534 137.449C579.633 137.624 577.809 138.284 576.236 139.365C574.718 140.425 573.386 141.729 572.294 143.225C571.165 142.898 570.089 142.411 569.099 141.779L569.379 141.301C569.455 141.168 569.505 141.021 569.525 140.869C569.545 140.717 569.535 140.562 569.495 140.414C569.455 140.265 569.386 140.126 569.292 140.004C569.198 139.882 569.081 139.779 568.947 139.703L560.352 134.793L559.186 136.811L566.778 141.149L557.775 156.613L550.183 152.274L549.017 154.292L557.577 159.213C557.845 159.365 558.162 159.405 558.459 159.324C558.756 159.243 559.009 159.048 559.163 158.782L559.443 158.304L561.67 159.948L561.425 160.309C561.192 160.646 561.028 161.025 560.942 161.426C560.856 161.826 560.85 162.239 560.924 162.642C560.996 163.054 561.15 163.448 561.376 163.801C561.602 164.153 561.896 164.457 562.242 164.694L562.79 165.067C563.314 165.43 563.936 165.625 564.574 165.627C564.663 165.633 564.753 165.633 564.842 165.627C565.014 166.323 565.427 166.934 566.008 167.353L566.556 167.738C567.078 168.097 567.696 168.288 568.329 168.286C568.523 168.304 568.718 168.304 568.912 168.286C569.137 168.241 569.356 168.17 569.565 168.076C569.799 168.471 570.113 168.813 570.486 169.079L571.035 169.452C571.555 169.814 572.173 170.009 572.807 170.012H573.087C573.278 170.711 573.712 171.319 574.312 171.726L574.848 172.099C575.369 172.458 575.988 172.649 576.621 172.648C577.134 172.648 577.64 172.525 578.095 172.287C578.55 172.049 578.94 171.705 579.233 171.283L579.559 170.805L582.708 172.706C583.247 173.03 583.863 173.204 584.492 173.207C585.095 173.208 585.688 173.052 586.213 172.756C586.738 172.459 587.178 172.033 587.489 171.516C587.705 171.158 587.851 170.762 587.921 170.35C588.231 170.442 588.553 170.489 588.877 170.49C589.48 170.49 590.073 170.335 590.598 170.039C591.123 169.742 591.563 169.315 591.874 168.799C592.095 168.421 592.246 168.006 592.317 167.575C592.623 167.668 592.942 167.716 593.262 167.715C593.863 167.713 594.453 167.556 594.976 167.26C595.499 166.964 595.937 166.538 596.247 166.024C596.45 165.685 596.592 165.314 596.667 164.927L596.842 165.032C597.384 165.359 598.005 165.532 598.638 165.534C599.241 165.534 599.834 165.379 600.359 165.082C600.884 164.786 601.324 164.359 601.635 163.843C601.958 163.299 602.127 162.679 602.125 162.047C602.127 161.552 602.025 161.062 601.824 160.61C601.622 160.158 601.328 159.753 600.959 159.423C601.739 158.146 602.761 157.033 603.968 156.146L604.632 157.487C604.728 157.683 604.878 157.849 605.063 157.964C605.249 158.08 605.463 158.141 605.682 158.14C605.856 158.139 606.027 158.099 606.183 158.024L615.361 153.592L614.347 151.493L606.265 155.271ZM565.297 162.933C565.235 163.025 565.156 163.103 565.063 163.163C564.97 163.223 564.867 163.264 564.758 163.284C564.649 163.303 564.538 163.301 564.43 163.277C564.323 163.253 564.221 163.207 564.131 163.143L563.583 162.77C563.491 162.708 563.413 162.629 563.353 162.536C563.293 162.443 563.252 162.34 563.232 162.231C563.213 162.122 563.215 162.011 563.239 161.903C563.263 161.796 563.309 161.694 563.373 161.604L565.087 159.12C565.21 158.942 565.399 158.82 565.612 158.782C565.719 158.763 565.829 158.766 565.935 158.79C566.041 158.814 566.141 158.859 566.23 158.922L566.766 159.295C566.858 159.352 566.936 159.429 566.994 159.519C567.052 159.61 567.09 159.713 567.105 159.82C567.127 159.926 567.128 160.036 567.106 160.142C567.084 160.249 567.039 160.349 566.976 160.438L565.297 162.933ZM569.11 165.569C568.987 165.747 568.798 165.868 568.586 165.907C568.371 165.942 568.151 165.896 567.968 165.779L567.419 165.406C567.328 165.344 567.25 165.264 567.19 165.172C567.129 165.079 567.088 164.975 567.069 164.867C567.049 164.758 567.052 164.647 567.076 164.539C567.1 164.431 567.145 164.329 567.21 164.239L569.542 160.822C569.601 160.733 569.679 160.657 569.769 160.599C569.859 160.54 569.961 160.502 570.067 160.484H570.218C570.384 160.484 570.546 160.533 570.685 160.624L571.221 160.997C571.401 161.121 571.526 161.309 571.571 161.522C571.59 161.629 571.588 161.739 571.563 161.845C571.539 161.951 571.494 162.052 571.431 162.14L569.11 165.569ZM573.589 167.283C573.527 167.375 573.447 167.453 573.355 167.513C573.262 167.573 573.158 167.614 573.05 167.634C572.941 167.653 572.83 167.651 572.722 167.627C572.614 167.603 572.512 167.557 572.422 167.493L571.874 167.12C571.699 166.994 571.578 166.806 571.536 166.595C571.502 166.38 571.547 166.16 571.664 165.977L573.355 163.528C573.481 163.344 573.674 163.217 573.893 163.176C574.111 163.134 574.337 163.181 574.521 163.306L575.07 163.691C575.161 163.753 575.239 163.833 575.299 163.925C575.36 164.018 575.401 164.121 575.42 164.23C575.44 164.339 575.437 164.45 575.413 164.558C575.389 164.666 575.344 164.768 575.279 164.857L573.589 167.283ZM578.44 168.449L577.402 169.872C577.273 170.052 577.079 170.174 576.861 170.213C576.644 170.252 576.419 170.205 576.236 170.082L575.688 169.709C575.596 169.647 575.518 169.567 575.458 169.475C575.398 169.382 575.357 169.279 575.337 169.17C575.318 169.061 575.32 168.95 575.344 168.842C575.368 168.734 575.414 168.632 575.478 168.543L576.516 167.038C576.578 166.947 576.657 166.869 576.75 166.808C576.842 166.748 576.946 166.707 577.055 166.688C577.163 166.668 577.275 166.67 577.382 166.695C577.49 166.719 577.592 166.764 577.682 166.828L578.218 167.201C578.311 167.262 578.39 167.341 578.451 167.433C578.512 167.526 578.555 167.629 578.575 167.738C578.596 167.846 578.595 167.958 578.571 168.066C578.548 168.175 578.503 168.277 578.44 168.368V168.449ZM599.734 162.618C599.575 162.88 599.32 163.068 599.023 163.143C598.726 163.217 598.412 163.171 598.148 163.015L591.151 158.828L589.985 160.822L593.962 163.155C594.223 163.314 594.412 163.569 594.487 163.866C594.56 164.163 594.514 164.477 594.358 164.741C594.199 165.002 593.944 165.191 593.647 165.266C593.35 165.339 593.036 165.293 592.772 165.137L587.804 162.14L586.638 164.134L589.624 165.93C589.88 166.095 590.067 166.348 590.148 166.642C590.198 166.862 590.183 167.093 590.104 167.305C590.026 167.517 589.887 167.701 589.706 167.836C589.524 167.971 589.307 168.05 589.081 168.063C588.855 168.077 588.631 168.025 588.434 167.913L583.466 164.916L582.3 166.91L585.297 168.729C585.492 168.911 585.619 169.154 585.657 169.418C585.695 169.682 585.641 169.95 585.505 170.18C585.368 170.409 585.158 170.584 584.908 170.677C584.658 170.769 584.384 170.773 584.131 170.688L580.819 168.683C580.946 168.227 580.974 167.75 580.9 167.283C580.827 166.876 580.674 166.487 580.45 166.138C580.225 165.79 579.935 165.49 579.594 165.254L579.011 164.951C578.634 164.692 578.204 164.521 577.752 164.449C577.775 164.224 577.775 163.998 577.752 163.773C577.68 163.363 577.526 162.973 577.3 162.624C577.073 162.275 576.779 161.976 576.434 161.744L575.898 161.371C575.296 160.959 574.571 160.769 573.845 160.834C573.637 160.131 573.186 159.524 572.574 159.12L572.026 158.747C571.345 158.278 570.507 158.097 569.693 158.245C569.47 158.29 569.251 158.357 569.04 158.443C568.806 158.052 568.493 157.714 568.119 157.452L567.571 157.079C566.882 156.606 566.034 156.426 565.213 156.576C564.391 156.727 563.662 157.197 563.186 157.884L563.07 158.059L560.737 156.309L567.944 143.831C568.892 144.428 569.906 144.913 570.965 145.277C569.822 146.993 569.048 148.927 568.691 150.957C568.72 151.559 568.955 152.132 569.356 152.582C569.757 153.032 570.3 153.331 570.895 153.429C573.017 153.989 577.029 153.137 579.968 148.764L599.326 160.904C599.499 161.006 599.642 161.151 599.742 161.325C599.842 161.498 599.896 161.695 599.898 161.895C599.898 162.105 599.841 162.31 599.734 162.49V162.618ZM599.058 157.954L590.475 152.578C591.738 151.849 592.812 150.834 593.612 149.615L591.583 148.449C590.735 149.655 589.55 150.584 588.177 151.12L580.212 146.129C580.078 146.045 579.928 145.989 579.772 145.965C579.616 145.941 579.456 145.949 579.303 145.989C579.152 146.027 579.01 146.095 578.886 146.19C578.762 146.284 578.658 146.402 578.58 146.537C576.632 149.977 573.915 151.202 572.201 151.202C571.788 151.244 571.374 151.136 571.035 150.898C572.021 147.045 574.292 143.643 577.472 141.254C578.725 140.379 580.184 139.846 581.705 139.707C583.226 139.568 584.758 139.828 586.148 140.461C590.93 142.409 594.72 143.108 597.437 142.583L602.976 153.837C601.404 154.929 600.071 156.33 599.058 157.954Z" fill="#7367F0"/>
<path d="M607.025 150.294L609.347 149.152L610.376 151.244L608.053 152.386L607.025 150.294Z" fill="#7367F0"/>
<path d="M605.389 129.966V110.141C605.39 109.987 605.36 109.835 605.302 109.693C605.244 109.551 605.159 109.422 605.051 109.313L596.887 101.15C596.779 101.042 596.649 100.956 596.507 100.898C596.365 100.84 596.213 100.811 596.06 100.812H561.074C560.455 100.812 559.862 101.057 559.425 101.495C558.987 101.932 558.742 102.525 558.742 103.144V131.132H561.074V103.144H594.893V108.975C594.893 109.593 595.139 110.187 595.576 110.624C596.014 111.061 596.607 111.307 597.226 111.307H603.057V129.966H605.389ZM597.226 108.975V104.788L601.412 108.975H597.226Z" fill="#7367F0"/>
<path d="M570.404 119.469C570.404 121.776 571.088 124.031 572.369 125.948C573.651 127.866 575.472 129.361 577.603 130.243C579.734 131.126 582.079 131.357 584.341 130.907C586.603 130.457 588.681 129.346 590.312 127.716C591.943 126.085 593.053 124.007 593.503 121.744C593.953 119.482 593.722 117.138 592.84 115.007C591.957 112.876 590.462 111.054 588.545 109.773C586.627 108.492 584.372 107.808 582.066 107.808C578.973 107.808 576.006 109.036 573.819 111.223C571.632 113.41 570.404 116.377 570.404 119.469ZM591.395 119.469C591.395 121.315 590.848 123.118 589.823 124.653C588.798 126.187 587.341 127.383 585.636 128.089C583.931 128.795 582.055 128.98 580.246 128.62C578.436 128.26 576.773 127.371 575.469 126.066C574.164 124.762 573.275 123.099 572.915 121.289C572.555 119.48 572.74 117.604 573.446 115.899C574.152 114.194 575.348 112.737 576.882 111.712C578.417 110.687 580.22 110.14 582.066 110.14C584.54 110.14 586.913 111.123 588.663 112.872C590.412 114.622 591.395 116.995 591.395 119.469Z" fill="#7367F0"/>
<path d="M577.739 119.296L576.083 120.952L578.976 123.833C579.194 124.05 579.49 124.172 579.798 124.172C580.106 124.172 580.401 124.05 580.62 123.833L588.049 116.416L586.393 114.807L579.804 121.407L577.739 119.296Z" fill="#7367F0"/>
<path d="M700.128 146.797H694.989C694.044 146.797 693.276 146.03 693.276 145.084C693.276 143.403 693.24 141.7 693.161 140.019C693.12 139.073 693.851 138.274 694.796 138.227C695.741 138.18 696.54 138.917 696.587 139.862C696.64 141.021 696.676 142.196 696.692 143.366H700.133C701.079 143.366 701.846 144.134 701.846 145.079C701.846 146.03 701.079 146.797 700.128 146.797Z" fill="#7367F0"/>
<path d="M733.047 146.796H724.817C723.872 146.796 723.104 146.028 723.104 145.083C723.104 144.137 723.872 143.37 724.817 143.37H733.047C733.993 143.37 734.76 144.137 734.76 145.083C734.76 146.028 733.993 146.796 733.047 146.796ZM716.591 146.796H708.361C707.416 146.796 706.648 146.028 706.648 145.083C706.648 144.137 707.416 143.37 708.361 143.37H716.591C717.537 143.37 718.304 144.137 718.304 145.083C718.304 146.028 717.537 146.796 716.591 146.796Z" fill="#7367F0"/>
<path d="M746.418 146.796H741.279C740.334 146.796 739.566 146.028 739.566 145.083C739.566 144.137 740.334 143.37 741.279 143.37H746.418C747.363 143.37 748.131 144.137 748.131 145.083C748.131 146.028 747.363 146.796 746.418 146.796Z" fill="#7367F0"/>
<path d="M734.699 153.313C734.443 152.916 734.563 152.383 734.96 152.127L746.016 145.088L734.96 138.048C734.563 137.792 734.443 137.264 734.699 136.862C734.955 136.465 735.487 136.351 735.884 136.601L748.079 144.367C748.324 144.524 748.476 144.795 748.476 145.088C748.476 145.38 748.324 145.652 748.079 145.808L735.884 153.574C735.743 153.663 735.581 153.71 735.425 153.71C735.143 153.71 734.861 153.569 734.699 153.313Z" fill="#7367F0"/>
<path d="M582.705 259.088C528.878 259.088 481.923 220.886 471.055 168.244C470.862 167.32 471.463 166.411 472.387 166.218C473.311 166.025 474.22 166.62 474.413 167.55C484.947 218.604 530.492 255.657 582.705 255.657C635.008 255.657 680.563 218.525 691.034 167.367C691.222 166.437 692.136 165.842 693.055 166.03C693.985 166.218 694.58 167.126 694.392 168.051C683.597 220.802 636.627 259.088 582.705 259.088Z" fill="#7367F0"/>
<path d="M584.205 289.656C605.721 289.656 623.164 272.213 623.164 250.696C623.164 229.18 605.721 211.737 584.205 211.737C562.688 211.737 545.246 229.18 545.246 250.696C545.246 272.213 562.688 289.656 584.205 289.656Z" fill="#7367F0"/>
<path d="M570.649 243.612C570.649 241.157 571.238 239.092 572.415 237.417C573.593 235.726 575.168 234.457 577.142 233.611C579.132 232.748 581.338 232.317 583.76 232.317C586.364 232.317 588.669 232.674 590.676 233.387C592.7 234.084 594.283 235.137 595.428 236.547C596.589 237.956 597.169 239.706 597.169 241.796C597.169 243.571 596.63 245.154 595.552 246.548C594.474 247.941 592.774 249.036 590.452 249.832C591.895 250.23 593.189 250.827 594.333 251.623C595.478 252.402 596.382 253.381 597.045 254.559C597.725 255.736 598.065 257.121 598.065 258.713C598.065 260.422 597.692 261.939 596.945 263.266C596.216 264.593 595.187 265.712 593.861 266.625C592.55 267.52 591.016 268.2 589.258 268.665C587.5 269.112 585.609 269.336 583.586 269.336C580.882 269.32 578.552 268.855 576.595 267.943C574.638 267.031 573.112 265.729 572.017 264.037C570.939 262.346 570.375 260.339 570.325 258.017H576.222C576.57 260.156 577.416 261.748 578.759 262.793C580.119 263.822 581.77 264.336 583.71 264.336C585.319 264.336 586.712 264.095 587.89 263.614C589.067 263.117 589.971 262.437 590.601 261.574C591.248 260.712 591.572 259.708 591.572 258.564C591.572 257.353 591.223 256.317 590.527 255.454C589.847 254.592 588.91 253.928 587.716 253.464C586.521 253 585.178 252.751 583.685 252.718L580.351 252.618V247.692L583.436 247.568C584.863 247.518 586.115 247.244 587.193 246.747C588.288 246.249 589.142 245.594 589.756 244.781C590.369 243.969 590.676 243.056 590.676 242.045C590.676 241.116 590.386 240.278 589.805 239.532C589.241 238.786 588.437 238.205 587.392 237.79C586.347 237.359 585.112 237.144 583.685 237.144C582.474 237.144 581.338 237.359 580.277 237.79C579.215 238.222 578.336 238.918 577.64 239.88C576.96 240.826 576.587 242.07 576.52 243.612H570.649Z" fill="white"/>
<path d="M940.163 125.825C940.058 125.825 939.949 125.814 939.844 125.793C938.915 125.616 938.304 124.723 938.476 123.793C938.8 122.08 939.165 120.367 939.562 118.686C939.782 117.767 940.701 117.192 941.625 117.411C942.544 117.631 943.113 118.55 942.899 119.474C942.513 121.104 942.163 122.77 941.85 124.425C941.693 125.25 940.972 125.825 940.163 125.825Z" fill="#7367F0"/>
<path d="M1161.72 131.204C1160.88 131.204 1160.15 130.582 1160.03 129.726C1159.78 127.96 1159.49 126.18 1159.16 124.43C1158.86 122.848 1158.52 121.25 1158.16 119.693C1157.94 118.769 1158.51 117.85 1159.44 117.636C1160.36 117.422 1161.28 117.991 1161.49 118.91C1161.87 120.519 1162.22 122.164 1162.53 123.798C1162.87 125.6 1163.17 127.438 1163.42 129.261C1163.55 130.201 1162.89 131.063 1161.96 131.193C1161.88 131.198 1161.8 131.204 1161.72 131.204ZM1157 111.045C1156.28 111.045 1155.61 110.591 1155.37 109.875C1154.3 106.663 1153.05 103.462 1151.69 100.36C1151.3 99.4931 1151.7 98.4852 1152.56 98.0987C1153.42 97.7175 1154.44 98.1092 1154.82 98.9709C1156.23 102.167 1157.51 105.473 1158.62 108.784C1158.92 109.682 1158.44 110.653 1157.54 110.951C1157.36 111.019 1157.18 111.045 1157 111.045ZM944.083 110.831C943.901 110.831 943.718 110.8 943.535 110.742C942.637 110.439 942.156 109.468 942.459 108.57C943.577 105.259 944.862 101.958 946.282 98.762C946.669 97.8951 947.682 97.5086 948.543 97.8899C949.41 98.2763 949.797 99.2894 949.416 100.151C948.037 103.253 946.789 106.449 945.708 109.661C945.467 110.377 944.799 110.831 944.083 110.831ZM1148.63 92.1086C1148.03 92.1086 1147.44 91.7901 1147.13 91.2313C1145.48 88.2754 1143.67 85.356 1141.75 82.5568C1141.21 81.7787 1141.42 80.7081 1142.2 80.1754C1142.97 79.6375 1144.04 79.836 1144.58 80.6193C1146.56 83.5021 1148.42 86.5102 1150.12 89.5601C1150.58 90.3852 1150.29 91.4297 1149.46 91.8893C1149.2 92.0407 1148.91 92.1086 1148.63 92.1086ZM952.497 91.8997C952.215 91.8997 951.928 91.8266 951.661 91.6804C950.836 91.2156 950.544 90.1711 951.003 89.346C952.711 86.3013 954.586 83.2932 956.57 80.4157C957.108 79.6375 958.174 79.4391 958.952 79.977C959.73 80.5149 959.928 81.5802 959.39 82.3584C957.463 85.1524 955.646 88.0665 953.99 91.0224C953.677 91.5864 953.097 91.8997 952.497 91.8997ZM1136.92 75.0366C1136.43 75.0366 1135.93 74.8277 1135.59 74.4204C1133.43 71.8144 1131.11 69.2763 1128.72 66.874C1128.05 66.2055 1128.05 65.1192 1128.72 64.4508C1129.39 63.7823 1130.47 63.7823 1131.14 64.4508C1133.61 66.921 1136 69.5374 1138.23 72.2269C1138.83 72.9529 1138.73 74.0339 1138 74.6397C1137.69 74.906 1137.3 75.0366 1136.92 75.0366ZM964.247 74.8486C963.861 74.8486 963.469 74.718 963.151 74.4517C962.425 73.8459 962.325 72.7649 962.931 72.0389C965.172 69.3546 967.558 66.7434 970.039 64.2784C970.707 63.6099 971.794 63.6152 972.462 64.2836C973.131 64.9521 973.131 66.0384 972.457 66.7068C970.055 69.0987 967.736 71.6316 965.563 74.2375C965.224 74.6397 964.738 74.8486 964.247 74.8486ZM1122.28 60.3877C1121.89 60.3877 1121.5 60.2572 1121.18 59.9908C1118.58 57.8183 1115.83 55.745 1113.04 53.8284C1112.27 53.2905 1112.07 52.2251 1112.6 51.447C1113.14 50.6688 1114.2 50.4704 1114.98 51.0031C1117.86 52.9824 1120.68 55.1183 1123.37 57.3535C1124.1 57.9593 1124.2 59.0404 1123.59 59.7663C1123.26 60.1736 1122.77 60.3877 1122.28 60.3877ZM978.917 60.2311C978.426 60.2311 977.935 60.0169 977.596 59.6096C976.99 58.8784 977.094 57.8026 977.82 57.1968C980.515 54.9669 983.34 52.8361 986.223 50.8621C987.007 50.3294 988.072 50.5278 988.605 51.3112C989.137 52.0946 988.939 53.1599 988.156 53.6926C985.362 55.604 982.62 57.6721 980.003 59.8342C979.69 60.1005 979.304 60.2311 978.917 60.2311ZM1105.21 48.6582C1104.93 48.6582 1104.64 48.5903 1104.38 48.4389C1101.41 46.7834 1098.34 45.248 1095.25 43.8797C1094.38 43.4985 1093.99 42.4853 1094.37 41.6184C1094.76 40.7515 1095.77 40.3598 1096.64 40.7462C1099.83 42.1615 1103 43.7439 1106.05 45.4516C1106.88 45.9112 1107.17 46.9557 1106.71 47.7861C1106.39 48.3449 1105.81 48.6582 1105.21 48.6582ZM996.01 48.5433C995.409 48.5433 994.825 48.2247 994.511 47.6607C994.052 46.8356 994.349 45.7911 995.174 45.3315C998.23 43.6343 1001.4 42.0571 1004.6 40.6523C1005.46 40.271 1006.48 40.6627 1006.86 41.5296C1007.24 42.3965 1006.85 43.4045 1005.98 43.7909C1002.88 45.154 999.807 46.6841 996.846 48.3292C996.574 48.4754 996.292 48.5433 996.01 48.5433ZM1086.27 40.2763C1086.09 40.2763 1085.91 40.2449 1085.73 40.1874C1082.51 39.1064 1079.21 38.1664 1075.91 37.3935C1074.99 37.1741 1074.42 36.255 1074.64 35.3306C1074.85 34.4115 1075.78 33.837 1076.7 34.0563C1080.1 34.8554 1083.51 35.8268 1086.82 36.9391C1087.72 37.242 1088.2 38.2134 1087.9 39.1064C1087.66 39.8219 1086.99 40.2763 1086.27 40.2763ZM1014.95 40.2031C1014.23 40.2031 1013.56 39.7488 1013.32 39.0333C1013.02 38.1351 1013.51 37.1637 1014.4 36.866C1017.71 35.7589 1021.12 34.7979 1024.53 34.0041C1025.45 33.79 1026.37 34.3645 1026.59 35.2836C1026.8 36.208 1026.23 37.1271 1025.31 37.3413C1022 38.109 1018.7 39.0438 1015.49 40.1144C1015.31 40.1718 1015.12 40.2031 1014.95 40.2031ZM1066.12 35.5343C1066.04 35.5343 1065.96 35.5291 1065.88 35.5186C1062.53 35.0538 1059.11 34.7353 1055.72 34.5786C1054.77 34.5368 1054.04 33.7326 1054.08 32.7873C1054.13 31.8421 1054.92 31.1005 1055.87 31.1527C1059.37 31.3146 1062.89 31.6384 1066.35 32.1189C1067.29 32.2494 1067.94 33.1163 1067.81 34.0511C1067.7 34.9128 1066.96 35.5343 1066.12 35.5343ZM1035.11 35.503C1034.27 35.503 1033.53 34.8815 1033.41 34.0198C1033.28 33.0798 1033.94 32.2181 1034.88 32.0875C1038.34 31.6123 1041.86 31.2937 1045.36 31.1423C1046.3 31.0953 1047.1 31.8316 1047.14 32.7769C1047.18 33.7221 1046.45 34.5212 1045.51 34.5629C1042.11 34.7144 1038.69 35.0225 1035.35 35.4821C1035.27 35.4978 1035.19 35.503 1035.11 35.503Z" fill="#7367F0"/>
<path d="M1167.93 146.745H1162.79C1161.85 146.745 1161.08 145.978 1161.08 145.032C1161.08 143.351 1161.04 141.648 1160.97 139.967C1160.92 139.021 1161.66 138.222 1162.6 138.175C1163.55 138.128 1164.34 138.865 1164.39 139.81C1164.44 140.969 1164.48 142.145 1164.5 143.314H1167.94C1168.88 143.314 1169.65 144.082 1169.65 145.027C1169.65 145.978 1168.88 146.745 1167.93 146.745Z" fill="#7367F0"/>
<path d="M1200.85 146.744H1192.62C1191.68 146.744 1190.91 145.976 1190.91 145.031C1190.91 144.086 1191.68 143.318 1192.62 143.318H1200.85C1201.8 143.318 1202.56 144.086 1202.56 145.031C1202.56 145.976 1201.8 146.744 1200.85 146.744ZM1184.4 146.744H1176.17C1175.22 146.744 1174.45 145.976 1174.45 145.031C1174.45 144.086 1175.22 143.318 1176.17 143.318H1184.4C1185.34 143.318 1186.11 144.086 1186.11 145.031C1186.11 145.976 1185.34 146.744 1184.4 146.744Z" fill="#7367F0"/>
<path d="M1214.22 146.744H1209.08C1208.14 146.744 1207.37 145.976 1207.37 145.031C1207.37 144.086 1208.14 143.318 1209.08 143.318H1214.22C1215.17 143.318 1215.94 144.086 1215.94 145.031C1215.94 145.976 1215.17 146.744 1214.22 146.744Z" fill="#7367F0"/>
<path d="M1202.51 153.262C1202.25 152.865 1202.37 152.333 1202.77 152.077L1213.82 145.037L1202.77 137.997C1202.37 137.741 1202.25 137.214 1202.51 136.812C1202.76 136.415 1203.3 136.3 1203.69 136.55L1215.89 144.316C1216.13 144.473 1216.28 144.744 1216.28 145.037C1216.28 145.329 1216.13 145.601 1215.89 145.758L1203.69 153.523C1203.55 153.612 1203.39 153.659 1203.23 153.659C1202.95 153.659 1202.67 153.518 1202.51 153.262Z" fill="#7367F0"/>
<path d="M1050.51 259.037C996.679 259.037 949.724 220.835 938.856 168.193C938.663 167.269 939.263 166.36 940.188 166.167C941.112 165.974 942.021 166.569 942.214 167.499C952.748 218.553 998.292 255.606 1050.51 255.606C1102.81 255.606 1148.36 218.475 1158.83 167.316C1159.02 166.386 1159.94 165.791 1160.86 165.979C1161.79 166.167 1162.38 167.076 1162.19 168C1151.4 220.752 1104.43 259.037 1050.51 259.037Z" fill="#7367F0"/>
<g clip-path="url(#clip0_185_4978)">
<path d="M1059.96 140.897H1045.96C1045.36 140.897 1044.87 141.387 1044.87 141.991C1044.87 142.595 1045.36 143.084 1045.96 143.084H1059.96C1060.56 143.084 1061.05 142.595 1061.05 141.991C1061.05 141.387 1060.56 140.897 1059.96 140.897Z" fill="#7367F0"/>
<path d="M1045.71 133.522V130.422H1047.69C1048.29 130.422 1048.78 129.933 1048.78 129.329C1048.78 128.725 1048.29 128.236 1047.69 128.236H1045.71V126.385H1047.95C1048.56 126.385 1049.05 125.895 1049.05 125.292C1049.05 124.688 1048.56 124.198 1047.95 124.198H1044.62C1044.01 124.198 1043.52 124.688 1043.52 125.292V133.522C1043.52 134.126 1044.01 134.616 1044.62 134.616C1045.22 134.616 1045.71 134.126 1045.71 133.522Z" fill="#7367F0"/>
<path d="M1056.45 126.385C1057.05 126.385 1057.54 125.895 1057.54 125.292C1057.54 124.688 1057.05 124.198 1056.45 124.198H1053.11C1052.51 124.198 1052.02 124.688 1052.02 125.292V133.522C1052.02 134.126 1052.51 134.616 1053.11 134.616C1053.72 134.616 1054.21 134.126 1054.21 133.522V130.422H1056.18C1056.79 130.422 1057.28 129.933 1057.28 129.329C1057.28 128.725 1056.79 128.236 1056.18 128.236H1054.21V126.385H1056.45Z" fill="#7367F0"/>
<path d="M1064.46 126.314C1065.06 126.314 1065.55 125.824 1065.55 125.22C1065.55 124.616 1065.06 124.127 1064.46 124.127H1061C1060.39 124.127 1059.9 124.616 1059.9 125.22V133.436C1059.9 134.04 1060.39 134.529 1061 134.529H1064.46C1065.06 134.529 1065.55 134.04 1065.55 133.436C1065.55 132.832 1065.06 132.343 1064.46 132.343H1062.09V130.421H1064.2C1064.81 130.421 1065.3 129.932 1065.3 129.328C1065.3 128.724 1064.81 128.235 1064.2 128.235H1062.09V126.314H1064.46Z" fill="#7367F0"/>
<path d="M1075.5 127.337C1075.5 125.546 1073.99 124.089 1072.13 124.089H1069.93C1069.93 124.089 1069.93 124.089 1069.93 124.089C1069.93 124.089 1069.93 124.089 1069.93 124.089C1069.32 124.089 1068.84 124.578 1068.84 125.182V133.474C1068.84 134.078 1069.32 134.567 1069.93 134.567C1070.53 134.567 1071.02 134.078 1071.02 133.474V131.277L1073.59 134.196C1073.81 134.442 1074.11 134.567 1074.41 134.567C1074.67 134.567 1074.93 134.477 1075.13 134.295C1075.59 133.896 1075.63 133.205 1075.23 132.752L1073.18 130.424C1074.53 129.997 1075.5 128.775 1075.5 127.337ZM1072.13 128.399C1071.88 128.399 1071.45 128.4 1071.03 128.402C1071.03 128.002 1071.03 126.695 1071.03 126.275H1072.13C1072.78 126.275 1073.32 126.761 1073.32 127.337C1073.32 127.912 1072.78 128.399 1072.13 128.399Z" fill="#7367F0"/>
<path d="M1035.38 124.168C1032.49 124.168 1030.14 126.518 1030.14 129.407C1030.14 132.296 1032.49 134.646 1035.38 134.646C1038.27 134.646 1040.62 132.296 1040.62 129.407C1040.62 126.518 1038.27 124.168 1035.38 124.168ZM1035.38 132.459C1033.7 132.459 1032.33 131.09 1032.33 129.407C1032.33 127.724 1033.7 126.355 1035.38 126.355C1037.06 126.355 1038.43 127.724 1038.43 129.407C1038.43 131.09 1037.06 132.459 1035.38 132.459Z" fill="#7367F0"/>
<path d="M1086.94 133.152L1081.7 127.854V103.974C1081.7 101.104 1079.36 98.7695 1076.49 98.7695H1029.43C1026.56 98.7695 1024.22 101.104 1024.22 103.974V127.458L1018.66 133.195C1018.64 133.218 1018.62 133.242 1018.6 133.266C1018.28 133.61 1018.1 134.064 1018.1 134.556V168.101C1018.1 171.026 1020.47 173.405 1023.4 173.405H1082.24C1085.17 173.405 1087.55 171.026 1087.55 168.101V134.54C1087.55 133.999 1087.32 133.504 1086.94 133.152ZM1084.02 133.312L1081.7 134.663V130.963L1084.02 133.312ZM1024.22 134.826L1021.6 133.302L1024.22 130.599V134.826ZM1085.36 168.101C1085.36 169.82 1083.96 171.218 1082.24 171.218H1023.4C1021.68 171.218 1020.28 169.82 1020.28 168.101V135.062L1051.58 153.278C1051.58 153.278 1051.58 153.278 1051.58 153.279L1075.64 167.282C1075.81 167.382 1076 167.43 1076.19 167.43C1076.56 167.43 1076.93 167.236 1077.13 166.887C1077.44 166.365 1077.26 165.695 1076.74 165.392L1054.99 152.736L1074.25 141.528C1074.77 141.225 1074.95 140.555 1074.65 140.033C1074.34 139.512 1073.67 139.335 1073.15 139.638L1052.96 151.388C1052.88 151.439 1052.77 151.44 1052.68 151.388L1050.56 150.153C1050.56 150.153 1050.56 150.152 1050.55 150.152L1026.41 136.099V103.974C1026.41 102.31 1027.76 100.956 1029.43 100.956H1076.49C1078.16 100.956 1079.51 102.31 1079.51 103.974V135.936L1077.02 137.388C1076.5 137.692 1076.32 138.361 1076.62 138.883C1076.93 139.405 1077.6 139.581 1078.12 139.278L1081.12 137.528C1081.13 137.526 1081.13 137.523 1081.14 137.521L1085.36 135.062V168.101Z" fill="#7367F0"/>
<path d="M1046.61 120.707H1059.31C1060.62 120.707 1061.69 119.642 1061.69 118.333V110.039C1061.69 108.73 1060.62 107.665 1059.31 107.665H1056.6V106.498C1056.6 105.08 1055.44 103.927 1054.02 103.927H1051.9C1050.48 103.927 1049.33 105.08 1049.33 106.498V107.665H1046.61C1045.3 107.665 1044.24 108.73 1044.24 110.039V118.333C1044.24 119.642 1045.3 120.707 1046.61 120.707ZM1051.52 106.498C1051.52 106.286 1051.69 106.113 1051.9 106.113H1054.02C1054.24 106.113 1054.41 106.286 1054.41 106.498V107.665H1051.52V106.498ZM1046.42 110.039C1046.42 109.935 1046.51 109.852 1046.61 109.852H1059.31C1059.42 109.852 1059.5 109.935 1059.5 110.039V118.333C1059.5 118.437 1059.42 118.52 1059.31 118.52H1046.61C1046.51 118.52 1046.42 118.437 1046.42 118.333V110.039Z" fill="#7367F0"/>
</g>
<path d="M1052 289.609C1073.52 289.609 1090.96 272.166 1090.96 250.65C1090.96 229.133 1073.52 211.69 1052 211.69C1030.48 211.69 1013.04 229.133 1013.04 250.65C1013.04 272.166 1030.48 289.609 1052 289.609Z" fill="#7367F0"/>
<path d="M1041.96 232.812H1064.33L1064.1 237.862H1046.89L1046.07 247.863C1047.34 246.968 1048.63 246.321 1049.92 245.923C1051.21 245.525 1052.64 245.326 1054.2 245.326C1056.49 245.326 1058.57 245.774 1060.44 246.669C1062.32 247.565 1063.81 248.883 1064.92 250.625C1066.03 252.366 1066.59 254.498 1066.59 257.019C1066.59 259.54 1066.03 261.721 1064.9 263.562C1063.79 265.403 1062.21 266.829 1060.17 267.841C1058.15 268.836 1055.75 269.333 1052.98 269.333C1050.69 269.333 1048.56 268.96 1046.59 268.214C1044.63 267.451 1042.94 266.406 1041.51 265.079C1040.1 263.752 1039.05 262.235 1038.35 260.526L1043.25 257.939C1043.87 259.166 1044.6 260.269 1045.44 261.248C1046.31 262.227 1047.31 262.998 1048.45 263.562C1049.61 264.109 1050.94 264.383 1052.43 264.383C1054.77 264.383 1056.65 263.736 1058.06 262.442C1059.48 261.132 1060.2 259.39 1060.2 257.218C1060.2 255.874 1059.86 254.68 1059.2 253.635C1058.55 252.59 1057.67 251.778 1056.54 251.197C1055.43 250.6 1054.16 250.301 1052.73 250.301C1051.89 250.301 1051.09 250.376 1050.34 250.525C1049.61 250.675 1048.88 250.957 1048.13 251.371C1047.38 251.769 1046.58 252.375 1045.72 253.187C1045.55 253.27 1045.43 253.312 1045.34 253.312C1045.28 253.295 1045.15 253.245 1044.97 253.162L1040.32 251.272L1041.96 232.812Z" fill="white"/>
<path d="M925.342 174.439C925.201 174.439 925.06 174.424 924.919 174.387C924 174.157 923.447 173.223 923.676 172.303C924.089 170.679 924.47 169.018 924.805 167.368C924.993 166.439 925.906 165.843 926.826 166.031C927.755 166.219 928.351 167.128 928.163 168.052C927.813 169.755 927.421 171.468 926.998 173.139C926.805 173.922 926.11 174.439 925.342 174.439Z" fill="#7367F0"/>
<path d="M811.501 258.974C811.475 258.974 811.449 258.974 811.423 258.974C807.976 258.822 804.493 258.514 801.083 258.049C800.142 257.924 799.484 257.062 799.615 256.122C799.74 255.188 800.613 254.529 801.542 254.655C804.853 255.099 808.232 255.402 811.574 255.548C812.52 255.59 813.251 256.389 813.209 257.334C813.172 258.258 812.415 258.974 811.501 258.974ZM821.727 258.963C820.818 258.963 820.061 258.248 820.014 257.329C819.972 256.383 820.703 255.584 821.648 255.537C824.996 255.386 828.37 255.073 831.681 254.618C832.615 254.493 833.482 255.146 833.613 256.08C833.744 257.015 833.086 257.882 832.151 258.013C828.74 258.483 825.262 258.801 821.81 258.958C821.779 258.963 821.753 258.963 821.727 258.963ZM791.254 256.237C791.129 256.237 790.998 256.222 790.867 256.195C787.504 255.423 784.136 254.482 780.861 253.407C779.963 253.109 779.472 252.143 779.77 251.245C780.067 250.346 781.034 249.855 781.932 250.153C785.107 251.198 788.371 252.106 791.635 252.853C792.56 253.067 793.134 253.986 792.92 254.905C792.737 255.699 792.032 256.237 791.254 256.237ZM841.969 256.18C841.191 256.18 840.486 255.642 840.303 254.853C840.089 253.929 840.663 253.01 841.582 252.796C844.841 252.038 848.105 251.119 851.275 250.069C852.173 249.772 853.145 250.258 853.443 251.156C853.74 252.054 853.254 253.025 852.356 253.323C849.087 254.409 845.719 255.349 842.361 256.133C842.225 256.164 842.094 256.18 841.969 256.18ZM771.832 249.855C771.602 249.855 771.372 249.808 771.153 249.714C767.988 248.341 764.849 246.806 761.82 245.15C760.99 244.696 760.687 243.651 761.141 242.826C761.596 241.996 762.635 241.693 763.465 242.147C766.4 243.75 769.445 245.244 772.516 246.576C773.383 246.952 773.785 247.96 773.404 248.832C773.122 249.469 772.495 249.855 771.832 249.855ZM861.365 249.756C860.707 249.756 860.075 249.37 859.793 248.727C859.412 247.86 859.809 246.853 860.676 246.471C863.741 245.134 866.781 243.636 869.71 242.027C870.541 241.573 871.58 241.876 872.04 242.701C872.494 243.531 872.191 244.57 871.366 245.03C868.347 246.691 865.214 248.231 862.054 249.615C861.825 249.709 861.589 249.756 861.365 249.756ZM753.903 240.042C753.574 240.042 753.24 239.948 752.947 239.75C750.08 237.823 747.276 235.744 744.602 233.572C743.866 232.977 743.756 231.896 744.357 231.159C744.952 230.428 746.033 230.313 746.769 230.914C749.36 233.024 752.086 235.039 754.864 236.909C755.647 237.437 755.856 238.502 755.329 239.285C754.995 239.776 754.452 240.042 753.903 240.042ZM879.262 239.912C878.714 239.912 878.171 239.646 877.842 239.155C877.314 238.371 877.518 237.306 878.301 236.773C881.069 234.904 883.785 232.883 886.38 230.762C887.111 230.162 888.192 230.277 888.793 231.008C889.394 231.739 889.284 232.82 888.548 233.42C885.874 235.603 883.069 237.687 880.218 239.614C879.925 239.813 879.591 239.912 879.262 239.912ZM738.048 227.148C737.614 227.148 737.186 226.986 736.852 226.663C734.382 224.25 731.995 221.701 729.76 219.08C729.144 218.359 729.232 217.278 729.953 216.662C730.674 216.046 731.755 216.134 732.371 216.855C734.538 219.398 736.857 221.868 739.254 224.213C739.933 224.877 739.944 225.958 739.286 226.637C738.936 226.976 738.492 227.148 738.048 227.148ZM895.086 226.986C894.642 226.986 894.198 226.814 893.864 226.475C893.201 225.801 893.211 224.715 893.89 224.051C896.282 221.707 898.59 219.226 900.758 216.683C901.374 215.962 902.45 215.873 903.176 216.489C903.896 217.1 903.985 218.187 903.369 218.902C901.139 221.529 898.757 224.083 896.292 226.501C895.953 226.825 895.52 226.986 895.086 226.986ZM724.778 211.612C724.24 211.612 723.712 211.361 723.378 210.886C721.383 208.071 719.498 205.131 717.769 202.149C717.294 201.329 717.576 200.279 718.391 199.804C719.211 199.329 720.255 199.611 720.73 200.425C722.407 203.319 724.235 206.17 726.167 208.901C726.715 209.674 726.532 210.745 725.76 211.288C725.467 211.507 725.122 211.612 724.778 211.612ZM908.325 211.418C907.985 211.418 907.641 211.319 907.338 211.105C906.565 210.562 906.377 209.491 906.925 208.719C908.858 205.982 910.68 203.125 912.351 200.227C912.821 199.407 913.871 199.125 914.691 199.6C915.511 200.075 915.793 201.12 915.318 201.94C913.594 204.927 911.714 207.867 909.725 210.693C909.39 211.163 908.863 211.418 908.325 211.418ZM714.537 193.934C713.889 193.934 713.273 193.563 712.98 192.942C711.534 189.813 710.212 186.581 709.053 183.332C708.734 182.439 709.199 181.463 710.092 181.144C710.985 180.831 711.962 181.29 712.28 182.183C713.403 185.333 714.683 188.471 716.088 191.5C716.485 192.362 716.114 193.375 715.252 193.777C715.022 193.882 714.782 193.934 714.537 193.934ZM918.53 193.709C918.289 193.709 918.044 193.657 917.814 193.553C916.952 193.156 916.576 192.137 916.973 191.281C918.373 188.241 919.647 185.098 920.765 181.948C921.083 181.055 922.06 180.585 922.953 180.904C923.846 181.217 924.311 182.199 923.997 183.092C922.848 186.346 921.532 189.584 920.091 192.717C919.799 193.339 919.177 193.709 918.53 193.709Z" fill="#7367F0"/>
<path d="M707.663 174.624C706.9 174.624 706.2 174.107 706.002 173.334C705.574 171.658 705.182 169.945 704.827 168.248C704.633 167.323 705.234 166.415 706.158 166.221C707.083 166.028 707.992 166.624 708.185 167.553C708.524 169.198 708.905 170.859 709.323 172.488C709.558 173.407 709.005 174.337 708.085 174.572C707.95 174.603 707.804 174.624 707.663 174.624Z" fill="#7367F0"/>
<path d="M980.199 146.793H928.774C927.828 146.793 927.061 146.026 927.061 145.08C927.061 138.156 926.418 131.225 925.144 124.478C915.321 72.3428 869.625 34.5065 816.486 34.5065C763.348 34.5065 717.652 72.3428 707.829 124.478C707.651 125.408 706.758 126.019 705.829 125.846C704.899 125.669 704.288 124.776 704.46 123.846C714.587 70.0972 761.703 31.0806 816.486 31.0806C871.27 31.0806 918.386 70.0919 928.513 123.846C929.719 130.244 930.377 136.803 930.476 143.373H980.199C981.144 143.373 981.912 144.14 981.912 145.086C981.912 146.026 981.144 146.793 980.199 146.793Z" fill="#7367F0"/>
<path d="M848.52 111.034H840.491V106.397C840.491 104.249 838.795 102.552 836.646 102.552C834.498 102.552 832.802 104.249 832.802 106.397V111.034H800.686V106.397C800.686 104.249 798.989 102.552 796.841 102.552C794.692 102.552 792.996 104.362 792.996 106.397V111.034H784.967C782.479 111.034 780.557 113.069 780.557 115.444V168.706C780.557 171.081 782.479 173.117 784.967 173.117H848.52C850.895 173.117 852.931 171.194 852.931 168.706V115.444C852.931 113.069 851.008 111.034 848.52 111.034ZM836.646 104.814C837.551 104.814 838.343 105.606 838.343 106.51V115.444C838.343 116.348 837.551 117.14 836.646 117.14C835.742 117.14 834.95 116.348 834.95 115.444C834.95 115.218 834.95 106.397 834.95 106.51C834.95 105.492 835.742 104.814 836.646 104.814ZM796.841 104.814C797.745 104.814 798.537 105.606 798.537 106.51V115.444C798.537 116.348 797.745 117.14 796.841 117.14C795.936 117.14 795.145 116.348 795.145 115.444C795.145 115.218 795.145 106.397 795.145 106.51C795.258 105.492 795.936 104.814 796.841 104.814ZM784.967 113.295H792.996V115.444C792.996 117.592 794.692 119.289 796.841 119.289C798.989 119.289 800.686 117.592 800.686 115.444V113.295H832.802V115.444C832.802 117.592 834.498 119.289 836.646 119.289C838.795 119.289 840.491 117.479 840.491 115.331V113.182H848.633C849.877 113.182 850.782 114.2 850.782 115.331V121.663H782.705V115.331C782.705 114.2 783.723 113.295 784.967 113.295ZM848.52 170.855H784.967C783.723 170.855 782.818 169.837 782.818 168.706V123.925H850.782V168.706C850.782 169.95 849.764 170.855 848.52 170.855Z" fill="#7367F0"/>
<path d="M829.182 141.907H820.361C819.796 141.907 819.23 142.359 819.23 143.038V151.858C819.23 152.424 819.683 152.989 820.361 152.989H829.182C829.747 152.989 830.313 152.537 830.313 151.858V143.038C830.313 142.472 829.747 141.907 829.182 141.907ZM828.051 150.727H821.492V144.168H828.051V150.727Z" fill="#7367F0"/>
<path d="M829.182 128.336H820.361C819.796 128.336 819.23 128.789 819.23 129.467V138.288C819.23 138.853 819.683 139.419 820.361 139.419H829.182C829.747 139.419 830.313 138.966 830.313 138.288V129.467C830.313 128.789 829.747 128.336 829.182 128.336ZM828.051 137.044H821.492V130.485H828.051V137.044Z" fill="#7367F0"/>
<path d="M845.24 141.907H836.42C835.854 141.907 835.289 142.359 835.289 143.038V151.858C835.289 152.424 835.741 152.989 836.42 152.989H845.24C845.806 152.989 846.371 152.537 846.371 151.858V143.038C846.371 142.472 845.806 141.907 845.24 141.907ZM844.11 150.727H837.551V144.168H844.11V150.727Z" fill="#7367F0"/>
<path d="M828.279 157.284L823.304 162.26L821.268 160.111C820.816 159.659 820.137 159.659 819.685 160.111C819.233 160.564 819.233 161.242 819.685 161.694L822.512 164.521C822.738 164.748 822.964 164.861 823.304 164.861C823.53 164.861 823.869 164.748 824.095 164.521L829.863 158.754C830.315 158.302 830.315 157.623 829.863 157.171C829.41 156.832 828.732 156.832 828.279 157.284Z" fill="#7367F0"/>
<path d="M845.24 128.336H836.42C835.854 128.336 835.289 128.789 835.289 129.467V138.288C835.289 138.853 835.741 139.419 836.42 139.419H845.24C845.806 139.419 846.371 138.966 846.371 138.288V129.467C846.371 128.789 845.806 128.336 845.24 128.336ZM844.11 137.044H837.551V130.485H844.11V137.044Z" fill="#7367F0"/>
<path d="M813.123 141.907H804.303C803.737 141.907 803.172 142.359 803.172 143.038V151.858C803.172 152.424 803.624 152.989 804.303 152.989H813.123C813.689 152.989 814.254 152.537 814.254 151.858V143.038C814.141 142.472 813.689 141.907 813.123 141.907ZM811.992 150.727H805.434V144.168H811.992V150.727Z" fill="#7367F0"/>
<path d="M813.123 155.589H804.303C803.737 155.589 803.172 156.042 803.172 156.72V165.541C803.172 166.106 803.624 166.672 804.303 166.672H813.123C813.689 166.672 814.254 166.219 814.254 165.541V156.72C814.141 156.042 813.689 155.589 813.123 155.589ZM811.992 164.297H805.434V157.738H811.992V164.297Z" fill="#7367F0"/>
<path d="M813.123 128.336H804.303C803.737 128.336 803.172 128.789 803.172 129.467V138.288C803.172 138.853 803.624 139.419 804.303 139.419H813.123C813.689 139.419 814.254 138.966 814.254 138.288V129.467C814.141 128.789 813.689 128.336 813.123 128.336ZM811.992 137.044H805.434V130.485H811.992V137.044Z" fill="#7367F0"/>
<path d="M796.956 141.907H788.248C787.683 141.907 787.117 142.359 787.117 143.038V151.858C787.117 152.424 787.57 152.989 788.248 152.989H797.069C797.634 152.989 798.199 152.537 798.199 151.858V143.038C798.086 142.472 797.634 141.907 796.956 141.907ZM795.938 150.727H789.379V144.168H795.938V150.727Z" fill="#7367F0"/>
<path d="M796.956 155.589H788.248C787.683 155.589 787.117 156.042 787.117 156.72V165.541C787.117 166.106 787.57 166.672 788.248 166.672H797.069C797.634 166.672 798.199 166.219 798.199 165.541V156.72C798.086 156.042 797.634 155.589 796.956 155.589ZM795.938 164.297H789.379V157.738H795.938V164.297Z" fill="#7367F0"/>
<path d="M796.956 128.336H788.248C787.683 128.336 787.117 128.789 787.117 129.467V138.288C787.117 138.853 787.57 139.419 788.248 139.419H797.069C797.634 139.419 798.199 138.966 798.199 138.288V129.467C798.086 128.789 797.634 128.336 796.956 128.336ZM795.938 137.044H789.379V130.485H795.938V137.044Z" fill="#7367F0"/>
<path d="M968.484 153.308C968.228 152.911 968.348 152.379 968.745 152.123L979.801 145.083L968.745 138.043C968.348 137.787 968.228 137.26 968.484 136.857C968.74 136.461 969.272 136.346 969.669 136.596L981.864 144.362C982.109 144.519 982.261 144.79 982.261 145.083C982.261 145.375 982.109 145.647 981.864 145.803L969.669 153.569C969.528 153.658 969.366 153.705 969.21 153.705C968.928 153.705 968.651 153.564 968.484 153.308Z" fill="#7367F0"/>
<path d="M817.98 78.6903C839.497 78.6903 856.939 61.2477 856.939 39.7311C856.939 18.2146 839.497 0.771973 817.98 0.771973C796.464 0.771973 779.021 18.2146 779.021 39.7311C779.021 61.2477 796.464 78.6903 817.98 78.6903Z" fill="#7367F0"/>
<path d="M820.054 21.3416H826.075V43.6327H831.822V48.7826H826.075V57.3159H820.204L820.228 48.7826H803.485V43.6327L820.054 21.3416ZM809.157 43.6327H820.179V28.8549L809.157 43.6327Z" fill="white"/>
<path d="M1400.5 144.312C1400.5 136.583 1399.72 128.848 1398.19 121.338C1387.4 68.6025 1340.43 30.3119 1286.51 30.3119C1232.67 30.3119 1185.71 68.5242 1174.85 121.15C1174.66 122.085 1175.26 122.989 1176.19 123.171C1177.11 123.37 1178.03 122.769 1178.21 121.845C1188.75 70.7856 1234.29 33.7325 1286.51 33.7325C1338.8 33.7325 1384.36 70.8639 1394.83 122.017C1396.32 129.308 1397.08 136.802 1397.08 144.307C1397.08 148.411 1396.86 152.516 1396.39 156.584H1399.84C1400.29 152.527 1400.5 148.411 1400.5 144.312Z" fill="#7367F0"/>
<path d="M1318.43 116.4H1286.86C1283.52 116.4 1280.79 119.122 1280.79 122.467V126.31H1259.72C1256.37 126.31 1253.65 129.031 1253.65 132.377V157.53C1253.65 160.877 1256.37 163.601 1259.72 163.601H1263.17V172.108C1263.17 172.557 1263.42 172.966 1263.83 173.16C1263.99 173.237 1264.16 173.274 1264.33 173.274C1264.59 173.274 1264.85 173.187 1265.06 173.017L1276.78 163.601H1291.28C1294.63 163.601 1297.35 160.877 1297.35 157.53V153.687H1301.36L1313.08 163.108C1313.29 163.278 1313.55 163.365 1313.81 163.365C1313.98 163.365 1314.16 163.328 1314.32 163.251C1314.72 163.057 1314.98 162.648 1314.98 162.199V153.687H1318.43C1321.77 153.687 1324.5 150.966 1324.5 147.62V122.467C1324.5 119.122 1321.77 116.4 1318.43 116.4ZM1295.02 157.53C1295.02 159.591 1293.34 161.269 1291.28 161.269H1276.37C1276.1 161.269 1275.85 161.359 1275.64 161.526L1265.5 169.675V162.435C1265.5 161.791 1264.98 161.269 1264.33 161.269H1259.72C1257.66 161.269 1255.98 159.591 1255.98 157.53V132.377C1255.98 130.317 1257.66 128.642 1259.72 128.642H1291.28C1293.34 128.642 1295.02 130.317 1295.02 132.377V157.53ZM1322.16 147.62C1322.16 149.68 1320.49 151.355 1318.43 151.355H1313.81C1313.17 151.355 1312.65 151.877 1312.65 152.521V159.765L1302.51 151.613C1302.3 151.446 1302.04 151.355 1301.78 151.355H1297.35V143.778H1313C1313.64 143.778 1314.16 143.256 1314.16 142.612C1314.16 141.968 1313.64 141.446 1313 141.446H1297.35V138.733H1313C1313.64 138.733 1314.16 138.211 1314.16 137.567C1314.16 136.923 1313.64 136.401 1313 136.401H1297.35V133.687H1313C1313.64 133.687 1314.16 133.165 1314.16 132.521C1314.16 131.877 1313.64 131.355 1313 131.355H1297.26C1297.09 130.344 1296.67 129.418 1296.06 128.642H1305.95C1306.59 128.642 1307.12 128.12 1307.12 127.476C1307.12 126.832 1306.59 126.31 1305.95 126.31H1283.13V122.467C1283.13 120.408 1284.8 118.733 1286.86 118.733H1318.43C1320.49 118.733 1322.16 120.408 1322.16 122.467V147.621L1322.16 147.62ZM1286.28 140.016H1281.34L1281.76 136.987C1281.76 136.976 1281.76 136.965 1281.76 136.953C1282.15 133.381 1280.48 131.216 1278.62 130.925C1277.23 130.706 1276.05 131.569 1275.73 133.025C1274.83 136.561 1273.58 139.026 1271.67 141.013C1271.39 141.299 1271.19 141.484 1271.01 141.597C1270.65 140.691 1269.77 140.049 1268.73 140.049H1263.82C1262.47 140.049 1261.37 141.151 1261.37 142.505V156.534C1261.37 157.888 1262.47 158.989 1263.82 158.989H1268.73C1269.82 158.989 1270.75 158.277 1271.07 157.295H1271.87C1272.19 157.295 1272.43 157.394 1272.65 157.615L1273.05 158.011C1273.7 158.67 1274.54 159.018 1275.47 159.018H1284.58C1286.2 159.018 1287.51 157.707 1287.51 156.096C1287.51 155.715 1287.43 155.351 1287.3 155.017C1288.24 154.437 1288.87 153.398 1288.87 152.216C1288.87 151.578 1288.68 150.982 1288.37 150.477C1289.14 149.846 1289.63 148.889 1289.63 147.819C1289.63 146.963 1289.32 146.179 1288.8 145.577C1289.32 144.986 1289.63 144.211 1289.63 143.364C1289.63 141.518 1288.13 140.016 1286.28 140.016H1286.28ZM1268.86 156.534C1268.86 156.601 1268.8 156.657 1268.73 156.657H1263.82C1263.76 156.657 1263.7 156.601 1263.7 156.534V142.505C1263.7 142.438 1263.76 142.382 1263.82 142.382H1268.73C1268.8 142.382 1268.86 142.438 1268.86 142.505V156.534ZM1286.2 146.716C1286.8 146.716 1287.3 147.211 1287.3 147.819C1287.3 148.427 1286.8 148.921 1286.2 148.921H1285.58C1284.93 148.921 1284.41 149.443 1284.41 150.087C1284.41 150.731 1284.93 151.254 1285.58 151.254C1286.1 151.254 1286.53 151.685 1286.53 152.215C1286.53 152.735 1286.1 153.173 1285.58 153.173H1284.58C1283.94 153.173 1283.42 153.695 1283.42 154.339C1283.42 154.983 1283.94 155.506 1284.58 155.506C1284.91 155.506 1285.17 155.77 1285.17 156.096C1285.17 156.415 1284.9 156.686 1284.58 156.686H1275.47C1275.16 156.686 1274.92 156.586 1274.69 156.362L1274.3 155.965C1273.64 155.309 1272.8 154.963 1271.87 154.963H1271.19V144.013C1272.12 143.82 1272.79 143.211 1273.35 142.631C1275.53 140.362 1277.01 137.485 1278 133.577C1278 133.56 1278.01 133.542 1278.01 133.525C1278.08 133.2 1278.18 133.217 1278.26 133.229C1278.74 133.304 1279.7 134.279 1279.44 136.684L1278.98 140.016H1278.07C1277.43 140.016 1276.91 140.538 1276.91 141.182C1276.91 141.826 1277.43 142.349 1278.07 142.349H1286.28C1286.83 142.349 1287.3 142.814 1287.3 143.364C1287.3 143.915 1286.83 144.384 1286.28 144.384H1286.2C1285.55 144.384 1285.03 144.906 1285.03 145.55C1285.03 146.194 1285.55 146.716 1286.2 146.716ZM1314.16 127.476C1314.16 128.12 1313.64 128.642 1313 128.642H1310.84C1310.2 128.642 1309.68 128.12 1309.68 127.476C1309.68 126.832 1310.2 126.31 1310.84 126.31H1313C1313.64 126.31 1314.16 126.832 1314.16 127.476Z" fill="#7367F0"/>
<path d="M1175.09 163.895C1174.61 164.265 1174.37 164.897 1174.48 165.545C1184.61 219.294 1231.72 258.311 1286.51 258.311C1341.29 258.311 1388.4 219.294 1398.53 165.545C1398.64 164.997 1398.73 164.443 1398.82 163.895H1395.34C1395.3 164.239 1395.23 164.574 1395.16 164.918C1385.33 217.048 1339.63 254.885 1286.51 254.885C1233.36 254.885 1187.67 217.048 1177.85 164.918C1177.77 164.506 1177.55 164.151 1177.24 163.895C1176.87 163.592 1176.36 163.451 1175.84 163.54C1175.56 163.597 1175.31 163.717 1175.09 163.895Z" fill="#7367F0"/>
<path d="M1287.53 78.825C1309.04 78.825 1326.48 61.3824 1326.48 39.8659C1326.48 18.3493 1309.04 0.906738 1287.53 0.906738C1266.01 0.906738 1248.57 18.3493 1248.57 39.8659C1248.57 61.3824 1266.01 78.825 1287.53 78.825Z" fill="#7367F0"/>
<path d="M1288.51 21.5306C1290.63 21.5306 1292.6 21.9286 1294.4 22.7247C1296.21 23.5043 1297.7 24.6321 1298.86 26.1082C1300.02 27.5843 1300.7 29.3673 1300.9 31.4571H1295.3C1294.83 29.8483 1294.04 28.6043 1292.91 27.7253C1291.78 26.8463 1290.36 26.4067 1288.63 26.4067C1286.72 26.4067 1285.13 26.9458 1283.85 28.0238C1282.58 29.1019 1281.66 30.6527 1281.09 32.6761C1280.55 34.683 1280.37 37.0879 1280.57 39.8909C1281.08 38.9123 1281.78 38.0665 1282.66 37.3533C1283.54 36.6235 1284.54 36.0596 1285.67 35.6615C1286.8 35.2635 1287.99 35.0645 1289.25 35.0645C1291.66 35.0645 1293.76 35.5206 1295.57 36.4328C1297.38 37.345 1298.79 38.6387 1299.8 40.3138C1300.81 41.989 1301.32 43.971 1301.32 46.2598C1301.32 48.6315 1300.77 50.7462 1299.68 52.6038C1298.58 54.4448 1297.05 55.8961 1295.07 56.9575C1293.1 58.019 1290.8 58.5498 1288.16 58.5498C1285.22 58.5498 1282.69 57.82 1280.55 56.3605C1278.41 54.9009 1276.76 52.836 1275.59 50.1657C1274.45 47.4788 1273.88 44.3027 1273.88 40.6372C1273.88 36.7396 1274.45 33.3644 1275.59 30.5117C1276.74 27.6424 1278.4 25.4282 1280.57 23.8691C1282.76 22.3101 1285.41 21.5306 1288.51 21.5306ZM1287.98 39.7167C1286.84 39.7167 1285.73 39.9821 1284.65 40.5129C1283.59 41.0436 1282.72 41.7319 1282.04 42.5778C1281.37 43.4236 1281.04 44.3276 1281.04 45.2895C1281.03 46.9979 1281.31 48.4906 1281.89 49.7677C1282.47 51.0448 1283.28 52.0399 1284.33 52.7531C1285.39 53.4497 1286.62 53.798 1288.01 53.798C1289.3 53.798 1290.46 53.4911 1291.49 52.8775C1292.54 52.2638 1293.36 51.4096 1293.96 50.315C1294.57 49.2203 1294.88 47.9598 1294.88 46.5335C1294.88 45.0739 1294.59 43.8383 1294.03 42.8266C1293.47 41.8148 1292.66 41.0436 1291.62 40.5129C1290.59 39.9821 1289.38 39.7167 1287.98 39.7167Z" fill="white"/>
<defs>
<clipPath id="clip0_185_4978">
<rect width="74.6356" height="74.6354" fill="white" transform="translate(1015.5 98.7715)"/>
</clipPath>
</defs>
</svg>
