<svg width="130" height="130" viewBox="0 0 130 130" fill="none" xmlns="http://www.w3.org/2000/svg">
<g filter="url(#filter0_d_185_5187)">
<circle cx="65" cy="55" r="30" fill="#7367F0"/>
</g>
<g clip-path="url(#clip0_185_5187)">
<path d="M68 49.5C67.448 49.5 67 49.052 67 48.5V47H63V48.5C63 49.052 62.552 49.5 62 49.5C61.448 49.5 61 49.052 61 48.5V47C61 45.897 61.897 45 63 45H67C68.103 45 69 45.897 69 47V48.5C69 49.052 68.552 49.5 68 49.5Z" fill="white"/>
<path d="M65.71 58.3801C65.53 58.4501 65.27 58.5001 65 58.5001C64.73 58.5001 64.47 58.4501 64.23 58.3601L53 54.6201V62.2501C53 63.7701 54.23 65.0001 55.75 65.0001H74.25C75.77 65.0001 77 63.7701 77 62.2501V54.6201L65.71 58.3801Z" fill="white"/>
<path d="M77 50.75V53.04L65.24 56.96C65.16 56.99 65.08 57 65 57C64.92 57 64.84 56.99 64.76 56.96L53 53.04V50.75C53 49.23 54.23 48 55.75 48H74.25C75.77 48 77 49.23 77 50.75Z" fill="white"/>
</g>
<defs>
<filter id="filter0_d_185_5187" x="0" y="0" width="130" height="130" filterUnits="userSpaceOnUse" color-interpolation-filters="sRGB">
<feFlood flood-opacity="0" result="BackgroundImageFix"/>
<feColorMatrix in="SourceAlpha" type="matrix" values="0 0 0 0 0 0 0 0 0 0 0 0 0 0 0 0 0 0 127 0" result="hardAlpha"/>
<feOffset dy="10"/>
<feGaussianBlur stdDeviation="17.5"/>
<feComposite in2="hardAlpha" operator="out"/>
<feColorMatrix type="matrix" values="0 0 0 0 0 0 0 0 0 0 0 0 0 0 0 0 0 0 0.1 0"/>
<feBlend mode="normal" in2="BackgroundImageFix" result="effect1_dropShadow_185_5187"/>
<feBlend mode="normal" in="SourceGraphic" in2="effect1_dropShadow_185_5187" result="shape"/>
</filter>
<clipPath id="clip0_185_5187">
<rect width="24" height="24" fill="white" transform="translate(53 43)"/>
</clipPath>
</defs>
</svg>
