<svg width="130" height="130" viewBox="0 0 130 130" fill="none" xmlns="http://www.w3.org/2000/svg">
<g filter="url(#filter0_d_185_5190)">
<circle cx="65" cy="55" r="30" fill="#FDFDFD"/>
</g>
<path fill-rule="evenodd" clip-rule="evenodd" d="M65.5139 60.5526L61.0655 63.8173C60.0587 64.5562 58.61 63.866 58.608 62.6512L58.6041 60.4278C56.5329 59.9496 55 58.1543 55 56.0214V50.4111C55 47.9094 57.106 45.8799 59.7059 45.8799H70.2941C72.894 45.8799 75 47.9094 75 50.4111V56.0214C75 58.5231 72.894 60.5526 70.2941 60.5526H65.5139ZM60.6064 61.7375L64.5682 58.8299C64.7426 58.702 64.956 58.6326 65.1755 58.6326H70.2941C71.7877 58.6326 73 57.4643 73 56.0214V50.4111C73 48.9682 71.7877 47.7999 70.2941 47.7999H59.7059C58.2123 47.7999 57 48.9682 57 50.4111V56.0214C57 57.4372 58.1691 58.5931 59.6301 58.6316C60.1709 58.6459 60.6018 59.0704 60.6027 59.5897L60.6064 61.7375Z" fill="#7367F0"/>
<defs>
<filter id="filter0_d_185_5190" x="0" y="0" width="130" height="130" filterUnits="userSpaceOnUse" color-interpolation-filters="sRGB">
<feFlood flood-opacity="0" result="BackgroundImageFix"/>
<feColorMatrix in="SourceAlpha" type="matrix" values="0 0 0 0 0 0 0 0 0 0 0 0 0 0 0 0 0 0 127 0" result="hardAlpha"/>
<feOffset dy="10"/>
<feGaussianBlur stdDeviation="17.5"/>
<feComposite in2="hardAlpha" operator="out"/>
<feColorMatrix type="matrix" values="0 0 0 0 0 0 0 0 0 0 0 0 0 0 0 0 0 0 0.1 0"/>
<feBlend mode="normal" in2="BackgroundImageFix" result="effect1_dropShadow_185_5190"/>
<feBlend mode="normal" in="SourceGraphic" in2="effect1_dropShadow_185_5190" result="shape"/>
</filter>
</defs>
</svg>
