<svg width="795" height="736" viewBox="0 0 795 736" fill="none" xmlns="http://www.w3.org/2000/svg">
<path d="M726.481 0.84375H88.6355C77.6432 0.84375 68.7212 9.7658 68.7212 20.7581V471.295C68.7212 482.287 77.6432 491.209 88.6355 491.209H333.433C333.433 491.209 349.006 539.355 300.731 564.271H529.646C529.646 564.271 475.142 545.584 489.157 491.209H726.499C737.491 491.209 746.413 482.287 746.413 471.295V20.7581C746.395 9.74748 737.473 0.84375 726.481 0.84375Z" fill="#455A64"/>
<path d="M416.074 443.814C424.757 456.217 411.164 469.793 398.761 461.127C398.358 460.834 397.973 460.468 397.698 460.065C389.051 447.662 402.608 434.105 415.011 442.752C415.414 443.027 415.78 443.411 416.074 443.814Z" fill="#263238"/>
<path d="M735.418 408.768H79.6924V26.8592C79.6924 17.0395 87.6435 9.08838 97.4632 9.08838H717.647C727.467 9.08838 735.418 17.0395 735.418 26.8592V408.768Z" fill="white"/>
<path d="M735.421 42.3026H79.6948V25.8692C79.6948 16.599 87.2062 9.10596 96.4581 9.10596H721.644C729.247 9.10596 735.421 15.2616 735.421 22.8829V42.3026Z" fill="#EBEBEB"/>
<path d="M100.579 30.9996C103.119 30.9996 105.177 28.9408 105.177 26.4012C105.177 23.8615 103.119 21.8027 100.579 21.8027C98.0393 21.8027 95.9805 23.8615 95.9805 26.4012C95.9805 28.9408 98.0393 30.9996 100.579 30.9996Z" fill="#E0E0E0"/>
<path d="M114.318 30.9996C116.857 30.9996 118.916 28.9408 118.916 26.4012C118.916 23.8615 116.857 21.8027 114.318 21.8027C111.778 21.8027 109.719 23.8615 109.719 26.4012C109.719 28.9408 111.778 30.9996 114.318 30.9996Z" fill="#E0E0E0"/>
<path d="M127.364 30.9996C129.904 30.9996 131.962 28.9408 131.962 26.4012C131.962 23.8615 129.904 21.8027 127.364 21.8027C124.824 21.8027 122.766 23.8615 122.766 26.4012C122.766 28.9408 124.824 30.9996 127.364 30.9996Z" fill="#E0E0E0"/>
<path d="M612.457 491.264C612.457 491.484 521.697 491.649 409.741 491.649C297.766 491.649 207.007 491.484 207.007 491.264C207.007 491.044 297.748 490.879 409.741 490.879C521.679 490.879 612.457 491.044 612.457 491.264Z" fill="#263238"/>
<path d="M733.917 96.0552H79.9131V242.051H733.917V96.0552Z" fill="#F5F5F5"/>
<path d="M190.369 57.6006H95.9819V82.2966H190.369V57.6006Z" fill="#F5F5F5"/>
<path d="M718.4 57.6006H666.718V82.2966H718.4V57.6006Z" fill="#F5F5F5"/>
<path d="M651.182 57.6006H566.614V82.2966H651.182V57.6006Z" fill="#F5F5F5"/>
<path d="M549.026 57.6006H464.458V82.2966H549.026V57.6006Z" fill="#F5F5F5"/>
<path d="M688.153 283.181H111.755V309.049H688.153V283.181Z" fill="#F5F5F5"/>
<path d="M688.153 331.327H111.755V357.195H688.153V331.327Z" fill="#F5F5F5"/>
<path d="M615.785 292.329C611.461 292.622 607.193 289.251 606.478 284.964C605.764 280.696 608.676 276.116 612.854 274.961C610.307 272.085 609.849 267.56 611.773 264.244C613.696 260.928 617.855 259.059 621.611 259.847C621.94 256.073 624.377 252.555 627.785 250.907C631.192 249.258 635.461 249.533 638.612 251.621C642.954 248.232 649.696 248.433 653.855 252.042C657.555 251.548 661.476 253.691 663.033 257.081C664.591 260.47 663.693 264.848 660.908 267.34" fill="#263238"/>
<path d="M614.454 293.52C616.927 274.119 633.892 259.884 653.421 260.8L655.363 260.891C676.23 263.09 686.032 282.051 683.247 302.845L676.963 372.39L675.314 388.786L627.882 383.18L628.78 365.428C628.78 365.428 608.811 361.361 609.507 341.226C609.837 331.517 612.145 311.547 614.454 293.52Z" fill="#99655C"/>
<path d="M628.623 365.391C628.623 365.391 641.429 366.765 655.334 358.905C655.334 358.905 648.464 373.085 628.477 370.337L628.623 365.391Z" fill="#744A45"/>
<path d="M618.868 312.061C618.74 313.581 619.931 314.937 621.506 315.084C623.082 315.248 624.456 314.149 624.584 312.629C624.713 311.108 623.522 309.752 621.946 309.606C620.371 309.441 618.978 310.54 618.868 312.061Z" fill="#263238"/>
<path d="M618.306 303.56C618.636 303.944 620.89 302.442 623.986 302.589C627.082 302.699 629.262 304.402 629.628 304.036C629.793 303.871 629.463 303.175 628.511 302.424C627.576 301.654 625.946 300.885 624.022 300.812C622.099 300.738 620.45 301.361 619.479 302.039C618.49 302.717 618.141 303.376 618.306 303.56Z" fill="#263238"/>
<path d="M647.03 313.471C646.902 314.992 648.093 316.348 649.668 316.494C651.244 316.659 652.618 315.56 652.746 314.039C652.874 312.519 651.683 311.163 650.108 311.016C648.551 310.851 647.158 311.951 647.03 313.471Z" fill="#263238"/>
<path d="M648.691 305.557C649.02 305.942 651.292 304.44 654.37 304.586C657.466 304.696 659.646 306.382 660.013 306.033C660.178 305.869 659.866 305.172 658.895 304.421C657.961 303.652 656.33 302.882 654.407 302.809C652.483 302.736 650.834 303.359 649.863 304.037C648.874 304.714 648.526 305.374 648.691 305.557Z" fill="#263238"/>
<path d="M636.368 327.943C636.387 327.76 634.481 327.338 631.385 326.807C630.598 326.697 629.865 326.496 629.755 325.946C629.59 325.36 629.975 324.535 630.396 323.638C631.22 321.769 632.1 319.79 633.016 317.739C636.662 309.329 639.336 302.404 638.988 302.258C638.64 302.111 635.416 308.816 631.788 317.226C630.909 319.296 630.066 321.274 629.278 323.161C628.93 324.041 628.381 325.03 628.729 326.239C628.912 326.844 629.48 327.302 629.975 327.448C630.469 327.632 630.909 327.65 631.312 327.705C634.408 328.016 636.35 328.126 636.368 327.943Z" fill="#263238"/>
<path d="M648.012 295.773C648.378 296.579 651.071 295.847 654.332 295.902C657.593 295.883 660.323 296.616 660.653 295.81C660.799 295.425 660.25 294.692 659.114 294.015C657.978 293.337 656.219 292.769 654.277 292.75C652.317 292.75 650.595 293.3 649.496 293.978C648.36 294.674 647.847 295.389 648.012 295.773Z" fill="#263238"/>
<path d="M618.754 290.808C619.377 291.541 621.96 290.937 625.02 291.047C628.098 291.065 630.662 291.779 631.304 291.083C631.578 290.735 631.212 290.021 630.094 289.306C629.014 288.592 627.163 287.969 625.056 287.914C622.949 287.877 621.081 288.427 619.982 289.086C618.882 289.746 618.498 290.442 618.754 290.808Z" fill="#263238"/>
<path d="M616.816 284.378C616.816 284.378 622.715 272.03 628.926 269.374C636.437 266.168 639.24 274.375 646.33 272.745C653.438 271.114 660.602 268.018 667.508 273.771C675.075 280.073 671.209 284.049 671.264 293.007C671.539 329.282 677.658 339.816 680.351 322.87C680.644 321.019 685.902 319.774 687.038 311.914C688.504 301.728 689.493 289.325 687.533 281.96C685.902 275.749 682.605 271.353 676.559 266.406C667.032 258.583 653.475 257.795 644.205 258.29C634.971 258.803 616.724 268.568 616.816 284.378Z" fill="#263238"/>
<path d="M679.111 322.265C679.386 319.169 682.171 316.842 685.249 317.282C688.986 317.813 693.053 320.14 692.449 327.871C691.368 341.612 677.811 337.691 677.811 337.288C677.829 337.031 678.598 327.999 679.111 322.265Z" fill="#99655C"/>
<path d="M681.218 332.36C681.273 332.323 681.438 332.543 681.841 332.763C682.225 332.982 682.885 333.147 683.618 332.946C685.102 332.524 686.512 330.326 686.769 327.853C686.897 326.607 686.732 325.398 686.366 324.372C686.018 323.328 685.432 322.576 684.717 322.393C684.003 322.173 683.453 322.558 683.251 322.943C683.032 323.309 683.105 323.584 683.032 323.602C682.995 323.639 682.757 323.346 682.903 322.796C682.977 322.522 683.16 322.21 683.508 321.972C683.856 321.734 684.351 321.624 684.864 321.734C685.908 321.899 686.787 322.943 687.19 324.06C687.648 325.196 687.868 326.552 687.722 327.944C687.41 330.711 685.798 333.184 683.764 333.605C682.775 333.789 681.987 333.422 681.603 333.074C681.2 332.689 681.163 332.378 681.218 332.36Z" fill="#744A45"/>
<path d="M680.073 295.608C678.223 296.744 676.281 297.917 674.119 298.027C671.957 298.137 669.558 296.781 669.283 294.637C669.173 293.666 669.448 292.567 668.861 291.798C668.147 290.882 666.754 291.083 665.6 291.157C661.588 291.395 657.613 288.372 656.788 284.433C655.689 285.917 653.326 285.734 651.823 284.671C650.321 283.609 649.405 281.923 648.269 280.494C647.133 279.047 645.484 277.746 643.652 277.911C642.626 278.003 641.655 278.57 640.629 278.424C638.834 278.186 638.046 276.024 637.863 274.21C637.68 272.396 637.552 270.308 636.068 269.264C634.694 268.293 632.825 268.732 631.158 268.897C629.491 269.062 627.347 268.567 626.999 266.937C626.816 266.076 627.219 265.196 627.732 264.464C630.022 261.184 634.767 259.92 638.394 261.587C639.952 257.099 644.367 253.765 649.112 253.49C653.857 253.215 658.62 256.018 660.69 260.287C663.713 257.777 668 256.879 671.774 257.923C675.567 258.968 678.754 261.954 680.055 265.673C683.444 264.958 687.2 266.424 689.179 269.245C691.176 272.085 691.286 276.115 689.453 279.047C691.853 280.567 693.869 283.132 693.777 285.972C693.704 288.812 690.791 291.523 688.079 290.644C689.087 292.915 688.043 295.883 685.844 297.019C683.646 298.155 680.623 297.294 679.359 295.15" fill="#263238"/>
<path d="M637.206 265.6C637.188 265.6 637.188 265.691 637.206 265.856C637.224 266.021 637.206 266.278 637.261 266.589C637.353 267.23 637.573 268.183 638.14 269.282C638.708 270.363 639.624 271.646 641.035 272.671C642.427 273.716 644.369 274.558 646.586 274.54L646.366 274.229C645.89 275.383 645.927 276.794 646.458 278.039C646.953 279.303 647.777 280.421 648.656 281.539C649.114 282.07 649.481 282.693 650.122 283.187C650.745 283.664 651.496 283.957 652.266 284.103C653.804 284.378 655.582 283.975 656.772 282.729L656.259 282.565C656.479 285.313 657.908 288.116 660.308 289.911C661.572 290.919 663.166 291.578 664.76 291.597C666.354 291.651 667.856 291.248 669.249 290.827L668.882 290.644C669.542 292.384 670.604 293.905 671.942 295.041C673.242 296.177 675.02 296.891 676.668 296.561C679.948 296.03 682.219 293.429 682.769 290.9L682.458 291.029C684.033 291.981 685.755 292.146 687.148 291.945C688.558 291.761 689.694 291.193 690.519 290.626C691.343 290.039 691.838 289.435 692.131 289.013C692.406 288.574 692.534 288.317 692.516 288.317C692.442 288.262 692.003 289.343 690.39 290.424C689.584 290.937 688.485 291.45 687.111 291.597C685.774 291.761 684.143 291.56 682.678 290.662L682.421 290.497L682.348 290.79C681.798 293.135 679.618 295.572 676.577 296.03C675.074 296.305 673.517 295.664 672.29 294.601C671.044 293.52 670.036 292.073 669.414 290.424L669.322 290.168L669.065 290.241C667.691 290.662 666.244 291.029 664.76 290.974C663.294 290.937 661.865 290.351 660.656 289.398C658.403 287.713 657.065 285.093 656.827 282.473L656.772 281.813L656.314 282.29C655.307 283.371 653.731 283.755 652.339 283.499C651.643 283.389 650.983 283.114 650.433 282.711C649.902 282.308 649.499 281.703 649.059 281.172C648.18 280.091 647.392 278.992 646.916 277.82C646.403 276.665 646.366 275.42 646.769 274.375L646.898 274.046H646.55C644.443 274.082 642.574 273.331 641.218 272.342C639.826 271.371 638.928 270.162 638.324 269.117C637.206 267.029 637.316 265.581 637.206 265.6Z" fill="#455A64"/>
<path d="M632.857 338.076C632.802 338.204 633.572 338.68 634.964 338.992C636.356 339.303 638.372 339.34 640.479 338.735C642.585 338.112 644.271 336.958 645.26 335.95C646.268 334.943 646.634 334.118 646.524 334.045C646.268 333.807 644.069 336.5 640.149 337.618C636.265 338.808 632.949 337.746 632.857 338.076Z" fill="#263238"/>
<path d="M587.532 563.198L709.363 564.865C709.363 564.865 743.439 550.612 752.801 550.227C762.163 549.842 780.74 551.033 789.332 564.865C798.217 579.155 799.463 604.382 772.074 622.721C745.418 640.565 623.514 657.072 606.787 655.551L575.99 614.202C575.99 614.202 575.661 580.309 575.99 578.697C576.32 577.085 581.468 562.557 581.468 562.557L587.532 563.198Z" fill="#263238"/>
<path d="M655.137 617.992L727.869 645.014L694.727 735.682C686.263 731.982 686.025 678.724 686.025 678.724L638.703 663.335L655.137 617.992Z" fill="#82809A"/>
<g opacity="0.6">
<path d="M692.368 649.247C693.486 647.672 695.904 647.177 697.535 648.24C699.165 649.302 699.678 651.739 698.579 653.351C697.48 654.945 694.603 655.623 693.101 654.395C691.599 653.168 691.159 650.255 692.588 648.954" fill="white"/>
</g>
<path d="M727.894 645.018L720.548 642.289L691.455 730.41C691.455 730.41 691.73 735.082 694.753 735.668L727.894 645.018Z" fill="#263238"/>
<path d="M685.041 680.011C685.481 680.157 686.507 678.014 688.724 676.365C690.904 674.643 693.23 674.221 693.194 673.763C693.249 673.324 690.372 673.012 687.716 675.064C685.06 677.098 684.602 679.956 685.041 680.011Z" fill="#263238"/>
<path d="M685.488 690.963C685.872 691.22 687.338 689.571 689.756 688.765C692.156 687.867 694.318 688.233 694.465 687.794C694.685 687.409 692.211 686.145 689.207 687.226C686.221 688.252 685.066 690.798 685.488 690.963Z" fill="#263238"/>
<path d="M694.898 700.529C695.136 700.162 693.157 698.733 690.318 698.99C687.478 699.228 685.756 700.95 686.049 701.28C686.324 701.664 688.119 700.785 690.446 700.62C692.773 700.4 694.696 700.95 694.898 700.529Z" fill="#263238"/>
<path d="M674.658 675.304C675.134 675.267 675.262 673.014 676.343 670.577C677.388 668.122 678.927 666.473 678.633 666.107C678.414 665.74 676.069 667.041 674.841 669.936C673.577 672.812 674.236 675.395 674.658 675.304Z" fill="#263238"/>
<path d="M664.675 669.219C664.858 669.292 665.774 667.643 666.306 664.676C666.581 663.192 666.709 661.396 666.581 659.399C666.507 658.392 666.379 657.347 666.159 656.285C666.049 655.772 665.958 655.167 665.591 654.526C665.316 653.866 664.236 653.152 663.32 653.463C662.458 653.665 661.854 654.379 661.597 655.039C661.323 655.699 661.268 656.285 661.213 656.834C661.084 657.934 661.084 658.996 661.139 660.004C661.286 662.019 661.781 663.796 662.349 665.188C663.521 668.01 664.913 669.329 665.06 669.201C665.28 669.054 664.272 667.515 663.448 664.804C663.045 663.448 662.715 661.781 662.642 659.912C662.623 658.978 662.66 658.007 662.788 657.018C662.88 655.973 663.173 655.149 663.704 655.057C663.906 655.021 663.961 655.039 664.181 655.35C664.364 655.644 664.474 656.138 664.584 656.651C664.822 657.64 664.968 658.611 665.078 659.546C665.28 661.415 665.261 663.118 665.152 664.547C664.932 667.387 664.437 669.146 664.675 669.219Z" fill="#263238"/>
<path d="M665.523 668.87C665.651 668.742 664.387 667.276 661.584 666.067C660.192 665.481 658.415 664.986 656.381 664.876C655.373 664.821 654.293 664.858 653.193 665.023C652.094 665.224 650.665 665.444 649.841 667.075C649.474 667.954 649.914 668.962 650.409 669.438C650.922 669.969 651.416 670.208 651.911 670.519C652.9 671.069 653.963 671.435 654.97 671.637C657.004 672.058 658.891 671.856 660.375 671.417C663.379 670.501 664.57 668.852 664.442 668.76C664.277 668.522 662.848 669.768 660.1 670.299C658.744 670.556 657.059 670.611 655.3 670.171C654.421 669.951 653.541 669.621 652.699 669.127C651.783 668.632 651.141 667.991 651.38 667.661C651.544 667.203 652.552 666.708 653.45 666.617C654.439 666.452 655.392 666.379 656.326 666.397C658.176 666.434 659.825 666.745 661.181 667.166C663.892 668.009 665.376 669.09 665.523 668.87Z" fill="#263238"/>
<path d="M614.985 616.105L549.801 646.334L586.991 727.622C594.539 723.592 590.875 674.401 590.875 674.401L633.434 656.74L614.985 616.105Z" fill="#82809A"/>
<g opacity="0.6">
<path d="M582.942 647.652C581.788 646.278 579.516 646.004 578.106 647.084C576.677 648.184 576.383 650.474 577.501 651.866C578.619 653.258 581.33 653.68 582.631 652.434C583.913 651.188 584.133 648.458 582.704 647.378" fill="white"/>
</g>
<path d="M549.843 646.337L556.42 643.277L589.69 722.513C589.69 722.513 589.763 726.855 587.033 727.606L549.843 646.337Z" fill="#263238"/>
<path d="M591.956 675.538C591.553 675.703 590.472 673.798 588.292 672.442C586.167 671.013 583.987 670.793 583.969 670.353C583.877 669.95 586.515 669.456 589.117 671.159C591.736 672.845 592.359 675.446 591.956 675.538Z" fill="#263238"/>
<path d="M592.315 685.669C591.966 685.943 590.519 684.533 588.211 683.946C585.939 683.305 583.96 683.782 583.796 683.378C583.557 683.03 585.756 681.693 588.595 682.462C591.453 683.232 592.681 685.485 592.315 685.669Z" fill="#263238"/>
<path d="M584.364 695.196C584.107 694.866 585.848 693.419 588.486 693.437C591.124 693.437 592.846 694.921 592.59 695.233C592.37 695.599 590.648 694.939 588.486 694.939C586.306 694.903 584.584 695.562 584.364 695.196Z" fill="#263238"/>
<path d="M601.214 670.446C600.775 670.446 600.481 668.376 599.309 666.196C598.173 663.997 596.616 662.605 596.872 662.239C597.055 661.872 599.309 662.916 600.665 665.481C602.02 668.046 601.617 670.483 601.214 670.446Z" fill="#263238"/>
<path d="M609.958 664.086C609.794 664.159 608.841 662.712 608.108 660.001C607.76 658.663 607.485 656.996 607.467 655.146C607.448 654.211 607.504 653.24 607.632 652.233C607.705 651.757 607.742 651.189 608.035 650.566C608.255 649.943 609.189 649.21 610.068 649.411C610.893 649.54 611.497 650.163 611.772 650.731C612.065 651.317 612.175 651.866 612.267 652.361C612.468 653.369 612.542 654.358 612.56 655.292C612.56 657.161 612.248 658.847 611.809 660.166C610.929 662.859 609.739 664.178 609.592 664.068C609.372 663.94 610.197 662.456 610.765 659.891C611.039 658.608 611.223 657.051 611.149 655.329C611.113 654.468 611.003 653.57 610.801 652.654C610.636 651.683 610.306 650.95 609.812 650.914C609.629 650.895 609.574 650.914 609.39 651.207C609.244 651.5 609.171 651.958 609.097 652.434C608.951 653.369 608.878 654.285 608.859 655.146C608.804 656.886 608.951 658.462 609.152 659.781C609.592 662.419 610.178 663.995 609.958 664.086Z" fill="#263238"/>
<path d="M609.139 663.832C609.011 663.722 610.074 662.275 612.583 660.956C613.829 660.296 615.441 659.728 617.292 659.472C618.226 659.343 619.215 659.307 620.241 659.38C621.267 659.49 622.605 659.582 623.484 661.029C623.887 661.817 623.557 662.769 623.118 663.246C622.696 663.759 622.238 664.034 621.817 664.345C620.938 664.931 620.003 665.334 619.069 665.609C617.219 666.14 615.46 666.104 614.067 665.792C611.228 665.169 610 663.722 610.129 663.63C610.275 663.411 611.667 664.437 614.251 664.73C615.515 664.876 617.09 664.803 618.666 664.272C619.454 664.015 620.241 663.63 620.993 663.118C621.799 662.586 622.348 661.945 622.11 661.67C621.927 661.267 620.974 660.882 620.131 660.864C619.215 660.772 618.318 660.791 617.457 660.864C615.753 661.029 614.251 661.45 613.041 661.927C610.587 662.916 609.304 664.015 609.139 663.832Z" fill="#263238"/>
<path d="M581.468 562.557C581.468 562.557 528.852 542.917 509.487 545.445C498.66 546.874 481.731 555.137 480.431 569.005C479.148 582.892 482.519 601.451 501.243 610.483C519.966 619.515 594.677 653.041 612.43 658.208C630.182 663.374 674.444 675.466 674.444 675.466L691.263 627.558C691.263 627.558 599.532 595.79 594.695 592.254C589.859 588.7 577.584 583.863 577.584 583.863L581.468 562.557Z" fill="#263238"/>
<path d="M764.341 569.078C764.341 569.078 764.213 569.06 763.975 568.987C763.7 568.914 763.352 568.804 762.912 568.657C761.978 568.382 760.604 567.979 758.826 567.558C757.031 567.136 754.833 566.66 752.231 566.404C749.63 566.147 746.643 566.129 743.382 566.422C740.121 566.715 736.549 567.301 732.848 568.437C731.016 569.005 729.129 569.683 727.297 570.599C725.447 571.497 723.523 572.431 721.563 573.402C713.685 577.158 704.909 581.023 695.548 584.706C676.806 592.217 658.815 595.79 645.972 598.703C639.542 600.132 634.339 601.304 630.748 602.147C628.989 602.568 627.597 602.898 626.626 603.118C626.168 603.228 625.82 603.301 625.545 603.356C625.307 603.411 625.179 603.429 625.179 603.429C625.179 603.411 625.289 603.374 625.545 603.301C625.82 603.228 626.168 603.136 626.608 603.008C627.542 602.751 628.916 602.367 630.711 601.927C634.284 601.011 639.469 599.784 645.899 598.3C658.705 595.277 676.659 591.668 695.346 584.174C704.689 580.474 713.483 576.645 721.343 572.926C723.303 571.973 725.208 571.057 727.077 570.159C728.946 569.243 730.851 568.547 732.72 567.998C736.457 566.88 740.048 566.312 743.346 566.037C746.643 565.781 749.648 565.817 752.268 566.111C754.888 566.404 757.086 566.898 758.881 567.356C760.677 567.814 762.033 568.254 762.949 568.565C763.388 568.73 763.718 568.84 763.993 568.932C764.231 569.024 764.341 569.06 764.341 569.078Z" fill="#455A64"/>
<path d="M761.58 562.136C761.562 562.227 759.987 561.934 757.403 561.659C754.82 561.385 751.248 561.165 747.309 561.366C743.37 561.568 739.834 562.154 737.287 562.685C734.759 563.217 733.202 563.675 733.184 563.583C733.165 563.546 733.55 563.4 734.228 563.162C734.924 562.924 735.932 562.612 737.196 562.301C739.724 561.659 743.297 561 747.272 560.798C751.248 560.597 754.875 560.872 757.44 561.256C758.722 561.44 759.767 561.641 760.481 561.806C761.196 561.989 761.599 562.099 761.58 562.136Z" fill="#455A64"/>
<path d="M559.339 576.48C559.285 576.553 557.819 575.436 555.309 573.86C552.799 572.303 549.153 570.379 544.903 568.859C540.634 567.356 536.604 566.569 533.654 566.202C530.705 565.836 528.873 565.799 528.873 565.708C528.873 565.671 529.331 565.653 530.173 565.634C531.016 565.616 532.225 565.671 533.709 565.799C536.677 566.056 540.781 566.789 545.105 568.309C549.41 569.83 553.056 571.845 555.547 573.494C556.793 574.318 557.764 575.033 558.405 575.582C559.01 576.132 559.358 576.443 559.339 576.48Z" fill="#455A64"/>
<path d="M585.739 647.948C585.739 647.948 585.886 648.003 586.142 648.113C586.417 648.223 586.82 648.406 587.333 648.608C588.396 649.029 589.916 649.762 591.986 650.55C596.09 652.18 602.136 654.397 609.904 656.962C625.44 662.037 647.791 668.504 674.52 675.246L674.209 675.411C679.192 661.579 684.688 646.318 690.477 630.269L690.642 630.617C684.193 627.961 677.396 625.176 670.508 622.355C626.117 604.089 586.215 587.656 559.065 576.48L559.028 576.462L558.991 576.425C554.448 571.625 550.289 567.393 546.368 563.986C542.448 560.578 538.857 557.94 535.779 556.016C532.72 554.056 530.21 552.829 528.524 551.967C527.682 551.564 527.022 551.271 526.582 551.051C526.143 550.85 525.923 550.722 525.923 550.722C525.923 550.722 526.161 550.813 526.601 550.996C527.059 551.198 527.718 551.491 528.579 551.858C530.283 552.682 532.83 553.891 535.907 555.833C539.004 557.738 542.631 560.358 546.57 563.747C550.509 567.155 554.723 571.369 559.266 576.15L559.193 576.114C586.362 587.253 626.282 603.613 670.709 621.805C677.616 624.645 684.395 627.429 690.844 630.086L691.1 630.196L691.008 630.452C685.201 646.501 679.686 661.762 674.703 675.576L674.63 675.795L674.41 675.74C647.681 668.962 625.348 662.422 609.831 657.255C602.081 654.654 596.035 652.382 591.95 650.715C589.898 649.909 588.377 649.139 587.333 648.699C586.82 648.461 586.435 648.296 586.161 648.168C585.867 648.022 585.739 647.948 585.739 647.948Z" fill="#455A64"/>
<path d="M715.759 394.906C715.759 394.906 730.91 403.626 733.97 413.886C735.838 420.115 749.963 499.754 752.198 515.454C754.452 531.302 749.725 542.788 743.02 547.992C736.315 553.195 716.015 560.138 716.015 560.138L687.454 569.39L679.265 548.559L706.452 509.5L703.814 483.192L715.759 394.906Z" fill="#7367F0"/>
<path d="M685.988 381.147L674.611 374.643C674.611 374.643 664.242 386.771 650.117 385.287C635.974 383.803 627.601 372.976 627.601 372.976L585.446 381.568C582.624 382.136 577.458 383.932 572.53 390.967C567.034 398.826 540.945 433.708 540.945 433.708H522.68C517.642 433.708 513.025 436.493 510.68 440.945C507.565 446.881 503.81 454.832 504.176 458.111C504.799 463.681 503.718 478.942 511.175 483.723C513.538 485.244 522.002 489.769 528.579 489.458C538.271 489 549.538 483.961 556.023 479.418C561.519 475.571 574.289 462.307 579.198 457.122V457.195L582.35 567.796L692.895 564.645L715.796 394.906C715.759 394.906 687.106 381.147 685.988 381.147Z" fill="#7367F0"/>
<path d="M578.773 410.771C578.938 410.771 579.213 424.475 579.414 441.385C579.616 458.295 579.652 472.017 579.488 472.017C579.323 472.017 579.048 458.313 578.846 441.403C578.663 424.494 578.627 410.771 578.773 410.771Z" fill="#263238"/>
<path d="M729.15 500.176C729.15 500.231 728.216 500.322 726.549 500.652C724.881 500.963 722.481 501.623 719.697 502.832C716.912 504.041 713.779 505.892 710.591 508.328C707.404 510.765 704.161 513.806 700.992 517.214C697.822 520.621 694.946 524.01 692.234 526.997C689.523 530.001 686.976 532.621 684.705 534.673C682.433 536.725 680.473 538.245 679.044 539.198C678.347 539.693 677.761 540.023 677.395 540.261C677.01 540.499 676.809 540.609 676.79 540.59C676.772 540.572 676.973 540.426 677.321 540.169C677.688 539.894 678.237 539.546 678.915 539.015C680.289 538.007 682.213 536.45 684.43 534.361C686.665 532.291 689.157 529.653 691.85 526.63C694.543 523.626 697.401 520.236 700.588 516.811C703.776 513.403 707.056 510.343 710.28 507.907C713.523 505.47 716.71 503.62 719.55 502.447C722.39 501.275 724.808 500.652 726.512 500.414C727.355 500.249 728.033 500.249 728.472 500.194C728.912 500.176 729.15 500.157 729.15 500.176Z" fill="#263238"/>
<path d="M731.662 492.682C731.68 492.792 729.995 493.012 727.356 493.745C724.718 494.459 721.164 495.797 717.573 497.922C714.001 500.066 711.124 502.557 709.237 504.536C707.332 506.496 706.343 507.87 706.251 507.815C706.215 507.797 706.453 507.43 706.892 506.807C707.332 506.166 708.028 505.287 708.944 504.261C710.776 502.191 713.653 499.607 717.28 497.446C720.926 495.284 724.553 494.001 727.246 493.36C728.584 493.049 729.683 492.847 730.453 492.756C731.222 492.682 731.643 492.646 731.662 492.682Z" fill="#263238"/>
<g opacity="0.3">
<path d="M525.922 473.281C531.766 474.875 538.801 466.448 544.114 461.19C546.88 458.442 549.757 455.529 550.764 451.773C551.607 448.677 551.058 445.324 549.848 442.338C548.639 439.352 547.778 437.428 545.964 434.771C546.459 439.315 547.577 446.277 546.038 451.993C544.755 456.756 541.751 460.548 538.545 464.139C535.155 467.932 531.162 471.925 525.922 473.281Z" fill="black"/>
</g>
<path d="M550.928 468.463C550.818 468.426 551.496 466.539 552.045 463.37C552.339 461.794 552.522 459.87 552.577 457.745C552.595 455.62 552.485 453.293 552.119 450.857C551.716 448.438 551.111 446.167 550.433 444.17C549.719 442.173 548.949 440.414 548.198 438.985C546.696 436.127 545.468 434.551 545.56 434.478C545.597 434.46 545.908 434.845 546.458 435.559C546.732 435.925 547.062 436.365 547.41 436.915C547.758 437.464 548.18 438.069 548.546 438.783C549.352 440.194 550.177 441.953 550.928 443.986C551.642 446.02 552.284 448.31 552.668 450.765C553.035 453.22 553.145 455.602 553.09 457.745C552.998 459.889 552.76 461.831 552.43 463.425C552.302 464.231 552.082 464.927 551.917 465.568C551.771 466.191 551.587 466.722 551.441 467.144C551.148 468.005 550.965 468.481 550.928 468.463Z" fill="#263238"/>
<path d="M632.195 377.244C632.268 377.391 630.968 378.142 629.612 379.369C628.238 380.579 627.34 381.769 627.212 381.678C627.084 381.604 627.798 380.212 629.246 378.948C630.675 377.666 632.14 377.116 632.195 377.244Z" fill="#263238"/>
<path d="M643.703 383.932C643.831 384.06 642.714 385.251 641.816 387.01C640.9 388.769 640.589 390.363 640.405 390.344C640.259 390.344 640.35 388.622 641.303 386.753C642.256 384.885 643.611 383.822 643.703 383.932Z" fill="#263238"/>
<path d="M663.397 390.857C663.232 390.894 662.792 389.373 662.133 387.56C661.473 385.746 660.869 384.28 660.997 384.207C661.125 384.134 661.986 385.508 662.664 387.358C663.342 389.227 663.543 390.839 663.397 390.857Z" fill="#263238"/>
<path d="M676.075 384.866C675.91 384.903 675.47 382.979 674.225 380.945C672.997 378.894 671.495 377.611 671.605 377.483C671.678 377.355 673.419 378.491 674.719 380.652C676.02 382.796 676.203 384.866 676.075 384.866Z" fill="#263238"/>
<path d="M712.46 420.683C712.607 420.701 710.738 435.816 708.283 454.429C705.81 473.043 703.703 488.121 703.538 488.102C703.391 488.084 705.26 472.97 707.715 454.356C710.188 435.743 712.313 420.665 712.46 420.683Z" fill="#263238"/>
<path d="M546.803 445.141C546.839 445.141 546.821 445.69 546.766 446.698C546.766 447.211 546.674 447.815 546.546 448.512C546.491 448.878 546.418 449.244 546.363 449.647C546.271 450.05 546.161 450.454 546.052 450.893C545.649 452.652 544.861 454.667 543.871 456.829C542.809 458.954 541.49 461.244 539.804 463.424C538.1 465.586 536.268 467.492 534.4 468.994C532.494 470.441 530.681 471.614 528.977 472.255C528.556 472.42 528.171 472.603 527.786 472.75C527.401 472.859 527.035 472.951 526.669 473.061C526.32 473.153 526.009 473.244 525.698 473.317C525.404 473.391 525.111 473.391 524.873 473.427C523.865 473.537 523.316 473.592 523.316 473.556C523.279 473.409 525.569 473.354 528.812 471.889C530.443 471.211 532.22 470.02 534.07 468.573C535.884 467.07 537.679 465.202 539.346 463.076C540.995 460.933 542.314 458.679 543.395 456.591C544.384 454.466 545.209 452.505 545.649 450.783C546.656 447.376 546.674 445.141 546.803 445.141Z" fill="#263238"/>
<g opacity="0.3">
<path d="M708.906 571.57C713.596 569.298 714.658 563.216 715.135 558.031C716.527 542.843 717.938 527.637 719.33 512.45C719.99 505.305 720.301 497.152 715.263 492.041C710.665 487.369 703.355 487.094 696.796 487.113C656.344 487.223 620.62 488.413 580.168 488.523L582.22 559.277L708.906 571.57Z" fill="black"/>
</g>
<path d="M562.766 499.515L567.072 581.573C567.236 584.742 569.875 587.215 573.081 587.215L703.797 587.435C707.003 587.435 709.66 584.944 709.806 581.774L714.789 501.109C714.954 497.757 712.573 493.305 709.183 493.231L568.885 493.25C565.404 493.177 562.583 496.053 562.766 499.515Z" fill="#E0E0E0"/>
<path d="M562.766 499.516C562.766 499.516 562.748 499.406 562.748 499.204C562.73 499.003 562.748 498.691 562.803 498.288C562.913 497.5 563.261 496.255 564.36 495.082C564.91 494.514 565.624 493.946 566.54 493.598C567.456 493.213 568.556 493.122 569.691 493.158C572 493.158 574.656 493.14 577.643 493.14C589.606 493.122 606.919 493.085 628.299 493.048C649.679 493.03 675.144 493.012 703.413 492.975C705.171 492.975 706.967 492.975 708.744 492.975C709.641 492.938 710.649 493.158 711.437 493.671C712.243 494.166 712.903 494.862 713.434 495.632C714.478 497.171 715.083 499.021 715.083 500.926C714.973 502.758 714.863 504.59 714.753 506.441C714.295 513.824 713.837 521.372 713.361 529.048C712.408 544.401 711.437 560.303 710.429 576.59L710.246 579.631C710.154 580.657 710.173 581.628 709.99 582.709C709.605 584.816 708.029 586.611 706.051 587.344C705.08 587.729 703.962 587.783 702.973 587.747H699.968C697.971 587.747 695.974 587.747 693.996 587.729C686.045 587.71 678.222 587.692 670.527 587.692C655.138 587.655 640.299 587.619 626.155 587.6C612.012 587.564 598.583 587.527 586.015 587.509C582.864 587.509 579.786 587.49 576.745 587.49C575.994 587.49 575.224 587.49 574.473 587.49C573.722 587.472 572.971 587.527 572.201 587.417C570.662 587.216 569.252 586.409 568.281 585.255C567.292 584.101 566.815 582.562 566.815 581.133C566.742 579.704 566.669 578.293 566.595 576.901C566.449 574.098 566.321 571.368 566.174 568.712C565.093 547.369 564.214 530.092 563.609 518.129C563.316 512.157 563.096 507.54 562.95 504.37C562.876 502.813 562.821 501.604 562.785 500.798C562.766 499.919 562.766 499.516 562.766 499.516C562.766 499.516 562.803 499.919 562.858 500.725C562.913 501.549 562.986 502.74 563.078 504.297C563.261 507.448 563.517 512.083 563.847 518.038C564.488 529.982 565.441 547.259 566.595 568.602C566.742 571.277 566.888 574.006 567.035 576.791C567.108 578.184 567.182 579.594 567.255 581.023C567.255 582.434 567.695 583.808 568.629 584.889C569.527 585.97 570.846 586.703 572.275 586.886C572.971 586.977 573.74 586.941 574.491 586.941C575.243 586.941 575.994 586.941 576.763 586.941C579.804 586.941 582.882 586.941 586.033 586.941C598.601 586.959 612.048 586.977 626.173 586.977C640.317 586.996 655.156 587.014 670.546 587.032C678.24 587.051 686.063 587.051 694.014 587.069C695.993 587.069 697.99 587.069 699.987 587.087H702.991C704.017 587.124 704.951 587.069 705.867 586.721C707.663 586.061 709.11 584.431 709.458 582.507C709.623 581.573 709.623 580.51 709.696 579.521L709.88 576.48C710.887 560.193 711.877 544.309 712.829 528.938C713.306 521.262 713.782 513.714 714.24 506.331C714.35 504.48 714.46 502.648 714.57 500.835C714.588 499.076 714.002 497.299 713.031 495.851C712.06 494.404 710.521 493.305 708.762 493.433C706.967 493.433 705.19 493.433 703.431 493.433C675.162 493.415 649.697 493.396 628.317 493.378C606.937 493.342 589.642 493.305 577.661 493.287C574.675 493.268 572.018 493.268 569.71 493.268C568.556 493.232 567.511 493.305 566.595 493.671C565.698 494.001 564.983 494.551 564.434 495.1C563.353 496.236 562.986 497.445 562.858 498.233C562.748 499.094 562.803 499.516 562.766 499.516Z" fill="#263238"/>
<path d="M647.463 539.546C647.463 543.796 644.019 547.24 639.768 547.24C635.518 547.24 632.074 543.796 632.074 539.546C632.074 535.295 635.518 531.851 639.768 531.851C644.019 531.833 647.463 535.277 647.463 539.546Z" fill="white"/>
<path d="M647.463 539.546C647.408 539.546 647.426 538.868 647.114 537.696C646.803 536.56 646.034 534.874 644.293 533.592C643.432 532.969 642.369 532.438 641.142 532.218C639.915 532.016 638.541 532.053 637.221 532.566C635.921 533.042 634.657 533.94 633.777 535.167C632.861 536.377 632.348 537.952 632.33 539.546C632.348 541.158 632.861 542.716 633.777 543.925C634.657 545.152 635.921 546.05 637.221 546.526C638.522 547.021 639.915 547.076 641.142 546.874C642.369 546.673 643.45 546.123 644.293 545.5C646.015 544.218 646.803 542.532 647.114 541.396C647.426 540.224 647.408 539.528 647.463 539.546C647.481 539.546 647.499 539.711 647.499 540.041C647.499 540.371 647.463 540.847 647.334 541.451C647.078 542.642 646.327 544.419 644.55 545.83C643.67 546.508 642.534 547.094 641.234 547.351C639.933 547.589 638.467 547.552 637.057 547.039C635.646 546.545 634.309 545.592 633.338 544.273C632.348 542.972 631.799 541.287 631.78 539.564C631.799 537.842 632.348 536.157 633.338 534.856C634.29 533.537 635.646 532.584 637.057 532.09C638.467 531.558 639.933 531.54 641.234 531.778C642.534 532.016 643.67 532.603 644.55 533.299C646.327 534.691 647.078 536.487 647.334 537.677C647.463 538.282 647.518 538.758 647.499 539.088C647.499 539.363 647.481 539.546 647.463 539.546Z" fill="#263238"/>
<path d="M567.182 508.603C567.347 508.603 567.988 522.38 568.629 539.399C569.27 556.419 569.655 570.214 569.508 570.214C569.343 570.214 568.702 556.437 568.061 539.418C567.402 522.398 567.017 508.603 567.182 508.603Z" fill="#263238"/>
<path d="M527.884 401.52C527.115 400.878 530.467 387.981 530.467 387.981C530.467 387.981 521.6 373.508 521.362 368.836C521.124 364.164 524.861 354.601 524.861 354.601L550.308 348.061C550.308 348.061 558.479 363.23 560.11 368.598C561.74 373.966 557.307 392.176 557.307 392.176L553.001 401.52C553.001 401.52 539.994 411.797 527.884 401.52Z" fill="#99655C"/>
<path d="M521.417 371.639C521.417 371.639 520.318 369.734 518.742 365.997C517.13 362.186 515.152 358.43 518.742 356.287C520.849 355.023 522.571 355.682 522.571 355.682C522.571 355.682 522.022 352.476 523.945 351.267C525.869 350.058 527.719 350.937 527.719 350.937C527.719 350.937 527.115 346.394 529.881 344.47C533.344 342.052 536.935 344.269 536.935 344.269C536.935 344.269 534.754 324.409 534.553 323.365C533.857 319.499 535.286 316.092 539.133 317.044C540.544 317.393 541.313 318.876 542.98 325.344C544.629 331.811 547.286 342.84 547.286 342.84C547.286 342.84 551.756 350.607 553.863 354.821C555.97 359.035 560.147 368.617 560.495 371.163C561.392 377.722 557.545 386.424 557.545 386.424L530.504 388C530.467 387.981 522.443 373.526 521.417 371.639Z" fill="#99655C"/>
<path d="M523.101 356.543C523.174 356.507 523.962 357.624 525.19 359.456C525.831 360.427 526.545 361.527 527.333 362.717C527.736 363.34 528.157 363.981 528.487 364.751C528.817 365.502 529.019 366.418 528.799 367.334C528.615 368.232 527.974 369.093 527.095 369.331C526.215 369.606 525.354 369.349 524.677 369.038C523.98 368.726 523.394 368.305 522.863 367.92C522.332 367.536 521.837 367.169 521.397 366.821C520.518 366.143 519.84 365.557 519.382 365.136C518.924 364.714 518.686 364.458 518.722 364.439C518.777 364.366 519.84 365.227 521.654 366.51C522.57 367.114 523.614 367.975 524.896 368.562C525.538 368.836 526.27 369.038 526.93 368.8C527.608 368.598 528.084 367.957 528.249 367.206C528.432 366.455 528.267 365.667 527.974 364.971C527.681 364.275 527.26 363.633 526.875 363.01C526.124 361.801 525.446 360.684 524.841 359.694C523.706 357.771 523.028 356.58 523.101 356.543Z" fill="#744A45"/>
<path d="M545.27 358.907C545.123 358.907 544.995 356.965 545.545 354.656C546.094 352.348 547.102 350.681 547.23 350.754C547.377 350.828 546.625 352.55 546.094 354.803C545.563 357.02 545.435 358.907 545.27 358.907Z" fill="#744A45"/>
<path d="M555.988 364.696C553.57 362.241 550.309 360.702 546.938 359.97C543.567 359.237 540.068 359.255 536.642 359.567C533.894 359.823 530.743 360.519 529.497 362.992C528.214 365.521 529.753 368.8 532.208 370.247C534.645 371.713 537.668 371.768 540.489 371.511C543.329 371.255 546.168 370.724 548.99 371.163" fill="#99655C"/>
<path d="M548.992 371.181C548.992 371.236 548.223 371.108 546.867 371.126C545.493 371.126 543.533 371.383 541.078 371.676C539.85 371.804 538.495 371.932 537.011 371.841C535.545 371.749 533.951 371.493 532.449 370.705C530.947 369.936 529.664 368.525 529.06 366.766C528.748 365.887 528.675 364.916 528.876 363.945C529.096 362.992 529.628 362.094 530.36 361.453C531.863 360.116 533.805 359.694 535.563 359.438C537.34 359.218 539.063 359.126 540.693 359.126C543.972 359.108 546.94 359.603 549.285 360.427C551.649 361.252 553.371 362.333 554.452 363.212C555.001 363.652 555.386 364.018 555.643 364.275C555.899 364.549 556.009 364.696 555.991 364.696C555.954 364.733 555.423 364.183 554.324 363.377C553.224 362.571 551.502 361.545 549.175 360.794C546.849 360.024 543.954 359.603 540.711 359.639C539.099 359.658 537.377 359.768 535.655 359.969C533.951 360.226 532.101 360.665 530.763 361.856C530.086 362.443 529.646 363.23 529.444 364.055C529.279 364.897 529.334 365.777 529.609 366.565C530.14 368.177 531.331 369.496 532.705 370.21C534.098 370.962 535.618 371.255 537.047 371.346C538.476 371.438 539.814 371.346 541.041 371.236C543.478 370.998 545.493 370.797 546.885 370.87C547.582 370.888 548.113 370.962 548.479 371.016C548.809 371.108 548.992 371.163 548.992 371.181Z" fill="#744A45"/>
<path d="M523.3 356.855C526.139 361.179 528.649 365.924 531.049 370.504C531.745 371.841 532.478 373.252 533.761 374.04C534.787 374.681 537.333 373.527 538.469 373.142L530.665 355.371" fill="#99655C"/>
<path d="M530.662 355.353C530.699 355.335 530.937 355.811 531.358 356.672C531.798 357.643 532.384 358.889 533.081 360.391C534.528 363.561 536.506 367.994 538.723 373.014L538.851 373.289L538.558 373.399C537.716 373.692 536.818 374.077 535.829 374.333C535.444 374.425 535.041 374.498 534.638 374.516C534.436 374.516 534.216 374.516 533.997 374.443C533.777 374.388 533.557 374.26 533.41 374.15C532.751 373.692 532.256 373.087 531.835 372.464C531.029 371.2 530.461 369.936 529.838 368.764C528.61 366.4 527.493 364.275 526.504 362.516C525.533 360.758 524.708 359.347 524.14 358.376C523.572 357.405 523.261 356.874 523.279 356.837C523.316 356.819 523.682 357.313 524.323 358.248C524.946 359.182 525.826 360.556 526.852 362.315C527.877 364.055 529.032 366.162 530.296 368.507C530.937 369.661 531.542 370.962 532.293 372.135C532.677 372.721 533.154 373.27 533.722 373.655C534.216 374.058 534.968 373.912 535.682 373.747C536.598 373.509 537.477 373.142 538.357 372.831L538.192 373.215C535.993 368.196 534.07 363.726 532.714 360.519C532.073 358.981 531.542 357.716 531.139 356.727C530.809 355.866 530.626 355.371 530.662 355.353Z" fill="#744A45"/>
<path d="M528.563 350.077C531.073 356.379 533.583 362.663 536.093 368.965C536.624 370.302 537.174 371.658 538.126 372.757C539.061 373.838 540.49 374.626 541.919 374.406C543.879 374.113 545.161 372.024 545.271 370.046C545.363 368.067 544.593 366.162 543.861 364.312C541.607 358.577 539.793 352.66 538.456 346.632" fill="#99655C"/>
<path d="M538.44 346.632C538.459 346.632 538.532 346.834 538.624 347.2C538.734 347.64 538.898 348.19 539.063 348.867C539.448 350.315 540.016 352.403 540.822 354.968C541.61 357.533 542.636 360.556 543.937 363.854C544.559 365.502 545.384 367.243 545.512 369.258C545.585 370.247 545.402 371.328 544.944 372.263C544.486 373.197 543.735 374.076 542.672 374.479C541.628 374.901 540.437 374.718 539.503 374.223C538.569 373.728 537.818 372.959 537.286 372.134C536.224 370.431 535.692 368.635 535.014 367.005C533.732 363.725 532.56 360.739 531.57 358.229C530.636 355.774 529.866 353.759 529.299 352.293C529.06 351.634 528.859 351.102 528.712 350.663C528.584 350.296 528.529 350.095 528.547 350.077C528.566 350.077 528.657 350.26 528.822 350.608C529.005 351.029 529.225 351.56 529.518 352.202C530.123 353.667 530.947 355.646 531.955 358.083C532.981 360.593 534.172 363.542 535.509 366.821C536.205 368.452 536.755 370.266 537.763 371.841C538.276 372.629 538.935 373.307 539.778 373.747C540.602 374.186 541.61 374.333 542.471 373.966C543.35 373.618 544.028 372.867 544.431 372.024C544.853 371.163 545.017 370.229 544.944 369.313C544.834 367.444 544.065 365.722 543.442 364.073C542.159 360.757 541.17 357.698 540.419 355.115C539.668 352.531 539.155 350.406 538.843 348.941C538.679 348.208 538.569 347.64 538.495 347.237C538.459 346.852 538.422 346.651 538.44 346.632Z" fill="#744A45"/>
<path d="M529.168 394.375C529.168 394.375 511.91 445.214 511.233 447.724C510.555 450.216 514.64 468.371 522.133 472.695C529.626 477 544.154 459.083 545.968 452.488C547.782 445.911 545.968 434.79 545.968 434.79L557.602 390.986" fill="#99655C"/>
<path d="M545.969 386.46C545.969 386.515 545.327 386.533 544.338 386.24C543.367 385.965 542.066 385.324 540.912 384.261C539.758 383.199 539.007 381.953 538.64 381.019C538.274 380.066 538.219 379.425 538.292 379.425C538.457 379.352 539.062 381.843 541.297 383.858C543.495 385.91 546.023 386.295 545.969 386.46Z" fill="#744A45"/>
<path d="M411.858 313.427C463.69 313.427 505.709 271.409 505.709 219.577C505.709 167.745 463.69 125.727 411.858 125.727C360.026 125.727 318.008 167.745 318.008 219.577C318.008 271.409 360.026 313.427 411.858 313.427Z" fill="#28C76F"/>
<path opacity="0.3" d="M411.858 313.427C463.69 313.427 505.709 271.409 505.709 219.577C505.709 167.745 463.69 125.727 411.858 125.727C360.026 125.727 318.008 167.745 318.008 219.577C318.008 271.409 360.026 313.427 411.858 313.427Z" fill="black"/>
<path d="M409.331 307.422C461.163 307.422 503.181 265.404 503.181 213.572C503.181 161.74 461.163 119.722 409.331 119.722C357.499 119.722 315.48 161.74 315.48 213.572C315.48 265.404 357.499 307.422 409.331 307.422Z" fill="#28C76F"/>
<path d="M437.755 280.817C474.892 265.112 492.265 222.275 476.56 185.138C460.854 148.002 418.017 130.628 380.881 146.334C343.744 162.039 326.371 204.876 342.076 242.013C357.782 279.149 400.619 296.523 437.755 280.817Z" fill="white"/>
<path d="M445.65 249.905C465.713 229.842 465.713 197.314 445.65 177.251C425.587 157.188 393.059 157.188 372.996 177.251C352.933 197.314 352.933 229.842 372.996 249.905C393.059 269.968 425.587 269.968 445.65 249.905Z" fill="#28C76F"/>
<path d="M420.118 238.449C433.851 232.495 440.157 216.536 434.203 202.803C428.249 189.071 412.29 182.765 398.557 188.719C384.824 194.673 378.519 210.632 384.473 224.365C390.427 238.097 406.386 244.403 420.118 238.449Z" fill="white"/>
<path d="M481.95 137.561L479.392 117.541L499.774 95.7178L501.242 117.326L481.95 137.561Z" fill="#455A64"/>
<path d="M525.689 121.634L505.01 119.951L484.29 139.876L505.023 142.098L525.689 121.634Z" fill="#455A64"/>
<path opacity="0.3" d="M409.329 215.147L486.377 159.963C483.941 156.314 480.036 151.535 476.59 147.873L410.581 211.687L409.329 215.147Z" fill="black"/>
<path d="M504.295 113.153C501.077 116.424 497.846 119.682 494.628 122.954C486.887 130.803 479.146 138.638 471.405 146.487C462.075 155.938 452.758 165.375 443.429 174.826C435.324 183.039 427.233 191.238 419.128 199.45C415.197 203.435 411.077 207.312 407.294 211.432C407.24 211.486 407.186 211.553 407.119 211.607C404.83 213.923 408.398 217.49 410.687 215.175C413.904 211.903 417.135 208.645 420.353 205.374C428.094 197.525 435.836 189.689 443.577 181.841C452.907 172.39 462.223 162.952 471.553 153.501C479.657 145.289 487.749 137.09 495.853 128.877C499.784 124.892 503.904 121.015 507.687 116.895C507.741 116.841 507.795 116.774 507.862 116.72C510.151 114.418 506.583 110.837 504.295 113.153Z" fill="#263238"/>
<path d="M140.841 567.65L25.2937 567.577C11.3885 567.577 0.139648 556.328 0.139648 542.478L0.194663 253.619C0.194663 239.75 11.4801 228.52 25.3853 228.52L140.932 228.593C154.838 228.593 166.086 239.842 166.086 253.692L166.031 542.551C166.013 556.42 154.746 567.65 140.841 567.65Z" fill="#263238"/>
<path d="M141.65 237.205L119.171 237.095C116.148 237.076 113.693 239.623 113.693 242.774L113.675 246.859C113.656 250.011 111.202 252.557 108.197 252.539L64.3745 252.337C61.3516 252.319 58.9333 249.754 58.9333 246.603L58.9516 242.517C58.9699 239.366 56.5332 236.801 53.5104 236.783L45.596 236.747L25.9198 236.655C16.155 236.618 8.18565 244.496 8.14901 254.261L6.95814 538.008C6.92149 547.773 14.7993 555.724 24.5641 555.779L140.294 556.31C150.059 556.347 158.029 548.469 158.065 538.704L159.256 254.957C159.293 245.192 151.415 237.241 141.65 237.205Z" fill="white"/>
<path d="M158.406 287.714H7.81152V342.841H158.406V287.714Z" fill="#F5F5F5"/>
<path d="M46.7979 269.045H11.1646V278.371H46.7979V269.045Z" fill="#F5F5F5"/>
<path d="M155.421 269.045H123.489V278.371H155.421V269.045Z" fill="#F5F5F5"/>
<path d="M117.422 269.045H85.4893V278.371H117.422V269.045Z" fill="#F5F5F5"/>
<path d="M145.726 371.237H17.1533V381.002H145.726V371.237Z" fill="#F5F5F5"/>
<path d="M145.726 352.752H17.1533V362.517H145.726V352.752Z" fill="#F5F5F5"/>
<path d="M145.726 409.087H17.1533V418.852H145.726V409.087Z" fill="#F5F5F5"/>
<path d="M145.726 426.363H17.1533V436.128H145.726V426.363Z" fill="#F5F5F5"/>
<path d="M145.726 446.131H17.1533V455.896H145.726V446.131Z" fill="#F5F5F5"/>
<path d="M145.726 465.88H17.1533V475.645H145.726V465.88Z" fill="#F5F5F5"/>
<path d="M145.726 485.648H17.1533V495.413H145.726V485.648Z" fill="#F5F5F5"/>
<path d="M145.726 390.602H17.1533V400.366H145.726V390.602Z" fill="#F5F5F5"/>
<path d="M59.029 419.111L62.4321 414.359C64.484 411.498 65.5981 408.069 65.6222 404.55L65.6959 393.828C65.756 385.071 72.2493 377.846 80.6676 376.632L80.7028 371.51C80.7117 370.205 81.7764 369.155 83.0816 369.163C84.3868 369.172 85.4369 370.237 85.428 371.542L85.3934 376.581C94.0932 377.666 100.8 385.097 100.722 394.085L100.645 405.204C100.619 409.02 101.866 412.746 104.208 415.77L107.074 419.474L59.029 419.111Z" fill="#7367F0"/>
<path d="M85.5248 427.091C82.9234 428.164 79.7386 427.58 77.6698 425.683C76.7668 424.85 76.0967 423.788 75.7081 422.629L89.7026 422.626C89.0116 424.604 87.4634 426.295 85.5248 427.091Z" fill="#7367F0"/>
</svg>
