<svg width="42" height="51" viewBox="0 0 42 51" fill="none" xmlns="http://www.w3.org/2000/svg">
<path fill-rule="evenodd" clip-rule="evenodd" d="M20.6663 6.9081C28.0828 6.9081 34.0951 12.9203 34.0951 20.3369C34.0951 27.7535 28.0827 33.7657 20.6663 33.7657C13.2498 33.7657 7.23748 27.7534 7.23748 20.3369C7.23748 12.9205 13.2498 6.9081 20.6663 6.9081ZM16.4692 42.0776C13.9958 42.6801 11.4425 41.6815 10.0338 39.5274L8.25567 36.8085C7.99453 36.4092 7.69753 36.1349 7.29517 35.927L2.64906 45.9063C2.51754 46.1886 2.75695 46.5008 3.06365 46.4472L8.88996 45.4292L11.8615 50.5429C12.0178 50.8118 12.4111 50.794 12.5423 50.512L16.4692 42.0776ZM24.8635 42.0776L28.7903 50.512C28.9215 50.794 29.3149 50.8117 29.4711 50.5429L32.4427 45.4292L38.269 46.4472C38.5757 46.5008 38.8151 46.1886 38.6836 45.9063L34.0375 35.9269C33.635 36.1348 33.338 36.4092 33.077 36.8084L31.2989 39.5273C29.8899 41.6815 27.3368 42.68 24.8635 42.0776ZM23.2531 0.983605C21.6959 -0.182035 19.6367 -0.182035 18.0795 0.983605L15.4786 2.93035C14.7673 3.46275 14.0186 3.73529 13.1315 3.78464L9.8879 3.9651C7.9457 4.0731 6.3682 5.39673 5.9246 7.29064L5.18368 10.4536C4.98097 11.3187 4.58272 12.0087 3.93483 12.6167L1.566 14.84C0.147655 16.1712 -0.209884 18.1991 0.667616 19.9351L2.13321 22.8344C2.53399 23.6273 2.67237 24.412 2.5669 25.2942L2.1813 28.5199C1.95043 30.4514 2.98002 32.2347 4.76814 33.0005L7.75448 34.2796C8.57123 34.6293 9.18158 35.1415 9.66779 35.885L11.4459 38.6039C12.5106 40.2318 14.4455 40.9361 16.3076 40.3733L19.4173 39.4335C20.2678 39.1765 21.0645 39.1765 21.915 39.4335L25.0248 40.3733C26.8868 40.9361 28.8218 40.2318 29.8865 38.6039L31.6646 35.885C32.1509 35.1415 32.7612 34.6293 33.578 34.2796L36.5643 33.0006C38.3524 32.2348 39.382 30.4516 39.1512 28.52L38.7656 25.2943C38.6601 24.412 38.7985 23.6274 39.1993 22.8345L40.6648 19.9352C41.5423 18.1992 41.1848 16.1713 39.7665 14.8401L37.3976 12.6168C36.7498 12.0088 36.3515 11.3188 36.1488 10.4538L35.4079 7.29074C34.9642 5.39684 33.3868 4.07321 31.4446 3.96521L28.201 3.78475C27.3139 3.73539 26.5652 3.46297 25.8539 2.93045L23.2531 0.983605ZM22.3564 16.7121C22.3972 16.6081 22.4595 16.5105 22.5432 16.4262C22.871 16.0981 23.2261 15.5675 23.2906 15.1V12.9156C23.2906 10.9626 21.6927 9.36542 19.7398 9.36542V12.3258C19.7398 14.7855 17.531 15.8999 15.7995 17.2002L15.7981 26.9529C17.995 29.057 20.1154 28.5815 23.895 27.9308C24.0306 27.9745 24.1751 27.9981 24.3248 27.9981H26.6022C27.3781 27.9981 28.0129 27.3632 28.0129 26.5874C28.0129 25.8116 27.3781 25.1766 26.6022 25.1766H27.4436C28.2195 25.1764 28.8544 24.5417 28.8544 23.7657C28.8544 22.9898 28.2195 22.3549 27.4436 22.3549H28.4335C29.2095 22.3549 29.8443 21.7201 29.8443 20.9442C29.8443 20.1683 29.2095 19.5334 28.4335 19.5334H27.8392C28.6151 19.5334 29.25 18.8986 29.25 18.1227C29.25 17.3468 28.615 16.7121 27.8392 16.712C26.0118 16.7121 24.1841 16.7121 22.3564 16.7121ZM14.11 26.9529L14.1184 17.2013H12.0398V26.9529H14.11Z" fill="#4B4B4B"/>
</svg>
