<svg width="54" height="55" viewBox="0 0 54 55" fill="none" xmlns="http://www.w3.org/2000/svg">
<path d="M13.4241 8.62468C10.0929 11.9562 7.87641 16.2387 7.08007 20.8822C6.28373 25.5258 6.94667 30.302 8.97758 34.5531L6.8682 36.6625C6.71131 36.8192 6.58684 37.0053 6.50191 37.2102C6.41699 37.415 6.37328 37.6346 6.37328 37.8564C6.37328 38.0782 6.41699 38.2977 6.50191 38.5026C6.58684 38.7075 6.71131 38.8936 6.8682 39.0503L8.05789 40.24L1.50195 46.7791L7.45039 52.7697L14.0148 46.2053L15.1876 47.4034C15.3443 47.5603 15.5304 47.6848 15.7353 47.7697C15.9401 47.8546 16.1597 47.8983 16.3815 47.8983C16.6032 47.8983 16.8228 47.8546 17.0277 47.7697C17.2326 47.6848 17.4187 47.5603 17.5754 47.4034L19.6848 45.2941C23.4521 47.0974 27.6426 47.8303 31.7983 47.4127C35.9541 46.9952 39.915 45.4432 43.2482 42.9264C46.5815 40.4096 49.1587 37.025 50.6981 33.1424C52.2375 29.2598 52.68 25.0287 51.9771 20.9116C51.2741 16.7945 49.4529 12.9499 46.7125 9.79803C43.972 6.64614 40.4178 4.3083 36.4384 3.04004C32.4589 1.77178 28.2074 1.62192 24.1486 2.60684C20.0897 3.59177 16.3797 5.67357 13.4241 8.62468ZM42.6601 37.8606C40.0637 40.4558 36.7562 42.2228 33.1556 42.9383C29.5551 43.6539 25.8233 43.2858 22.4319 41.8805C19.0406 40.4753 16.142 38.0961 14.1027 35.0437C12.0634 31.9913 10.975 28.4028 10.975 24.7319C10.975 21.0609 12.0634 17.4724 14.1027 14.42C16.142 11.3676 19.0406 8.98839 22.4319 7.58319C25.8233 6.17798 29.5551 5.80987 33.1556 6.5254C36.7562 7.24093 40.0637 9.00798 42.6601 11.6031C44.3847 13.3269 45.7528 15.3736 46.6862 17.6263C47.6196 19.879 48.1 22.2935 48.1 24.7319C48.1 27.1703 47.6196 29.5848 46.6862 31.8374C45.7528 34.0901 44.3847 36.1368 42.6601 37.8606Z" fill="#4B4B4B"/>
<path d="M32.4 23.4072L29.5312 17.5938L26.6625 23.4072L20.25 24.3353L24.8906 28.8578L23.7938 35.245L29.5312 32.2328L35.2687 35.245L34.1719 28.8578L38.8125 24.3353L32.4 23.4072Z" fill="#4B4B4B"/>
<path d="M28.6875 10.3882H30.375V13.7632H28.6875V10.3882Z" fill="#4B4B4B"/>
<path d="M33.9893 15.6382L36.3073 13.1852L37.5338 14.3442L35.2158 16.7972L33.9893 15.6382Z" fill="#4B4B4B"/>
<path d="M21.5444 14.3345L22.7709 13.1754L25.089 15.6285L23.8625 16.7875L21.5444 14.3345Z" fill="#4B4B4B"/>
</svg>
