<svg width="664" height="735" viewBox="0 0 664 735" fill="none" xmlns="http://www.w3.org/2000/svg">
<path d="M663.418 734.344C663.418 734.075 514.896 733.844 331.724 733.844C148.491 733.844 0 734.075 0 734.344C0 734.613 148.491 734.844 331.724 734.844C514.896 734.844 663.418 734.613 663.418 734.344Z" fill="#263238"/>
<path d="M520.858 554.556L332.448 554.44C309.789 554.423 291.43 536.047 291.43 513.388L291.529 41.0352C291.529 18.3596 309.922 -0.0165888 332.598 1.12378e-05L521.008 0.116211C543.667 0.132811 562.026 18.509 562.026 41.168L561.927 513.538C561.927 536.197 543.534 554.573 520.858 554.556Z" fill="#455A64"/>
<path d="M520.809 16.8154L484.272 16.7988C479.375 16.7988 475.408 20.9488 475.408 26.0616V32.685C475.408 37.8144 471.44 41.9644 466.543 41.9478L395.329 41.898C390.432 41.898 386.465 37.748 386.465 32.6186V25.9952C386.465 20.8824 382.497 16.7158 377.6 16.7158H364.752L332.78 16.6992C316.894 16.6826 304.029 29.5642 304.013 45.4338L303.93 506.499C303.93 522.368 316.778 535.233 332.664 535.25L520.709 535.366C536.595 535.383 549.46 522.501 549.477 506.632L549.56 45.5666C549.527 29.697 536.678 16.832 520.809 16.8154Z" fill="#FAFAFA"/>
<path d="M488.139 31.7725H486.048V34.6941H488.139V31.7725Z" fill="#263238"/>
<path d="M491.543 30.4775H489.451V34.7105H491.543V30.4775Z" fill="#263238"/>
<path d="M494.929 29.498H492.837V34.7104H494.929V29.498Z" fill="#263238"/>
<path d="M498.332 27.6055H496.24V34.7103H498.332V27.6055Z" fill="#263238"/>
<path d="M529.158 34.8431H518.684C518.269 34.8431 517.937 34.5111 517.937 34.0961V28.8837C517.937 28.4687 518.269 28.1367 518.684 28.1367H529.175C529.225 28.1367 529.274 28.1533 529.308 28.1865C529.341 28.2197 529.357 28.2695 529.357 28.3193V30.0291H530.486C530.586 30.0291 530.685 30.1121 530.685 30.2283V32.7349C530.685 32.8345 530.602 32.9341 530.486 32.9341H529.357V34.6439C529.341 34.7601 529.258 34.8431 529.158 34.8431ZM528.959 28.5185H518.667C518.468 28.5185 518.302 28.6845 518.302 28.8837V34.0961C518.302 34.2953 518.468 34.4613 518.667 34.4613H528.959V32.7515C528.959 32.6519 529.042 32.5523 529.158 32.5523H530.287V30.4275H529.158C529.059 30.4275 528.959 30.3445 528.959 30.2283V28.5185Z" fill="#263238"/>
<path d="M519.165 33.6148V29.3818H528.112V31.2908V31.7058V33.6148H519.165Z" fill="#263238"/>
<path d="M508.325 34.4443C508.325 34.0293 507.976 33.6807 507.561 33.6807C507.146 33.6807 506.798 34.0293 506.798 34.4443C506.798 34.8593 507.146 35.2079 507.561 35.2079C507.976 35.2079 508.325 34.8759 508.325 34.4443Z" fill="#263238"/>
<path d="M504.938 32.6024L505.918 33.5818C506.333 33.1668 506.914 32.9012 507.545 32.9012C508.175 32.9012 508.756 33.1668 509.171 33.5818L510.151 32.6024C509.487 31.9384 508.557 31.5234 507.545 31.5234C506.532 31.5234 505.619 31.9384 504.938 32.6024Z" fill="#263238"/>
<path d="M507.561 29.332C505.934 29.332 504.474 29.996 503.411 31.0584L504.391 32.0378C505.204 31.2244 506.333 30.7264 507.561 30.7264C508.79 30.7264 509.918 31.2244 510.732 32.0378L511.711 31.0584C510.649 29.996 509.171 29.332 507.561 29.332Z" fill="#263238"/>
<path d="M501.817 29.4646L502.797 30.444C504.025 29.2156 505.702 28.4686 507.561 28.4686C509.42 28.4686 511.097 29.2322 512.325 30.444L513.305 29.4646C511.827 27.9872 509.802 27.0742 507.561 27.0742C505.32 27.0908 503.278 28.0038 501.817 29.4646Z" fill="#263238"/>
<path d="M305.888 365.001C305.855 335.27 323.185 306.154 349.347 292.011C367.673 282.101 388.888 279.461 409.19 274.813C429.492 270.149 450.541 262.446 463.09 245.83C480.055 223.37 476.818 191.448 489.053 166.1C500.125 143.192 524.494 127.322 549.925 126.476V512.426C549.925 525.39 539.417 535.898 526.452 535.898H329.361C316.396 535.898 305.888 525.39 305.888 512.426V365.001Z" fill="#EBEBEB"/>
<path d="M423.671 213.138L409.644 198.945L414.341 194.297L422.542 202.58L439.557 175.904L445.151 179.457L423.671 213.138Z" fill="#28C76F"/>
<path d="M427.389 231.183C407.17 231.183 390.72 214.732 390.72 194.513C390.72 174.294 407.17 157.844 427.389 157.844C447.608 157.844 464.059 174.294 464.059 194.513C464.059 214.732 447.608 231.183 427.389 231.183ZM427.389 162.84C409.909 162.84 395.7 177.05 395.7 194.53C395.7 212.01 409.909 226.219 427.389 226.219C444.869 226.219 459.079 212.01 459.079 194.53C459.079 177.05 444.869 162.84 427.389 162.84Z" fill="#28C76F"/>
<path d="M381.308 193.684H370.418V195.344H381.308V193.684Z" fill="#28C76F"/>
<path d="M377.525 170.579L376.352 171.753L384.052 179.453L385.225 178.279L377.525 170.579Z" fill="#28C76F"/>
<path d="M384.047 209.202L376.347 216.902L377.52 218.076L385.22 210.376L384.047 209.202Z" fill="#28C76F"/>
<path d="M484.377 193.684H473.487V195.344H484.377V193.684Z" fill="#28C76F"/>
<path d="M477.248 170.611L469.548 178.311L470.722 179.484L478.422 171.784L477.248 170.611Z" fill="#28C76F"/>
<path d="M470.71 209.177L469.536 210.351L477.236 218.051L478.41 216.877L470.71 209.177Z" fill="#28C76F"/>
<path d="M476.923 362.754H377.871V396.037H476.923V362.754Z" fill="#28C76F"/>
<path d="M401.41 385.33V373.859C401.41 373.262 401.875 372.797 402.473 372.797H404.763C408.515 372.797 411.553 375.851 411.553 379.586C411.553 383.354 408.515 386.409 404.763 386.409H402.473C401.875 386.392 401.41 385.911 401.41 385.33ZM403.568 384.234H404.78C407.353 384.218 409.411 382.159 409.411 379.57C409.411 377.03 407.353 374.938 404.78 374.938H403.568V384.234Z" fill="white"/>
<path d="M425.846 374.473C427.057 375.752 427.804 377.461 427.804 379.387C427.804 381.313 427.041 383.039 425.846 384.301C424.7 385.562 422.99 386.376 421.198 386.376C419.338 386.376 417.612 385.562 416.433 384.301C415.222 383.039 414.508 381.313 414.508 379.387C414.508 377.461 415.222 375.752 416.433 374.473C417.612 373.195 419.338 372.398 421.198 372.398C422.99 372.398 424.7 373.195 425.846 374.473ZM425.597 379.387C425.597 378.059 425.065 376.847 424.269 375.984C423.455 375.104 422.36 374.606 421.198 374.606C419.953 374.606 418.857 375.104 418.044 375.984C417.23 376.831 416.716 378.059 416.716 379.387C416.716 380.715 417.214 381.927 418.044 382.773C418.857 383.653 419.953 384.168 421.198 384.168C422.36 384.168 423.455 383.637 424.269 382.773C425.065 381.943 425.597 380.715 425.597 379.387Z" fill="white"/>
<path d="M433.282 385.33C433.282 385.911 432.801 386.392 432.236 386.392C431.639 386.392 431.174 385.911 431.174 385.33V374.025C431.174 374.025 431.174 374.025 431.174 374.009C431.157 373.677 431.307 373.328 431.606 373.112C432.087 372.78 432.751 372.88 433.083 373.345L439.358 382.043V374.025C439.358 373.461 439.823 372.98 440.404 372.98C440.985 372.98 441.466 373.461 441.466 374.025V385.33C441.466 385.911 440.985 386.392 440.404 386.392C440.088 386.392 439.806 386.243 439.607 386.011C439.574 385.977 439.524 385.928 439.507 385.894L433.282 377.262V385.33Z" fill="white"/>
<path d="M444.869 385.33V373.859C444.869 373.262 445.334 372.797 445.932 372.797H445.948C445.948 372.797 445.948 372.797 445.981 372.797H452.306C452.87 372.797 453.368 373.262 453.368 373.859C453.368 374.457 452.87 374.955 452.306 374.955H447.044V378.507H451.576C452.157 378.507 452.638 379.005 452.638 379.57C452.638 380.167 452.157 380.665 451.576 380.665H447.044V384.251H452.306C452.87 384.251 453.368 384.732 453.368 385.346C453.368 385.927 452.87 386.409 452.306 386.409H446.015C445.981 386.409 445.981 386.392 445.981 386.392L445.965 386.409C445.351 386.392 444.869 385.911 444.869 385.33Z" fill="white"/>
<path d="M384.262 284.084C383.422 284.084 382.602 283.98 381.802 283.772C381.002 283.556 380.274 283.24 379.618 282.824C378.97 282.4 378.43 281.876 377.998 281.252C377.566 280.62 377.302 279.884 377.206 279.044H380.23C380.358 279.628 380.61 280.12 380.986 280.52C381.362 280.92 381.83 281.224 382.39 281.432C382.958 281.64 383.578 281.744 384.25 281.744C384.97 281.744 385.618 281.648 386.194 281.456C386.778 281.264 387.238 280.984 387.574 280.616C387.918 280.248 388.09 279.796 388.09 279.26C388.09 278.788 387.966 278.388 387.718 278.06C387.47 277.732 387.122 277.464 386.674 277.256C386.234 277.04 385.718 276.868 385.126 276.74L381.934 276.044C380.646 275.78 379.626 275.268 378.874 274.508C378.122 273.748 377.738 272.736 377.722 271.472C377.714 270.424 377.99 269.512 378.55 268.736C379.118 267.952 379.89 267.348 380.866 266.924C381.842 266.492 382.946 266.276 384.178 266.276C385.618 266.276 386.83 266.512 387.814 266.984C388.806 267.448 389.554 268.072 390.058 268.856C390.57 269.64 390.83 270.5 390.838 271.436H387.886C387.814 270.748 387.606 270.2 387.262 269.792C386.926 269.384 386.494 269.092 385.966 268.916C385.438 268.74 384.854 268.652 384.214 268.652C383.734 268.652 383.286 268.708 382.87 268.82C382.454 268.932 382.09 269.096 381.778 269.312C381.466 269.528 381.222 269.792 381.046 270.104C380.878 270.408 380.794 270.756 380.794 271.148C380.794 271.708 380.978 272.164 381.346 272.516C381.722 272.86 382.422 273.152 383.446 273.392L386.566 274.088C387.534 274.28 388.314 274.568 388.906 274.952C389.498 275.336 389.95 275.776 390.262 276.272C390.574 276.76 390.782 277.26 390.886 277.772C390.99 278.284 391.042 278.772 391.042 279.236C391.042 280.14 390.762 280.96 390.202 281.696C389.65 282.432 388.866 283.016 387.85 283.448C386.842 283.872 385.646 284.084 384.262 284.084ZM398.568 284.084C397.96 284.084 397.372 283.996 396.804 283.82C396.244 283.636 395.74 283.372 395.292 283.028C394.844 282.676 394.488 282.244 394.224 281.732C393.96 281.22 393.828 280.624 393.828 279.944V271.436H396.756V279.608C396.756 280.28 396.968 280.832 397.392 281.264C397.824 281.696 398.472 281.912 399.336 281.912C400.12 281.912 400.748 281.708 401.22 281.3C401.692 280.884 401.928 280.288 401.928 279.512V271.436H404.832V283.844H402.588L402.264 281.42C402.112 282.1 401.844 282.636 401.46 283.028C401.084 283.412 400.64 283.684 400.128 283.844C399.624 284.004 399.104 284.084 398.568 284.084ZM413.101 271.196C414.069 271.196 414.921 271.388 415.657 271.772C416.393 272.156 416.981 272.688 417.421 273.368C417.869 274.048 418.137 274.82 418.225 275.684H415.729C415.673 275.308 415.537 274.952 415.321 274.616C415.105 274.272 414.813 273.996 414.445 273.788C414.077 273.572 413.633 273.464 413.113 273.464C412.185 273.464 411.429 273.808 410.845 274.496C410.269 275.184 409.981 276.24 409.981 277.664C409.981 278.976 410.257 280.02 410.809 280.796C411.361 281.572 412.149 281.96 413.173 281.96C413.685 281.96 414.121 281.848 414.481 281.624C414.849 281.392 415.137 281.108 415.345 280.772C415.561 280.428 415.701 280.084 415.765 279.74H418.189C418.117 280.58 417.853 281.328 417.397 281.984C416.949 282.64 416.357 283.156 415.621 283.532C414.893 283.9 414.053 284.084 413.101 284.084C411.965 284.084 410.953 283.836 410.065 283.34C409.185 282.836 408.493 282.108 407.989 281.156C407.485 280.196 407.233 279.04 407.233 277.688C407.233 276.4 407.469 275.272 407.941 274.304C408.413 273.328 409.089 272.568 409.969 272.024C410.849 271.472 411.893 271.196 413.101 271.196ZM426.062 271.196C427.03 271.196 427.882 271.388 428.618 271.772C429.354 272.156 429.942 272.688 430.382 273.368C430.83 274.048 431.098 274.82 431.186 275.684H428.69C428.634 275.308 428.498 274.952 428.282 274.616C428.066 274.272 427.774 273.996 427.406 273.788C427.038 273.572 426.594 273.464 426.074 273.464C425.146 273.464 424.39 273.808 423.806 274.496C423.23 275.184 422.942 276.24 422.942 277.664C422.942 278.976 423.218 280.02 423.77 280.796C424.322 281.572 425.11 281.96 426.134 281.96C426.646 281.96 427.082 281.848 427.442 281.624C427.81 281.392 428.098 281.108 428.306 280.772C428.522 280.428 428.662 280.084 428.726 279.74H431.15C431.078 280.58 430.814 281.328 430.358 281.984C429.91 282.64 429.318 283.156 428.582 283.532C427.854 283.9 427.014 284.084 426.062 284.084C424.926 284.084 423.914 283.836 423.026 283.34C422.146 282.836 421.454 282.108 420.95 281.156C420.446 280.196 420.194 279.04 420.194 277.688C420.194 276.4 420.43 275.272 420.902 274.304C421.374 273.328 422.05 272.568 422.93 272.024C423.81 271.472 424.854 271.196 426.062 271.196ZM436.167 278.312C436.159 279.016 436.271 279.64 436.503 280.184C436.735 280.728 437.079 281.156 437.535 281.468C437.991 281.772 438.555 281.924 439.227 281.924C439.915 281.924 440.511 281.772 441.015 281.468C441.527 281.156 441.867 280.684 442.035 280.052H444.711C444.567 280.916 444.223 281.648 443.679 282.248C443.135 282.848 442.475 283.304 441.699 283.616C440.931 283.928 440.131 284.084 439.299 284.084C438.099 284.084 437.043 283.832 436.131 283.328C435.227 282.816 434.519 282.088 434.007 281.144C433.503 280.2 433.251 279.076 433.251 277.772C433.251 276.5 433.483 275.372 433.947 274.388C434.411 273.396 435.079 272.616 435.951 272.048C436.831 271.48 437.887 271.196 439.119 271.196C440.343 271.196 441.371 271.456 442.203 271.976C443.043 272.496 443.675 273.224 444.099 274.16C444.531 275.088 444.747 276.176 444.747 277.424V278.312H436.167ZM436.167 276.5H441.987C441.987 275.9 441.883 275.36 441.675 274.88C441.467 274.392 441.147 274.008 440.715 273.728C440.291 273.44 439.755 273.296 439.107 273.296C438.467 273.296 437.927 273.452 437.487 273.764C437.047 274.076 436.715 274.48 436.491 274.976C436.267 275.464 436.159 275.972 436.167 276.5ZM452.09 284.084C451.226 284.084 450.406 283.948 449.63 283.676C448.862 283.396 448.214 282.96 447.686 282.368C447.166 281.776 446.838 281.012 446.702 280.076H449.27C449.382 280.532 449.578 280.904 449.858 281.192C450.146 281.48 450.486 281.692 450.878 281.828C451.27 281.956 451.67 282.02 452.078 282.02C452.822 282.02 453.422 281.892 453.878 281.636C454.342 281.38 454.574 280.984 454.574 280.448C454.574 280.056 454.446 279.744 454.19 279.512C453.934 279.28 453.526 279.104 452.966 278.984L450.602 278.444C449.554 278.212 448.71 277.828 448.07 277.292C447.438 276.756 447.118 276 447.11 275.024C447.102 274.288 447.286 273.632 447.662 273.056C448.038 272.48 448.598 272.028 449.342 271.7C450.086 271.364 451.006 271.196 452.102 271.196C453.55 271.196 454.71 271.52 455.582 272.168C456.454 272.808 456.902 273.724 456.926 274.916H454.442C454.354 274.38 454.102 273.964 453.686 273.668C453.27 273.364 452.73 273.212 452.066 273.212C451.378 273.212 450.814 273.344 450.374 273.608C449.934 273.872 449.714 274.276 449.714 274.82C449.714 275.196 449.882 275.492 450.218 275.708C450.554 275.924 451.058 276.108 451.73 276.26L453.962 276.8C454.602 276.96 455.126 277.176 455.534 277.448C455.942 277.72 456.262 278.02 456.494 278.348C456.726 278.668 456.886 279 456.974 279.344C457.07 279.68 457.118 279.992 457.118 280.28C457.118 281.08 456.91 281.764 456.494 282.332C456.086 282.892 455.506 283.324 454.754 283.628C454.002 283.932 453.114 284.084 452.09 284.084ZM464.371 284.084C463.507 284.084 462.687 283.948 461.911 283.676C461.143 283.396 460.495 282.96 459.967 282.368C459.447 281.776 459.119 281.012 458.983 280.076H461.551C461.663 280.532 461.859 280.904 462.139 281.192C462.427 281.48 462.767 281.692 463.159 281.828C463.551 281.956 463.951 282.02 464.359 282.02C465.103 282.02 465.703 281.892 466.159 281.636C466.623 281.38 466.855 280.984 466.855 280.448C466.855 280.056 466.727 279.744 466.471 279.512C466.215 279.28 465.807 279.104 465.247 278.984L462.883 278.444C461.835 278.212 460.991 277.828 460.351 277.292C459.719 276.756 459.399 276 459.391 275.024C459.383 274.288 459.567 273.632 459.943 273.056C460.319 272.48 460.879 272.028 461.623 271.7C462.367 271.364 463.287 271.196 464.383 271.196C465.831 271.196 466.991 271.52 467.863 272.168C468.735 272.808 469.183 273.724 469.207 274.916H466.723C466.635 274.38 466.383 273.964 465.967 273.668C465.551 273.364 465.011 273.212 464.347 273.212C463.659 273.212 463.095 273.344 462.655 273.608C462.215 273.872 461.995 274.276 461.995 274.82C461.995 275.196 462.163 275.492 462.499 275.708C462.835 275.924 463.339 276.108 464.011 276.26L466.243 276.8C466.883 276.96 467.407 277.176 467.815 277.448C468.223 277.72 468.543 278.02 468.775 278.348C469.007 278.668 469.167 279 469.255 279.344C469.351 279.68 469.399 279.992 469.399 280.28C469.399 281.08 469.191 281.764 468.775 282.332C468.367 282.892 467.787 283.324 467.035 283.628C466.283 283.932 465.395 284.084 464.371 284.084ZM475.256 280.532V283.844H471.968V280.532H475.256ZM475.34 266.492L474.572 278.924H472.7L471.896 266.492H475.34ZM359.13 307.168L356.148 312.178V315.844H354.69V312.172L351.702 307.168H353.286L355.428 310.9L357.534 307.168H359.13ZM361.681 315.964C361.089 315.964 360.573 315.838 360.133 315.586C359.693 315.33 359.351 314.964 359.107 314.488C358.867 314.012 358.747 313.44 358.747 312.772C358.747 312.124 358.863 311.556 359.095 311.068C359.331 310.58 359.669 310.2 360.109 309.928C360.549 309.656 361.075 309.52 361.687 309.52C362.279 309.52 362.793 309.65 363.229 309.91C363.665 310.17 364.001 310.542 364.237 311.026C364.477 311.51 364.597 312.092 364.597 312.772C364.597 313.4 364.483 313.954 364.255 314.434C364.031 314.91 363.701 315.284 363.265 315.556C362.833 315.828 362.305 315.964 361.681 315.964ZM361.687 314.854C362.023 314.854 362.299 314.762 362.515 314.578C362.735 314.394 362.897 314.142 363.001 313.822C363.109 313.502 363.163 313.138 363.163 312.73C363.163 312.35 363.115 312 363.019 311.68C362.927 311.36 362.771 311.104 362.551 310.912C362.335 310.716 362.047 310.618 361.687 310.618C361.347 310.618 361.065 310.708 360.841 310.888C360.621 311.064 360.455 311.312 360.343 311.632C360.235 311.948 360.181 312.314 360.181 312.73C360.181 313.106 360.229 313.456 360.325 313.78C360.425 314.1 360.585 314.36 360.805 314.56C361.025 314.756 361.319 314.854 361.687 314.854ZM368.09 315.964C367.786 315.964 367.492 315.92 367.208 315.832C366.928 315.74 366.676 315.608 366.452 315.436C366.228 315.26 366.05 315.044 365.918 314.788C365.786 314.532 365.72 314.234 365.72 313.894V309.64H367.184V313.726C367.184 314.062 367.29 314.338 367.502 314.554C367.718 314.77 368.042 314.878 368.474 314.878C368.866 314.878 369.18 314.776 369.416 314.572C369.652 314.364 369.77 314.066 369.77 313.678V309.64H371.222V315.844H370.1L369.938 314.632C369.862 314.972 369.728 315.24 369.536 315.436C369.348 315.628 369.126 315.764 368.87 315.844C368.618 315.924 368.358 315.964 368.09 315.964ZM377.076 315.946C377.076 316.578 376.928 317.05 376.632 317.362C376.34 317.678 375.85 317.836 375.162 317.836C374.83 317.836 374.616 317.808 374.52 317.752C374.424 317.7 374.376 317.674 374.376 317.674L374.37 316.702L374.916 316.666C375.176 316.634 375.358 316.56 375.462 316.444C375.566 316.332 375.618 316.156 375.618 315.916V309.64H377.076V315.946ZM377.1 307.174V308.554H375.588V307.174H377.1ZM381.322 315.964C380.73 315.964 380.214 315.838 379.774 315.586C379.334 315.33 378.992 314.964 378.748 314.488C378.508 314.012 378.388 313.44 378.388 312.772C378.388 312.124 378.504 311.556 378.736 311.068C378.972 310.58 379.31 310.2 379.75 309.928C380.19 309.656 380.716 309.52 381.328 309.52C381.92 309.52 382.434 309.65 382.87 309.91C383.306 310.17 383.642 310.542 383.878 311.026C384.118 311.51 384.238 312.092 384.238 312.772C384.238 313.4 384.124 313.954 383.896 314.434C383.672 314.91 383.342 315.284 382.906 315.556C382.474 315.828 381.946 315.964 381.322 315.964ZM381.328 314.854C381.664 314.854 381.94 314.762 382.156 314.578C382.376 314.394 382.538 314.142 382.642 313.822C382.75 313.502 382.804 313.138 382.804 312.73C382.804 312.35 382.756 312 382.66 311.68C382.568 311.36 382.412 311.104 382.192 310.912C381.976 310.716 381.688 310.618 381.328 310.618C380.988 310.618 380.706 310.708 380.482 310.888C380.262 311.064 380.096 311.312 379.984 311.632C379.876 311.948 379.822 312.314 379.822 312.73C379.822 313.106 379.87 313.456 379.966 313.78C380.066 314.1 380.226 314.36 380.446 314.56C380.666 314.756 380.96 314.854 381.328 314.854ZM388.809 315.964C388.477 315.964 388.193 315.92 387.957 315.832C387.721 315.744 387.523 315.63 387.363 315.49C387.207 315.35 387.081 315.2 386.985 315.04C386.893 314.876 386.823 314.72 386.775 314.572L386.607 315.844H385.533V306.928H386.997V310.546C387.061 310.426 387.149 310.306 387.261 310.186C387.377 310.066 387.517 309.956 387.681 309.856C387.845 309.756 388.031 309.676 388.239 309.616C388.451 309.552 388.685 309.52 388.941 309.52C389.713 309.52 390.323 309.794 390.771 310.342C391.219 310.89 391.443 311.68 391.443 312.712C391.443 313.364 391.343 313.934 391.143 314.422C390.947 314.91 390.653 315.29 390.261 315.562C389.873 315.83 389.389 315.964 388.809 315.964ZM388.509 314.89C388.945 314.89 389.303 314.716 389.583 314.368C389.863 314.02 390.003 313.456 390.003 312.676C390.003 311.996 389.871 311.482 389.607 311.134C389.343 310.782 388.971 310.606 388.491 310.606C388.147 310.606 387.865 310.684 387.645 310.84C387.429 310.996 387.267 311.228 387.159 311.536C387.055 311.844 387.001 312.224 386.997 312.676C386.997 313.468 387.117 314.036 387.357 314.38C387.601 314.72 387.985 314.89 388.509 314.89ZM395.33 315.844V309.64H396.728V310.984C396.828 310.676 396.97 310.414 397.154 310.198C397.342 309.978 397.562 309.81 397.814 309.694C398.066 309.578 398.34 309.52 398.636 309.52C398.708 309.52 398.778 309.524 398.846 309.532C398.914 309.54 398.964 309.554 398.996 309.574V310.972C398.952 310.952 398.894 310.938 398.822 310.93C398.754 310.922 398.694 310.918 398.642 310.918C398.342 310.894 398.076 310.906 397.844 310.954C397.616 311.002 397.422 311.084 397.262 311.2C397.106 311.312 396.988 311.456 396.908 311.632C396.828 311.804 396.788 312.006 396.788 312.238V315.844H395.33ZM401.187 313.078C401.183 313.43 401.239 313.742 401.355 314.014C401.471 314.286 401.643 314.5 401.871 314.656C402.099 314.808 402.381 314.884 402.717 314.884C403.061 314.884 403.359 314.808 403.611 314.656C403.867 314.5 404.037 314.264 404.121 313.948H405.459C405.387 314.38 405.215 314.746 404.943 315.046C404.671 315.346 404.341 315.574 403.953 315.73C403.569 315.886 403.169 315.964 402.753 315.964C402.153 315.964 401.625 315.838 401.169 315.586C400.717 315.33 400.363 314.966 400.107 314.494C399.855 314.022 399.729 313.46 399.729 312.808C399.729 312.172 399.845 311.608 400.077 311.116C400.309 310.62 400.643 310.23 401.079 309.946C401.519 309.662 402.047 309.52 402.663 309.52C403.275 309.52 403.789 309.65 404.205 309.91C404.625 310.17 404.941 310.534 405.153 311.002C405.369 311.466 405.477 312.01 405.477 312.634V313.078H401.187ZM401.187 312.172H404.097C404.097 311.872 404.045 311.602 403.941 311.362C403.837 311.118 403.677 310.926 403.461 310.786C403.249 310.642 402.981 310.57 402.657 310.57C402.337 310.57 402.067 310.648 401.847 310.804C401.627 310.96 401.461 311.162 401.349 311.41C401.237 311.654 401.183 311.908 401.187 312.172ZM412.376 317.776H410.912V314.824C410.836 314.968 410.74 315.106 410.624 315.238C410.512 315.37 410.378 315.492 410.222 315.604C410.07 315.716 409.896 315.804 409.7 315.868C409.508 315.932 409.296 315.964 409.064 315.964C408.58 315.964 408.142 315.852 407.75 315.628C407.362 315.4 407.052 315.046 406.82 314.566C406.592 314.082 406.478 313.452 406.478 312.676C406.478 311.996 406.576 311.422 406.772 310.954C406.968 310.482 407.248 310.126 407.612 309.886C407.98 309.642 408.418 309.52 408.926 309.52C409.17 309.52 409.394 309.552 409.598 309.616C409.806 309.676 409.992 309.758 410.156 309.862C410.324 309.966 410.47 310.084 410.594 310.216C410.718 310.348 410.822 310.482 410.906 310.618L410.912 309.64H412.376V317.776ZM409.388 314.872C409.728 314.872 410.012 314.774 410.24 314.578C410.468 314.378 410.638 314.114 410.75 313.786C410.862 313.454 410.918 313.092 410.918 312.7C410.918 312.092 410.79 311.592 410.534 311.2C410.282 310.804 409.9 310.606 409.388 310.606C408.952 310.606 408.588 310.78 408.296 311.128C408.008 311.476 407.864 312 407.864 312.7C407.864 313.396 407.998 313.932 408.266 314.308C408.538 314.684 408.912 314.872 409.388 314.872ZM416.301 315.964C415.997 315.964 415.703 315.92 415.419 315.832C415.139 315.74 414.887 315.608 414.663 315.436C414.439 315.26 414.261 315.044 414.129 314.788C413.997 314.532 413.931 314.234 413.931 313.894V309.64H415.395V313.726C415.395 314.062 415.501 314.338 415.713 314.554C415.929 314.77 416.253 314.878 416.685 314.878C417.077 314.878 417.391 314.776 417.627 314.572C417.863 314.364 417.981 314.066 417.981 313.678V309.64H419.433V315.844H418.311L418.149 314.632C418.073 314.972 417.939 315.24 417.747 315.436C417.559 315.628 417.337 315.764 417.081 315.844C416.829 315.924 416.569 315.964 416.301 315.964ZM422.14 313.078C422.136 313.43 422.192 313.742 422.308 314.014C422.424 314.286 422.596 314.5 422.824 314.656C423.052 314.808 423.334 314.884 423.67 314.884C424.014 314.884 424.312 314.808 424.564 314.656C424.82 314.5 424.99 314.264 425.074 313.948H426.412C426.34 314.38 426.168 314.746 425.896 315.046C425.624 315.346 425.294 315.574 424.906 315.73C424.522 315.886 424.122 315.964 423.706 315.964C423.106 315.964 422.578 315.838 422.122 315.586C421.67 315.33 421.316 314.966 421.06 314.494C420.808 314.022 420.682 313.46 420.682 312.808C420.682 312.172 420.798 311.608 421.03 311.116C421.262 310.62 421.596 310.23 422.032 309.946C422.472 309.662 423 309.52 423.616 309.52C424.228 309.52 424.742 309.65 425.158 309.91C425.578 310.17 425.894 310.534 426.106 311.002C426.322 311.466 426.43 312.01 426.43 312.634V313.078H422.14ZM422.14 312.172H425.05C425.05 311.872 424.998 311.602 424.894 311.362C424.79 311.118 424.63 310.926 424.414 310.786C424.202 310.642 423.934 310.57 423.61 310.57C423.29 310.57 423.02 310.648 422.8 310.804C422.58 310.96 422.414 311.162 422.302 311.41C422.19 311.654 422.136 311.908 422.14 312.172ZM430.101 315.964C429.669 315.964 429.259 315.896 428.871 315.76C428.487 315.62 428.163 315.402 427.899 315.106C427.639 314.81 427.475 314.428 427.407 313.96H428.691C428.747 314.188 428.845 314.374 428.985 314.518C429.129 314.662 429.299 314.768 429.495 314.836C429.691 314.9 429.891 314.932 430.095 314.932C430.467 314.932 430.767 314.868 430.995 314.74C431.227 314.612 431.343 314.414 431.343 314.146C431.343 313.95 431.279 313.794 431.151 313.678C431.023 313.562 430.819 313.474 430.539 313.414L429.357 313.144C428.833 313.028 428.411 312.836 428.091 312.568C427.775 312.3 427.615 311.922 427.611 311.434C427.607 311.066 427.699 310.738 427.887 310.45C428.075 310.162 428.355 309.936 428.727 309.772C429.099 309.604 429.559 309.52 430.107 309.52C430.831 309.52 431.411 309.682 431.847 310.006C432.283 310.326 432.507 310.784 432.519 311.38H431.277C431.233 311.112 431.107 310.904 430.899 310.756C430.691 310.604 430.421 310.528 430.089 310.528C429.745 310.528 429.463 310.594 429.243 310.726C429.023 310.858 428.913 311.06 428.913 311.332C428.913 311.52 428.997 311.668 429.165 311.776C429.333 311.884 429.585 311.976 429.921 312.052L431.037 312.322C431.357 312.402 431.619 312.51 431.823 312.646C432.027 312.782 432.187 312.932 432.303 313.096C432.419 313.256 432.499 313.422 432.543 313.594C432.591 313.762 432.615 313.918 432.615 314.062C432.615 314.462 432.511 314.804 432.303 315.088C432.099 315.368 431.809 315.584 431.433 315.736C431.057 315.888 430.613 315.964 430.101 315.964ZM437.377 310.672H435.991L435.997 314.23C435.997 314.414 436.017 314.55 436.057 314.638C436.101 314.722 436.169 314.778 436.261 314.806C436.357 314.83 436.485 314.842 436.645 314.842H437.407V315.766C437.327 315.798 437.205 315.826 437.041 315.85C436.881 315.878 436.665 315.892 436.393 315.892C435.901 315.892 435.519 315.828 435.247 315.7C434.979 315.568 434.793 315.382 434.689 315.142C434.585 314.902 434.533 314.616 434.533 314.284V310.672H433.525V309.64H434.575L434.941 307.798H435.991V309.634H437.377V310.672ZM442.961 309.64V315.844H441.557V309.64H442.961ZM442.979 307.174V308.554H441.533V307.174H442.979ZM447.058 315.964C446.626 315.964 446.216 315.896 445.828 315.76C445.444 315.62 445.12 315.402 444.856 315.106C444.596 314.81 444.432 314.428 444.364 313.96H445.648C445.704 314.188 445.802 314.374 445.942 314.518C446.086 314.662 446.256 314.768 446.452 314.836C446.648 314.9 446.848 314.932 447.052 314.932C447.424 314.932 447.724 314.868 447.952 314.74C448.184 314.612 448.3 314.414 448.3 314.146C448.3 313.95 448.236 313.794 448.108 313.678C447.98 313.562 447.776 313.474 447.496 313.414L446.314 313.144C445.79 313.028 445.368 312.836 445.048 312.568C444.732 312.3 444.572 311.922 444.568 311.434C444.564 311.066 444.656 310.738 444.844 310.45C445.032 310.162 445.312 309.936 445.684 309.772C446.056 309.604 446.516 309.52 447.064 309.52C447.788 309.52 448.368 309.682 448.804 310.006C449.24 310.326 449.464 310.784 449.476 311.38H448.234C448.19 311.112 448.064 310.904 447.856 310.756C447.648 310.604 447.378 310.528 447.046 310.528C446.702 310.528 446.42 310.594 446.2 310.726C445.98 310.858 445.87 311.06 445.87 311.332C445.87 311.52 445.954 311.668 446.122 311.776C446.29 311.884 446.542 311.976 446.878 312.052L447.994 312.322C448.314 312.402 448.576 312.51 448.78 312.646C448.984 312.782 449.144 312.932 449.26 313.096C449.376 313.256 449.456 313.422 449.5 313.594C449.548 313.762 449.572 313.918 449.572 314.062C449.572 314.462 449.468 314.804 449.26 315.088C449.056 315.368 448.766 315.584 448.39 315.736C448.014 315.888 447.57 315.964 447.058 315.964ZM453.537 315.844V309.64H454.965V310.528C455.061 310.368 455.191 310.214 455.355 310.066C455.523 309.918 455.729 309.798 455.973 309.706C456.217 309.614 456.503 309.568 456.831 309.568C457.215 309.568 457.571 309.644 457.899 309.796C458.231 309.948 458.497 310.186 458.697 310.51C458.901 310.834 459.003 311.252 459.003 311.764V315.844H457.539V311.938C457.539 311.53 457.427 311.228 457.203 311.032C456.979 310.832 456.697 310.732 456.357 310.732C456.125 310.732 455.905 310.772 455.697 310.852C455.489 310.928 455.319 311.046 455.187 311.206C455.059 311.362 454.995 311.558 454.995 311.794V315.844H453.537ZM463.142 315.964C462.55 315.964 462.034 315.838 461.594 315.586C461.154 315.33 460.812 314.964 460.568 314.488C460.328 314.012 460.208 313.44 460.208 312.772C460.208 312.124 460.324 311.556 460.556 311.068C460.792 310.58 461.13 310.2 461.57 309.928C462.01 309.656 462.536 309.52 463.148 309.52C463.74 309.52 464.254 309.65 464.69 309.91C465.126 310.17 465.462 310.542 465.698 311.026C465.938 311.51 466.058 312.092 466.058 312.772C466.058 313.4 465.944 313.954 465.716 314.434C465.492 314.91 465.162 315.284 464.726 315.556C464.294 315.828 463.766 315.964 463.142 315.964ZM463.148 314.854C463.484 314.854 463.76 314.762 463.976 314.578C464.196 314.394 464.358 314.142 464.462 313.822C464.57 313.502 464.624 313.138 464.624 312.73C464.624 312.35 464.576 312 464.48 311.68C464.388 311.36 464.232 311.104 464.012 310.912C463.796 310.716 463.508 310.618 463.148 310.618C462.808 310.618 462.526 310.708 462.302 310.888C462.082 311.064 461.916 311.312 461.804 311.632C461.696 311.948 461.642 312.314 461.642 312.73C461.642 313.106 461.69 313.456 461.786 313.78C461.886 314.1 462.046 314.36 462.266 314.56C462.486 314.756 462.78 314.854 463.148 314.854ZM475.495 309.64L473.527 315.844H472.267L470.995 311.71L469.753 315.844H468.523L466.555 309.64H467.869L469.165 313.906H469.231L470.485 309.64H471.553L472.843 313.9H472.909L474.157 309.64H475.495ZM480.966 315.934C480.566 315.934 480.246 315.884 480.006 315.784C479.766 315.684 479.586 315.55 479.466 315.382C479.346 315.214 479.268 315.026 479.232 314.818C479.196 314.606 479.178 314.39 479.178 314.17V306.928H480.606V314.002C480.606 314.27 480.66 314.478 480.768 314.626C480.88 314.774 481.06 314.86 481.308 314.884L481.62 314.896V315.814C481.512 315.846 481.402 315.874 481.29 315.898C481.178 315.922 481.07 315.934 480.966 315.934ZM484.398 309.64V315.844H482.994V309.64H484.398ZM484.416 307.174V308.554H482.97V307.174H484.416ZM491.274 309.64L488.988 315.844H487.836L485.544 309.64H486.882L488.37 313.984H488.448L489.93 309.64H491.274ZM493.226 313.078C493.222 313.43 493.278 313.742 493.394 314.014C493.51 314.286 493.682 314.5 493.91 314.656C494.138 314.808 494.42 314.884 494.756 314.884C495.1 314.884 495.398 314.808 495.65 314.656C495.906 314.5 496.076 314.264 496.16 313.948H497.498C497.426 314.38 497.254 314.746 496.982 315.046C496.71 315.346 496.38 315.574 495.992 315.73C495.608 315.886 495.208 315.964 494.792 315.964C494.192 315.964 493.664 315.838 493.208 315.586C492.756 315.33 492.402 314.966 492.146 314.494C491.894 314.022 491.768 313.46 491.768 312.808C491.768 312.172 491.884 311.608 492.116 311.116C492.348 310.62 492.682 310.23 493.118 309.946C493.558 309.662 494.086 309.52 494.702 309.52C495.314 309.52 495.828 309.65 496.244 309.91C496.664 310.17 496.98 310.534 497.192 311.002C497.408 311.466 497.516 312.01 497.516 312.634V313.078H493.226ZM493.226 312.172H496.136C496.136 311.872 496.084 311.602 495.98 311.362C495.876 311.118 495.716 310.926 495.5 310.786C495.288 310.642 495.02 310.57 494.696 310.57C494.376 310.57 494.106 310.648 493.886 310.804C493.666 310.96 493.5 311.162 493.388 311.41C493.276 311.654 493.222 311.908 493.226 312.172ZM500.431 314.188V315.844H498.787V314.188H500.431ZM500.473 307.168L500.089 313.384H499.153L498.751 307.168H500.473Z" fill="#4B4B4B"/>
<path d="M174.151 358.144C171.811 356.468 168.922 355.787 166.316 354.559C163.71 353.33 161.187 351.189 160.938 348.317C160.589 344.084 165.27 340.88 165.553 336.631C165.934 330.655 157.85 327.385 156.655 321.508C155.676 316.628 159.809 312.03 159.643 307.05C159.46 302.086 155.161 298.368 153.202 293.803C148.637 283.212 157.07 269.55 150.679 259.939C148.969 257.349 146.38 255.49 144.188 253.299C141.997 251.108 140.105 248.236 140.354 245.148L128.369 239.703C124.351 233.561 115.255 233.329 108.399 235.952C101.543 238.575 95.5338 243.289 88.4124 245.032C84.9596 245.879 85.4577 240.766 81.9717 241.48C77.3901 242.409 71.746 247.771 70.4512 252.22C69.0568 256.984 68.0774 262.263 66.3842 266.944C64.5084 272.107 58.964 275.725 58.4494 281.187C57.8518 287.578 64.442 292.774 64.4586 299.181C64.4752 306.087 56.8558 312.245 59.2794 318.703C60.6738 322.388 64.9235 324.363 66.4009 328.032C68.4427 333.078 64.3756 338.606 64.7574 344.051C65.1226 349.413 69.6379 353.447 73.9041 356.717C90.2551 369.217 108.316 379.625 127.771 386.315C136.187 389.203 145.052 391.411 153.916 390.614C162.78 389.801 171.695 385.568 176.343 377.981C180.127 371.723 180.094 362.411 174.151 358.144Z" fill="#263238"/>
<path d="M139.872 242.16C137.698 233.495 130.593 226.258 121.977 223.9C113.362 221.543 103.568 224.183 97.2933 230.54C94.7369 233.13 92.7117 236.301 89.6905 238.342C86.2709 240.633 85.7729 239.969 81.9549 241.463C78.1203 242.974 71.1151 253.631 71.2479 257.731L69.3389 275.759C69.4883 279.975 74.9165 282.349 78.9171 280.988C82.9177 279.61 85.5571 275.875 87.6819 272.223C89.7901 268.571 91.7821 264.604 95.2349 262.18C100.962 258.146 108.731 259.541 115.586 260.935C122.442 262.346 130.394 263.342 135.739 258.827C140.354 254.942 141.35 248.02 139.872 242.16Z" fill="#263238"/>
<path d="M143.657 267.891C142.893 256.154 135.091 241.779 123.405 243.04L86.9183 252.353C83.3659 252.735 80.6933 255.773 80.7763 259.342L84.8765 347.355C84.7935 347.371 84.7105 347.388 84.6275 347.405C84.6275 347.405 99.4679 378.862 123.588 371.275C128.368 369.765 124.036 357.912 124.982 352.517L125.231 352.551C125.248 351.903 125.248 351.322 125.264 350.708C126.061 344.5 125.414 338.623 125.414 338.623C125.48 331.518 125.48 328.597 125.48 328.663C125.48 328.663 140.47 326.14 143.524 306.585C145.018 296.874 144.504 280.922 143.657 267.891Z" fill="#FFBE9D"/>
<path d="M140.636 282.965C140.686 284.293 139.607 285.421 138.229 285.504C136.851 285.587 135.689 284.575 135.639 283.247C135.59 281.919 136.669 280.79 138.046 280.707C139.424 280.624 140.586 281.637 140.636 282.965Z" fill="#263238"/>
<path d="M140.204 276.191C139.889 276.523 137.996 275.112 135.291 275.129C132.601 275.096 130.609 276.49 130.327 276.158C130.178 276.009 130.493 275.428 131.356 274.797C132.203 274.166 133.647 273.552 135.324 273.569C137 273.569 138.428 274.183 139.241 274.814C140.071 275.461 140.37 276.042 140.204 276.191Z" fill="#263238"/>
<path d="M115.121 283.811C115.171 285.139 114.092 286.268 112.714 286.351C111.336 286.434 110.175 285.421 110.125 284.093C110.075 282.765 111.154 281.637 112.532 281.554C113.909 281.471 115.071 282.483 115.121 283.811Z" fill="#263238"/>
<path d="M113.677 276.756C113.362 277.088 111.453 275.677 108.764 275.694C106.075 275.66 104.083 277.055 103.8 276.723C103.651 276.573 103.966 275.992 104.83 275.362C105.676 274.731 107.12 274.117 108.797 274.133C110.474 274.133 111.901 274.747 112.715 275.378C113.545 276.026 113.827 276.607 113.677 276.756Z" fill="#263238"/>
<path d="M123.521 296.759C123.505 296.61 125.181 296.311 127.904 295.963C128.601 295.896 129.248 295.747 129.364 295.282C129.53 294.784 129.232 294.037 128.9 293.24C128.252 291.58 127.572 289.821 126.858 287.995C124.019 280.525 121.944 274.383 122.243 274.283C122.542 274.167 125.098 280.126 127.937 287.596C128.617 289.439 129.281 291.198 129.896 292.875C130.161 293.655 130.609 294.552 130.261 295.581C130.078 296.095 129.564 296.477 129.132 296.593C128.684 296.726 128.302 296.743 127.97 296.759C125.231 296.892 123.538 296.909 123.521 296.759Z" fill="#263238"/>
<path d="M125.463 328.681C125.463 328.681 112.316 329.561 99.252 321.759C99.252 321.759 105.643 335.172 125.198 333.312L125.463 328.681Z" fill="#EB996E"/>
<path d="M122.392 303.266C121.413 301.988 119.72 301.291 118.027 301.473C116.848 301.606 115.669 302.17 114.972 303.117C114.258 304.079 114.109 305.424 114.773 306.337C115.503 307.366 117.031 307.599 118.309 307.217C119.604 306.852 120.699 306.005 121.762 305.158C122.044 304.926 122.343 304.677 122.525 304.362C122.708 304.046 122.741 303.615 122.525 303.349" fill="#EB996E"/>
<path d="M115.586 298.635C116.018 298.602 116.034 301.54 118.558 303.615C121.064 305.69 124.185 305.358 124.218 305.773C124.268 305.956 123.521 306.337 122.21 306.387C120.915 306.437 119.022 306.022 117.495 304.76C115.968 303.482 115.304 301.789 115.204 300.594C115.055 299.349 115.387 298.618 115.586 298.635Z" fill="#263238"/>
<path d="M114.889 272.024C114.624 272.755 111.934 272.423 108.764 272.805C105.593 273.137 103.037 274.066 102.622 273.402C102.439 273.087 102.871 272.39 103.9 271.676C104.929 270.962 106.556 270.281 108.448 270.066C110.341 269.85 112.084 270.149 113.246 270.613C114.408 271.111 115.005 271.676 114.889 272.024Z" fill="#263238"/>
<path d="M139.191 268.389C138.71 269.003 136.851 268.372 134.626 268.339C132.385 268.24 130.493 268.754 130.061 268.123C129.862 267.808 130.161 267.194 130.991 266.613C131.804 266.032 133.166 265.55 134.709 265.6C136.253 265.65 137.581 266.198 138.361 266.829C139.142 267.459 139.407 268.09 139.191 268.389Z" fill="#263238"/>
<path d="M122.741 238.044L121.081 235.919C109.793 237.214 98.7045 240.036 88.1801 244.319C83.9803 246.028 79.714 248.07 76.8422 251.589C72.8748 256.42 72.244 263.093 71.7958 269.318C70.086 293.056 68.6584 317.491 76.1284 340.084C77.9212 337.196 81.4404 335.901 84.777 335.253C88.1136 334.606 91.6163 334.39 94.6541 332.846C97.9741 331.153 100.398 327.9 101.327 324.281C102.257 320.662 101.742 316.744 100.115 313.391C98.3061 309.623 95.0691 306.004 95.8493 301.904C96.6793 297.605 101.609 295.148 102.771 290.931C104.763 283.644 94.5379 277.104 96.6129 269.833C97.3765 267.144 99.7171 265.185 102.224 263.956C104.714 262.711 107.453 262.014 109.992 260.836C118.442 256.918 123.82 247.29 122.741 238.044Z" fill="#263238"/>
<path d="M221.478 387.145L198.603 422.735C198.603 422.735 201.143 426.951 206.654 426.719C212.149 426.487 219.735 412.742 220.631 409.953C221.528 407.164 220.299 404.492 221.129 402.649C221.959 400.806 221.627 395.71 221.627 395.71C221.494 396.009 226.557 389.236 221.478 387.145Z" fill="#FFBE9D"/>
<path d="M192.279 422.718L204.198 375.591C204.563 374.18 205.476 372.968 206.737 372.254L224.051 362.377C225.097 361.78 226.442 362.062 227.155 363.041C227.57 363.606 227.703 364.336 227.537 365.017L214.921 414.618L192.279 422.718Z" fill="#263238"/>
<path d="M186.269 459.238L213.942 408.127L203.533 394.631L164.573 424.179L174.782 452.266L186.269 459.238Z" fill="#7367F0"/>
<path d="M214.274 419.216C214.191 419.183 214.639 418.502 214.805 417.108C214.988 415.73 214.888 413.638 214.224 411.198L214.191 411.082L214.257 410.966C214.689 410.219 214.905 409.256 214.573 408.343C214.274 407.43 213.527 406.567 212.647 405.936L212.348 405.72L212.547 405.405C213.527 403.944 214.573 402.367 215.685 400.724C215.95 400.309 216.299 399.86 216.415 399.512C216.548 399.13 216.498 398.698 216.316 398.283C215.95 397.437 215.187 396.673 214.373 396.092L213.992 395.81L214.307 395.461C215.154 394.498 216.1 393.536 217.046 392.556C218.689 390.797 220.283 389.07 221.611 387.294C222.242 386.398 222.889 385.501 223.304 384.588C223.537 384.14 223.669 383.659 223.719 383.244C223.752 382.812 223.553 382.563 223.304 382.513L223.205 382.497C222.806 382.38 222.175 382.53 221.644 382.746C221.096 382.945 220.565 383.211 220.051 383.46C219.038 383.991 218.092 384.572 217.229 385.12C215.486 386.248 214.008 387.311 212.78 388.19C211.651 389.02 210.721 389.701 209.958 390.265C209.294 390.747 208.945 390.996 208.912 390.963C208.879 390.929 209.194 390.614 209.808 390.083C210.423 389.535 211.336 388.772 212.514 387.825C213.693 386.896 215.154 385.767 216.88 384.588C217.743 384.007 218.689 383.393 219.719 382.829C220.233 382.547 220.781 382.281 221.379 382.049C221.976 381.849 222.607 381.567 223.454 381.766L223.354 381.75C224.151 381.8 224.599 382.696 224.516 383.277C224.466 383.874 224.284 384.422 224.051 384.937C223.603 385.966 222.956 386.879 222.292 387.809C220.93 389.651 219.337 391.394 217.677 393.17C216.714 394.15 215.768 395.113 214.938 396.059L214.855 395.411C215.784 396.109 216.614 396.889 217.096 397.985C217.328 398.532 217.411 399.196 217.195 399.794C216.963 400.408 216.648 400.74 216.365 401.188C215.237 402.832 214.158 404.392 213.145 405.853L213.045 405.338C214.075 406.085 214.855 407.032 215.203 408.16C215.569 409.289 215.27 410.468 214.755 411.281L214.788 411.049C215.403 413.605 215.403 415.73 215.12 417.157C214.988 417.871 214.772 418.403 214.606 418.735C214.407 419.067 214.307 419.232 214.274 419.216Z" fill="#EB996E"/>
<path d="M227.155 363.058C227.188 363.108 226.674 363.473 225.727 364.071C224.781 364.668 223.403 365.515 221.677 366.527C219.884 367.573 217.842 368.768 215.618 370.08C214.473 370.744 213.261 371.441 212.016 372.155C210.771 372.852 209.426 373.533 208.397 374.529C207.351 375.491 206.936 376.902 206.571 378.264C206.206 379.658 205.857 380.986 205.525 382.281C204.861 384.787 204.247 387.062 203.716 389.07C203.185 390.996 202.736 392.556 202.421 393.619C202.089 394.698 201.89 395.279 201.823 395.262C201.774 395.245 201.857 394.631 202.089 393.536C202.321 392.44 202.67 390.863 203.118 388.904C203.6 386.896 204.147 384.588 204.762 382.065C205.077 380.77 205.409 379.426 205.758 378.031C206.106 376.653 206.571 375.043 207.799 373.881C208.995 372.752 210.356 372.088 211.617 371.391C212.862 370.694 214.074 370.013 215.236 369.366C217.494 368.121 219.569 366.976 221.378 365.98C223.138 365.017 224.565 364.27 225.561 363.755C226.557 363.257 227.122 363.008 227.155 363.058Z" fill="#455A64"/>
<path d="M215.685 379.16C215.253 380.189 215.203 381.136 215.569 381.302C215.934 381.451 216.581 380.754 217.013 379.725C217.444 378.695 217.494 377.749 217.129 377.583C216.764 377.434 216.116 378.148 215.685 379.16Z" fill="white"/>
<path d="M129.498 350.591C141.516 354.923 151.31 363.854 156.755 375.424L193.906 454.457L225.91 467.438L197.724 475.556L172.624 457.146L129.498 350.591Z" fill="#7367F0"/>
<path d="M197.724 475.556L184.244 485.948L116.981 416.759L78.5356 347.304L82.9844 334.39L112.715 346.773L123.356 362.51L125.729 342.54L127.638 345.246L130.743 353.662C130.743 353.662 159.942 377.948 166.233 397.204C171.496 413.273 169.852 446.489 173.039 455.503L197.724 475.556Z" fill="#FAFAFA"/>
<path d="M71.3311 346.408C70.8829 347.752 42.5799 359.123 41.2353 369.033C39.8907 378.944 61.5703 455.569 61.5703 455.569L95.9489 485.947H184.244L156.24 433.508C150.198 422.203 142.578 411.828 133.581 402.698C125.298 394.299 115.255 383.907 110.092 377.699C104.498 370.976 80.7765 339.602 80.7765 339.602L71.3311 346.408Z" fill="#7367F0"/>
<path d="M89.0435 349.546C89.0933 349.446 91.0023 350.31 94.0401 351.787C97.0779 353.264 101.244 355.373 105.843 357.746C107.669 358.693 109.412 359.606 111.038 360.469L110.441 360.867C110.208 357.099 110.574 353.862 111.005 351.621C111.437 349.38 111.902 348.102 111.968 348.118C112.068 348.152 111.785 349.463 111.503 351.704C111.221 353.945 110.972 357.132 111.254 360.817L111.304 361.548L110.657 361.216C109.03 360.386 107.27 359.473 105.444 358.543C100.863 356.169 96.7293 353.978 93.7579 352.351C90.8031 350.708 88.9937 349.646 89.0435 349.546Z" fill="#263238"/>
<path d="M157.103 419.431C157.054 419.464 156.556 418.651 155.692 417.19C154.763 415.58 153.551 413.472 152.09 410.932C149.069 405.653 144.853 398.349 140.105 390.365C135.341 382.38 130.925 375.209 127.721 370.03C126.178 367.54 124.899 365.465 123.937 363.888C123.057 362.427 122.592 361.613 122.642 361.58C122.692 361.547 123.256 362.311 124.219 363.705C125.198 365.099 126.576 367.158 128.236 369.698C131.573 374.794 136.088 381.915 140.852 389.916C145.616 397.901 149.733 405.255 152.638 410.617C154.082 413.306 155.228 415.48 156.008 417.008C156.755 418.551 157.153 419.398 157.103 419.431Z" fill="#263238"/>
<g opacity="0.3">
<path d="M143.508 472.85C148.638 473.714 153.9 474.593 159.013 473.614C164.125 472.635 169.139 469.414 170.732 464.467C171.23 462.924 171.446 461.147 172.641 460.052C174.617 458.226 177.754 459.355 180.443 459.106C183.431 458.84 185.988 456.699 187.548 454.126C189.108 451.553 189.822 448.581 190.519 445.66C190.868 444.215 191.217 442.738 191.051 441.261C190.885 439.783 190.104 438.289 188.76 437.692C186.735 436.779 184.46 438.107 182.651 439.401C168.093 449.893 154.829 462.027 141.599 474.145" fill="black"/>
</g>
<path d="M176.492 414.351C176.492 414.351 181.555 402.731 184.261 401.121C186.966 399.511 200.379 391.676 200.379 391.676L198.653 398.067L211.767 388.953C213.377 387.874 222.756 379.359 224.416 382.679C225.611 385.069 217.959 391.377 216.929 392.771C214.373 396.274 215.22 395.959 215.22 395.959C215.22 395.959 217.992 397.635 216.597 400.109C215.203 402.582 212.846 405.62 212.846 405.62C212.846 405.62 216.498 406.915 214.373 411.662C214.373 411.662 215.336 414.219 214.738 417.754C214.141 421.29 207.733 428.03 207.733 428.03L175.795 443.235L162.913 421.373L176.492 414.351Z" fill="#FFBE9D"/>
<path d="M102.108 392.506L122.592 436.231L168.01 416.493C168.01 416.493 186.867 427.483 184.244 439.501L143.325 473.116C135.573 479.474 125.563 482.395 115.603 481.167C104.913 479.856 95.3513 473.913 89.4251 464.916L59.8107 419.847L43.2439 392.772C37.9485 384.107 37.9485 372.952 43.9411 364.751C45.5845 362.51 47.5267 360.634 49.7843 359.257C57.1879 354.791 79.1663 352.832 102.108 392.506Z" fill="#7367F0"/>
<path d="M202.836 395.03C202.953 395.212 199.965 397.271 196.163 399.628C192.362 401.969 189.191 403.728 189.075 403.529C188.959 403.346 191.947 401.288 195.748 398.931C199.55 396.59 202.72 394.847 202.836 395.03Z" fill="#EB996E"/>
<path d="M215.635 394.631C215.784 394.797 213.112 397.669 209.676 401.072C206.223 404.459 203.301 407.081 203.152 406.932C202.986 406.783 205.658 403.894 209.111 400.491C212.564 397.105 215.486 394.465 215.635 394.631Z" fill="#EB996E"/>
<path d="M213.925 404.492C214.091 404.641 212.846 406.384 211.136 408.393C209.427 410.401 207.899 411.928 207.717 411.779C207.534 411.63 208.796 409.887 210.506 407.878C212.232 405.853 213.759 404.342 213.925 404.492Z" fill="#EB996E"/>
<path d="M214.506 411.131C214.672 411.28 213.975 412.359 213.078 413.654C212.182 414.932 211.402 415.978 211.203 415.862C211.003 415.762 211.485 414.517 212.414 413.189C213.344 411.845 214.357 410.982 214.506 411.131Z" fill="#EB996E"/>
<path d="M136.353 477.465C136.353 477.465 136.42 477.382 136.569 477.266C136.735 477.116 136.951 476.95 137.217 476.718C137.831 476.22 138.694 475.523 139.79 474.643C142.097 472.817 145.417 470.194 149.6 466.874C158.116 460.201 170.201 450.722 184.61 439.418L184.46 439.7C184.46 437.475 184.062 435.185 183.166 433.01C182.219 430.852 180.941 428.794 179.397 426.851C176.243 423.05 172.243 419.647 167.777 416.875L168.159 416.891C160.639 420.162 152.754 423.598 144.637 427.117C137.134 430.371 129.797 433.558 122.742 436.629L122.376 436.795L122.194 436.446C116.168 424.594 110.607 413.422 104.963 403.728C102.158 398.864 99.3853 394.365 96.7625 390.165C94.1397 385.982 91.7493 382.081 89.3091 378.728C84.5449 371.922 79.1831 367.755 75.1659 365.614C74.1865 365.033 73.2735 364.585 72.4767 364.203C71.6965 363.805 71.0159 363.506 70.4681 363.273C69.9535 363.041 69.5385 362.858 69.2231 362.726C68.9409 362.593 68.8081 362.526 68.8081 362.51C68.8081 362.51 71.2317 363.207 75.2987 365.348C77.3239 366.427 79.7309 367.921 82.2375 370.079C84.7607 372.204 87.2839 375.043 89.7573 378.396C92.2473 381.749 94.6709 385.65 97.3103 389.817C99.9497 393.983 102.772 398.499 105.594 403.346C111.304 413.04 116.898 424.195 122.941 436.048L122.393 435.849C129.448 432.778 136.785 429.59 144.288 426.32C152.389 422.801 160.291 419.381 167.811 416.111L168.01 416.028L168.192 416.144C172.774 419 176.791 422.436 180.011 426.337C181.588 428.329 182.916 430.454 183.879 432.695C184.809 434.969 185.224 437.376 185.191 439.716V439.882L185.041 439.999C170.55 451.204 158.398 460.583 149.833 467.206C145.583 470.46 142.23 473.033 139.889 474.809C138.761 475.655 137.881 476.319 137.25 476.801C136.968 477 136.752 477.166 136.569 477.299C136.437 477.415 136.353 477.465 136.353 477.465Z" fill="#263238"/>
<path d="M119.836 449.975C119.604 449.876 120.849 446.755 121.563 442.705C122.31 438.671 122.226 435.301 122.492 435.284C122.708 435.251 123.189 438.687 122.426 442.854C121.679 447.037 120.019 450.092 119.836 449.975Z" fill="#263238"/>
<path d="M369.716 578.41L393.504 608.207C393.504 608.207 431.784 594.031 436.714 599.11L380.589 647.3L341.629 602.397L369.716 578.41Z" fill="#82809A"/>
<g opacity="0.6">
<path d="M374.066 620.691C373.236 621.919 373.534 623.778 374.73 624.675C375.925 625.554 377.817 625.272 378.68 624.06C379.527 622.849 379.245 620.591 377.95 619.861C376.672 619.114 374.447 619.578 373.916 620.956" fill="white"/>
</g>
<g opacity="0.6">
<path d="M380.589 647.317L376.838 642.636L432.05 598.181C432.05 598.181 435.486 597.119 436.714 599.127L380.589 647.317Z" fill="white"/>
</g>
<path d="M394.168 607.145C394.4 607.427 393.138 608.722 392.541 610.764C391.893 612.789 392.225 614.565 391.877 614.681C391.578 614.847 390.582 612.855 391.346 610.398C392.076 607.942 394.018 606.846 394.168 607.145Z" fill="#263238"/>
<path d="M402.152 604.522C402.451 604.738 401.654 606.215 401.721 608.174C401.721 610.133 402.567 611.594 402.285 611.81C402.069 612.075 400.492 610.631 400.459 608.191C400.409 605.767 401.92 604.273 402.152 604.522Z" fill="#263238"/>
<path d="M411.548 608.705C411.349 608.971 409.788 607.941 409.207 605.833C408.61 603.725 409.39 602.032 409.705 602.165C410.054 602.264 409.905 603.775 410.419 605.501C410.867 607.211 411.797 608.439 411.548 608.705Z" fill="#263238"/>
<path d="M387.992 600.952C388.092 601.301 386.515 601.998 385.054 603.442C383.56 604.853 382.813 606.397 382.465 606.298C382.133 606.231 382.448 604.206 384.191 602.546C385.917 600.853 387.943 600.62 387.992 600.952Z" fill="#263238"/>
<g opacity="0.3">
<path d="M374.431 584.319L378.664 589.631L350.876 613.07L346.858 608.456L374.431 584.319Z" fill="black"/>
</g>
<path d="M383.08 595.043C383.179 595.159 382.25 596.255 380.258 597.45C379.262 598.048 378.017 598.628 376.539 599.077C375.809 599.292 375.012 599.475 374.182 599.608C373.784 599.658 373.335 599.757 372.771 599.674C372.223 599.658 371.426 599.077 371.393 598.33C371.31 597.649 371.659 597.035 372.057 596.67C372.456 596.304 372.871 596.089 373.236 595.906C373.999 595.524 374.763 595.225 375.493 595.01C376.987 594.578 378.382 594.445 379.544 594.478C381.884 594.561 383.212 595.209 383.163 595.342C383.113 595.541 381.752 595.226 379.56 595.375C378.481 595.441 377.187 595.657 375.842 596.122C375.161 596.354 374.481 596.653 373.8 597.002C373.07 597.35 372.555 597.782 372.638 598.18C372.671 598.33 372.705 598.379 372.97 598.446C373.236 598.496 373.618 598.446 374.016 598.396C374.796 598.296 375.527 598.147 376.224 597.964C377.618 597.616 378.847 597.134 379.843 596.67C381.835 595.723 382.963 594.877 383.08 595.043Z" fill="#263238"/>
<path d="M383.063 595.741C382.996 595.874 381.619 595.359 379.992 593.666C379.195 592.819 378.365 591.674 377.734 590.263C377.419 589.549 377.17 588.769 376.987 587.939C376.838 587.109 376.605 586.013 377.568 584.984C378.099 584.486 378.946 584.519 379.411 584.768C379.925 584.984 380.241 585.283 380.589 585.548C381.253 586.113 381.801 586.777 382.216 587.441C383.063 588.786 383.428 590.196 383.511 591.375C383.66 593.765 382.797 595.077 382.698 595.011C382.482 594.944 382.996 593.599 382.631 591.491C382.449 590.445 382.034 589.217 381.253 588.088C380.855 587.524 380.374 586.976 379.809 586.511C379.212 585.997 378.564 585.698 378.398 585.947C378.116 586.179 378.033 587.042 378.199 587.706C378.348 588.453 378.548 589.167 378.813 589.831C379.328 591.143 380.008 592.255 380.672 593.101C382 594.795 383.179 595.558 383.063 595.741Z" fill="#263238"/>
<path d="M343.87 670.274L342.393 709.251C342.393 709.251 381.519 723.843 381.95 731.08L306.254 730.931L306.072 670.092L343.87 670.274Z" fill="#82809A"/>
<g opacity="0.6">
<path d="M318.986 705.931C317.526 706.33 316.513 707.973 316.845 709.45C317.177 710.928 318.854 711.974 320.314 711.608C321.792 711.243 323.07 709.301 322.572 707.873C322.074 706.446 320.049 705.317 318.704 706.031" fill="white"/>
</g>
<g opacity="0.6">
<path d="M306.254 730.931L306.47 724.806L378.962 727.246C378.962 727.246 382.332 728.723 381.95 731.097L306.254 730.931Z" fill="white"/>
</g>
<path d="M343.621 708.87C343.604 709.235 341.762 709.401 339.936 710.596C338.076 711.741 337.147 713.335 336.798 713.186C336.45 713.119 337.014 710.911 339.238 709.517C341.463 708.089 343.704 708.538 343.621 708.87Z" fill="#263238"/>
<path d="M351.555 712.173C351.638 712.538 350.045 713.152 348.783 714.713C347.472 716.24 347.156 717.933 346.791 717.916C346.443 717.966 346.194 715.808 347.787 713.899C349.364 711.974 351.539 711.824 351.555 712.173Z" fill="#263238"/>
<path d="M356.038 721.684C355.706 721.767 355.191 719.908 356.138 717.899C357.084 715.874 358.827 715.077 358.976 715.376C359.192 715.675 358.063 716.771 357.3 718.431C356.519 720.091 356.403 721.651 356.038 721.684Z" fill="#263238"/>
<path d="M342.974 699.955C342.824 700.287 341.131 699.773 339.04 699.922C336.948 700.022 335.321 700.719 335.122 700.403C334.906 700.138 336.5 698.777 338.957 698.644C341.413 698.478 343.156 699.656 342.974 699.955Z" fill="#263238"/>
<g opacity="0.3">
<path d="M343.571 677.993L343.306 684.932L306.122 684.517L306.072 678.259L343.571 677.993Z" fill="black"/>
</g>
<path d="M343.123 692.07C343.123 692.22 341.662 692.452 339.338 692.037C338.176 691.838 336.815 691.456 335.37 690.809C334.657 690.493 333.926 690.112 333.196 689.647C332.847 689.414 332.432 689.199 332.05 688.75C331.635 688.369 331.403 687.389 331.884 686.792C332.266 686.211 332.963 685.962 333.511 685.945C334.076 685.928 334.524 686.045 334.939 686.144C335.785 686.343 336.566 686.626 337.296 686.958C338.74 687.622 339.919 688.452 340.782 689.265C342.542 690.892 343.139 692.27 343.006 692.353C342.84 692.469 341.994 691.323 340.201 689.962C339.305 689.298 338.176 688.601 336.831 688.053C336.151 687.788 335.42 687.555 334.657 687.373C333.86 687.157 333.179 687.157 332.963 687.505C332.88 687.638 332.88 687.688 333.046 687.937C333.212 688.153 333.544 688.369 333.893 688.584C334.557 689.016 335.238 689.398 335.902 689.73C337.213 690.394 338.475 690.842 339.57 691.141C341.695 691.772 343.123 691.871 343.123 692.07Z" fill="#263238"/>
<path d="M342.642 692.602C342.509 692.652 341.779 691.34 341.646 688.933C341.58 687.755 341.712 686.31 342.177 684.783C342.41 684.02 342.725 683.239 343.14 682.476C343.588 681.729 344.136 680.733 345.564 680.567C346.311 680.534 346.925 681.131 347.141 681.629C347.39 682.144 347.439 682.575 347.522 683.024C347.655 683.903 347.639 684.767 347.522 685.58C347.273 687.19 346.626 688.535 345.896 689.498C344.418 691.456 342.874 691.888 342.841 691.772C342.725 691.589 344.003 690.875 345.149 689C345.713 688.07 346.211 686.842 346.36 685.447C346.443 684.75 346.427 684.003 346.294 683.256C346.178 682.459 345.879 681.795 345.58 681.878C345.198 681.878 344.568 682.476 344.252 683.123C343.87 683.804 343.555 684.501 343.306 685.182C342.825 686.543 342.625 687.854 342.559 688.966C342.443 691.174 342.841 692.552 342.642 692.602Z" fill="#263238"/>
<path d="M305.491 485.948L380.39 585.482L345.347 615.578L309.292 568.417L305.491 485.948Z" fill="#263238"/>
<path d="M146.895 490.713C146.895 490.713 267.394 454.01 278.433 454.458C289.472 454.923 310.421 494.78 310.421 494.78L276.59 493.551C267.909 514.849 251.873 536.761 233.812 558.856L164.64 555.635L146.895 490.713Z" fill="#263238"/>
<path d="M245.399 461.695C245.465 461.928 233.082 465.812 217.743 470.361C202.388 474.926 189.905 478.428 189.839 478.212C189.772 477.98 202.156 474.096 217.511 469.547C232.833 464.982 245.332 461.463 245.399 461.695Z" fill="#263238"/>
<path d="M273.403 492.903H307.234C324.116 492.903 339.156 503.561 344.767 519.48C347.406 526.983 348.568 534.918 348.186 542.853L345.547 680.483H299.997L299.183 636.493L293.423 552.863L253.998 554.523L231.654 553.128L273.403 492.903Z" fill="#263238"/>
<path d="M274.416 492.223C274.466 492.239 274.25 493.269 273.785 495.128C273.37 497.004 272.523 499.643 271.395 502.897C270.15 506.1 268.622 509.902 266.365 513.853C264.157 517.82 261.402 522.02 258.131 526.103C251.525 534.271 244.619 540.778 239.738 545.559C237.348 547.849 235.373 549.758 233.895 551.169C232.501 552.481 231.721 553.195 231.671 553.161C231.621 553.112 232.335 552.331 233.646 550.937C234.958 549.543 236.9 547.567 239.29 545.127C244.071 540.23 250.894 533.673 257.451 525.572C263.991 517.455 268.357 509.022 270.814 502.681C272.009 499.494 272.938 496.887 273.453 495.045C274.017 493.219 274.349 492.206 274.416 492.223Z" fill="#455A64"/>
<path d="M315.8 493.833C315.783 493.966 313.443 493.75 309.658 493.535C305.873 493.319 300.627 493.169 294.851 493.286C289.057 493.402 283.828 493.734 280.043 493.999C276.259 494.265 273.901 494.448 273.901 494.315C273.901 494.248 274.466 494.132 275.528 493.966C276.574 493.8 278.101 493.601 279.994 493.385C283.778 492.97 289.024 492.522 294.851 492.422C300.661 492.306 305.939 492.555 309.724 492.92C311.617 493.103 313.144 493.302 314.206 493.468C315.219 493.651 315.8 493.784 315.8 493.833Z" fill="#455A64"/>
<path d="M299.813 655.352C299.78 655.352 299.747 654.953 299.697 654.206C299.647 653.36 299.581 652.281 299.515 650.919C299.382 647.965 299.199 643.848 298.967 638.801C298.519 628.576 297.904 614.449 296.925 598.862C295.946 583.274 294.784 569.181 293.937 558.972C293.522 553.942 293.19 549.842 292.958 546.887C292.858 545.526 292.792 544.43 292.725 543.6C292.675 542.853 292.675 542.455 292.709 542.455C292.742 542.455 292.808 542.837 292.908 543.584C293.007 544.414 293.14 545.509 293.306 546.854C293.622 549.809 294.037 553.892 294.568 558.922C295.564 569.115 296.809 583.208 297.805 598.812C298.784 614.416 299.299 628.543 299.598 638.785C299.714 643.831 299.797 647.948 299.863 650.903C299.88 652.264 299.88 653.36 299.88 654.206C299.863 654.953 299.847 655.352 299.813 655.352Z" fill="#263238"/>
<path d="M348.253 537.558C348.485 537.558 348.336 569.098 347.888 607.991C347.456 646.902 346.908 678.425 346.659 678.425C346.427 678.425 346.576 646.885 347.025 607.991C347.473 569.081 348.021 537.558 348.253 537.558Z" fill="#455A64"/>
<path d="M311.102 532.412C311.185 532.677 306.437 533.873 301.391 536.993C296.311 540.081 293.091 543.766 292.908 543.584C292.825 543.517 293.522 542.505 294.9 541.077C296.278 539.649 298.369 537.857 300.942 536.263C303.532 534.686 306.088 533.624 307.981 533.059C309.857 532.478 311.068 532.312 311.102 532.412Z" fill="#263238"/>
<g opacity="0.3">
<path d="M231.654 553.178C240.834 554.871 250.927 552.066 258.795 547.152C266.664 542.239 272.49 534.32 274.731 525.506C275.744 521.538 276.043 517.438 277.039 513.471C278.035 509.503 279.861 505.536 283.197 503.063C287.049 500.191 296.544 498.365 299.366 494.53C299.366 493.949 288.128 495.261 284.343 495.46C280.226 495.692 273.337 496.721 273.486 496.24C273.486 496.24 270.731 505.884 269.519 507.976C261.319 522.053 243.307 542.753 231.654 553.178Z" fill="black"/>
</g>
<path d="M43.8584 650.604L56.657 734.384H69.3726L63.1144 650.936L43.8584 650.604Z" fill="#263238"/>
<path d="M269.27 650.936V734.384H282.682L287.679 650.604L269.27 650.936Z" fill="#263238"/>
<path d="M41.5841 391.677C41.5841 391.677 23.6395 392.391 18.1449 399.91C8.46707 413.174 13.8953 424.678 13.3641 428.595C12.8163 432.513 43.8583 650.587 43.8583 650.587H56.6403L287.679 652.712L298.768 625.753L293.439 552.863L231.671 553.145C231.671 553.145 206.372 480.537 184.261 475.673C169.288 472.386 134.112 473.548 112.947 474.644C102.39 475.191 92.3303 470.062 86.5867 461.198L41.5841 391.677Z" fill="#455A64"/>
<path d="M246.362 642.038C246.362 642.038 245.083 642.204 242.627 642.321C240.17 642.387 236.551 642.503 231.87 642.553C222.507 642.686 208.896 642.719 191.964 642.702C158.083 642.669 110.872 642.404 57.4703 641.939H57.1217L57.0553 641.607C56.0925 637.042 55.1131 632.344 54.1005 627.563C53.1377 622.782 52.1749 617.919 51.1955 613.022C39.5921 553.892 32.8027 499.71 29.1507 460.418C27.3081 440.763 26.2125 424.844 25.5153 413.822C25.2165 408.327 24.9841 404.061 24.8181 401.139C24.7517 399.712 24.7019 398.616 24.6687 397.836C24.6355 397.089 24.6521 396.707 24.6521 396.707C24.6521 396.707 24.7019 397.089 24.7683 397.836C24.8181 398.599 24.9011 399.695 25.0173 401.139C25.2165 404.061 25.4987 408.327 25.8805 413.822C26.6773 424.827 27.8725 440.747 29.7815 460.385C33.5995 499.644 40.4885 553.776 52.0753 612.872C53.0547 617.769 54.0341 622.633 54.9803 627.397C55.9763 632.161 56.9557 636.859 57.9185 641.424L57.5035 641.092C110.873 641.507 158.083 641.872 191.98 642.138C208.895 642.188 222.491 642.221 231.886 642.238C236.551 642.204 240.17 642.188 242.643 642.155C243.872 642.155 244.801 642.072 245.432 642.055C246.03 642.038 246.362 642.038 246.362 642.038Z" fill="#263238"/>
<path d="M243.922 652.347C243.888 652.347 243.922 651.981 244.021 651.301C244.137 650.537 244.287 649.558 244.453 648.363C244.669 647.084 244.918 645.524 245.117 643.698C245.333 641.872 245.648 639.814 245.814 637.506C246.03 635.215 246.262 632.692 246.362 629.986C246.544 627.281 246.544 624.376 246.594 621.338C246.561 615.246 246.229 608.539 245.432 601.551C244.586 594.562 243.357 587.972 242.013 582.029C240.618 576.086 239.108 570.807 237.68 566.425C237.016 564.217 236.269 562.258 235.688 560.532C235.107 558.789 234.543 557.312 234.078 556.116C233.663 554.971 233.314 554.058 233.049 553.328C232.816 552.68 232.717 552.348 232.75 552.332C232.783 552.315 232.932 552.647 233.215 553.261C233.513 553.975 233.912 554.871 234.393 556C234.908 557.195 235.522 558.656 236.153 560.383C236.784 562.109 237.58 564.051 238.278 566.259C239.788 570.641 241.365 575.92 242.809 581.88C244.204 587.839 245.465 594.462 246.312 601.484C247.109 608.506 247.408 615.246 247.408 621.371C247.341 624.425 247.308 627.347 247.092 630.053C246.959 632.775 246.694 635.298 246.445 637.606C246.246 639.913 245.88 641.972 245.615 643.798C245.366 645.624 245.067 647.167 244.818 648.446C244.569 649.641 244.37 650.604 244.22 651.367C244.038 651.998 243.955 652.347 243.922 652.347Z" fill="#263238"/>
<path d="M74.6183 496.108C74.6017 496.091 74.9171 495.809 75.5479 495.327C76.2451 494.796 77.1747 494.082 78.3367 493.203C78.9509 492.738 79.6315 492.223 80.3619 491.675C81.1421 491.177 82.0053 490.663 82.9349 490.098C84.8107 489.003 86.8525 487.625 89.3591 486.513C90.5875 485.915 91.8657 485.284 93.2103 484.637C94.5383 483.973 96.0157 483.492 97.5097 482.877C99.0037 482.313 100.531 481.632 102.158 481.118C103.784 480.603 105.461 480.072 107.187 479.524C114.11 477.516 121.862 475.739 130.129 474.76C138.379 473.714 146.314 473.233 153.518 473.349C157.12 473.283 160.54 473.581 163.744 473.698C166.931 473.996 169.919 474.196 172.608 474.577C178.02 475.275 182.336 476.171 185.29 476.901C186.685 477.283 187.814 477.599 188.677 477.831C189.44 478.047 189.839 478.18 189.839 478.213C189.822 478.246 189.407 478.163 188.627 477.997C187.764 477.798 186.635 477.549 185.224 477.217C182.253 476.586 177.937 475.789 172.542 475.175C169.853 474.826 166.881 474.66 163.694 474.395C160.507 474.312 157.104 474.046 153.518 474.129C146.347 474.063 138.445 474.577 130.245 475.607C122.028 476.586 114.309 478.329 107.42 480.288C105.71 480.819 104.034 481.334 102.423 481.832C100.797 482.33 99.2859 482.994 97.7919 483.541C96.3145 484.139 94.8371 484.604 93.5091 485.251C92.1645 485.882 90.8863 486.48 89.6579 487.061C87.1513 488.123 85.0929 489.468 83.2171 490.513C82.2875 491.061 81.4077 491.543 80.6109 492.024C79.8639 492.555 79.1833 493.037 78.5525 493.485C77.3573 494.315 76.4111 494.979 75.6807 495.477C75.0001 495.908 74.6349 496.124 74.6183 496.108Z" fill="#263238"/>
<path d="M211.933 507.91C211.95 507.91 211.9 508.093 211.767 508.458C211.651 508.807 211.485 509.355 211.203 510.035C210.605 511.363 209.626 513.339 207.8 515.48C205.991 517.605 203.318 519.862 199.815 521.755C198.039 522.668 196.08 523.498 193.939 524.195C191.781 524.842 189.44 525.357 186.95 525.623C181.954 526.154 176.443 525.755 170.666 524.71C164.889 523.68 158.847 522.004 152.472 520.477C146.098 518.983 139.292 517.638 132.187 517.787C128.635 517.854 125.049 518.352 121.563 519.414C118.077 520.46 114.74 522.203 111.719 524.411C105.627 528.843 101.079 534.836 97.2938 540.828C93.4924 546.871 90.4878 553.079 87.284 558.839C84.1134 564.599 80.7602 569.961 76.8924 574.41C73.0744 578.875 68.692 582.395 64.1104 584.503C59.5454 586.594 55.0136 587.541 51.0296 587.59C47.0456 587.64 43.626 586.843 41.0696 585.731C39.7582 585.217 38.729 584.519 37.7994 583.972C36.9528 583.324 36.2224 582.76 35.6746 582.262C35.1932 581.747 34.8114 581.349 34.5292 581.05C34.2802 580.768 34.1474 580.635 34.164 580.618C34.1806 580.602 34.33 580.735 34.5956 580.984C34.8944 581.266 35.2928 581.648 35.7908 582.129C36.3386 582.594 37.0856 583.125 37.9322 583.756C38.8618 584.27 39.891 584.951 41.1858 585.432C43.7256 586.478 47.0954 587.225 51.013 587.126C54.9306 587.043 59.3794 586.047 63.8448 583.972C68.3102 581.88 72.5764 578.394 76.3446 573.962C80.1294 569.546 83.4328 564.234 86.5702 558.474C89.7408 552.73 92.7454 546.489 96.5468 540.397C100.348 534.338 104.93 528.262 111.171 523.73C114.276 521.489 117.679 519.696 121.281 518.617C124.866 517.522 128.535 517.024 132.154 516.957C139.391 516.808 146.247 518.186 152.655 519.713C159.046 521.273 165.072 522.967 170.799 524.012C176.526 525.091 181.97 525.523 186.884 525.025C189.341 524.776 191.648 524.295 193.773 523.68C195.898 523.016 197.84 522.22 199.6 521.34C203.069 519.514 205.725 517.339 207.551 515.281C211.186 511.031 211.767 507.811 211.933 507.91Z" fill="white"/>
<path d="M296.361 614.1C296.361 614.1 296.112 614.166 295.631 614.283C295.116 614.382 294.402 614.532 293.489 614.714C292.543 614.864 291.448 615.362 290.103 615.76C289.422 615.943 288.775 616.341 288.028 616.656C287.298 617.005 286.501 617.32 285.737 617.818C282.533 619.561 278.998 622.317 275.163 625.82C271.312 629.289 267.195 633.572 262.149 637.772C259.609 639.847 256.837 641.938 253.616 643.565C252.056 644.478 250.296 645.076 248.553 645.756C247.64 646.005 246.727 646.238 245.814 646.487C244.901 646.769 243.922 646.802 242.959 646.985C239.108 647.483 235.024 647.267 230.99 646.37C226.94 645.507 222.956 643.897 219.088 641.938C211.336 637.971 204.032 632.393 197.043 626.052C190.071 619.744 182.95 613.038 174.65 607.576C170.5 604.854 166.134 602.546 161.553 601.052C156.988 599.525 152.223 598.845 147.575 599.11C142.927 599.376 138.445 600.588 134.295 602.297C130.129 604.007 126.277 606.165 122.592 608.423C115.255 612.955 108.582 617.802 101.793 621.504C94.9865 625.156 88.1805 627.695 81.8061 629.223C69.0075 632.377 58.2009 631.962 50.9633 631.082C43.6925 630.119 39.8247 628.824 39.8247 628.824C39.8247 628.824 40.0737 628.857 40.5551 628.957C41.0697 629.073 41.7835 629.223 42.6965 629.422C44.5723 629.82 47.3777 630.335 50.9965 630.75C58.2175 631.53 68.9743 631.829 81.6567 628.625C87.9813 627.065 94.7043 624.525 101.444 620.873C108.167 617.171 114.807 612.324 122.177 607.742C125.863 605.468 129.764 603.277 133.98 601.534C138.196 599.791 142.761 598.546 147.526 598.264C152.29 597.981 157.17 598.679 161.818 600.222C166.483 601.75 170.915 604.09 175.115 606.846C183.514 612.374 190.652 619.097 197.608 625.421C204.547 631.729 211.784 637.29 219.437 641.224C223.255 643.167 227.172 644.76 231.14 645.623C235.107 646.503 239.075 646.736 242.843 646.271C243.772 646.105 244.735 646.072 245.632 645.806C246.528 645.574 247.424 645.325 248.321 645.092C250.031 644.428 251.74 643.864 253.284 642.967C256.455 641.374 259.21 639.332 261.734 637.29C266.763 633.157 270.913 628.907 274.814 625.454C278.682 621.985 282.284 619.246 285.555 617.52C286.335 617.022 287.148 616.723 287.895 616.374C288.642 616.059 289.306 615.677 290.003 615.494C291.365 615.113 292.477 614.631 293.439 614.515C294.369 614.366 295.083 614.249 295.614 614.166C296.112 614.117 296.361 614.1 296.361 614.1Z" fill="white"/>
<path d="M65.3386 432.778C65.3884 432.795 65.2722 433.542 64.8904 434.87C64.5252 436.198 63.828 438.09 62.666 440.298C60.425 444.681 55.9264 450.291 49.137 453.844C42.331 457.396 35.1598 457.878 30.2794 457.214C27.8226 456.898 25.8638 456.384 24.569 455.935C23.2576 455.487 22.577 455.155 22.5936 455.105C22.6434 454.923 25.4986 456.135 30.3624 456.599C35.1764 457.097 42.1484 456.516 48.7552 453.064C55.362 449.611 59.8108 444.216 62.1514 439.999C64.5252 435.75 65.1726 432.712 65.3386 432.778Z" fill="white"/>
<path d="M634.056 404.575C616.875 413.473 603.695 428.811 594.216 445.677C584.738 462.559 578.629 481.068 572.586 499.461L567.291 594.28C587.294 560.267 603.33 520.277 607.679 481.051C603.247 480.653 598.814 480.255 594.366 479.873C603.28 478.512 610.783 472.054 615.547 464.385C620.311 456.716 622.768 447.885 625.159 439.186C619.747 439.983 614.335 440.796 608.924 441.593C621.639 433.094 630.852 419.532 634.056 404.575Z" fill="#455A64"/>
<path d="M634.056 404.575C616.875 413.473 603.695 428.811 594.216 445.677C584.738 462.559 578.629 481.068 572.586 499.461L567.291 594.28C587.294 560.267 603.33 520.277 607.679 481.051C603.247 480.653 598.814 480.255 594.366 479.873C603.28 478.512 610.783 472.054 615.547 464.385C620.311 456.716 622.768 447.885 625.159 439.186C619.747 439.983 614.335 440.796 608.924 441.593C621.639 433.094 630.852 419.532 634.056 404.575Z" fill="#7367F0"/>
<g opacity="0.3">
<path d="M634.056 404.575C616.875 413.473 603.695 428.811 594.216 445.677C584.738 462.559 578.629 481.068 572.586 499.461L567.291 594.28C587.294 560.267 603.33 520.277 607.679 481.051C603.247 480.653 598.814 480.255 594.366 479.873C603.28 478.512 610.783 472.054 615.547 464.385C620.311 456.716 622.768 447.885 625.159 439.186C619.747 439.983 614.335 440.796 608.924 441.593C621.639 433.094 630.852 419.532 634.056 404.575Z" fill="black"/>
</g>
<path d="M564.336 616.491C564.336 616.491 520.927 564.55 521.442 514.949H538.971C538.971 514.949 519.931 502.432 521.442 495.411C522.952 488.405 523.45 461.845 523.45 461.845L539.486 465.846C539.486 465.846 527.468 459.837 525.957 450.325C524.446 440.813 529.46 396.724 529.46 396.724C529.46 396.724 548.998 417.258 555.007 438.307C561.016 459.339 576.803 483.89 572.171 548.016C567.523 612.125 564.336 616.491 564.336 616.491Z" fill="#7367F0"/>
<path d="M586.331 621.388C586.331 621.388 633.359 590.064 643.8 550.092L629.707 546.257C629.707 546.257 647.751 540.347 648.083 534.388C648.399 528.412 653.81 506.965 653.81 506.965L640.049 506.682C640.049 506.682 651.021 504.475 654.325 497.154C657.612 489.833 663.239 453.297 663.239 453.297C663.239 453.297 643.037 465.531 633.608 481.135C624.179 496.739 606.118 513.024 595.81 565.579C585.485 618.135 586.331 621.388 586.331 621.388Z" fill="#7367F0"/>
<path d="M541.295 442.025C541.312 442.025 541.361 442.208 541.461 442.557C541.561 442.972 541.693 443.486 541.843 444.15C542.175 445.628 542.64 447.686 543.237 450.309C543.835 452.981 544.549 456.268 545.312 460.086C546.092 463.904 546.989 468.253 547.869 473.067C549.728 482.695 551.703 494.216 553.712 507.031C555.671 519.846 557.629 533.973 559.372 548.846C561.082 563.72 562.394 577.93 563.406 590.861C564.352 603.792 565.066 615.462 565.465 625.256C565.714 630.153 565.813 634.585 565.929 638.486C566.062 642.387 566.129 645.741 566.145 648.48C566.162 651.169 566.195 653.294 566.195 654.788C566.195 655.468 566.195 656.016 566.178 656.431C566.178 656.796 566.162 656.995 566.145 656.995C566.129 656.995 566.112 656.813 566.079 656.431C566.062 656.016 566.029 655.468 565.996 654.788C565.946 653.277 565.863 651.169 565.763 648.48C565.68 645.741 565.564 642.387 565.398 638.503C565.232 634.619 565.083 630.186 564.784 625.289C564.319 615.495 563.539 603.842 562.543 590.927C561.481 578.013 560.136 563.82 558.443 548.963C556.7 534.106 554.774 519.996 552.865 507.164C550.89 494.349 548.997 482.828 547.221 473.2C546.375 468.37 545.528 464.02 544.798 460.202C544.084 456.368 543.436 453.081 542.889 450.392C542.374 447.752 541.959 445.677 541.677 444.2C541.561 443.536 541.461 443.005 541.378 442.59C541.312 442.225 541.295 442.025 541.295 442.025Z" fill="#263238"/>
<path d="M558.31 648.296C558.31 648.296 518.586 603.227 506.252 575.987L515.565 572.003C508.809 573.115 501.903 570.21 496.674 565.811C491.445 561.412 487.594 555.618 483.826 549.908L496.093 547.833C484.938 544.696 475.111 537.093 469.301 527.083C483.776 529.457 496.873 537.408 507.663 547.352C516.395 555.403 523.799 564.732 530.903 574.277C534.373 578.925 537.411 583.888 539.934 589.117C546.59 602.928 558.327 631.746 558.31 648.296Z" fill="#7367F0"/>
<path d="M644.43 479.525C644.447 479.525 644.381 479.691 644.248 479.989C644.082 480.338 643.883 480.77 643.65 481.301C643.069 482.513 642.272 484.189 641.243 486.314C639.118 490.647 636.114 496.938 632.462 504.757C625.158 520.377 615.546 542.173 606.051 566.708C596.573 591.259 589.02 613.852 583.907 630.319C581.35 638.553 579.342 645.226 577.997 649.857C577.317 652.115 576.802 653.891 576.42 655.186C576.238 655.75 576.105 656.198 575.989 656.564C575.889 656.879 575.823 657.028 575.806 657.028C575.789 657.028 575.823 656.862 575.889 656.547C575.972 656.182 576.088 655.717 576.238 655.136C576.586 653.841 577.051 652.048 577.649 649.758C578.877 645.093 580.803 638.387 583.276 630.12C588.223 613.586 595.693 590.927 605.171 566.359C614.683 541.808 624.394 520.029 631.864 504.458C635.583 496.672 638.687 490.414 640.911 486.131C642.007 484.04 642.853 482.397 643.468 481.201C643.75 480.687 643.982 480.272 644.148 479.923C644.331 479.657 644.414 479.508 644.43 479.525Z" fill="#263238"/>
<path d="M561.68 667.619C561.647 667.619 561.581 667.336 561.481 666.789C561.365 666.141 561.249 665.344 561.083 664.398C560.767 662.323 560.253 659.319 559.522 655.633C558.808 651.948 557.779 647.599 556.468 642.802C555.123 638.021 553.48 632.825 551.471 627.463C549.429 622.101 547.238 617.121 545.08 612.639C542.889 608.191 540.781 604.24 538.889 601.003C536.996 597.749 535.419 595.16 534.274 593.4C533.759 592.587 533.344 591.906 532.995 591.342C532.713 590.86 532.58 590.611 532.597 590.595C532.63 590.578 532.813 590.794 533.145 591.242C533.543 591.773 534.008 592.421 534.572 593.201C535.817 594.911 537.494 597.45 539.453 600.671C541.428 603.875 543.603 607.809 545.844 612.274C548.052 616.756 550.276 621.769 552.335 627.148C554.36 632.543 555.986 637.788 557.298 642.602C558.559 647.433 559.522 651.815 560.17 655.534C560.817 659.252 561.249 662.273 561.448 664.365C561.531 665.328 561.614 666.125 561.68 666.789C561.713 667.32 561.713 667.602 561.68 667.619Z" fill="#263238"/>
<path d="M614.102 657.012H527.168V674.741H614.102V657.012Z" fill="#455A64"/>
<path d="M535.452 674.74L544.848 734.384H597.37L606.135 674.74H535.452Z" fill="#455A64"/>
<path d="M608.758 674.74C608.758 674.989 592.307 675.205 572.039 675.205C551.753 675.205 535.303 674.989 535.303 674.74C535.303 674.491 551.737 674.275 572.039 674.275C592.307 674.275 608.758 674.491 608.758 674.74Z" fill="#263238"/>
<path d="M211.625 238.879L214.043 217.492C222.323 214.082 229.814 208.432 235.464 200.638C251.737 178.272 246.792 146.954 224.426 130.68C202.06 114.407 170.741 119.352 154.468 141.719C138.195 164.085 143.14 195.403 165.506 211.676C174.851 218.464 185.746 221.55 196.459 221.215L196.424 221.224L211.625 238.879Z" fill="white"/>
<path d="M211.625 238.879C210.895 238.04 206.057 232.505 196.332 221.341L196.182 221.159L196.417 221.087L196.436 221.074L196.479 221.371C192.869 221.48 188.822 221.232 184.498 220.336C180.197 219.411 175.592 217.884 171.088 215.429C168.845 214.203 166.568 212.802 164.438 211.09C163.376 210.219 162.272 209.389 161.204 208.465C160.2 207.47 159.181 206.471 158.164 205.456C154.235 201.22 150.811 196.068 148.414 190.174C146.014 184.296 144.626 177.672 144.677 170.793C144.709 163.927 146.147 156.8 149.212 150.166C152.294 143.536 156.904 137.397 162.79 132.493C168.686 127.626 175.803 123.848 183.589 122.15L186.574 121.527C187.564 121.318 188.586 121.284 189.579 121.144C190.578 121.055 191.581 120.866 192.577 120.878L195.582 120.834C196.575 120.778 197.571 120.875 198.567 120.972C199.55 121.05 200.55 121.13 201.53 121.224C202.51 121.403 203.474 121.578 204.441 121.737C205.401 121.928 206.378 122.038 207.316 122.344C214.899 124.295 221.819 127.96 227.497 132.765C233.177 137.553 237.671 143.459 240.585 149.812C243.519 156.152 245.024 162.867 245.249 169.294C245.488 175.739 244.476 181.919 242.595 187.451C240.694 192.997 237.812 197.771 234.771 201.904C231.622 205.982 228.073 209.269 224.513 211.844C220.953 214.418 217.386 216.263 214.105 217.606L214.196 217.489C212.554 231.16 211.748 237.837 211.625 238.879C211.732 237.834 212.437 231.153 213.893 217.479L213.91 217.398L213.985 217.362C217.236 215.996 220.77 214.144 224.278 211.577C227.802 209.012 231.3 205.732 234.41 201.68C237.415 197.557 240.254 192.824 242.113 187.321C243.952 181.831 244.951 175.717 244.683 169.333C244.448 162.956 242.943 156.325 240.028 150.057C237.15 143.779 232.693 137.948 227.067 133.221C221.445 128.478 214.6 124.862 207.111 122.946C206.189 122.644 205.229 122.537 204.268 122.346C203.321 122.174 202.357 121.998 201.39 121.84C200.423 121.765 199.443 121.671 198.46 121.594C197.48 121.5 196.5 121.406 195.507 121.462L192.538 121.497C191.542 121.484 190.572 121.68 189.576 121.753C188.586 121.877 187.58 121.913 186.607 122.126L183.658 122.74C175.96 124.421 168.94 128.133 163.106 132.946C157.281 137.794 152.721 143.858 149.675 150.394C146.641 156.949 145.22 163.995 145.172 170.773C145.121 177.567 146.473 184.117 148.85 189.939C151.208 195.775 154.59 200.884 158.473 205.094C159.49 206.109 160.493 207.105 161.483 208.081C162.535 209.002 163.623 209.828 164.669 210.696C166.766 212.401 169.027 213.799 171.238 215.019C175.709 217.467 180.262 219.001 184.527 219.936C188.815 220.842 192.839 221.119 196.427 221.039L196.469 221.335L196.45 221.348L196.518 221.091C206.138 232.437 210.911 238.043 211.625 238.879Z" fill="#263238"/>
<path d="M181.039 182.63L183.099 179.754C184.341 178.022 185.015 175.947 185.03 173.817L185.074 167.327C185.111 162.027 189.041 157.654 194.136 156.919L194.157 153.819C194.163 153.029 194.807 152.393 195.597 152.399C196.387 152.404 197.023 153.049 197.017 153.839L196.996 156.889C202.262 157.545 206.321 162.043 206.274 167.483L206.227 174.212C206.212 176.522 206.966 178.778 208.384 180.607L210.118 182.849L181.039 182.63Z" fill="#7367F0"/>
<path d="M197.076 187.46C195.502 188.109 193.574 187.755 192.322 186.607C191.776 186.103 191.37 185.46 191.135 184.759L199.605 184.757C199.187 185.954 198.25 186.978 197.076 187.46Z" fill="#7367F0"/>
</svg>
