<svg width="42" height="55" viewBox="0 0 42 55" fill="none" xmlns="http://www.w3.org/2000/svg">
<path d="M14.3135 0.421875H17.4899V6.77482H14.3135V0.421875Z" fill="#4B4B4B"/>
<path d="M20.6597 6.94385L25.1512 2.45232L27.397 4.69808L22.9054 9.18961L20.6597 6.94385Z" fill="#4B4B4B"/>
<path d="M4.40088 4.69629L6.64664 2.45052L11.1382 6.94205L8.89241 9.18782L4.40088 4.69629Z" fill="#4B4B4B"/>
<path d="M40.3833 30.8711C39.1431 29.6308 37.1326 29.6306 35.8919 30.8701L37.0142 29.7479C38.2547 28.5075 38.2547 26.4962 37.0142 25.2557C35.774 24.0154 33.7633 24.0152 32.5228 25.2549L33.6451 24.1325C34.8855 22.8921 34.8855 20.8809 33.6451 19.6404C32.4049 18.4001 30.3943 18.3998 29.1538 19.6394L38.1372 10.656C39.3777 9.41562 39.3777 7.40438 38.1372 6.16387C36.8967 4.92324 34.8854 4.92324 33.645 6.16387L13.4961 26.3458C13.4961 26.3458 6.9075 14.9655 1.14252 20.7306L0.0195312 21.8536L3.763 25.5971C7.27766 29.1118 7.27766 34.8103 3.763 38.325L2.26551 39.8224L16.8653 54.4221L20.2345 51.0529L26.0116 48.5771C27.3884 47.987 28.64 47.1397 29.6991 46.0805L40.3833 35.3633C41.6238 34.1227 41.6238 32.1116 40.3833 30.8711Z" fill="#4B4B4B"/>
</svg>
