<svg width="101" height="101" viewBox="0 0 101 101" fill="none" xmlns="http://www.w3.org/2000/svg">
<rect x="0.5" y="0.5" width="100" height="100" rx="13.3333" fill="#7367F0"/>
<g clip-path="url(#clip0_185_1660)">
<path d="M50.5 26.5C37.2451 26.5 26.5 37.2451 26.5 50.5C26.5 63.7547 37.2451 74.4999 50.5 74.4999C63.7547 74.4999 74.4999 63.7547 74.4999 50.5C74.4858 37.2511 63.7489 26.5142 50.5 26.5ZM60.6073 51.2646C60.4411 51.5979 60.171 51.8681 59.8376 52.0343V52.0428L46.1234 58.9C45.2764 59.3232 44.2469 58.9797 43.8236 58.1328C43.7032 57.892 43.6413 57.6262 43.6428 57.3571V43.6429C43.6424 42.6961 44.4095 41.9283 45.3563 41.9278C45.6226 41.9277 45.8852 41.9895 46.1234 42.1086L59.8376 48.9657C60.685 49.388 61.0296 50.4173 60.6073 51.2646Z" fill="white"/>
</g>
<defs>
<clipPath id="clip0_185_1660">
<rect width="48" height="48" fill="white" transform="translate(26.5 26.5)"/>
</clipPath>
</defs>
</svg>
