<svg width="54" height="55" viewBox="0 0 54 55" fill="none" xmlns="http://www.w3.org/2000/svg">
<path fill-rule="evenodd" clip-rule="evenodd" d="M53.1558 27.2622C53.1558 34.2483 50.4351 40.8163 45.4949 45.7566C40.5537 50.6978 33.9857 53.419 27.0005 53.419C26.1268 53.419 25.4185 52.7107 25.4185 51.837C25.4185 50.9633 26.1268 50.2549 27.0005 50.2549C33.1405 50.2549 38.914 47.8628 43.2575 43.5193C52.2216 34.5551 52.2216 19.9694 43.2575 11.0052C34.2925 2.04023 19.7054 2.04033 10.7405 11.0052C10.6717 11.0739 10.6041 11.1438 10.5362 11.2135H12.5337C13.4074 11.2135 14.1157 11.9218 14.1157 12.7955C14.1157 13.6692 13.4074 14.3775 12.5337 14.3775H6.71284C5.83913 14.3775 5.1308 13.6692 5.1308 12.7955V6.97469C5.1308 6.10098 5.83913 5.39266 6.71284 5.39266C7.58654 5.39266 8.29487 6.10098 8.29487 6.97469V8.98018C8.36416 8.9093 8.43303 8.8379 8.50306 8.76787C13.4434 3.82771 20.012 1.10693 26.9991 1.10693C33.9862 1.10693 40.5547 3.82761 45.495 8.76787C50.4352 13.7081 53.1559 20.2761 53.1559 27.2622H53.1558ZM10.5511 27.2622C10.5511 18.1919 17.9303 10.8128 27.0005 10.8128C36.0707 10.8128 43.4499 18.1919 43.4499 27.2622C43.4499 36.3325 36.0708 43.7117 27.0005 43.7117C17.9302 43.7117 10.5511 36.3325 10.5511 27.2622ZM25.4185 27.2622C25.4185 27.8273 25.7199 28.3496 26.2093 28.6322L31.5667 31.7264C31.8159 31.8704 32.0879 31.9387 32.3564 31.9387C32.903 31.9387 33.4348 31.655 33.7278 31.1477C34.1648 30.3911 33.9057 29.4235 33.1491 28.9865L28.5825 26.3491V18.9152C28.5825 18.0415 27.8742 17.3332 27.0005 17.3332C26.1268 17.3332 25.4185 18.0415 25.4185 18.9152V27.2623V27.2622ZM4.00725 27.2622C4.00725 26.3922 3.29871 25.6807 2.42574 25.6807C1.55278 25.6807 0.844238 26.3922 0.844238 27.2622C0.844238 28.1322 1.55573 28.8437 2.42574 28.8437C3.29575 28.8437 4.00725 28.1322 4.00725 27.2622ZM21.0481 49.4692C20.205 49.245 19.3381 49.7443 19.1109 50.5903C18.8867 51.4335 19.386 52.3004 20.229 52.5276C21.075 52.7518 21.942 52.2525 22.1662 51.4065C22.3934 50.5633 21.8942 49.6964 21.0481 49.4692ZM15.5053 47.1732C14.746 46.7366 13.7803 46.9968 13.3439 47.7531C12.9073 48.5095 13.1645 49.4782 13.9209 49.9146C14.6773 50.351 15.6459 50.0909 16.0824 49.3346C16.5189 48.5782 16.2618 47.6096 15.5053 47.1732ZM8.5037 43.5198C7.88786 44.1387 7.88786 45.1402 8.5037 45.7561C9.12259 46.375 10.1241 46.375 10.7429 45.7561C11.3587 45.1402 11.3587 44.1387 10.7429 43.5198C10.124 42.9009 9.12248 42.9009 8.5037 43.5198ZM4.92809 38.1804C4.17167 38.6168 3.91159 39.5825 4.34812 40.3389C4.78455 41.0953 5.75328 41.3554 6.5096 40.9189C7.26602 40.4824 7.52611 39.5137 7.08957 38.7574C6.65314 38.001 5.68441 37.7409 4.92809 38.1804ZM4.79056 33.2116C4.56634 32.3685 3.69938 31.8693 2.85331 32.0935C2.0102 32.3207 1.50795 33.1878 1.73513 34.0308C1.96231 34.8769 2.82937 35.3762 3.67238 35.1519C4.5155 34.9248 5.01785 34.0577 4.79056 33.2116ZM2.85331 22.431C3.69938 22.6553 4.56634 22.156 4.79056 21.313C5.01774 20.4669 4.5155 19.5999 3.67249 19.3726C2.82937 19.1484 1.96242 19.6477 1.73524 20.4938C1.50806 21.3369 2.0103 22.2038 2.85342 22.431H2.85331Z" fill="#4B4B4B"/>
</svg>
